<svg width="163" height="45" viewBox="0 0 163 45" fill="none" xmlns="http://www.w3.org/2000/svg">
<rect width="163" height="45" rx="4" fill="black"/>
<path fill-rule="evenodd" clip-rule="evenodd" d="M28.0625 14.3517C28.8832 13.3813 29.295 12.3329 29.295 11.21V11.21C29.295 11.0611 29.288 10.911 29.2713 10.7609C28.6996 10.7904 28.0917 10.963 27.449 11.275C26.805 11.5918 26.2739 11.9889 25.8563 12.4665C25.0198 13.4097 24.5488 14.5633 24.5488 15.6412C24.5488 15.7902 24.5584 15.932 24.575 16.0667C25.8741 16.1719 27.0721 15.5052 28.0625 14.3517ZM32.4318 30.4279C32.8992 29.764 33.3026 29.042 33.6435 28.2576C33.784 27.925 33.9161 27.5785 34.0413 27.2168C33.464 26.9757 32.9451 26.6361 32.4805 26.1968C31.4553 25.2503 30.9337 24.0581 30.9184 22.6256C30.9017 20.7864 31.7405 19.3527 33.4362 18.3291C32.4889 16.9876 31.0644 16.2429 29.1684 16.0905C28.4687 16.0313 27.6146 16.1816 26.6026 16.5444C25.5324 16.9356 24.9012 17.1318 24.7149 17.1318C24.4658 17.1318 23.8975 16.964 23.0125 16.6331C22.125 16.3032 21.4109 16.1354 20.8663 16.1354C19.8709 16.1519 18.9467 16.4097 18.0914 16.9155C17.236 17.4214 16.5526 18.1104 16.0388 18.9839C15.3852 20.0714 15.0588 21.3691 15.0588 22.8738C15.0588 24.1873 15.3009 25.5441 15.7837 26.9452C16.2346 28.2424 16.81 29.3802 17.51 30.3614C18.1624 31.2802 18.707 31.9288 19.1424 32.3071C19.8246 32.9391 20.5081 33.2398 21.1937 33.2107C21.6446 33.1955 22.2342 33.0416 22.9662 32.7464C23.6971 32.4526 24.3804 32.3071 25.0175 32.3071C25.6249 32.3071 26.2893 32.4526 27.0123 32.7464C27.7328 33.0416 28.3518 33.1871 28.8652 33.1871C29.5802 33.1705 30.2479 32.8781 30.8711 32.3071C31.2731 31.9593 31.7947 31.3328 32.4318 30.4279Z" fill="white"/>
<path d="M54.9214 33.6431C54.8254 33.6431 54.7414 33.6071 54.6694 33.5351C54.5974 33.4631 54.5614 33.3791 54.5614 33.2831C54.5614 33.2231 54.5674 33.1571 54.5794 33.0851L59.0434 21.4391C59.0914 21.3191 59.1574 21.2231 59.2414 21.1511C59.3254 21.0791 59.4514 21.0431 59.6194 21.0431H60.8434C60.9994 21.0431 61.1194 21.0791 61.2034 21.1511C61.2994 21.2231 61.3714 21.3191 61.4194 21.4391L65.8654 33.0851C65.8894 33.1571 65.9014 33.2231 65.9014 33.2831C65.9014 33.3791 65.8654 33.4631 65.7934 33.5351C65.7214 33.6071 65.6374 33.6431 65.5414 33.6431H64.6234C64.4794 33.6431 64.3714 33.6071 64.2994 33.5351C64.2394 33.4631 64.1974 33.3971 64.1734 33.3371L63.1834 30.7811H57.2794L56.2894 33.3371C56.2774 33.3971 56.2354 33.4631 56.1634 33.5351C56.0914 33.6071 55.9834 33.6431 55.8394 33.6431H54.9214ZM57.8014 29.2331H62.6614L60.2314 22.8431L57.8014 29.2331ZM68.024 37.0631C67.904 37.0631 67.802 37.0211 67.718 36.9371C67.646 36.8651 67.61 36.7691 67.61 36.6491V24.6971C67.61 24.5771 67.646 24.4811 67.718 24.4091C67.802 24.3251 67.904 24.2831 68.024 24.2831H68.852C68.972 24.2831 69.068 24.3251 69.14 24.4091C69.224 24.4811 69.266 24.5771 69.266 24.6971V25.4891C69.554 25.0931 69.938 24.7631 70.418 24.4991C70.898 24.2351 71.498 24.1031 72.218 24.1031C72.89 24.1031 73.46 24.2171 73.928 24.4451C74.408 24.6731 74.798 24.9851 75.098 25.3811C75.41 25.7771 75.644 26.2271 75.8 26.7311C75.956 27.2351 76.04 27.7751 76.052 28.3511C76.064 28.5431 76.07 28.7471 76.07 28.9631C76.07 29.1791 76.064 29.3831 76.052 29.5751C76.04 30.1391 75.956 30.6791 75.8 31.1951C75.644 31.6991 75.41 32.1491 75.098 32.5451C74.798 32.9291 74.408 33.2411 73.928 33.4811C73.46 33.7091 72.89 33.8231 72.218 33.8231C71.522 33.8231 70.934 33.6971 70.454 33.4451C69.986 33.1811 69.602 32.8571 69.302 32.4731V36.6491C69.302 36.7691 69.266 36.8651 69.194 36.9371C69.122 37.0211 69.02 37.0631 68.888 37.0631H68.024ZM71.84 32.3651C72.464 32.3651 72.95 32.2331 73.298 31.9691C73.658 31.6931 73.916 31.3391 74.072 30.9071C74.228 30.4631 74.318 29.9891 74.342 29.4851C74.354 29.1371 74.354 28.7891 74.342 28.4411C74.318 27.9371 74.228 27.4691 74.072 27.0371C73.916 26.5931 73.658 26.2391 73.298 25.9751C72.95 25.6991 72.464 25.5611 71.84 25.5611C71.252 25.5611 70.772 25.6991 70.4 25.9751C70.04 26.2511 69.77 26.6051 69.59 27.0371C69.422 27.4571 69.326 27.8891 69.302 28.3331C69.29 28.5251 69.284 28.7531 69.284 29.0171C69.284 29.2811 69.29 29.5151 69.302 29.7191C69.314 30.1391 69.41 30.5531 69.59 30.9611C69.782 31.3691 70.064 31.7051 70.436 31.9691C70.808 32.2331 71.276 32.3651 71.84 32.3651ZM78.7467 37.0631C78.6267 37.0631 78.5247 37.0211 78.4407 36.9371C78.3687 36.8651 78.3327 36.7691 78.3327 36.6491V24.6971C78.3327 24.5771 78.3687 24.4811 78.4407 24.4091C78.5247 24.3251 78.6267 24.2831 78.7467 24.2831H79.5747C79.6947 24.2831 79.7907 24.3251 79.8627 24.4091C79.9467 24.4811 79.9887 24.5771 79.9887 24.6971V25.4891C80.2767 25.0931 80.6607 24.7631 81.1407 24.4991C81.6207 24.2351 82.2207 24.1031 82.9407 24.1031C83.6127 24.1031 84.1827 24.2171 84.6507 24.4451C85.1307 24.6731 85.5207 24.9851 85.8207 25.3811C86.1327 25.7771 86.3667 26.2271 86.5227 26.7311C86.6787 27.2351 86.7627 27.7751 86.7747 28.3511C86.7867 28.5431 86.7927 28.7471 86.7927 28.9631C86.7927 29.1791 86.7867 29.3831 86.7747 29.5751C86.7627 30.1391 86.6787 30.6791 86.5227 31.1951C86.3667 31.6991 86.1327 32.1491 85.8207 32.5451C85.5207 32.9291 85.1307 33.2411 84.6507 33.4811C84.1827 33.7091 83.6127 33.8231 82.9407 33.8231C82.2447 33.8231 81.6567 33.6971 81.1767 33.4451C80.7087 33.1811 80.3247 32.8571 80.0247 32.4731V36.6491C80.0247 36.7691 79.9887 36.8651 79.9167 36.9371C79.8447 37.0211 79.7427 37.0631 79.6107 37.0631H78.7467ZM82.5627 32.3651C83.1867 32.3651 83.6727 32.2331 84.0207 31.9691C84.3807 31.6931 84.6387 31.3391 84.7947 30.9071C84.9507 30.4631 85.0407 29.9891 85.0647 29.4851C85.0767 29.1371 85.0767 28.7891 85.0647 28.4411C85.0407 27.9371 84.9507 27.4691 84.7947 27.0371C84.6387 26.5931 84.3807 26.2391 84.0207 25.9751C83.6727 25.6991 83.1867 25.5611 82.5627 25.5611C81.9747 25.5611 81.4947 25.6991 81.1227 25.9751C80.7627 26.2511 80.4927 26.6051 80.3127 27.0371C80.1447 27.4571 80.0487 27.8891 80.0247 28.3331C80.0127 28.5251 80.0067 28.7531 80.0067 29.0171C80.0067 29.2811 80.0127 29.5151 80.0247 29.7191C80.0367 30.1391 80.1327 30.5531 80.3127 30.9611C80.5047 31.3691 80.7867 31.7051 81.1587 31.9691C81.5307 32.2331 81.9987 32.3651 82.5627 32.3651ZM97.7334 33.8231C96.6894 33.8231 95.8134 33.6671 95.1054 33.3551C94.3974 33.0311 93.8514 32.6171 93.4674 32.1131C93.0954 31.5971 92.8974 31.0511 92.8734 30.4751C92.8734 30.3791 92.9094 30.2951 92.9814 30.2231C93.0654 30.1391 93.1614 30.0971 93.2694 30.0971H94.1874C94.3314 30.0971 94.4394 30.1331 94.5114 30.2051C94.5834 30.2771 94.6314 30.3611 94.6554 30.4571C94.7154 30.7451 94.8594 31.0331 95.0874 31.3211C95.3274 31.5971 95.6574 31.8311 96.0774 32.0231C96.5094 32.2031 97.0614 32.2931 97.7334 32.2931C98.7654 32.2931 99.5214 32.1131 100.001 31.7531C100.493 31.3811 100.739 30.8891 100.739 30.2771C100.739 29.8571 100.607 29.5211 100.343 29.2691C100.091 29.0051 99.7014 28.7711 99.1734 28.5671C98.6454 28.3631 97.9614 28.1411 97.1214 27.9011C96.2454 27.6491 95.5194 27.3731 94.9434 27.0731C94.3674 26.7731 93.9354 26.4011 93.6474 25.9571C93.3714 25.5131 93.2334 24.9491 93.2334 24.2651C93.2334 23.6171 93.4074 23.0411 93.7554 22.5371C94.1034 22.0211 94.6014 21.6131 95.2494 21.3131C95.9094 21.0131 96.7074 20.8631 97.6434 20.8631C98.3874 20.8631 99.0354 20.9651 99.5874 21.1691C100.151 21.3611 100.619 21.6251 100.991 21.9611C101.363 22.2851 101.645 22.6391 101.837 23.0231C102.029 23.3951 102.131 23.7611 102.143 24.1211C102.143 24.2051 102.113 24.2891 102.053 24.3731C101.993 24.4451 101.897 24.4811 101.765 24.4811H100.811C100.727 24.4811 100.637 24.4571 100.541 24.4091C100.457 24.3611 100.391 24.2711 100.343 24.1391C100.271 23.6471 99.9954 23.2331 99.5154 22.8971C99.0354 22.5611 98.4114 22.3931 97.6434 22.3931C96.8634 22.3931 96.2274 22.5431 95.7354 22.8431C95.2554 23.1431 95.0154 23.6111 95.0154 24.2471C95.0154 24.6551 95.1294 24.9971 95.3574 25.2731C95.5854 25.5371 95.9454 25.7711 96.4374 25.9751C96.9294 26.1791 97.5714 26.3951 98.3634 26.6231C99.3234 26.8871 100.109 27.1691 100.721 27.4691C101.333 27.7571 101.783 28.1231 102.071 28.5671C102.371 28.9991 102.521 29.5571 102.521 30.2411C102.521 30.9971 102.323 31.6451 101.927 32.1851C101.531 32.7131 100.973 33.1211 100.253 33.4091C99.5454 33.6851 98.7054 33.8231 97.7334 33.8231ZM108.301 33.6431C107.629 33.6431 107.083 33.5171 106.663 33.2651C106.243 33.0011 105.937 32.6351 105.745 32.1671C105.553 31.6871 105.457 31.1231 105.457 30.4751V25.7231H104.053C103.933 25.7231 103.831 25.6871 103.747 25.6151C103.675 25.5311 103.639 25.4291 103.639 25.3091V24.6971C103.639 24.5771 103.675 24.4811 103.747 24.4091C103.831 24.3251 103.933 24.2831 104.053 24.2831H105.457V21.2771C105.457 21.1571 105.493 21.0611 105.565 20.9891C105.649 20.9051 105.751 20.8631 105.871 20.8631H106.717C106.837 20.8631 106.933 20.9051 107.005 20.9891C107.089 21.0611 107.131 21.1571 107.131 21.2771V24.2831H109.363C109.483 24.2831 109.579 24.3251 109.651 24.4091C109.735 24.4811 109.777 24.5771 109.777 24.6971V25.3091C109.777 25.4291 109.735 25.5311 109.651 25.6151C109.579 25.6871 109.483 25.7231 109.363 25.7231H107.131V30.3491C107.131 30.9131 107.227 31.3571 107.419 31.6811C107.611 32.0051 107.953 32.1671 108.445 32.1671H109.543C109.663 32.1671 109.759 32.2091 109.831 32.2931C109.915 32.3651 109.957 32.4611 109.957 32.5811V33.2291C109.957 33.3491 109.915 33.4511 109.831 33.5351C109.759 33.6071 109.663 33.6431 109.543 33.6431H108.301ZM115.512 33.8231C114.6 33.8231 113.838 33.6491 113.226 33.3011C112.614 32.9531 112.146 32.4731 111.822 31.8611C111.498 31.2371 111.318 30.5291 111.282 29.7371C111.27 29.5331 111.264 29.2751 111.264 28.9631C111.264 28.6391 111.27 28.3811 111.282 28.1891C111.318 27.3851 111.498 26.6771 111.822 26.0651C112.158 25.4531 112.632 24.9731 113.244 24.6251C113.856 24.2771 114.612 24.1031 115.512 24.1031C116.412 24.1031 117.168 24.2771 117.78 24.6251C118.392 24.9731 118.86 25.4531 119.184 26.0651C119.52 26.6771 119.706 27.3851 119.742 28.1891C119.754 28.3811 119.76 28.6391 119.76 28.9631C119.76 29.2751 119.754 29.5331 119.742 29.7371C119.706 30.5291 119.526 31.2371 119.202 31.8611C118.878 32.4731 118.41 32.9531 117.798 33.3011C117.186 33.6491 116.424 33.8231 115.512 33.8231ZM115.512 32.4371C116.256 32.4371 116.85 32.2031 117.294 31.7351C117.738 31.2551 117.978 30.5591 118.014 29.6471C118.026 29.4671 118.032 29.2391 118.032 28.9631C118.032 28.6871 118.026 28.4591 118.014 28.2791C117.978 27.3671 117.738 26.6771 117.294 26.2091C116.85 25.7291 116.256 25.4891 115.512 25.4891C114.768 25.4891 114.168 25.7291 113.712 26.2091C113.268 26.6771 113.034 27.3671 113.01 28.2791C112.998 28.4591 112.992 28.6871 112.992 28.9631C112.992 29.2391 112.998 29.4671 113.01 29.6471C113.034 30.5591 113.268 31.2551 113.712 31.7351C114.168 32.2031 114.768 32.4371 115.512 32.4371ZM122.428 33.6431C122.308 33.6431 122.206 33.6071 122.122 33.5351C122.05 33.4511 122.014 33.3491 122.014 33.2291V24.7151C122.014 24.5951 122.05 24.4931 122.122 24.4091C122.206 24.3251 122.308 24.2831 122.428 24.2831H123.256C123.376 24.2831 123.478 24.3251 123.562 24.4091C123.646 24.4931 123.688 24.5951 123.688 24.7151V25.5071C123.928 25.0991 124.258 24.7931 124.678 24.5891C125.098 24.3851 125.602 24.2831 126.19 24.2831H126.91C127.03 24.2831 127.126 24.3251 127.198 24.4091C127.27 24.4811 127.306 24.5771 127.306 24.6971V25.4351C127.306 25.5551 127.27 25.6511 127.198 25.7231C127.126 25.7951 127.03 25.8311 126.91 25.8311H125.83C125.182 25.8311 124.672 26.0231 124.3 26.4071C123.928 26.7791 123.742 27.2891 123.742 27.9371V33.2291C123.742 33.3491 123.7 33.4511 123.616 33.5351C123.532 33.6071 123.43 33.6431 123.31 33.6431H122.428ZM132.402 33.8231C131.166 33.8231 130.182 33.4451 129.45 32.6891C128.718 31.9211 128.316 30.8771 128.244 29.5571C128.232 29.4011 128.226 29.2031 128.226 28.9631C128.226 28.7111 128.232 28.5071 128.244 28.3511C128.292 27.4991 128.49 26.7551 128.838 26.1191C129.186 25.4711 129.66 24.9731 130.26 24.6251C130.872 24.2771 131.586 24.1031 132.402 24.1031C133.314 24.1031 134.076 24.2951 134.688 24.6791C135.312 25.0631 135.786 25.6091 136.11 26.3171C136.434 27.0251 136.596 27.8531 136.596 28.8011V29.1071C136.596 29.2391 136.554 29.3411 136.47 29.4131C136.398 29.4851 136.302 29.5211 136.182 29.5211H129.954C129.954 29.5331 129.954 29.5571 129.954 29.5931C129.954 29.6291 129.954 29.6591 129.954 29.6831C129.978 30.1751 130.086 30.6371 130.278 31.0691C130.47 31.4891 130.746 31.8311 131.106 32.0951C131.466 32.3591 131.898 32.4911 132.402 32.4911C132.834 32.4911 133.194 32.4251 133.482 32.2931C133.77 32.1611 134.004 32.0171 134.184 31.8611C134.364 31.6931 134.484 31.5671 134.544 31.4831C134.652 31.3271 134.736 31.2371 134.796 31.2131C134.856 31.1771 134.952 31.1591 135.084 31.1591H135.948C136.068 31.1591 136.164 31.1951 136.236 31.2671C136.32 31.3271 136.356 31.4171 136.344 31.5371C136.332 31.7171 136.236 31.9391 136.056 32.2031C135.876 32.4551 135.618 32.7071 135.282 32.9591C134.946 33.2111 134.538 33.4211 134.058 33.5891C133.578 33.7451 133.026 33.8231 132.402 33.8231ZM129.954 28.2791H134.886V28.2251C134.886 27.6851 134.784 27.2051 134.58 26.7851C134.388 26.3651 134.106 26.0351 133.734 25.7951C133.362 25.5431 132.918 25.4171 132.402 25.4171C131.886 25.4171 131.442 25.5431 131.07 25.7951C130.71 26.0351 130.434 26.3651 130.242 26.7851C130.05 27.2051 129.954 27.6851 129.954 28.2251V28.2791Z" fill="white"/>
<path d="M55.2568 16.6431C55.2141 16.6431 55.1741 16.6271 55.1368 16.5951C55.1048 16.5631 55.0888 16.5231 55.0888 16.4751C55.0888 16.4538 55.0941 16.4298 55.1048 16.4031L57.0328 11.2431C57.0488 11.1898 57.0781 11.1445 57.1208 11.1071C57.1688 11.0645 57.2328 11.0431 57.3128 11.0431H58.1848C58.2648 11.0431 58.3261 11.0645 58.3688 11.1071C58.4115 11.1445 58.4435 11.1898 58.4648 11.2431L60.3928 16.4031C60.3981 16.4298 60.4008 16.4538 60.4008 16.4751C60.4008 16.5231 60.3848 16.5631 60.3528 16.5951C60.3208 16.6271 60.2835 16.6431 60.2408 16.6431H59.5448C59.4701 16.6431 59.4141 16.6271 59.3768 16.5951C59.3448 16.5578 59.3235 16.5231 59.3128 16.4911L58.9368 15.5151H56.5608L56.1848 16.4911C56.1741 16.5231 56.1501 16.5578 56.1128 16.5951C56.0808 16.6271 56.0275 16.6431 55.9528 16.6431H55.2568ZM56.8408 14.5951H58.6568L57.7448 12.1231L56.8408 14.5951ZM62.9656 16.6431C62.8803 16.6431 62.8136 16.6218 62.7656 16.5791C62.7176 16.5365 62.683 16.4831 62.6616 16.4191L60.9496 11.2831C60.939 11.2565 60.9336 11.2325 60.9336 11.2111C60.9336 11.1631 60.9496 11.1231 60.9816 11.0911C61.0136 11.0591 61.0536 11.0431 61.1016 11.0431H61.8056C61.8803 11.0431 61.9363 11.0645 61.9736 11.1071C62.0163 11.1445 62.043 11.1818 62.0536 11.2191L63.4056 15.3391L64.7496 11.2191C64.7656 11.1818 64.7923 11.1445 64.8296 11.1071C64.8723 11.0645 64.931 11.0431 65.0056 11.0431H65.7096C65.7523 11.0431 65.7896 11.0591 65.8216 11.0911C65.859 11.1231 65.8776 11.1631 65.8776 11.2111C65.8776 11.2325 65.8723 11.2565 65.8616 11.2831L64.1496 16.4191C64.1283 16.4831 64.0936 16.5365 64.0456 16.5791C63.9976 16.6218 63.931 16.6431 63.8456 16.6431H62.9656ZM66.5662 16.6431C66.5235 16.6431 66.4835 16.6271 66.4462 16.5951C66.4142 16.5631 66.3982 16.5231 66.3982 16.4751C66.3982 16.4538 66.4035 16.4298 66.4142 16.4031L68.3422 11.2431C68.3582 11.1898 68.3875 11.1445 68.4302 11.1071C68.4782 11.0645 68.5422 11.0431 68.6222 11.0431H69.4942C69.5742 11.0431 69.6355 11.0645 69.6782 11.1071C69.7208 11.1445 69.7528 11.1898 69.7742 11.2431L71.7022 16.4031C71.7075 16.4298 71.7102 16.4538 71.7102 16.4751C71.7102 16.5231 71.6942 16.5631 71.6622 16.5951C71.6302 16.6271 71.5928 16.6431 71.5502 16.6431H70.8542C70.7795 16.6431 70.7235 16.6271 70.6862 16.5951C70.6542 16.5578 70.6328 16.5231 70.6222 16.4911L70.2462 15.5151H67.8702L67.4942 16.4911C67.4835 16.5231 67.4595 16.5578 67.4222 16.5951C67.3902 16.6271 67.3368 16.6431 67.2622 16.6431H66.5662ZM68.1502 14.5951H69.9662L69.0542 12.1231L68.1502 14.5951ZM73.2491 16.6431C73.1957 16.6431 73.1504 16.6245 73.1131 16.5871C73.0757 16.5498 73.0571 16.5045 73.0571 16.4511V11.2351C73.0571 11.1818 73.0757 11.1365 73.1131 11.0991C73.1504 11.0618 73.1957 11.0431 73.2491 11.0431H74.0011C74.0597 11.0431 74.1051 11.0618 74.1371 11.0991C74.1744 11.1365 74.1931 11.1818 74.1931 11.2351V16.4511C74.1931 16.5045 74.1744 16.5498 74.1371 16.5871C74.1051 16.6245 74.0597 16.6431 74.0011 16.6431H73.2491ZM76.2397 16.6431C76.1863 16.6431 76.141 16.6245 76.1037 16.5871C76.0663 16.5498 76.0477 16.5045 76.0477 16.4511V11.2351C76.0477 11.1818 76.0663 11.1365 76.1037 11.0991C76.141 11.0618 76.1863 11.0431 76.2397 11.0431H76.9837C77.037 11.0431 77.0823 11.0618 77.1197 11.0991C77.157 11.1365 77.1757 11.1818 77.1757 11.2351V15.6911H79.7117C79.7703 15.6911 79.8183 15.7098 79.8557 15.7471C79.893 15.7845 79.9117 15.8325 79.9117 15.8911V16.4511C79.9117 16.5045 79.893 16.5498 79.8557 16.5871C79.8183 16.6245 79.7703 16.6431 79.7117 16.6431H76.2397ZM80.9443 16.6431C80.9016 16.6431 80.8616 16.6271 80.8243 16.5951C80.7923 16.5631 80.7763 16.5231 80.7763 16.4751C80.7763 16.4538 80.7816 16.4298 80.7923 16.4031L82.7203 11.2431C82.7363 11.1898 82.7656 11.1445 82.8083 11.1071C82.8563 11.0645 82.9203 11.0431 83.0003 11.0431H83.8723C83.9523 11.0431 84.0136 11.0645 84.0563 11.1071C84.099 11.1445 84.131 11.1898 84.1523 11.2431L86.0803 16.4031C86.0856 16.4298 86.0883 16.4538 86.0883 16.4751C86.0883 16.5231 86.0723 16.5631 86.0403 16.5951C86.0083 16.6271 85.971 16.6431 85.9283 16.6431H85.2323C85.1576 16.6431 85.1016 16.6271 85.0643 16.5951C85.0323 16.5578 85.011 16.5231 85.0003 16.4911L84.6243 15.5151H82.2483L81.8723 16.4911C81.8616 16.5231 81.8376 16.5578 81.8003 16.5951C81.7683 16.6271 81.715 16.6431 81.6403 16.6431H80.9443ZM82.5283 14.5951H84.3443L83.4323 12.1231L82.5283 14.5951ZM87.6272 16.6431C87.5738 16.6431 87.5285 16.6245 87.4912 16.5871C87.4538 16.5498 87.4352 16.5045 87.4352 16.4511V11.2431C87.4352 11.1845 87.4538 11.1365 87.4912 11.0991C87.5285 11.0618 87.5738 11.0431 87.6272 11.0431H89.9472C90.3792 11.0431 90.7312 11.1098 91.0032 11.2431C91.2752 11.3711 91.4752 11.5498 91.6032 11.7791C91.7365 12.0085 91.8032 12.2751 91.8032 12.5791C91.8032 12.7818 91.7658 12.9605 91.6912 13.1151C91.6218 13.2645 91.5338 13.3871 91.4272 13.4831C91.3258 13.5791 91.2245 13.6538 91.1232 13.7071C91.3312 13.8031 91.5152 13.9631 91.6752 14.1871C91.8352 14.4111 91.9152 14.6778 91.9152 14.9871C91.9152 15.3071 91.8432 15.5925 91.6992 15.8431C91.5552 16.0938 91.3418 16.2911 91.0592 16.4351C90.7765 16.5738 90.4272 16.6431 90.0112 16.6431H87.6272ZM88.5472 15.7951H89.8832C90.1712 15.7951 90.3898 15.7178 90.5392 15.5631C90.6885 15.4031 90.7632 15.2111 90.7632 14.9871C90.7632 14.7525 90.6858 14.5578 90.5312 14.4031C90.3818 14.2485 90.1658 14.1711 89.8832 14.1711H88.5472V15.7951ZM88.5472 13.3391H89.8032C90.0858 13.3391 90.2965 13.2725 90.4352 13.1391C90.5792 13.0005 90.6512 12.8218 90.6512 12.6031C90.6512 12.3791 90.5792 12.2058 90.4352 12.0831C90.2965 11.9551 90.0858 11.8911 89.8032 11.8911H88.5472V13.3391ZM93.7116 16.6431C93.6582 16.6431 93.6129 16.6245 93.5756 16.5871C93.5382 16.5498 93.5196 16.5045 93.5196 16.4511V11.2351C93.5196 11.1818 93.5382 11.1365 93.5756 11.0991C93.6129 11.0618 93.6582 11.0431 93.7116 11.0431H94.4556C94.5089 11.0431 94.5542 11.0618 94.5916 11.0991C94.6289 11.1365 94.6476 11.1818 94.6476 11.2351V15.6911H97.1836C97.2422 15.6911 97.2902 15.7098 97.3276 15.7471C97.3649 15.7845 97.3836 15.8325 97.3836 15.8911V16.4511C97.3836 16.5045 97.3649 16.5498 97.3276 16.5871C97.2902 16.6245 97.2422 16.6431 97.1836 16.6431H93.7116ZM98.9522 16.6431C98.8988 16.6431 98.8535 16.6245 98.8162 16.5871C98.7788 16.5498 98.7602 16.5045 98.7602 16.4511V11.2431C98.7602 11.1845 98.7788 11.1365 98.8162 11.0991C98.8535 11.0618 98.8988 11.0431 98.9522 11.0431H102.472C102.531 11.0431 102.579 11.0618 102.616 11.0991C102.654 11.1365 102.672 11.1845 102.672 11.2431V11.7711C102.672 11.8245 102.654 11.8698 102.616 11.9071C102.579 11.9445 102.531 11.9631 102.472 11.9631H99.8402V13.3791H102.296C102.355 13.3791 102.403 13.3978 102.44 13.4351C102.478 13.4671 102.496 13.5125 102.496 13.5711V14.0671C102.496 14.1258 102.478 14.1738 102.44 14.2111C102.403 14.2431 102.355 14.2591 102.296 14.2591H99.8402V15.7231H102.536C102.595 15.7231 102.643 15.7418 102.68 15.7791C102.718 15.8165 102.736 15.8645 102.736 15.9231V16.4511C102.736 16.5045 102.718 16.5498 102.68 16.5871C102.643 16.6245 102.595 16.6431 102.536 16.6431H98.9522ZM108.917 16.7231C108.442 16.7231 108.034 16.6458 107.693 16.4911C107.352 16.3311 107.085 16.0885 106.893 15.7631C106.701 15.4325 106.597 15.0218 106.581 14.5311C106.576 14.3018 106.573 14.0751 106.573 13.8511C106.573 13.6271 106.576 13.3978 106.581 13.1631C106.597 12.6778 106.704 12.2725 106.901 11.9471C107.098 11.6218 107.368 11.3765 107.709 11.2111C108.056 11.0458 108.458 10.9631 108.917 10.9631C109.376 10.9631 109.778 11.0458 110.125 11.2111C110.472 11.3765 110.744 11.6218 110.941 11.9471C111.138 12.2725 111.245 12.6778 111.261 13.1631C111.272 13.3978 111.277 13.6271 111.277 13.8511C111.277 14.0751 111.272 14.3018 111.261 14.5311C111.245 15.0218 111.141 15.4325 110.949 15.7631C110.757 16.0885 110.488 16.3311 110.141 16.4911C109.8 16.6458 109.392 16.7231 108.917 16.7231ZM108.917 15.8031C109.264 15.8031 109.546 15.7018 109.765 15.4991C109.984 15.2911 110.101 14.9551 110.117 14.4911C110.128 14.2565 110.133 14.0405 110.133 13.8431C110.133 13.6405 110.128 13.4245 110.117 13.1951C110.106 12.8858 110.048 12.6351 109.941 12.4431C109.84 12.2458 109.701 12.1045 109.525 12.0191C109.349 11.9285 109.146 11.8831 108.917 11.8831C108.693 11.8831 108.493 11.9285 108.317 12.0191C108.141 12.1045 108 12.2458 107.893 12.4431C107.792 12.6351 107.736 12.8858 107.725 13.1951C107.72 13.4245 107.717 13.6405 107.717 13.8431C107.717 14.0405 107.72 14.2565 107.725 14.4911C107.741 14.9551 107.858 15.2911 108.077 15.4991C108.296 15.7018 108.576 15.8031 108.917 15.8031ZM113.119 16.6431C113.066 16.6431 113.021 16.6245 112.983 16.5871C112.946 16.5498 112.927 16.5045 112.927 16.4511V11.2431C112.927 11.1845 112.946 11.1365 112.983 11.0991C113.021 11.0618 113.066 11.0431 113.119 11.0431H113.735C113.81 11.0431 113.863 11.0618 113.895 11.0991C113.933 11.1311 113.957 11.1551 113.967 11.1711L116.271 14.7551V11.2431C116.271 11.1845 116.287 11.1365 116.319 11.0991C116.357 11.0618 116.405 11.0431 116.463 11.0431H117.135C117.194 11.0431 117.242 11.0618 117.279 11.0991C117.317 11.1365 117.335 11.1845 117.335 11.2431V16.4431C117.335 16.5018 117.317 16.5498 117.279 16.5871C117.242 16.6245 117.197 16.6431 117.143 16.6431H116.519C116.445 16.6431 116.391 16.6245 116.359 16.5871C116.327 16.5498 116.303 16.5258 116.287 16.5151L113.991 13.0111V16.4511C113.991 16.5045 113.973 16.5498 113.935 16.5871C113.898 16.6245 113.85 16.6431 113.791 16.6431H113.119ZM122.84 16.6431C122.787 16.6431 122.742 16.6245 122.704 16.5871C122.667 16.5498 122.648 16.5045 122.648 16.4511V12.0271H121.168C121.115 12.0271 121.07 12.0085 121.032 11.9711C120.995 11.9338 120.976 11.8885 120.976 11.8351V11.2431C120.976 11.1845 120.995 11.1365 121.032 11.0991C121.07 11.0618 121.115 11.0431 121.168 11.0431H125.248C125.307 11.0431 125.355 11.0618 125.392 11.0991C125.43 11.1365 125.448 11.1845 125.448 11.2431V11.8351C125.448 11.8885 125.43 11.9338 125.392 11.9711C125.355 12.0085 125.307 12.0271 125.248 12.0271H123.776V16.4511C123.776 16.5045 123.758 16.5498 123.72 16.5871C123.683 16.6245 123.635 16.6431 123.576 16.6431H122.84ZM127.052 16.6431C126.999 16.6431 126.954 16.6271 126.916 16.5951C126.879 16.5578 126.86 16.5098 126.86 16.4511V11.2431C126.86 11.1845 126.879 11.1365 126.916 11.0991C126.954 11.0618 126.999 11.0431 127.052 11.0431H127.78C127.839 11.0431 127.884 11.0618 127.916 11.0991C127.954 11.1365 127.972 11.1845 127.972 11.2431V13.3071H130.332V11.2431C130.332 11.1845 130.351 11.1365 130.388 11.0991C130.426 11.0618 130.471 11.0431 130.524 11.0431H131.244C131.303 11.0431 131.351 11.0618 131.388 11.0991C131.426 11.1365 131.444 11.1845 131.444 11.2431V16.4511C131.444 16.5045 131.426 16.5498 131.388 16.5871C131.351 16.6245 131.303 16.6431 131.244 16.6431H130.524C130.471 16.6431 130.426 16.6245 130.388 16.5871C130.351 16.5498 130.332 16.5045 130.332 16.4511V14.3071H127.972V16.4511C127.972 16.5045 127.954 16.5498 127.916 16.5871C127.884 16.6245 127.839 16.6431 127.78 16.6431H127.052ZM133.48 16.6431C133.427 16.6431 133.382 16.6245 133.344 16.5871C133.307 16.5498 133.288 16.5045 133.288 16.4511V11.2431C133.288 11.1845 133.307 11.1365 133.344 11.0991C133.382 11.0618 133.427 11.0431 133.48 11.0431H137C137.059 11.0431 137.107 11.0618 137.144 11.0991C137.182 11.1365 137.2 11.1845 137.2 11.2431V11.7711C137.2 11.8245 137.182 11.8698 137.144 11.9071C137.107 11.9445 137.059 11.9631 137 11.9631H134.368V13.3791H136.824C136.883 13.3791 136.931 13.3978 136.968 13.4351C137.006 13.4671 137.024 13.5125 137.024 13.5711V14.0671C137.024 14.1258 137.006 14.1738 136.968 14.2111C136.931 14.2431 136.883 14.2591 136.824 14.2591H134.368V15.7231H137.064C137.123 15.7231 137.171 15.7418 137.208 15.7791C137.246 15.8165 137.264 15.8645 137.264 15.9231V16.4511C137.264 16.5045 137.246 16.5498 137.208 16.5871C137.171 16.6245 137.123 16.6431 137.064 16.6431H133.48Z" fill="white"/>
</svg>
