<svg width="40" height="35" viewBox="0 0 40 35" fill="none" xmlns="http://www.w3.org/2000/svg">
<path d="M0 32.5133C0.499553 31.4105 0.988028 30.3318 1.47751 29.2531C5.86572 19.5884 10.256 9.92363 14.6381 0.255863C14.7298 0.0534226 14.8355 4.30274e-05 15.045 0.00105019C16.5789 0.0101147 18.1128 0.0111224 19.6457 4.35806e-05C19.8663 -0.00197075 19.957 0.0655089 20.0335 0.271978C22.1425 5.93224 24.2596 11.5895 26.3746 17.2467C26.4058 17.3303 26.4401 17.4129 26.4854 17.5277C30.4597 15.8599 34.4198 14.198 38.379 12.5362C38.3901 12.5553 38.4001 12.5735 38.4112 12.5926C34.7542 15.0763 31.0972 17.5599 27.4231 20.0557C29.0244 24.2314 30.6218 28.395 32.2272 32.5828C30.364 33.3895 28.5199 34.1872 26.6425 35C25.2113 31.1718 23.7862 27.3607 22.349 23.5183C22.2593 23.5727 22.1818 23.613 22.1103 23.6624C16.6091 27.3979 11.108 31.1325 5.60789 34.8711C5.48703 34.9527 5.39538 34.996 5.24027 34.9255C3.54421 34.1439 1.84311 33.3714 0.144024 32.5969C0.104745 32.5768 0.06748 32.5516 0 32.5133ZM10.3254 24.2405C10.3395 24.2586 10.3536 24.2757 10.3677 24.2938C13.8979 22.8123 17.428 21.3298 20.9762 19.8402C19.679 16.3705 18.3928 12.929 17.0815 9.42106C14.8103 14.4015 12.5674 19.3215 10.3254 24.2405Z" fill="black"/>
<path d="M39.0397 10.0294C35.5861 11.3981 32.1436 12.7618 28.6729 14.1376C28.3113 13.4255 27.9538 12.7225 27.5781 11.9843C27.8863 11.81 28.1875 11.6297 28.4987 11.4696C28.551 11.4424 28.6548 11.4857 28.7213 11.521C29.0023 11.672 29.2742 11.8402 29.5572 11.9853C29.6337 12.0245 29.7526 12.0397 29.8301 12.0104C30.2965 11.8302 30.7577 11.6348 31.2553 11.4283C30.4385 10.5329 29.6378 9.65469 28.8059 8.7422C29.2843 8.53472 29.7345 8.33027 30.1947 8.14898C30.2612 8.12279 30.3801 8.19732 30.4616 8.24567C31.5433 8.88622 32.626 9.52678 33.7017 10.1774C33.8659 10.2771 34.0048 10.2872 34.1841 10.2288C35.1359 9.91857 36.0887 9.60937 37.0495 9.32636C37.3315 9.24276 37.6417 9.20852 37.9358 9.2206C38.4535 9.24276 38.7989 9.54994 39.0397 10.0294Z" fill="black"/>
</svg>
