<svg width="36" height="36" viewBox="0 0 36 36" fill="none" xmlns="http://www.w3.org/2000/svg">
<path d="M20.4651 17.9985L27.9829 10.4972C28.3121 10.1679 28.497 9.72136 28.497 9.25571C28.497 8.79007 28.3121 8.3435 27.9829 8.01424C27.6536 7.68498 27.2071 7.5 26.7416 7.5C26.276 7.5 25.8295 7.68498 25.5003 8.01424L18 15.533L10.4997 8.01424C10.1705 7.68498 9.72403 7.5 9.25845 7.5C8.79287 7.5 8.34636 7.68498 8.01715 8.01424C7.68793 8.3435 7.50298 8.79007 7.50298 9.25571C7.50298 9.72136 7.68793 10.1679 8.01715 10.4972L15.5349 17.9985L8.01715 25.4998C7.85328 25.6624 7.72322 25.8558 7.63446 26.0688C7.5457 26.2819 7.5 26.5105 7.5 26.7413C7.5 26.9721 7.5457 27.2007 7.63446 27.4138C7.72322 27.6268 7.85328 27.8202 8.01715 27.9828C8.17968 28.1467 8.37304 28.2768 8.58609 28.3655C8.79914 28.4543 9.02765 28.5 9.25845 28.5C9.48925 28.5 9.71776 28.4543 9.93081 28.3655C10.1439 28.2768 10.3372 28.1467 10.4997 27.9828L18 20.464L25.5003 27.9828C25.6628 28.1467 25.8561 28.2768 26.0692 28.3655C26.2822 28.4543 26.5108 28.5 26.7416 28.5C26.9723 28.5 27.2009 28.4543 27.4139 28.3655C27.627 28.2768 27.8203 28.1467 27.9829 27.9828C28.1467 27.8202 28.2768 27.6268 28.3655 27.4138C28.4543 27.2007 28.5 26.9721 28.5 26.7413C28.5 26.5105 28.4543 26.2819 28.3655 26.0688C28.2768 25.8558 28.1467 25.6624 27.9829 25.4998L20.4651 17.9985Z" fill="#333333"/>
</svg>
