<svg width="163" height="45" viewBox="0 0 163 45" fill="none" xmlns="http://www.w3.org/2000/svg">
<rect width="163" height="45" rx="4" fill="black"/>
<path fill-rule="evenodd" clip-rule="evenodd" d="M32.2484 18.9847L28.8811 22.3435L28.8797 22.3421L17.7754 11.2806C18.0425 11.281 18.3048 11.3516 18.5357 11.4854L32.2484 18.9847ZM17.1717 33.9293L27.8167 23.3126L28.3432 22.7944V22.7875L28.4762 22.6548L17.1811 11.4005C16.8795 11.5758 16.6928 11.9814 16.6928 12.5125V12.8478L16.6927 12.8553V32.4783L16.6928 32.4858V32.8281C16.6968 33.3592 16.8767 33.7352 17.1717 33.9293ZM28.8811 22.9675L17.7415 34.0776C18.0211 34.0822 18.2965 34.0094 18.537 33.8673L32.2768 26.3478L28.8811 22.9675ZM32.6529 19.2057L37.2161 21.7059H37.2161C38.1793 22.2329 38.1793 23.105 37.2147 23.6347L32.6786 26.1281L29.1936 22.6562L32.6529 19.2057Z" fill="white"/>
<path d="M56.9764 33.8231C55.9204 33.8231 55.0204 33.6251 54.2764 33.2291C53.5444 32.8331 52.9804 32.2751 52.5844 31.5551C52.2004 30.8351 51.9844 29.9891 51.9364 29.0171C51.9244 28.4891 51.9184 27.9311 51.9184 27.3431C51.9184 26.7431 51.9244 26.1731 51.9364 25.6331C51.9844 24.6611 52.2004 23.8211 52.5844 23.1131C52.9804 22.4051 53.5504 21.8531 54.2944 21.4571C55.0384 21.0611 55.9324 20.8631 56.9764 20.8631C57.8284 20.8631 58.5664 20.9831 59.1904 21.2231C59.8144 21.4631 60.3244 21.7691 60.7204 22.1411C61.1284 22.5011 61.4284 22.8791 61.6204 23.2751C61.8244 23.6711 61.9324 24.0191 61.9444 24.3191C61.9564 24.4271 61.9264 24.5171 61.8544 24.5891C61.7824 24.6491 61.6864 24.6791 61.5664 24.6791H60.5044C60.3844 24.6791 60.2944 24.6551 60.2344 24.6071C60.1864 24.5591 60.1384 24.4751 60.0904 24.3551C59.9824 24.0431 59.8024 23.7371 59.5504 23.4371C59.3104 23.1371 58.9804 22.8911 58.5604 22.6991C58.1524 22.4951 57.6244 22.3931 56.9764 22.3931C56.0284 22.3931 55.2604 22.6511 54.6724 23.1671C54.0964 23.6831 53.7844 24.5351 53.7364 25.7231C53.7004 26.7911 53.7004 27.8591 53.7364 28.9271C53.7844 30.1271 54.1024 30.9911 54.6904 31.5191C55.2784 32.0351 56.0464 32.2931 56.9944 32.2931C57.6304 32.2931 58.1944 32.1791 58.6864 31.9511C59.1904 31.7111 59.5864 31.3451 59.8744 30.8531C60.1624 30.3611 60.3064 29.7371 60.3064 28.9811V28.2251H57.6064C57.4864 28.2251 57.3844 28.1891 57.3004 28.1171C57.2284 28.0331 57.1924 27.9251 57.1924 27.7931V27.2171C57.1924 27.0851 57.2284 26.9831 57.3004 26.9111C57.3844 26.8271 57.4864 26.7851 57.6064 26.7851H61.6744C61.8064 26.7851 61.9084 26.8271 61.9804 26.9111C62.0524 26.9831 62.0884 27.0851 62.0884 27.2171V28.9451C62.0884 29.9291 61.8844 30.7871 61.4764 31.5191C61.0804 32.2511 60.4984 32.8211 59.7304 33.2291C58.9624 33.6251 58.0444 33.8231 56.9764 33.8231ZM68.2563 33.8231C67.3443 33.8231 66.5823 33.6491 65.9703 33.3011C65.3583 32.9531 64.8903 32.4731 64.5663 31.8611C64.2423 31.2371 64.0623 30.5291 64.0263 29.7371C64.0143 29.5331 64.0083 29.2751 64.0083 28.9631C64.0083 28.6391 64.0143 28.3811 64.0263 28.1891C64.0623 27.3851 64.2423 26.6771 64.5663 26.0651C64.9023 25.4531 65.3763 24.9731 65.9883 24.6251C66.6003 24.2771 67.3563 24.1031 68.2563 24.1031C69.1563 24.1031 69.9123 24.2771 70.5243 24.6251C71.1363 24.9731 71.6043 25.4531 71.9283 26.0651C72.2643 26.6771 72.4503 27.3851 72.4863 28.1891C72.4983 28.3811 72.5043 28.6391 72.5043 28.9631C72.5043 29.2751 72.4983 29.5331 72.4863 29.7371C72.4503 30.5291 72.2703 31.2371 71.9463 31.8611C71.6223 32.4731 71.1543 32.9531 70.5423 33.3011C69.9303 33.6491 69.1683 33.8231 68.2563 33.8231ZM68.2563 32.4371C69.0003 32.4371 69.5943 32.2031 70.0383 31.7351C70.4823 31.2551 70.7223 30.5591 70.7583 29.6471C70.7703 29.4671 70.7763 29.2391 70.7763 28.9631C70.7763 28.6871 70.7703 28.4591 70.7583 28.2791C70.7223 27.3671 70.4823 26.6771 70.0383 26.2091C69.5943 25.7291 69.0003 25.4891 68.2563 25.4891C67.5123 25.4891 66.9123 25.7291 66.4563 26.2091C66.0123 26.6771 65.7783 27.3671 65.7543 28.2791C65.7423 28.4591 65.7363 28.6871 65.7363 28.9631C65.7363 29.2391 65.7423 29.4671 65.7543 29.6471C65.7783 30.5591 66.0123 31.2551 66.4563 31.7351C66.9123 32.2031 67.5123 32.4371 68.2563 32.4371ZM78.5923 33.8231C77.6803 33.8231 76.9183 33.6491 76.3063 33.3011C75.6943 32.9531 75.2263 32.4731 74.9023 31.8611C74.5783 31.2371 74.3983 30.5291 74.3623 29.7371C74.3503 29.5331 74.3443 29.2751 74.3443 28.9631C74.3443 28.6391 74.3503 28.3811 74.3623 28.1891C74.3983 27.3851 74.5783 26.6771 74.9023 26.0651C75.2383 25.4531 75.7123 24.9731 76.3243 24.6251C76.9363 24.2771 77.6923 24.1031 78.5923 24.1031C79.4923 24.1031 80.2483 24.2771 80.8603 24.6251C81.4723 24.9731 81.9403 25.4531 82.2643 26.0651C82.6003 26.6771 82.7863 27.3851 82.8223 28.1891C82.8343 28.3811 82.8403 28.6391 82.8403 28.9631C82.8403 29.2751 82.8343 29.5331 82.8223 29.7371C82.7863 30.5291 82.6063 31.2371 82.2823 31.8611C81.9583 32.4731 81.4903 32.9531 80.8783 33.3011C80.2663 33.6491 79.5043 33.8231 78.5923 33.8231ZM78.5923 32.4371C79.3363 32.4371 79.9303 32.2031 80.3743 31.7351C80.8183 31.2551 81.0583 30.5591 81.0943 29.6471C81.1063 29.4671 81.1123 29.2391 81.1123 28.9631C81.1123 28.6871 81.1063 28.4591 81.0943 28.2791C81.0583 27.3671 80.8183 26.6771 80.3743 26.2091C79.9303 25.7291 79.3363 25.4891 78.5923 25.4891C77.8483 25.4891 77.2483 25.7291 76.7923 26.2091C76.3483 26.6771 76.1143 27.3671 76.0903 28.2791C76.0783 28.4591 76.0723 28.6871 76.0723 28.9631C76.0723 29.2391 76.0783 29.4671 76.0903 29.6471C76.1143 30.5591 76.3483 31.2551 76.7923 31.7351C77.2483 32.2031 77.8483 32.4371 78.5923 32.4371ZM88.9282 37.6031C88.1122 37.6031 87.4402 37.4951 86.9122 37.2791C86.3962 37.0631 85.9882 36.7991 85.6882 36.4871C85.4002 36.1871 85.1902 35.8811 85.0582 35.5691C84.9382 35.2691 84.8722 35.0291 84.8602 34.8491C84.8482 34.7291 84.8842 34.6271 84.9682 34.5431C85.0642 34.4591 85.1662 34.4171 85.2742 34.4171H86.1382C86.2462 34.4171 86.3362 34.4411 86.4082 34.4891C86.4802 34.5371 86.5402 34.6391 86.5882 34.7951C86.6602 34.9751 86.7682 35.1731 86.9122 35.3891C87.0562 35.6171 87.2782 35.8091 87.5782 35.9651C87.8782 36.1331 88.2982 36.2171 88.8382 36.2171C89.4022 36.2171 89.8762 36.1391 90.2602 35.9831C90.6442 35.8391 90.9322 35.5751 91.1242 35.1911C91.3282 34.8191 91.4302 34.3031 91.4302 33.6431V32.4191C91.1422 32.7911 90.7642 33.1031 90.2962 33.3551C89.8282 33.5951 89.2402 33.7151 88.5322 33.7151C87.8602 33.7151 87.2842 33.6011 86.8042 33.3731C86.3242 33.1331 85.9282 32.8151 85.6162 32.4191C85.3162 32.0111 85.0882 31.5491 84.9322 31.0331C84.7882 30.5171 84.7042 29.9771 84.6802 29.4131C84.6682 29.0771 84.6682 28.7471 84.6802 28.4231C84.7042 27.8591 84.7882 27.3191 84.9322 26.8031C85.0882 26.2871 85.3162 25.8251 85.6162 25.4171C85.9282 25.0091 86.3242 24.6911 86.8042 24.4631C87.2842 24.2231 87.8602 24.1031 88.5322 24.1031C89.2522 24.1031 89.8462 24.2411 90.3142 24.5171C90.7942 24.7811 91.1842 25.1051 91.4842 25.4891V24.7151C91.4842 24.5951 91.5202 24.4931 91.5922 24.4091C91.6762 24.3251 91.7782 24.2831 91.8982 24.2831H92.7262C92.8462 24.2831 92.9482 24.3251 93.0322 24.4091C93.1162 24.4931 93.1582 24.5951 93.1582 24.7151V33.4451C93.1582 34.2491 93.0202 34.9631 92.7442 35.5871C92.4802 36.2111 92.0362 36.7031 91.4122 37.0631C90.8002 37.4231 89.9722 37.6031 88.9282 37.6031ZM88.8922 32.2751C89.4922 32.2751 89.9722 32.1371 90.3322 31.8611C90.7042 31.5851 90.9742 31.2371 91.1422 30.8171C91.3222 30.3971 91.4182 29.9711 91.4302 29.5391C91.4422 29.3711 91.4482 29.1671 91.4482 28.9271C91.4482 28.6751 91.4422 28.4651 91.4302 28.2971C91.4182 27.8651 91.3222 27.4391 91.1422 27.0191C90.9742 26.5991 90.7042 26.2511 90.3322 25.9751C89.9722 25.6991 89.4922 25.5611 88.8922 25.5611C88.2922 25.5611 87.8122 25.6991 87.4522 25.9751C87.0922 26.2391 86.8342 26.5931 86.6782 27.0371C86.5222 27.4691 86.4322 27.9371 86.4082 28.4411C86.3962 28.7531 86.3962 29.0711 86.4082 29.3951C86.4322 29.8991 86.5222 30.3731 86.6782 30.8171C86.8342 31.2491 87.0922 31.6031 87.4522 31.8791C87.8122 32.1431 88.2922 32.2751 88.8922 32.2751ZM96.2664 33.6431C96.1464 33.6431 96.0444 33.6071 95.9604 33.5351C95.8884 33.4511 95.8524 33.3491 95.8524 33.2291V21.2771C95.8524 21.1571 95.8884 21.0611 95.9604 20.9891C96.0444 20.9051 96.1464 20.8631 96.2664 20.8631H97.1124C97.2444 20.8631 97.3464 20.9051 97.4184 20.9891C97.4904 21.0611 97.5264 21.1571 97.5264 21.2771V33.2291C97.5264 33.3491 97.4904 33.4511 97.4184 33.5351C97.3464 33.6071 97.2444 33.6431 97.1124 33.6431H96.2664ZM103.937 33.8231C102.701 33.8231 101.717 33.4451 100.985 32.6891C100.253 31.9211 99.8514 30.8771 99.7794 29.5571C99.7674 29.4011 99.7614 29.2031 99.7614 28.9631C99.7614 28.7111 99.7674 28.5071 99.7794 28.3511C99.8274 27.4991 100.025 26.7551 100.373 26.1191C100.721 25.4711 101.195 24.9731 101.795 24.6251C102.407 24.2771 103.121 24.1031 103.937 24.1031C104.849 24.1031 105.611 24.2951 106.223 24.6791C106.847 25.0631 107.321 25.6091 107.645 26.3171C107.969 27.0251 108.131 27.8531 108.131 28.8011V29.1071C108.131 29.2391 108.089 29.3411 108.005 29.4131C107.933 29.4851 107.837 29.5211 107.717 29.5211H101.489C101.489 29.5331 101.489 29.5571 101.489 29.5931C101.489 29.6291 101.489 29.6591 101.489 29.6831C101.513 30.1751 101.621 30.6371 101.813 31.0691C102.005 31.4891 102.281 31.8311 102.641 32.0951C103.001 32.3591 103.433 32.4911 103.937 32.4911C104.369 32.4911 104.729 32.4251 105.017 32.2931C105.305 32.1611 105.539 32.0171 105.719 31.8611C105.899 31.6931 106.019 31.5671 106.079 31.4831C106.187 31.3271 106.271 31.2371 106.331 31.2131C106.391 31.1771 106.487 31.1591 106.619 31.1591H107.483C107.603 31.1591 107.699 31.1951 107.771 31.2671C107.855 31.3271 107.891 31.4171 107.879 31.5371C107.867 31.7171 107.771 31.9391 107.591 32.2031C107.411 32.4551 107.153 32.7071 106.817 32.9591C106.481 33.2111 106.073 33.4211 105.593 33.5891C105.113 33.7451 104.561 33.8231 103.937 33.8231ZM101.489 28.2791H106.421V28.2251C106.421 27.6851 106.319 27.2051 106.115 26.7851C105.923 26.3651 105.641 26.0351 105.269 25.7951C104.897 25.5431 104.453 25.4171 103.937 25.4171C103.421 25.4171 102.977 25.5431 102.605 25.7951C102.245 26.0351 101.969 26.3651 101.777 26.7851C101.585 27.2051 101.489 27.6851 101.489 28.2251V28.2791ZM115.344 33.6431C115.212 33.6431 115.11 33.6071 115.038 33.5351C114.966 33.4511 114.93 33.3491 114.93 33.2291V21.4751C114.93 21.3431 114.966 21.2411 115.038 21.1691C115.11 21.0851 115.212 21.0431 115.344 21.0431H119.916C120.804 21.0431 121.572 21.1871 122.22 21.4751C122.88 21.7631 123.39 22.1951 123.75 22.7711C124.11 23.3351 124.29 24.0431 124.29 24.8951C124.29 25.7471 124.11 26.4551 123.75 27.0191C123.39 27.5831 122.88 28.0091 122.22 28.2971C121.572 28.5851 120.804 28.7291 119.916 28.7291H116.73V33.2291C116.73 33.3491 116.688 33.4511 116.604 33.5351C116.532 33.6071 116.43 33.6431 116.298 33.6431H115.344ZM116.712 27.2171H119.826C120.714 27.2171 121.38 27.0191 121.824 26.6231C122.268 26.2271 122.49 25.6511 122.49 24.8951C122.49 24.1511 122.274 23.5751 121.842 23.1671C121.41 22.7591 120.738 22.5551 119.826 22.5551H116.712V27.2171ZM126.677 33.6431C126.557 33.6431 126.455 33.6071 126.371 33.5351C126.299 33.4511 126.263 33.3491 126.263 33.2291V21.2771C126.263 21.1571 126.299 21.0611 126.371 20.9891C126.455 20.9051 126.557 20.8631 126.677 20.8631H127.523C127.655 20.8631 127.757 20.9051 127.829 20.9891C127.901 21.0611 127.937 21.1571 127.937 21.2771V33.2291C127.937 33.3491 127.901 33.4511 127.829 33.5351C127.757 33.6071 127.655 33.6431 127.523 33.6431H126.677ZM133.232 33.8231C132.632 33.8231 132.086 33.7031 131.594 33.4631C131.102 33.2231 130.706 32.8991 130.406 32.4911C130.106 32.0831 129.956 31.6211 129.956 31.1051C129.956 30.2771 130.292 29.6171 130.964 29.1251C131.636 28.6331 132.512 28.3091 133.592 28.1531L136.274 27.7751V27.2531C136.274 26.6771 136.106 26.2271 135.77 25.9031C135.446 25.5791 134.912 25.4171 134.168 25.4171C133.628 25.4171 133.19 25.5251 132.854 25.7411C132.53 25.9571 132.302 26.2331 132.17 26.5691C132.098 26.7491 131.972 26.8391 131.792 26.8391H130.982C130.85 26.8391 130.748 26.8031 130.676 26.7311C130.616 26.6471 130.586 26.5511 130.586 26.4431C130.586 26.2631 130.652 26.0411 130.784 25.7771C130.928 25.5131 131.144 25.2551 131.432 25.0031C131.72 24.7511 132.086 24.5411 132.53 24.3731C132.986 24.1931 133.538 24.1031 134.186 24.1031C134.906 24.1031 135.512 24.1991 136.004 24.3911C136.496 24.5711 136.88 24.8171 137.156 25.1291C137.444 25.4411 137.648 25.7951 137.768 26.1911C137.9 26.5871 137.966 26.9891 137.966 27.3971V33.2291C137.966 33.3491 137.924 33.4511 137.84 33.5351C137.768 33.6071 137.672 33.6431 137.552 33.6431H136.724C136.592 33.6431 136.49 33.6071 136.418 33.5351C136.346 33.4511 136.31 33.3491 136.31 33.2291V32.4551C136.154 32.6711 135.944 32.8871 135.68 33.1031C135.416 33.3071 135.086 33.4811 134.69 33.6251C134.294 33.7571 133.808 33.8231 133.232 33.8231ZM133.61 32.4731C134.102 32.4731 134.552 32.3711 134.96 32.1671C135.368 31.9511 135.686 31.6211 135.914 31.1771C136.154 30.7331 136.274 30.1751 136.274 29.5031V28.9991L134.186 29.3051C133.334 29.4251 132.692 29.6291 132.26 29.9171C131.828 30.1931 131.612 30.5471 131.612 30.9791C131.612 31.3151 131.708 31.5971 131.9 31.8251C132.104 32.0411 132.356 32.2031 132.656 32.3111C132.968 32.4191 133.286 32.4731 133.61 32.4731ZM141.998 37.0631C141.902 37.0631 141.818 37.0271 141.746 36.9551C141.674 36.8831 141.638 36.7991 141.638 36.7031C141.638 36.6551 141.644 36.6071 141.656 36.5591C141.668 36.5111 141.692 36.4511 141.728 36.3791L143.114 33.0851L139.676 24.9671C139.616 24.8231 139.586 24.7211 139.586 24.6611C139.586 24.5531 139.622 24.4631 139.694 24.3911C139.766 24.3191 139.856 24.2831 139.964 24.2831H140.846C140.966 24.2831 141.062 24.3131 141.134 24.3731C141.206 24.4331 141.254 24.5051 141.278 24.5891L144.014 31.1411L146.822 24.5891C146.858 24.5051 146.906 24.4331 146.966 24.3731C147.038 24.3131 147.14 24.2831 147.272 24.2831H148.118C148.226 24.2831 148.316 24.3191 148.388 24.3911C148.46 24.4631 148.496 24.5471 148.496 24.6431C148.496 24.7031 148.466 24.8111 148.406 24.9671L143.294 36.7571C143.258 36.8411 143.204 36.9131 143.132 36.9731C143.072 37.0331 142.976 37.0631 142.844 37.0631H141.998Z" fill="white"/>
<path d="M53.2198 16.7231C52.7292 16.7231 52.3105 16.6378 51.9638 16.4671C51.6225 16.2965 51.3558 16.0511 51.1638 15.7311C50.9772 15.4058 50.8758 15.0191 50.8598 14.5711C50.8545 14.3418 50.8518 14.0965 50.8518 13.8351C50.8518 13.5685 50.8545 13.3178 50.8598 13.0831C50.8758 12.6405 50.9772 12.2618 51.1638 11.9471C51.3558 11.6325 51.6252 11.3898 51.9718 11.2191C52.3238 11.0485 52.7398 10.9631 53.2198 10.9631C53.6092 10.9631 53.9505 11.0165 54.2438 11.1231C54.5372 11.2245 54.7798 11.3578 54.9718 11.5231C55.1692 11.6831 55.3158 11.8565 55.4118 12.0431C55.5132 12.2298 55.5665 12.4031 55.5718 12.5631C55.5772 12.6111 55.5638 12.6511 55.5318 12.6831C55.4998 12.7151 55.4572 12.7311 55.4038 12.7311H54.5798C54.5265 12.7311 54.4865 12.7205 54.4598 12.6991C54.4332 12.6778 54.4092 12.6458 54.3878 12.6031C54.3452 12.4911 54.2785 12.3818 54.1878 12.2751C54.0972 12.1631 53.9745 12.0698 53.8198 11.9951C53.6652 11.9205 53.4652 11.8831 53.2198 11.8831C52.8572 11.8831 52.5665 11.9791 52.3478 12.1711C52.1345 12.3631 52.0198 12.6805 52.0038 13.1231C51.9878 13.5871 51.9878 14.0565 52.0038 14.5311C52.0198 14.9845 52.1372 15.3098 52.3558 15.5071C52.5798 15.7045 52.8732 15.8031 53.2358 15.8031C53.4758 15.8031 53.6892 15.7605 53.8758 15.6751C54.0678 15.5898 54.2172 15.4565 54.3238 15.2751C54.4358 15.0938 54.4918 14.8618 54.4918 14.5791V14.3311H53.5158C53.4625 14.3311 53.4172 14.3125 53.3798 14.2751C53.3425 14.2378 53.3238 14.1898 53.3238 14.1311V13.7071C53.3238 13.6485 53.3425 13.6005 53.3798 13.5631C53.4172 13.5258 53.4625 13.5071 53.5158 13.5071H55.4278C55.4865 13.5071 55.5318 13.5258 55.5638 13.5631C55.6012 13.6005 55.6198 13.6485 55.6198 13.7071V14.5471C55.6198 14.9951 55.5212 15.3818 55.3238 15.7071C55.1318 16.0325 54.8545 16.2831 54.4918 16.4591C54.1345 16.6351 53.7105 16.7231 53.2198 16.7231ZM57.4374 16.6431C57.3841 16.6431 57.3387 16.6245 57.3014 16.5871C57.2641 16.5498 57.2454 16.5045 57.2454 16.4511V11.2431C57.2454 11.1845 57.2641 11.1365 57.3014 11.0991C57.3387 11.0618 57.3841 11.0431 57.4374 11.0431H60.9574C61.0161 11.0431 61.0641 11.0618 61.1014 11.0991C61.1387 11.1365 61.1574 11.1845 61.1574 11.2431V11.7711C61.1574 11.8245 61.1387 11.8698 61.1014 11.9071C61.0641 11.9445 61.0161 11.9631 60.9574 11.9631H58.3254V13.3791H60.7814C60.8401 13.3791 60.8881 13.3978 60.9254 13.4351C60.9627 13.4671 60.9814 13.5125 60.9814 13.5711V14.0671C60.9814 14.1258 60.9627 14.1738 60.9254 14.2111C60.8881 14.2431 60.8401 14.2591 60.7814 14.2591H58.3254V15.7231H61.0214C61.0801 15.7231 61.1281 15.7418 61.1654 15.7791C61.2027 15.8165 61.2214 15.8645 61.2214 15.9231V16.4511C61.2214 16.5045 61.2027 16.5498 61.1654 16.5871C61.1281 16.6245 61.0801 16.6431 61.0214 16.6431H57.4374ZM64.2459 16.6431C64.1926 16.6431 64.1473 16.6245 64.1099 16.5871C64.0726 16.5498 64.0539 16.5045 64.0539 16.4511V12.0271H62.5739C62.5206 12.0271 62.4753 12.0085 62.4379 11.9711C62.4006 11.9338 62.3819 11.8885 62.3819 11.8351V11.2431C62.3819 11.1845 62.4006 11.1365 62.4379 11.0991C62.4753 11.0618 62.5206 11.0431 62.5739 11.0431H66.6539C66.7126 11.0431 66.7606 11.0618 66.7979 11.0991C66.8353 11.1365 66.8539 11.1845 66.8539 11.2431V11.8351C66.8539 11.8885 66.8353 11.9338 66.7979 11.9711C66.7606 12.0085 66.7126 12.0271 66.6539 12.0271H65.1819V16.4511C65.1819 16.5045 65.1633 16.5498 65.1259 16.5871C65.0886 16.6245 65.0406 16.6431 64.9819 16.6431H64.2459ZM70.6905 16.6431C70.6372 16.6431 70.5918 16.6245 70.5545 16.5871C70.5172 16.5498 70.4985 16.5045 70.4985 16.4511V11.2351C70.4985 11.1818 70.5172 11.1365 70.5545 11.0991C70.5918 11.0618 70.6372 11.0431 70.6905 11.0431H71.4425C71.5012 11.0431 71.5465 11.0618 71.5785 11.0991C71.6158 11.1365 71.6345 11.1818 71.6345 11.2351V16.4511C71.6345 16.5045 71.6158 16.5498 71.5785 16.5871C71.5465 16.6245 71.5012 16.6431 71.4425 16.6431H70.6905ZM74.9131 16.6431C74.8598 16.6431 74.8145 16.6245 74.7771 16.5871C74.7398 16.5498 74.7211 16.5045 74.7211 16.4511V12.0271H73.2411C73.1878 12.0271 73.1425 12.0085 73.1051 11.9711C73.0678 11.9338 73.0491 11.8885 73.0491 11.8351V11.2431C73.0491 11.1845 73.0678 11.1365 73.1051 11.0991C73.1425 11.0618 73.1878 11.0431 73.2411 11.0431H77.3211C77.3798 11.0431 77.4278 11.0618 77.4651 11.0991C77.5025 11.1365 77.5211 11.1845 77.5211 11.2431V11.8351C77.5211 11.8885 77.5025 11.9338 77.4651 11.9711C77.4278 12.0085 77.3798 12.0271 77.3211 12.0271H75.8491V16.4511C75.8491 16.5045 75.8305 16.5498 75.7931 16.5871C75.7558 16.6245 75.7078 16.6431 75.6491 16.6431H74.9131ZM83.3177 16.7231C82.843 16.7231 82.435 16.6458 82.0937 16.4911C81.7524 16.3311 81.4857 16.0885 81.2937 15.7631C81.1017 15.4325 80.9977 15.0218 80.9817 14.5311C80.9764 14.3018 80.9737 14.0751 80.9737 13.8511C80.9737 13.6271 80.9764 13.3978 80.9817 13.1631C80.9977 12.6778 81.1044 12.2725 81.3017 11.9471C81.499 11.6218 81.7684 11.3765 82.1097 11.2111C82.4564 11.0458 82.859 10.9631 83.3177 10.9631C83.7764 10.9631 84.179 11.0458 84.5257 11.2111C84.8724 11.3765 85.1444 11.6218 85.3417 11.9471C85.539 12.2725 85.6457 12.6778 85.6617 13.1631C85.6724 13.3978 85.6777 13.6271 85.6777 13.8511C85.6777 14.0751 85.6724 14.3018 85.6617 14.5311C85.6457 15.0218 85.5417 15.4325 85.3497 15.7631C85.1577 16.0885 84.8884 16.3311 84.5417 16.4911C84.2004 16.6458 83.7924 16.7231 83.3177 16.7231ZM83.3177 15.8031C83.6644 15.8031 83.947 15.7018 84.1657 15.4991C84.3844 15.2911 84.5017 14.9551 84.5177 14.4911C84.5284 14.2565 84.5337 14.0405 84.5337 13.8431C84.5337 13.6405 84.5284 13.4245 84.5177 13.1951C84.507 12.8858 84.4484 12.6351 84.3417 12.4431C84.2404 12.2458 84.1017 12.1045 83.9257 12.0191C83.7497 11.9285 83.547 11.8831 83.3177 11.8831C83.0937 11.8831 82.8937 11.9285 82.7177 12.0191C82.5417 12.1045 82.4004 12.2458 82.2937 12.4431C82.1924 12.6351 82.1364 12.8858 82.1257 13.1951C82.1204 13.4245 82.1177 13.6405 82.1177 13.8431C82.1177 14.0405 82.1204 14.2565 82.1257 14.4911C82.1417 14.9551 82.259 15.2911 82.4777 15.4991C82.6964 15.7018 82.9764 15.8031 83.3177 15.8031ZM87.5202 16.6431C87.4669 16.6431 87.4215 16.6245 87.3842 16.5871C87.3469 16.5498 87.3282 16.5045 87.3282 16.4511V11.2431C87.3282 11.1845 87.3469 11.1365 87.3842 11.0991C87.4215 11.0618 87.4669 11.0431 87.5202 11.0431H88.1362C88.2109 11.0431 88.2642 11.0618 88.2962 11.0991C88.3335 11.1311 88.3575 11.1551 88.3682 11.1711L90.6722 14.7551V11.2431C90.6722 11.1845 90.6882 11.1365 90.7202 11.0991C90.7575 11.0618 90.8055 11.0431 90.8642 11.0431H91.5362C91.5949 11.0431 91.6429 11.0618 91.6802 11.0991C91.7175 11.1365 91.7362 11.1845 91.7362 11.2431V16.4431C91.7362 16.5018 91.7175 16.5498 91.6802 16.5871C91.6429 16.6245 91.5975 16.6431 91.5442 16.6431H90.9202C90.8455 16.6431 90.7922 16.6245 90.7602 16.5871C90.7282 16.5498 90.7042 16.5258 90.6882 16.5151L88.3922 13.0111V16.4511C88.3922 16.5045 88.3735 16.5498 88.3362 16.5871C88.2989 16.6245 88.2509 16.6431 88.1922 16.6431H87.5202Z" fill="white"/>
</svg>
