<svg width="65" height="35" viewBox="0 0 65 35" fill="none" xmlns="http://www.w3.org/2000/svg">
<path fill-rule="evenodd" clip-rule="evenodd" d="M55.4917 22.0991C55.4741 21.7376 55.4818 21.3753 55.5146 21.0148C55.5521 20.1542 55.4943 19.2921 55.3424 18.4442C55.3262 18.4304 55.3122 18.4141 55.301 18.396C55.3392 18.9551 55.3246 19.5166 55.2574 20.073C55.2574 20.1189 55.2574 20.1625 55.2574 20.2085C55.2574 20.2912 55.2459 20.3762 55.2229 20.4635C55.2494 20.4664 55.275 20.4749 55.2981 20.4883C55.3211 20.5018 55.3411 20.5199 55.3567 20.5416C55.3722 20.5632 55.3831 20.5879 55.3886 20.614C55.394 20.6401 55.3939 20.6671 55.3883 20.6932C55.3092 21.1736 55.2792 21.6608 55.2987 22.1473C55.3252 22.1253 55.3563 22.1096 55.3897 22.1012C55.4231 22.0929 55.4579 22.0921 55.4917 22.0991Z" fill="#181813"/>
<path fill-rule="evenodd" clip-rule="evenodd" d="M64.8989 25.1979C64.7151 25.0739 63.6676 24.1757 63.771 22.1312C63.8449 21.2987 63.8649 20.4623 63.8307 19.6272C63.8307 19.6065 63.81 19.5927 63.7755 19.5836C63.7553 19.0538 63.6546 18.5302 63.4769 18.0307C63.199 16.6523 62.0526 15.676 60.525 15.4854C60.4911 15.5018 60.463 15.5282 60.4446 15.5612C60.4376 15.6007 60.4376 15.6411 60.4446 15.6806L60.5296 15.7312C60.9024 15.8177 61.2384 16.0198 61.4896 16.3085C61.7409 16.5973 61.8945 16.958 61.9286 17.3392C61.9676 17.6126 61.4875 17.5689 61.2004 17.6861C60.8055 17.8462 60.4464 18.0832 60.144 18.3833C59.8415 18.6834 59.6017 19.0407 59.4384 19.4342C59.0953 20.373 58.816 21.3339 58.6023 22.3103C58.4805 22.8134 58.531 23.3395 58.3496 23.8564C58.3312 23.9299 58.3082 24.0034 58.2829 24.0861C58.2508 24.2216 57.7086 24.8028 57.6191 24.92C57.3388 25.299 56.606 25.2645 56.9414 25.5907C57.0815 25.8205 57.6604 25.6068 57.7638 25.6045C57.7776 25.6045 57.7867 25.6229 57.789 25.6413C57.7913 25.6597 58.3289 25.3909 58.5264 25.2576C58.5264 25.237 58.4575 25.1359 58.5012 25.1221C58.6252 25.0073 59.3098 24.3824 59.3144 24.3732C59.5318 23.9341 59.7146 23.4786 59.8611 23.011L60.0242 22.4252C60.2149 21.8854 60.3389 21.334 60.4837 20.7873C60.4262 20.909 60.3688 21.0331 60.3091 21.1548C60.4056 20.5047 60.486 19.2642 61.0993 19.0162C61.3674 18.6158 61.6597 18.2322 61.9745 17.8675C61.9998 18.536 61.9447 19.2206 61.9401 19.9488H61.9148C61.9332 20.1122 61.9332 20.2771 61.9148 20.4404C61.9726 21.8086 62.2543 23.1582 62.7487 24.4352C62.875 24.8028 64.0673 25.5838 64.4785 25.6711C64.6577 25.7056 65.0023 25.5517 64.9977 25.384C65.0041 25.3464 64.9979 25.3078 64.98 25.2741C64.9621 25.2404 64.9336 25.2136 64.8989 25.1979Z" fill="#181813"/>
<path fill-rule="evenodd" clip-rule="evenodd" d="M64.6714 19.9763C64.699 19.719 64.7335 19.4617 64.7679 19.2067C64.6462 18.6071 64.4785 18.0191 64.3797 17.4149L64.3429 17.3115C64.2465 17.1186 64.15 16.9256 64.0696 16.728C64.1523 17.663 64.4371 18.5865 64.6071 19.5053C64.637 19.657 64.6531 19.8132 64.6714 19.9763Z" fill="#181813"/>
<path fill-rule="evenodd" clip-rule="evenodd" d="M19.1799 32.7716V33.4723H19.497C19.5962 33.4785 19.694 33.4465 19.7703 33.3827C19.8037 33.3481 19.8295 33.307 19.8461 33.2619C19.8627 33.2168 19.8697 33.1688 19.8668 33.1208C19.8698 33.0736 19.8627 33.0262 19.8461 32.9818C19.8295 32.9375 19.8037 32.8972 19.7703 32.8635C19.6949 32.7981 19.5966 32.7651 19.497 32.7716H19.1799ZM18.9272 32.5649H19.497C19.6672 32.5523 19.8362 32.6021 19.9725 32.705C20.0761 32.8192 20.1335 32.9678 20.1335 33.122C20.1335 33.2761 20.0761 33.4248 19.9725 33.5389C19.8366 33.6426 19.6675 33.6933 19.497 33.6813H19.1799V34.4302H18.9272V32.5649Z" fill="#181813"/>
<path fill-rule="evenodd" clip-rule="evenodd" d="M22.52 32.5649H23.7008V32.7763H22.7727V33.3299H23.6617V33.5413H22.7727V34.2189H23.7238V34.4303H22.52V32.5649Z" fill="#181813"/>
<path fill-rule="evenodd" clip-rule="evenodd" d="M27.5853 32.7073V32.9738C27.5054 32.899 27.4129 32.8391 27.3119 32.7969C27.215 32.7573 27.1112 32.737 27.0064 32.7372C26.9152 32.7316 26.8238 32.7462 26.7388 32.78C26.6539 32.8137 26.5774 32.8658 26.5148 32.9324C26.404 33.1005 26.345 33.2974 26.345 33.4987C26.345 33.7 26.404 33.8969 26.5148 34.0649C26.5774 34.1316 26.6539 34.1836 26.7388 34.2174C26.8238 34.2511 26.9152 34.2658 27.0064 34.2602C27.1112 34.2604 27.215 34.2401 27.3119 34.2005C27.4129 34.1583 27.5054 34.0984 27.5853 34.0236V34.2878C27.4982 34.3459 27.403 34.3908 27.3027 34.421C27.2017 34.4528 27.0962 34.4683 26.9903 34.467C26.8669 34.4732 26.7436 34.4533 26.6284 34.4086C26.5132 34.3638 26.4087 34.2953 26.3218 34.2074C26.1633 34.0052 26.0771 33.7556 26.0771 33.4987C26.0771 33.2417 26.1633 32.9922 26.3218 32.79C26.4087 32.7021 26.5132 32.6335 26.6284 32.5888C26.7436 32.5441 26.8669 32.5242 26.9903 32.5304C27.0968 32.5293 27.2029 32.544 27.305 32.5741C27.4046 32.6043 27.499 32.6492 27.5853 32.7073Z" fill="#181813"/>
<path fill-rule="evenodd" clip-rule="evenodd" d="M29.7629 32.5649H31.3434V32.7763H30.6795V34.4303H30.4268V32.7763H29.7629V32.5649Z" fill="#181813"/>
<path fill-rule="evenodd" clip-rule="evenodd" d="M34.3941 32.7351C34.3101 32.7323 34.2265 32.7494 34.1503 32.7849C34.0741 32.8204 34.0073 32.8734 33.9554 32.9395C33.8409 33.1033 33.7843 33.3005 33.7946 33.5001C33.7843 33.6982 33.8409 33.894 33.9554 34.056C34.0069 34.1227 34.0736 34.1762 34.1499 34.2122C34.2261 34.2481 34.3099 34.2654 34.3941 34.2627C34.4781 34.2658 34.5616 34.2487 34.6376 34.2127C34.7136 34.1767 34.7798 34.1229 34.8306 34.056C34.9442 33.8937 35 33.6979 34.9891 33.5001C35 33.3008 34.9442 33.1036 34.8306 32.9395C34.7793 32.8733 34.7129 32.8202 34.637 32.7847C34.5611 32.7491 34.4779 32.7321 34.3941 32.7351ZM34.3941 32.5306C34.5117 32.5255 34.6289 32.5465 34.7374 32.5922C34.8459 32.6379 34.9428 32.7071 35.0213 32.7948C35.1734 32.9985 35.2556 33.2459 35.2556 33.5001C35.2556 33.7543 35.1734 34.0016 35.0213 34.2053C34.939 34.2883 34.8412 34.3542 34.7333 34.3991C34.6255 34.4441 34.5098 34.4673 34.393 34.4673C34.2761 34.4673 34.1605 34.4441 34.0526 34.3991C33.9448 34.3542 33.8469 34.2883 33.7647 34.2053C33.6112 34.0023 33.5281 33.7546 33.5281 33.5001C33.5281 33.2455 33.6112 32.9979 33.7647 32.7948C33.8434 32.7068 33.9407 32.6374 34.0496 32.5917C34.1585 32.546 34.2762 32.5252 34.3941 32.5306Z" fill="#181813"/>
<path fill-rule="evenodd" clip-rule="evenodd" d="M37.9526 32.7716V33.4723H38.2697C38.3689 33.4785 38.4667 33.4465 38.543 33.3827C38.5764 33.3481 38.6022 33.307 38.6188 33.2619C38.6354 33.2168 38.6424 33.1688 38.6395 33.1208C38.6425 33.0736 38.6355 33.0262 38.6188 32.9818C38.6022 32.9375 38.5764 32.8972 38.543 32.8635C38.4676 32.7981 38.3693 32.7651 38.2697 32.7716H37.9526ZM37.7 32.5649H38.2697C38.4399 32.5523 38.6089 32.6021 38.7452 32.705C38.8488 32.8192 38.9062 32.9678 38.9062 33.122C38.9062 33.2761 38.8488 33.4248 38.7452 33.5389C38.6093 33.6426 38.4402 33.6933 38.2697 33.6813H37.9526V34.4302H37.7V32.5649Z" fill="#181813"/>
<path fill-rule="evenodd" clip-rule="evenodd" d="M41.9176 32.813L41.5731 33.7319H42.2622L41.9199 32.813H41.9176ZM41.7752 32.5649H42.0601L42.7722 34.4303H42.5103L42.3403 33.9524H41.4973L41.3273 34.4303H41.0608L41.7752 32.5649Z" fill="#181813"/>
<path fill-rule="evenodd" clip-rule="evenodd" d="M45.0923 32.5649H45.345V33.3299H46.2639V32.5649H46.5166V34.4303H46.2639V33.5413H45.345V34.4303H45.0923V32.5649Z" fill="#181813"/>
<path fill-rule="evenodd" clip-rule="evenodd" d="M46.7991 30.9021C46.8243 30.824 45.338 31.079 45.253 31.0652C45.2117 31.0652 40.8608 31.2743 40.8057 31.0652C37.415 31.0032 34.0335 31.0974 30.6405 31.0652C28.0998 31.0422 25.5591 31.0652 23.0184 31.0813C22.1202 31.0813 18.2288 31.1847 18.3252 31.1847L19.0144 31.4029C18.4838 31.5844 21.0819 31.5086 21.0819 31.5086C21.0819 31.4511 22.0008 31.5201 22.1409 31.5224C22.4717 31.543 28.3433 31.3064 28.3204 31.3799C28.5312 31.2438 28.7845 31.1892 29.0328 31.2264C29.281 31.2636 29.5071 31.3901 29.6688 31.5821H29.91C29.9514 31.6855 34.9317 31.481 35.6255 31.5315C36.6684 31.7107 40.4863 31.5936 41.7176 31.5959C43.4911 31.5959 46.7255 31.5568 46.7255 31.4328C45.2393 31.4006 43.6496 31.4534 42.7238 31.4006C43.7185 31.4557 43.3395 31.3684 46.783 31.2903C46.9116 31.2766 46.7623 31.0147 46.7991 30.9021Z" fill="#181813"/>
<path fill-rule="evenodd" clip-rule="evenodd" d="M45.979 30.4792L46.0755 30.4952C46.1856 30.503 46.2961 30.4905 46.4017 30.4585C46.2593 30.4631 46.1191 30.47 45.979 30.4792Z" fill="#9C1F1E"/>
<path fill-rule="evenodd" clip-rule="evenodd" d="M27.1076 29.0389C26.8906 29.0366 26.6736 29.0458 26.4575 29.0665C26.6735 29.0665 26.8917 29.0527 27.1076 29.0389C27.0502 29.0435 26.9032 29.0389 27.1076 29.0389Z" fill="#9C1F1E"/>
<path fill-rule="evenodd" clip-rule="evenodd" d="M32.6967 29.2019C32.3012 29.2057 31.9071 29.2496 31.5205 29.3328C31.7712 29.2603 32.0259 29.202 32.2832 29.1582C32.4189 29.1883 32.5576 29.203 32.6967 29.2019Z" fill="#9C1F1E"/>
<path fill-rule="evenodd" clip-rule="evenodd" d="M45.9975 29.967C46.1243 29.8849 46.2273 29.7708 46.2961 29.6362C46.1478 29.7016 46.0297 29.8206 45.9653 29.9693H45.9975C46.0572 29.9004 45.986 29.967 45.9975 29.967Z" fill="#9C1F1E"/>
<path fill-rule="evenodd" clip-rule="evenodd" d="M29.8847 29.2297C29.9789 29.2297 30.0731 29.2297 30.1765 29.2297L30.1489 29.1929C30.0524 29.1929 29.9192 29.1929 29.6895 29.1929C29.757 29.179 29.8273 29.1879 29.8893 29.2182C29.9812 29.2274 29.8778 29.2251 29.8847 29.2297Z" fill="#9C1F1E"/>
<path fill-rule="evenodd" clip-rule="evenodd" d="M27.1765 29.2914C26.8962 29.2914 26.3885 29.1972 26.1221 29.2914C26.4731 29.3155 26.8254 29.3155 27.1765 29.2914C27.1604 29.2937 27.0364 29.2891 27.1765 29.2914Z" fill="#9C1F1E"/>
<path fill-rule="evenodd" clip-rule="evenodd" d="M35.4786 29.2184C35.3063 29.2184 34.7458 29.2643 34.5735 29.262C34.8485 29.2464 35.1219 29.2095 35.3913 29.1517C35.4947 29.1357 35.4579 29.1816 35.4786 29.2184Z" fill="#9C1F1E"/>
<path fill-rule="evenodd" clip-rule="evenodd" d="M37.5644 29.2044C37.2577 29.1978 36.9509 29.2093 36.6455 29.2389L37.5805 29.3469C37.6034 29.3216 37.5897 29.2044 37.5644 29.2044Z" fill="#9C1F1E"/>
<path fill-rule="evenodd" clip-rule="evenodd" d="M46.2156 29.0272C46.0716 29.0121 45.9264 29.0168 45.7837 29.041H46.273H46.2156C46.0685 29.0065 46.2362 29.0318 46.2156 29.0272Z" fill="#9C1F1E"/>
<path fill-rule="evenodd" clip-rule="evenodd" d="M39.4274 29.3649C39.5905 29.3652 39.7534 29.3522 39.9144 29.3259C39.726 29.1513 38.6257 29.2041 38.3799 29.3259C38.6854 29.3259 39.1219 29.3442 39.4274 29.3557V29.3649Z" fill="#9C1F1E"/>
<path fill-rule="evenodd" clip-rule="evenodd" d="M42.1908 29.2572C42.0645 29.2572 41.5729 29.2388 41.2834 29.2572C41.5722 29.2924 41.8589 29.3422 42.1426 29.4065C42.1559 29.4002 42.1677 29.3912 42.1774 29.3802C42.187 29.3691 42.1944 29.3562 42.1989 29.3422C42.2034 29.3283 42.205 29.3135 42.2036 29.2989C42.2022 29.2843 42.1979 29.2701 42.1908 29.2572Z" fill="#9C1F1E"/>
<path fill-rule="evenodd" clip-rule="evenodd" d="M40.5231 29.5166C40.4749 29.473 40.5898 29.6246 40.6242 29.6659C40.7683 29.8296 40.9018 30.0022 41.0239 30.1828C41.0239 30.1828 40.5944 29.7233 40.5094 29.6177C40.4244 29.512 40.5231 29.5166 40.5231 29.5166Z" fill="#9C1F1E"/>
<path fill-rule="evenodd" clip-rule="evenodd" d="M32.8826 29.2456C32.5794 29.2564 32.2772 29.2855 31.9775 29.3329C32.1866 29.3329 33.032 29.3513 33.241 29.3467C33.1252 29.3011 33.0052 29.2672 32.8826 29.2456Z" fill="#9C1F1E"/>
<path fill-rule="evenodd" clip-rule="evenodd" d="M43.9574 29.2707C43.7667 29.2408 43.5737 29.2385 43.3808 29.2225C43.1878 29.2064 43.0684 29.3075 43.1694 29.2592C42.9259 29.3718 43.7139 29.3029 43.9574 29.2592C43.7713 29.2799 43.7139 29.3029 43.9574 29.2707Z" fill="#9C1F1E"/>
<path fill-rule="evenodd" clip-rule="evenodd" d="M46.76 30.2657C46.76 30.2657 46.1329 30.036 46.103 30.036C46.0272 30.0566 45.8458 30.0566 45.8986 30.0199C45.9445 29.866 46.4913 29.1676 46.4476 29.1309C45.9353 29.1309 45.4231 29.1309 44.9131 29.1722C45.0082 29.4254 45.158 29.6544 45.3519 29.843C45.4506 29.9556 45.5816 30.0474 45.4966 30.0337C45.4966 30.0337 45.0831 30.1095 45.09 30.1164C44.5731 30.1164 44.0011 30.1899 43.4819 30.2335C43.5623 30.2082 43.9414 29.4571 43.9414 29.4915C43.9529 29.4372 43.9575 29.3816 43.9552 29.3261C43.5922 29.4341 43.1236 29.3629 42.7124 29.3399C42.6825 29.3744 42.6526 29.4111 42.6182 29.4479C42.6182 29.4685 42.632 29.4892 42.6641 29.5076C42.7629 29.5627 43.2867 30.1232 43.1511 30.2335C42.6182 30.2772 42.0806 30.3185 41.5431 30.3162C41.5936 30.2565 42.1473 29.526 42.1633 29.4915C42.207 29.3973 41.2743 29.2963 41.2445 29.294C40.6885 29.2503 40.6127 29.3123 40.5553 29.3858C40.7478 29.7167 40.9717 30.0282 41.2238 30.3162C41.1985 30.3001 40.8516 30.3162 40.8218 30.3047C40.406 30.3047 39.5308 30.2243 39.4917 30.2611C39.4917 30.2749 40.0315 29.65 39.9282 29.3675C39.406 29.418 38.8811 29.4341 38.3569 29.4157C38.2259 29.5558 39.0828 30.2703 39.0001 30.2266C38.8912 30.1435 38.7601 30.0947 38.6234 30.0865C38.3293 30.0865 37.5666 30.1416 37.1371 30.1118C37.2267 29.8637 37.4748 29.6362 37.5735 29.3904C37.1325 29.3721 36.2549 29.2871 36.2641 29.3284C36.1699 29.4846 36.6845 29.9716 36.6822 29.9716C36.6799 29.9716 36.7925 30.0543 36.7971 30.0773C36.4456 30.0635 34.9111 30.0773 34.9111 30.0773C35.1249 29.8282 35.3163 29.5607 35.4831 29.2779C35.3361 29.3169 34.1415 29.2618 33.7188 29.2618C33.6938 29.3541 33.6791 29.4488 33.6752 29.5444C33.9448 29.7033 34.2063 29.8759 34.4585 30.0612C34.4585 30.0612 33.411 30.1278 33.0802 30.1393C33.0802 30.1393 32.5289 30.1393 32.5312 30.1393C32.6116 29.9969 33.1928 29.7511 33.264 29.4042C32.6897 29.4042 32.1154 29.4042 31.5411 29.4042C31.7865 29.6334 32.0018 29.8928 32.182 30.1761C31.4446 30.1761 30.7049 30.1761 29.9675 30.1761C29.9859 30.16 30.3282 29.503 30.4614 29.4111C30.33 29.3989 30.1977 29.3989 30.0663 29.4111C30.0663 29.3422 30.4706 29.3284 30.4982 29.2733C29.9491 29.294 28.5547 29.4088 28.5524 29.4111C28.5501 29.4134 28.5524 29.4249 28.5524 29.4249C28.7155 29.6759 28.9024 29.9105 29.1106 30.1255C29.0165 30.1095 29.0142 30.1255 29.0509 30.16C28.4468 30.16 26.9444 30.1003 27.0363 30.0934C27.0891 29.8637 27.5945 29.6339 27.6887 29.4203H27.521C27.5233 29.412 27.5233 29.4033 27.521 29.395C27.1351 29.395 26.0944 29.31 25.9704 29.4272C25.9933 29.4594 26.841 30.2473 26.3678 30.0773C26.3657 30.086 26.3607 30.0937 26.3536 30.0992C26.3464 30.1046 26.3377 30.1074 26.3287 30.1072C26.339 30.1212 26.3505 30.1343 26.3632 30.1462H24.9596C24.6081 30.1462 24.6541 30.0061 24.6587 29.9992C24.7827 29.7695 25.1181 29.6294 25.2445 29.3721L24.893 29.3514C24.8941 29.3422 24.8941 29.333 24.893 29.3238C24.3929 29.318 23.8929 29.3395 23.3952 29.3881C23.6987 29.5693 23.9436 29.8341 24.1005 30.1508C24.0729 30.2128 23.9925 30.1049 23.9603 30.0911C23.9487 30.1107 23.9416 30.1327 23.9396 30.1554C23.4404 30.1554 22.9427 30.147 22.4465 30.1301C22.4883 30.1073 22.5221 30.072 22.5429 30.0291C22.1088 30.2014 22.7727 29.5696 22.814 29.4203C22.4304 29.4203 22.049 29.3973 21.6654 29.379H21.376H21.2864C21.438 29.6087 21.5712 29.9533 21.7642 30.121C21.1138 30.1004 20.4629 30.1135 19.8139 30.16C19.7748 30.1072 19.8897 30.0635 19.8897 30.0635C20.0492 29.8469 20.1754 29.6076 20.2641 29.3537C20.3239 29.3537 18.8582 29.3996 18.7319 29.4157C18.8407 29.6205 18.9643 29.817 19.1017 30.0038C19.1678 30.0836 19.2452 30.1532 19.3315 30.2105C18.9363 30.1577 18.3506 30.2909 18.1829 30.4403C19.9081 30.1761 21.8584 30.392 23.5445 30.3943C24.9435 30.3691 26.3471 30.33 27.7369 30.3415C27.7002 30.2473 43.0615 30.8239 43.0547 30.5896C43.3165 30.5597 46.6934 30.16 46.7692 30.3599C46.8267 30.3139 46.8221 30.2795 46.76 30.2657Z" fill="#9C1F1E"/>
<path fill-rule="evenodd" clip-rule="evenodd" d="M43.9528 29.5441C43.985 29.4821 43.8609 29.6176 43.8816 29.5441C43.831 29.6268 43.7415 29.9691 43.6909 30.0518C43.7116 30.0518 43.6909 30.1138 43.7208 30.0862C43.7506 30.0265 43.9252 29.574 43.9528 29.5441Z" fill="#9C1F1E"/>
<path fill-rule="evenodd" clip-rule="evenodd" d="M21.5943 29.2501C21.9664 29.2639 22.3432 29.2914 22.7153 29.2914C22.7528 29.2937 22.7904 29.2937 22.8279 29.2914C22.8302 29.2677 22.8302 29.2439 22.8279 29.2202C22.6464 29.2317 22.0928 29.3512 22.0675 29.2202L21.5874 29.2455V29.2593L21.5943 29.2501Z" fill="#9C1F1E"/>
<path fill-rule="evenodd" clip-rule="evenodd" d="M33.2869 17.5321L33.2731 17.6217C33.257 17.6217 33.2386 17.6217 33.2386 17.5849C33.2386 17.5482 33.2386 17.4471 33.2386 17.3782C33.2526 17.399 33.268 17.419 33.2846 17.4379C33.2846 17.4701 33.2846 17.4999 33.2846 17.5321H33.2869ZM33.1881 17.0726V17.0979C33.1815 17.0993 33.1756 17.1027 33.171 17.1076C33.1665 17.1126 33.1636 17.1188 33.1628 17.1255C33.1514 17.1716 33.1563 17.2203 33.1766 17.2633C33.1766 17.3942 33.1605 17.5252 33.1421 17.6561C33.1421 17.709 33.1283 17.7733 33.1146 17.8353V17.8238C33.1146 17.7595 33.1146 17.6929 33.1146 17.6286C33.1062 17.4372 33.0634 17.2489 32.9882 17.0726C32.9828 17.0589 32.9759 17.0458 32.9675 17.0336L33.149 16.8337C33.149 16.859 33.1628 16.8843 33.172 16.9095C33.1809 16.9352 33.1924 16.9598 33.2065 16.9831C33.2008 17.0041 33.2008 17.0263 33.2065 17.0474C33.2057 17.0573 33.2057 17.0673 33.2065 17.0772L33.1881 17.0726ZM33.5258 16.0848C33.4957 16.1497 33.4545 16.2088 33.404 16.2594C33.3833 16.1974 33.3489 16.1446 33.3098 16.1675C33.1628 16.2525 32.9147 16.4133 32.747 16.2847C32.6597 16.2204 32.7057 16.4892 32.7677 16.5374C32.8041 16.5646 32.8458 16.584 32.8901 16.5943C32.9344 16.6045 32.9803 16.6055 33.025 16.5971C32.7769 16.8843 32.4759 17.137 32.4162 17.5298C32.4047 17.6079 32.5403 17.8445 32.5632 17.6929C32.608 17.4758 32.7159 17.2769 32.8734 17.1209C32.8758 17.1397 32.8804 17.1582 32.8871 17.176C32.9431 17.3169 32.9689 17.4679 32.963 17.6194L32.8757 17.5183C32.8389 17.4747 32.7998 17.493 32.7953 17.5459C32.793 17.6151 32.8158 17.6828 32.8596 17.7365L32.9584 17.8537C32.9526 17.9501 32.9526 18.0467 32.9584 18.1431C32.9584 18.1707 33.0181 18.3729 33.0778 18.3292C33.0903 18.3204 33.1018 18.3104 33.1123 18.2993C33.1329 18.3246 33.1605 18.3407 33.1858 18.32L33.2271 18.2787V18.8874C33.2271 18.9609 33.3741 19.1976 33.3741 19.0482V17.9088C33.3752 17.8928 33.3752 17.8766 33.3741 17.8606C33.3902 17.8606 33.4017 17.8606 33.4063 17.833C33.4109 17.8054 33.4224 17.7503 33.4293 17.709C33.4293 17.709 33.4293 17.709 33.4155 17.709C33.3948 17.658 33.3771 17.6058 33.3627 17.5528C33.3627 17.5528 33.3627 17.5528 33.3627 17.5711C33.3589 17.6561 33.3481 17.7406 33.3305 17.8238C33.3305 17.8721 33.2823 17.8238 33.2846 17.8009C33.2887 17.7191 33.2987 17.6377 33.3144 17.5574C33.3144 17.3874 33.3144 17.2174 33.3328 17.0474C33.3328 17.0014 33.3719 17.006 33.381 17.0474L33.4017 17.1393C33.4017 17.0612 33.3489 16.9417 33.296 16.9417C33.2885 16.9395 33.2806 16.9395 33.2731 16.9417C33.2693 16.9191 33.264 16.8969 33.257 16.8751C33.2559 16.869 33.2559 16.8628 33.257 16.8567C33.2754 16.8981 33.3029 16.9302 33.3351 16.9325L33.3558 16.9164C33.3535 16.9043 33.3535 16.8918 33.3558 16.8797C33.3558 16.8636 33.3558 16.8314 33.3719 16.8222C33.3677 16.808 33.3677 16.7929 33.3719 16.7786C33.4205 16.7329 33.4658 16.6838 33.5074 16.6316C33.489 16.6109 33.4683 16.5971 33.45 16.6063L33.3994 16.6293L33.4431 16.5925C33.5318 16.5156 33.6011 16.4188 33.6452 16.31C33.6958 16.2296 33.5717 15.9838 33.5258 16.0894V16.0848Z" fill="#181813"/>
<path fill-rule="evenodd" clip-rule="evenodd" d="M32.6806 17.1372C32.66 17.1394 32.6392 17.1394 32.6186 17.1372C32.591 17.1372 32.5956 17.066 32.6186 17.0499L32.6324 17.0361H32.6462C32.6524 17.0714 32.664 17.1055 32.6806 17.1372Z" fill="#181813"/>
<path fill-rule="evenodd" clip-rule="evenodd" d="M32.7679 16.733C32.7472 16.733 32.738 16.6985 32.7426 16.671C32.752 16.6605 32.762 16.6505 32.7725 16.6411C32.8 16.6549 32.7977 16.733 32.7679 16.733Z" fill="#181813"/>
<path fill-rule="evenodd" clip-rule="evenodd" d="M43.877 24.2192C44.5156 23.6358 44.3088 22.1816 44.2675 21.6395C44.2307 21.18 44.1687 20.6976 44.0998 20.229C44.0561 21.3064 44.0148 22.3792 44.0469 23.4566C44.0289 23.5131 44.0143 23.5706 44.0033 23.6289C43.9551 23.8241 43.9229 24.0263 43.877 24.2192Z" fill="#181813"/>
<path fill-rule="evenodd" clip-rule="evenodd" d="M46.3213 18.8738C46.3328 19.0897 46.3213 19.3126 46.3213 19.5216C46.2588 19.2195 46.2303 18.9112 46.2364 18.6027C46.2374 18.5821 46.2374 18.5614 46.2364 18.5407C46.2616 18.6556 46.2823 18.7704 46.3099 18.8807L46.3213 18.8738ZM52.4801 10.0985C52.4912 10.0279 52.4862 9.95571 52.4655 9.8873C52.4448 9.8189 52.409 9.75603 52.3607 9.70338C52.232 9.64595 52.131 9.55866 51.9794 9.50582C51.6949 9.38118 51.3952 9.29467 51.088 9.24854C51.0076 9.24854 50.0543 9.24854 50.0428 9.24854C49.4754 9.2738 48.2832 9.29218 47.7456 9.35191C47.7456 9.35191 47.5159 9.58163 47.4493 9.63217C47.5136 9.61838 47.169 9.96067 47.107 9.97445C47.084 9.80905 47.6285 9.35421 47.5526 9.34272C47.2244 9.32847 46.8955 9.34154 46.5694 9.38177C46.3263 9.3925 46.0848 9.42634 45.8481 9.48285C45.7654 9.5219 45.8688 9.78608 45.9423 9.75162C46.0158 9.71716 46.1008 9.68041 46.0962 9.685C46.0916 9.6896 45.5679 10.5901 45.5495 10.5786C45.5311 10.5671 45.4438 10.8083 45.4231 10.7463C45.4231 10.7302 44.8925 10.0893 44.9453 10.1215C44.5439 9.94164 44.1207 9.81499 43.6865 9.74473C43.5142 9.89864 43.1512 9.99972 43.1558 10.1904C43.1558 10.3007 44.2125 11.1093 44.3664 11.424C44.5203 11.7387 44.7271 12.6139 44.7707 12.7012C44.7845 13.391 44.7638 14.081 44.7087 14.7687C44.8098 16.3768 44.7087 19.8226 44.7087 19.8685C44.7432 20.0982 44.7868 20.9574 44.9384 22.23C45.0418 23.1489 44.479 24.6719 44.4583 24.7202C44.3228 24.8236 43.9989 25.1475 43.9575 25.1934C43.7416 25.3979 43.9047 25.5541 44.1046 25.6528C44.9614 25.5633 45.3611 25.1475 45.6896 24.9017C45.8254 24.8085 45.9845 24.7552 46.1491 24.7477C46.1835 24.6807 46.2097 24.6097 46.2272 24.5364C46.29 24.337 46.3309 24.1313 46.3489 23.9231C46.3489 23.8587 46.3696 23.7967 46.3788 23.7324C46.3788 23.6864 46.5074 22.5631 46.5005 22.4138C46.4867 22.2139 46.5281 21.0355 46.5281 20.6564C46.5205 20.3898 46.5484 20.1233 46.6108 19.8639C46.6384 19.7996 46.5763 19.7605 46.4684 19.7399C46.4684 19.6273 46.4684 19.5101 46.4684 19.3976C46.5074 18.0192 46.5304 16.6547 46.4684 15.2856C46.5108 15.0771 46.5392 14.8661 46.5534 14.6538C46.5373 14.6883 46.427 14.5068 46.2915 14.4999C46.3552 14.3784 46.4266 14.261 46.5051 14.1485C46.4243 13.0115 46.5807 11.8701 46.9646 10.7968C46.8566 10.8313 47.2816 10.3236 47.3918 10.1077L48.143 10.1697C48.738 10.218 50.0658 10.2869 50.2496 10.2777C50.1982 10.7628 50.2028 11.2523 50.2633 11.7364C50.2633 11.7525 50.2863 11.7571 50.2978 11.7686C51.0903 11.4607 51.6945 10.9531 52.4733 10.62C52.4557 10.4464 52.4581 10.2715 52.4801 10.0985Z" fill="#181813"/>
<path fill-rule="evenodd" clip-rule="evenodd" d="M25.7291 15.6437H25.6349C25.6303 15.6432 25.626 15.6414 25.6223 15.6385C25.6187 15.6357 25.6159 15.6319 25.6143 15.6276C25.6605 15.6231 25.7065 15.6162 25.7521 15.6069C25.7613 15.6276 25.7521 15.6437 25.7291 15.6437Z" fill="#181813"/>
<path fill-rule="evenodd" clip-rule="evenodd" d="M27.1283 22.8318C27.1283 22.756 27.1283 22.6825 27.1122 22.6021V22.3333C27.0387 22.1565 26.9789 22.3333 27.0272 22.4436C27.0749 22.5689 27.1088 22.6991 27.1283 22.8318Z" fill="#181813"/>
<path fill-rule="evenodd" clip-rule="evenodd" d="M24.6816 25.8001C24.7898 25.8 24.8976 25.7884 25.0032 25.7656L24.8838 25.7495H24.7827L24.6816 25.8001Z" fill="#2D2927"/>
<path fill-rule="evenodd" clip-rule="evenodd" d="M5.3714 13.6319C5.3714 13.5147 5.3714 13.4021 5.3714 13.2804C5.3772 13.1978 5.3772 13.1149 5.3714 13.0323C5.32086 12.7474 5.25884 12.4695 5.18762 12.1984C5.13124 12.1573 5.08497 12.1038 5.05233 12.0421C5.0197 11.9804 5.00154 11.9121 4.99925 11.8423C5.00153 11.7878 5.01079 11.7337 5.02682 11.6815C4.70062 10.7351 4.19753 9.93337 3.43945 9.4165C4.171 10.3694 4.67399 11.4776 4.90966 12.6556C5.05821 12.9818 5.21213 13.3072 5.3714 13.6319Z" fill="#2D2927"/>
<path fill-rule="evenodd" clip-rule="evenodd" d="M13.2163 17.1416C13.1634 16.985 13.1227 16.8245 13.0946 16.6615C13.067 16.1033 13.1199 15.0925 12.9269 14.9409C12.9269 15.4877 12.9016 17.7619 13.1727 19.3607C13.3588 19.5169 13.2163 17.3093 13.2163 17.1416Z" fill="#181813"/>
<path fill-rule="evenodd" clip-rule="evenodd" d="M0.42789 21.6832C0.450862 21.5109 0.473834 21.3409 0.492211 21.1686C0.462348 20.5897 0.280869 18.3476 0.342893 17.7687C0.342893 17.5919 0.326813 17.4173 0.308435 17.2427C0.28776 17.4908 0.519778 17.8009 0.489914 18.0467C0.460051 18.6991 0.434781 20.9963 0.42789 21.6832Z" fill="#181813"/>
<path fill-rule="evenodd" clip-rule="evenodd" d="M2.19443 13.6773C2.24267 13.0686 2.26105 12.4116 2.00146 11.936C2.04281 12.5172 2.11632 13.0984 2.19443 13.6773Z" fill="#2D2927"/>
<path fill-rule="evenodd" clip-rule="evenodd" d="M0.967704 22.8413C0.909646 23.0708 0.832813 23.2952 0.737984 23.5121C0.737984 23.627 0.469212 24.176 0.705823 23.8521C0.833095 23.6773 0.930158 23.4824 0.992973 23.2755C0.98048 23.233 0.975048 23.1888 0.976893 23.1445C0.970001 23.0435 0.967704 22.9424 0.967704 22.8413Z" fill="#181813"/>
<path fill-rule="evenodd" clip-rule="evenodd" d="M12.9039 22.9631C12.8602 22.5037 12.7431 21.6445 12.7247 21.3551C12.7684 21.6055 13.4139 23.3904 13.4437 23.6523C13.4437 23.7465 12.9452 23.0734 12.9039 22.9792V22.9631ZM7.62033 19.5311C7.77195 19.5518 8.18085 19.6574 8.32787 19.6919C8.40827 19.747 8.48638 19.8068 8.55759 19.8688C8.32787 19.7976 7.82708 19.6391 7.60655 19.5334L7.62033 19.5311ZM2.40798 19.9905C2.37812 20.3948 2.34136 20.829 2.28393 21.2632C2.32528 20.8037 2.36893 20.319 2.40798 19.8481C2.40798 19.8963 2.40798 19.9446 2.40798 19.9905ZM14.3534 24.7963C13.5195 24.0681 12.4445 18.4376 12.3526 17.6129C11.9184 14.7736 12.0631 13.687 12.2469 10.9924C12.2951 10.3032 11.6496 9.80704 11.498 9.61408C11.2109 9.6784 10.841 9.55435 10.5401 9.6738C10.7698 10.0896 10.8226 11.0751 10.8111 11.082C10.8226 11.1509 9.93821 14.22 9.95199 14.2981C9.99794 14.5714 10.1817 16.7078 10.1817 16.7078C10.0623 16.8434 8.11423 17.6795 7.76276 17.5716C5.9204 17.0409 4.70518 13.5446 4.59492 13.138C4.22885 11.9327 3.69776 10.784 3.01674 9.72434C2.95012 9.63705 2.8835 9.54976 2.80999 9.46476C2.7227 9.49233 1.53964 9.35449 1.38573 9.35449H0.919397C0.811428 9.35449 0.894128 9.64853 0.983719 9.64853C1.12614 9.64853 1.25938 9.64853 1.39032 9.66691C1.39032 9.68069 1.50748 9.82542 1.51437 9.8415C1.36505 9.88055 1.21803 9.9242 1.06642 9.95866C1.29614 10.1309 2.18515 12.7383 1.25709 13.1747C1.28925 13.2207 1.92327 22.5037 1.60856 23.7258C1.34668 24.8009 -0.373927 24.9984 0.0740268 25.6279C0.278478 25.9127 1.22263 25.5498 1.79922 25.4418C1.88422 25.513 2.66068 24.9617 2.81689 24.7526C3.05577 24.0592 3.24613 23.3499 3.38659 22.63C3.82995 20.4752 3.76103 16.106 3.73347 15.4559C3.99114 15.9829 4.28833 16.4898 4.62249 16.972C4.65694 17.0409 4.41574 16.802 4.2802 16.6688C4.93261 18.5433 8.50016 20.4086 8.59894 20.4592H8.61272C8.61272 20.4592 8.64718 20.2294 8.58975 20.1835L8.44732 20.0962C8.8746 20.234 9.4512 20.0709 9.34323 20.0526C9.64417 19.7401 10.2621 18.8511 10.4482 18.688C10.501 18.688 10.7147 19.7103 10.7261 19.9078C10.8318 19.9216 10.9788 19.855 11.034 20.1376C11.4268 22.0626 11.6772 23.3858 12.642 25.065C13.1481 25.3358 13.6818 25.5514 14.234 25.7083C14.2133 25.6669 14.5165 25.8162 14.4959 25.7772C14.5671 25.83 15.3091 25.9127 15.2999 25.6738C15.2723 25.1707 14.6498 25.0651 14.3511 24.8009L14.3534 24.7963Z" fill="#181813"/>
<path fill-rule="evenodd" clip-rule="evenodd" d="M23.1494 25.2946C22.7832 25.057 22.4848 24.7285 22.2833 24.3413C21.7734 23.3121 22.0927 22.0441 22.0536 20.8312C22.0332 19.8814 21.9255 18.9356 21.732 18.0056C21.3645 16.579 20.3721 15.7406 18.8375 15.5591C18.7769 15.5641 18.7207 15.593 18.6813 15.6395C18.5931 15.5942 18.4956 15.5698 18.3965 15.5683C18.3804 15.6372 18.3597 15.7084 18.3367 15.7773C18.6331 15.9657 19.065 16.2505 19.1752 16.3057C19.3055 16.3695 19.4482 16.404 19.5933 16.4067C19.8047 16.4481 20.078 17.0546 20.1286 17.4405C20.2319 18.2698 20.1469 19.1152 20.1469 20.0271C20.1469 20.0271 20.039 22.2026 20.5765 23.6682C20.3767 23.7945 18.7502 24.9454 18.0496 24.8604C17.6614 24.7226 17.0733 24.447 17.4707 22.7424C17.7303 21.6283 18.9937 20.9391 19.2051 20.8426C19.2014 20.7979 19.1952 20.7535 19.1867 20.7094H19.0925C19.0925 20.6622 19.0779 20.6161 19.0508 20.5775C19.0237 20.5389 18.9853 20.5095 18.9409 20.4935C18.7112 20.4223 17.6453 20.5739 17.3329 20.7094C17.0273 20.8335 15.9821 21.9499 15.9798 21.9522C15.1413 23.3305 15.8167 25.607 17.9416 25.6484H18.0519C18.2471 25.6346 19.8552 25.1889 19.9448 25.1729C19.9448 25.1729 20.7924 24.9799 21.2197 24.9248C21.3438 25.0994 22.3224 25.6461 22.7336 25.7219C22.9587 25.7632 23.4549 25.4899 23.1494 25.2946Z" fill="#181813"/>
<path fill-rule="evenodd" clip-rule="evenodd" d="M17.9026 23.5556C17.9231 23.5379 17.9475 23.5252 17.9738 23.5184C18.0001 23.5116 18.0276 23.511 18.0542 23.5166C18.0542 23.2868 18.0955 22.7906 18.0978 22.5586C18.0975 22.5152 18.0865 22.4726 18.0657 22.4346C17.9625 22.7265 17.8856 23.0271 17.8359 23.3328C17.8504 23.4092 17.8727 23.4838 17.9026 23.5556Z" fill="#181813"/>
<path fill-rule="evenodd" clip-rule="evenodd" d="M32.3267 23.4382C32.3123 23.4016 32.2922 23.3674 32.2669 23.3372C32.2669 23.0914 32.2669 22.8525 32.2669 22.6135L32.3565 22.965C32.3565 23.181 32.3818 23.4015 32.3795 23.6197C32.3681 23.5581 32.352 23.4974 32.3313 23.4382H32.3267ZM32.0763 23.9184V24.0493L32.0119 23.9758L31.9982 23.939C31.9338 23.8655 31.8764 23.7851 31.819 23.7093L31.7799 23.6519C31.8695 23.73 31.9706 23.8104 32.0763 23.8816V23.9184ZM26.2046 21.9129C26.1748 21.867 26.1449 21.8417 26.1265 21.8716C26.1265 21.7544 26.1127 21.6418 26.1104 21.5293C26.1104 21.2996 26.1104 21.0698 26.1104 20.8401C26.1091 20.8279 26.1091 20.8156 26.1104 20.8034C26.1213 21.0407 26.1528 21.2767 26.2046 21.5086C26.2046 21.6464 26.2046 21.7843 26.2046 21.9221V21.9129ZM26.1403 18.6371C26.1855 18.8918 26.2063 19.1503 26.2023 19.409C26.2023 19.5376 26.2023 19.6662 26.2023 19.7926C26.2023 19.9189 26.1403 20.0223 26.1127 20.1234C26.1127 19.6272 26.1311 19.131 26.1426 18.6371H26.1403ZM34.7456 15.3934C34.7295 15.1637 34.5504 15.1017 34.2402 15.1224C33.8842 15.1431 32.7907 16.0413 32.499 15.9884C32.0556 17.052 31.9568 18.2695 31.9729 19.4342C31.9729 20.2888 32.1314 20.87 32.1314 21.7314C32.1314 21.8026 32.0855 22.5561 32.0946 22.88C32.0946 23.1465 32.0946 23.413 32.0832 23.6772C31.8656 23.5408 31.6671 23.3763 31.4928 23.1878C31.1 22.4206 30.8679 21.4856 30.505 20.6609C30.1007 19.742 29.8824 18.8232 29.2783 18.1018C29.2392 18.0398 29.0233 17.8721 29.021 17.8377C29.0921 17.8826 29.1695 17.9167 29.2507 17.9387C28.171 16.6293 25.7842 15.1821 25.7773 15.1821C25.7704 15.1821 25.7314 15.1821 25.7314 15.228C25.7314 15.274 25.2214 15.228 25.272 15.3062C25.4465 15.5359 25.5017 16.2894 25.5017 16.9624C25.4511 17.6516 25.3547 19.0919 25.3524 19.0896C25.3524 19.17 25.3524 19.2504 25.3524 19.3194V19.2872C25.3524 19.3446 25.3524 19.3998 25.3524 19.4572C25.3799 19.6295 25.458 20.6655 25.4626 20.7184C25.4626 20.8539 25.6464 22.0668 25.6326 22.0622C25.6803 22.3541 25.7087 22.6488 25.7176 22.9443C25.6763 23.243 25.6372 24.41 25.2743 24.8326C24.9044 25.2921 24.5369 25.3932 24.677 25.5586C25.0262 25.9744 26.1196 25.5999 26.1196 25.5999C26.3169 25.4164 26.5026 25.2208 26.6755 25.0141C26.8618 24.5045 27.0153 23.9835 27.135 23.4543C27.1166 23.3969 27.243 23.2981 27.2177 23.2246C27.2177 22.9949 27.3027 23.0431 27.2751 22.8226C27.305 22.8042 27.2751 22.6549 27.3073 22.6342C27.2921 22.427 27.2921 22.2189 27.3073 22.0117C27.3073 22.0117 27.1304 21.782 27.112 21.7636C27.1419 21.8118 27.3555 21.8738 27.39 21.9359C27.39 21.8187 27.367 21.4282 27.3417 21.3041C27.3417 21.0308 27.2131 20.0361 27.1327 19.0207C27.0305 18.3002 27.046 17.5678 27.1786 16.8522C27.3417 17.0382 27.0913 17.5574 27.1786 17.794C27.4211 18.0106 27.6512 18.2407 27.8678 18.4832C28.1526 19.1287 28.3824 19.8202 28.6672 20.5369H28.642C28.7222 20.6943 28.7875 20.8589 28.8372 21.0285C29.4203 22.3453 30.1884 23.5721 31.1183 24.6718C31.1877 24.7595 31.2646 24.841 31.3481 24.9153C31.8879 25.0739 32.453 25.1451 32.9837 25.2875C32.9837 25.2875 32.9837 25.2875 32.9837 25.2737V25.2622C32.9941 25.2569 33.0041 25.2508 33.0135 25.2438C33.0296 25.2301 33.0411 25.2117 33.0549 25.1979C33.11 25.2507 33.1628 25.3082 33.2157 25.3633C33.2685 25.4184 33.5166 24.8648 33.5028 24.5662C33.5151 24.5751 33.5281 24.5828 33.5419 24.5891C33.567 24.3938 33.6085 24.2009 33.6659 24.0125C33.8198 23.5324 33.8015 23.0316 33.8635 22.5377C33.9048 22.2069 33.9783 21.6189 33.7647 21.3547C33.875 21.4213 33.9324 20.4358 33.8612 20.0108C33.8612 19.3217 33.6866 18.6486 33.7325 17.9755C33.6942 17.6368 33.6888 17.2952 33.7165 16.9555C33.8221 16.2503 34.2287 15.8713 34.7456 15.3934Z" fill="#181813"/>
<path fill-rule="evenodd" clip-rule="evenodd" d="M55.9075 25.1886C55.541 24.9533 55.2424 24.6262 55.0414 24.2399C54.5315 23.2107 54.8508 21.9427 54.8117 20.7297C54.789 19.7812 54.6783 18.8368 54.4809 17.9088C54.118 16.4776 53.1279 15.6414 51.6025 15.46C51.5426 15.466 51.4871 15.4938 51.4463 15.5381C51.3576 15.4945 51.2603 15.471 51.1615 15.4691C51.1431 15.5381 51.1247 15.607 51.1017 15.6782C51.3958 15.8643 51.8299 16.1514 51.9402 16.2066C52.0705 16.2704 52.2132 16.3049 52.3583 16.3076C52.5696 16.349 52.843 16.9554 52.8935 17.3414C52.9969 18.1684 52.9119 19.016 52.9119 19.928C52.9119 19.928 52.804 22.1035 53.3392 23.5668C53.1416 23.6931 51.5152 24.8463 50.8123 24.7613C50.4241 24.6212 49.836 24.3478 50.2334 22.6433C50.493 21.5292 51.7564 20.84 51.9678 20.7435C51.9641 20.6988 51.9579 20.6543 51.9494 20.6103H51.8552C51.8552 20.5631 51.8406 20.517 51.8135 20.4784C51.7864 20.4397 51.748 20.4104 51.7036 20.3943C51.4739 20.3231 50.408 20.4748 50.0956 20.6103C49.79 20.7343 48.7448 21.8508 48.7425 21.8531C47.904 23.2314 48.5794 25.5056 50.7043 25.5493H50.8123C51.0098 25.5355 52.6179 25.0898 52.7075 25.0737C52.7075 25.0737 53.5551 24.8785 53.9824 24.8257C54.1065 25.0002 55.0851 25.547 55.4963 25.6205C55.7168 25.6595 56.213 25.3931 55.9075 25.1886Z" fill="#181813"/>
<path fill-rule="evenodd" clip-rule="evenodd" d="M50.6583 23.4521C50.6792 23.4342 50.704 23.4214 50.7307 23.4146C50.7574 23.4078 50.7853 23.4073 50.8122 23.413C50.8122 23.1833 50.8536 22.6871 50.8559 22.4551C50.8556 22.4117 50.8445 22.3691 50.8237 22.3311C50.72 22.6229 50.6431 22.9235 50.594 23.2293C50.6087 23.3053 50.6302 23.3799 50.6583 23.4521Z" fill="#181813"/>
<path fill-rule="evenodd" clip-rule="evenodd" d="M39.8455 3.31723C39.8412 3.30308 39.8358 3.28926 39.8294 3.27588C39.7327 3.55846 39.7028 3.85963 39.7421 4.15571C39.7123 3.98342 39.8432 3.88693 39.9328 3.67789C39.9236 3.60208 39.8593 3.39304 39.8455 3.31723Z" fill="#9C1F1E"/>
<path fill-rule="evenodd" clip-rule="evenodd" d="M36.1676 7.4496C36.1606 7.4649 36.1521 7.47951 36.1423 7.49325V7.39676L36.1814 7.3623C36.1803 7.373 36.1803 7.38377 36.1814 7.39447L36.1676 7.4496Z" fill="#9C1F1E"/>
<path fill-rule="evenodd" clip-rule="evenodd" d="M37.1507 5.51539C37.1163 5.51539 37.1071 5.41202 37.1507 5.40283H37.176C37.1944 5.43499 37.215 5.46715 37.2357 5.49931L37.1507 5.51539Z" fill="#9C1F1E"/>
<path fill-rule="evenodd" clip-rule="evenodd" d="M39.7421 4.85626C39.7628 4.75518 39.7858 4.65411 39.8064 4.55533V4.35547C39.7651 4.57141 39.5928 5.19165 39.5583 5.40988C39.5836 5.35475 39.726 4.9045 39.7421 4.85626Z" fill="#9C1F1E"/>
<path fill-rule="evenodd" clip-rule="evenodd" d="M27.1421 3.66653C27.1746 3.6838 27.206 3.70298 27.2363 3.72396L27.6429 3.60451C28.4331 3.33037 29.2272 3.06007 30.0251 2.79359C30.0424 2.74505 30.0656 2.69878 30.094 2.65576C29.1039 2.97737 28.1161 3.32425 27.1421 3.66653Z" fill="#9C1F1E"/>
<path fill-rule="evenodd" clip-rule="evenodd" d="M23.7146 5.48801L23.7445 5.47652C23.3715 5.46017 22.9981 5.49574 22.6349 5.58219C22.6216 5.58731 22.6101 5.59606 22.6016 5.60743C22.593 5.6188 22.5879 5.63235 22.5867 5.64651C22.9726 5.59138 23.3379 5.53855 23.7146 5.48801Z" fill="#9C1F1E"/>
<path fill-rule="evenodd" clip-rule="evenodd" d="M38.9611 0.813264C38.8922 0.79259 38.6281 0.684621 38.5614 0.666244C38.3018 0.608876 38.0469 0.532087 37.7988 0.436523C37.7988 0.436523 36.8799 0.523817 36.8799 0.526114C37.1326 0.526114 38.0078 0.721376 38.2169 0.872992C38.4663 0.875901 38.7154 0.855908 38.9611 0.813264Z" fill="#9C1F1E"/>
<path fill-rule="evenodd" clip-rule="evenodd" d="M34.539 5.61895C34.4873 5.2284 34.4688 4.83416 34.4839 4.44049L34.539 4.41752C34.5231 4.80883 34.5408 5.20079 34.5918 5.58909C34.6056 5.64193 34.5551 5.69246 34.539 5.61895ZM31.2104 7.17646C31.1529 7.24997 31.1047 7.057 31.1438 7.00646C31.2622 6.8569 31.4033 6.72669 31.5618 6.62053C31.5743 6.6806 31.5952 6.73861 31.6239 6.79282C31.4664 6.89776 31.3268 7.02728 31.2104 7.17646ZM27.7117 6.54243C27.6207 6.52719 27.5275 6.53117 27.4381 6.55412C27.3486 6.57706 27.265 6.61847 27.1926 6.67567C27.1489 6.70783 27.1145 6.60216 27.1282 6.53094C27.312 6.46892 27.4981 6.40689 27.6842 6.34027C27.76 6.35406 27.7646 6.55162 27.7025 6.54243H27.7117ZM40.8471 1.20144C40.8265 1.21292 40.8035 1.21981 40.7828 1.229C40.7505 1.17407 40.7128 1.1225 40.6702 1.07509C40.2108 1.34846 39.6135 1.30481 39.0783 1.30481C37.9182 1.43116 36.8546 1.31859 35.6715 1.35075C35.5698 1.26974 35.4453 1.22238 35.3155 1.21522C35.1799 1.25657 34.5252 1.4748 34.346 1.53683H34.3621L34.3415 1.54831C33.0412 2.00775 31.7778 2.52922 30.4753 3.04149C29.6069 3.38378 25.8992 4.98493 25.8809 4.95506C25.7591 5.01479 24.8954 5.4145 24.6174 5.51788C24.6174 5.53855 24.0293 5.56152 23.9581 5.47653L23.7743 5.55463C23.769 5.57225 23.7589 5.58804 23.7451 5.60022C23.7313 5.6124 23.7144 5.62048 23.6962 5.62355C23.6412 5.62975 23.5867 5.63973 23.5331 5.65341C23.3448 5.72692 23.1587 5.79814 22.9749 5.88313C22.7985 6.00596 22.6297 6.13945 22.4695 6.28284C22.3692 6.43789 22.3269 6.6234 22.3501 6.80661C22.288 6.83188 22.226 6.85944 22.1617 6.88241C22.1182 6.99477 22.0821 7.10988 22.0537 7.22699C21.9486 7.29755 21.8657 7.39661 21.8149 7.51257C21.764 7.62852 21.7473 7.75656 21.7666 7.8817C21.7666 7.9621 21.8332 8.0448 21.8493 8.00575C22.0055 7.64049 23.8432 6.32419 24.2269 5.84408C24.2889 5.76597 24.7162 5.89232 24.8931 5.93367C24.8219 6.21623 24.7644 6.49419 24.7231 6.7262C24.6713 7.07962 24.6713 7.43869 24.7231 7.79211C24.3822 8.40646 24.0754 9.03915 23.8042 9.6873C23.8042 9.6873 23.5515 10.172 23.5561 10.1858C23.446 10.2502 23.3288 10.3019 23.2069 10.3397C23.0944 10.3397 23.2069 12.035 23.3195 12.3543C23.3496 12.527 23.3965 12.6962 23.4596 12.8597C23.4478 12.8992 23.4439 12.9405 23.4481 12.9815C23.5906 12.9493 23.7353 12.9355 23.8823 12.9172C23.897 12.7484 23.9246 12.5809 23.965 12.4164C23.9981 12.2185 24.0559 12.0255 24.1373 11.8421C24.1074 11.8053 24.0293 11.7732 24.05 11.7295C24.4543 10.8267 26.1359 9.82053 26.5953 9.53568C26.3656 10.1261 26.1129 11.9294 26.5516 12.1338C26.7285 12.1338 26.5861 10.9048 27.5142 10.4132C28.8603 9.07165 30.8061 8.78679 31.5733 8.6145C32.1381 8.52969 32.7096 8.49892 33.2801 8.52262C33.3192 8.68342 33.3628 8.943 33.4157 9.10151H33.2618C33.2706 9.1231 33.2814 9.14386 33.2939 9.16353H33.4364C33.4915 9.32204 33.5535 9.48285 33.6201 9.63906H33.5053C33.5092 9.6526 33.5146 9.66569 33.5214 9.67811H33.6431C33.8177 10.0732 34.4678 11.2655 34.5436 11.3872C34.5962 11.5279 34.6815 11.654 34.7926 11.7551C34.9037 11.8562 35.0372 11.9293 35.1822 11.9684C35.3109 12.0396 35.4878 11.9477 35.4395 11.6813C35.3178 11.0105 35.2098 8.35033 35.2098 8.35033H35.4188C35.4602 8.44221 35.9564 9.32204 36.0644 9.47595C36.1723 9.62987 37.128 11.1391 37.1785 11.1483C37.3161 11.3284 37.4634 11.5009 37.6196 11.6652C37.6196 11.6652 37.7551 11.7846 37.7574 11.7892C38.1226 12.5152 38.4718 12.019 38.2559 11.4171C38.141 11.1024 38.0262 10.7923 37.8952 10.4798C37.8088 10.193 37.7037 9.91213 37.5805 9.63906C37.4327 9.19703 37.3108 8.74679 37.2153 8.2906C37.1992 8.2033 37.1348 8.02412 37.1348 8.01493C37.1165 7.90007 37.1004 7.78521 37.0843 7.67035C37.053 7.55338 37.0091 7.44016 36.9534 7.33267C36.9534 7.23618 36.9534 7.1397 36.9534 7.04092C36.9534 6.94214 37.0131 6.972 37.0108 7.04092C37.0039 7.17254 37.0039 7.30442 37.0108 7.43604C37.0108 7.43604 37.0108 7.43604 37.0246 7.43604C37.0659 7.48428 37.105 7.53712 37.1417 7.58995C37.1417 7.56928 37.1601 7.54631 37.1716 7.52333C37.1716 7.26375 37.3806 5.743 37.631 5.37775C37.499 5.16148 37.4064 4.92346 37.3577 4.6748C37.3117 4.50481 37.4473 4.21536 37.5277 4.52089C37.6747 5.07222 38.1295 5.29275 38.4787 5.69017C38.6325 5.86042 38.7992 6.01862 38.9772 6.16339C39.1744 6.05502 39.3484 5.90908 39.4895 5.73381C39.4895 5.09519 39.7904 4.33712 39.6733 4.20158C39.4435 3.942 39.6503 3.46418 39.7697 3.1219C39.7422 3.03001 39.6916 2.77272 39.671 2.7107C39.7399 2.69002 40.8885 2.09734 40.9092 2.06059C41.5899 1.6957 42.1875 1.19351 42.6642 0.585786C42.8066 0.395119 42.9445 0.197559 43.0846 0C42.3196 0.335391 41.619 0.859153 40.8471 1.20144Z" fill="#9C1F1E"/>
<path fill-rule="evenodd" clip-rule="evenodd" d="M21.9824 10.6982L21.9089 10.6201L21.9847 10.9624C22.0284 10.8498 22.141 11.0956 22.1134 11.1783C22.095 11.2266 22.0812 11.2748 22.0651 11.3231L22.5246 13.4135C22.4954 12.6105 22.4149 11.8102 22.2834 11.0175C22.203 10.9279 22.1157 10.8429 22.033 10.7557C22.0138 10.7387 21.9969 10.7194 21.9824 10.6982Z" fill="#9C1F1E"/>
<path fill-rule="evenodd" clip-rule="evenodd" d="M38.922 12.855C38.8557 12.8796 38.7962 12.9197 38.7486 12.9721C38.701 13.0245 38.6668 13.0876 38.6487 13.156C39.1081 12.8344 39.5836 12.6092 39.5905 11.9316C39.5887 11.8108 39.5787 11.6903 39.5607 11.5709C39.5216 11.4423 39.478 11.3136 39.4251 11.1758C39.2818 10.815 39.1651 10.4441 39.076 10.0662C39.0516 10.0545 39.0249 10.0482 38.9979 10.0479L38.9657 10.1053C38.9794 10.1956 39.0001 10.2847 39.0277 10.3718C39.2368 10.9759 39.9443 12.5886 38.922 12.855Z" fill="#9C1F1E"/>
<path fill-rule="evenodd" clip-rule="evenodd" d="M38.5934 18.1067L39.0528 18.8464C39.1375 18.8048 39.2103 18.7423 39.2642 18.6649C39.3087 18.5964 39.3334 18.5169 39.3354 18.4352C39.337 18.3777 39.3268 18.3206 39.3055 18.2672C39.2841 18.2139 39.2521 18.1655 39.2113 18.125C39.173 18.0837 39.1264 18.0509 39.0745 18.0287C39.0227 18.0065 38.9668 17.9955 38.9104 17.9964C38.8473 17.9952 38.7844 18.0045 38.7243 18.024C38.6719 18.0436 38.6247 18.075 38.5865 18.1158L38.5934 18.1067ZM39.4502 21.7156L38.4303 20.1833C38.3087 20.2365 38.2057 20.3244 38.1339 20.436C38.0692 20.555 38.0367 20.6888 38.0397 20.8242C38.0389 20.9546 38.0638 21.0838 38.1131 21.2044C38.1624 21.3251 38.235 21.4348 38.3269 21.5272C38.4108 21.621 38.5134 21.6963 38.6282 21.7481C38.7429 21.7999 38.8672 21.8272 38.9931 21.8281C39.0708 21.8284 39.1482 21.8176 39.2228 21.796C39.3032 21.7771 39.3806 21.747 39.4525 21.7064L39.4502 21.7156ZM39.9901 22.5035L39.7604 22.1543C39.5818 22.3077 39.3761 22.4261 39.1539 22.5035C38.9192 22.5819 38.6731 22.6207 38.4257 22.6184C37.9805 22.632 37.5471 22.4741 37.2151 22.1773C37.0603 22.04 36.9374 21.8707 36.8549 21.681C36.7724 21.4914 36.7322 21.286 36.7372 21.0792C36.7342 20.778 36.8338 20.4847 37.0198 20.2477C37.2863 19.9466 37.6075 19.6987 37.9662 19.5171L37.5344 18.7177C37.5305 18.5631 37.5598 18.4094 37.6205 18.2672C37.6811 18.1249 37.7716 17.9973 37.8858 17.893C38.0037 17.7832 38.1421 17.6976 38.2931 17.6412C38.444 17.5849 38.6046 17.5588 38.7657 17.5645C39.0536 17.5521 39.3352 17.6517 39.5513 17.8425C39.6504 17.9313 39.7291 18.0405 39.7818 18.1627C39.8346 18.2848 39.8602 18.417 39.8568 18.55C39.8588 18.7099 39.8209 18.8679 39.7466 19.0095C39.6683 19.1578 39.5585 19.2871 39.425 19.3885L40.3301 20.7668C40.3909 20.6636 40.4344 20.5511 40.4587 20.4337C40.4899 20.295 40.5045 20.1532 40.5023 20.011C40.5023 19.9559 40.5023 19.8939 40.4909 19.825C40.4794 19.756 40.4725 19.6825 40.4587 19.5952H40.9457C40.9457 19.6435 40.9457 19.694 40.9457 19.7469C40.9457 19.7997 40.9457 19.8824 40.9457 19.9766C40.9482 20.2088 40.9212 20.4404 40.8653 20.6657C40.816 20.8567 40.7328 21.0372 40.6195 21.1987L41.4878 22.5035H39.9901Z" fill="#9C1F1E"/>
<path fill-rule="evenodd" clip-rule="evenodd" d="M36.5374 21.5063C36.5966 21.3608 36.6141 21.2017 36.588 21.0469C36.5121 21.396 36.3353 21.9152 36.627 22.2345C36.6792 22.2905 36.7361 22.342 36.797 22.3884C36.8705 22.4321 36.9463 22.4734 37.0267 22.5148C37.295 22.6645 37.5536 22.831 37.8009 23.0133C37.817 23.0133 37.7044 22.8686 37.7159 22.8571C37.7148 22.8433 37.7148 22.8295 37.7159 22.8157C37.6698 22.7797 37.6215 22.7467 37.5712 22.7169C37.2013 22.5194 36.1722 22.0737 36.5374 21.5063Z" fill="#9C1F1E"/>
<path fill-rule="evenodd" clip-rule="evenodd" d="M40.2682 20.3166L40.2888 20.3373C40.1475 20.0248 39.9635 19.7333 39.7421 19.4713C39.7315 19.4645 39.7191 19.4609 39.7065 19.4609C39.6939 19.4609 39.6816 19.4645 39.6709 19.4713C39.8715 19.7484 40.0706 20.0302 40.2682 20.3166Z" fill="#9C1F1E"/>
<path fill-rule="evenodd" clip-rule="evenodd" d="M38.4235 19.3583C38.2811 18.9844 38.0436 18.6542 37.7344 18.4004L38.4235 19.3583Z" fill="white"/>
<path fill-rule="evenodd" clip-rule="evenodd" d="M40.4312 21.125C40.6222 20.915 40.7579 20.6608 40.8263 20.3853L40.4312 21.125Z" fill="white"/>
<path fill-rule="evenodd" clip-rule="evenodd" d="M40.8586 22.8113C40.667 22.6012 40.5318 22.3459 40.4658 22.0693L40.8586 22.8113Z" fill="white"/>
</svg>
