<svg width="475" height="690" viewBox="0 0 475 690" fill="none" xmlns="http://www.w3.org/2000/svg">
<path d="M238 0H0V690C0 690 0.124117 296 0.00102615 283C-0.0566086 276.913 9.22799 270.347 20.4157 262.435C33.1216 253.449 48.2821 242.727 55 229C64.5347 209.517 63 175 63 175C63 78.3502 238 0 238 0Z" fill="white"/>
<path d="M475 283C475 276.958 465.79 270.474 454.691 262.658C441.906 253.656 426.615 242.889 420 229C410.711 209.496 413 175 413 175C413 78.3502 238 0 238 0H475L475 283Z" fill="white"/>
<path d="M475 283C475 296 474.999 690 474.999 690L475 283Z" fill="white"/>
</svg>
