<svg width="75" height="11" viewBox="0 0 75 11" fill="none" xmlns="http://www.w3.org/2000/svg">
<g clip-path="url(#clip0_2367_73009)">
<path d="M10.1149 3.24051C10.181 3.40561 10.2373 3.57449 10.2835 3.74625C10.3322 3.91858 10.3696 4.09466 10.4033 4.27822C10.4371 4.46179 10.4558 4.65285 10.4708 4.83267C10.4885 5.02569 10.4947 5.21958 10.4895 5.41334C10.4895 5.61314 10.482 5.80794 10.467 5.99775C10.4483 6.18507 10.4258 6.37238 10.3921 6.5522C10.3623 6.73166 10.3223 6.90927 10.2722 7.08417C10.2235 7.26024 10.1711 7.42882 10.1074 7.59366C10.0437 7.75849 9.97253 7.91958 9.8976 8.07318C9.82268 8.22677 9.73651 8.37288 9.6466 8.51523C9.55909 8.65845 9.46275 8.79608 9.35814 8.92732C9.25527 9.05821 9.14521 9.18327 9.02847 9.30195C8.91007 9.42133 8.785 9.5339 8.65385 9.63911C8.527 9.74612 8.39444 9.84617 8.25674 9.93881C8.11804 10.0329 7.97421 10.1192 7.82592 10.1973C7.67514 10.2792 7.52007 10.353 7.36139 10.4183C7.20001 10.4852 7.0349 10.5428 6.86688 10.5907C6.69455 10.6428 6.51945 10.6853 6.34241 10.718C6.16259 10.748 5.96778 10.7742 5.79545 10.7892C5.62313 10.8042 5.42083 10.8154 5.21853 10.8154C5.01623 10.8154 4.84391 10.8154 4.64535 10.7892C4.4468 10.763 4.27073 10.748 4.0984 10.718C3.92259 10.6853 3.74874 10.6428 3.57767 10.5907C3.40966 10.5428 3.24455 10.4852 3.08317 10.4183C2.92588 10.354 2.77208 10.2815 2.62238 10.201C2.47409 10.1229 2.33026 10.0366 2.19156 9.94256C2.05669 9.8489 1.92183 9.74775 1.81693 9.64286C1.71204 9.53796 1.56968 9.42183 1.44231 9.30195C1.31494 9.18207 1.22128 9.05844 1.12013 8.92732C1.01898 8.7962 0.921578 8.65759 0.831668 8.51523C0.741758 8.37288 0.663087 8.22677 0.584416 8.07318C0.505744 7.91958 0.442058 7.75849 0.378372 7.59366C0.314685 7.42882 0.258492 7.26024 0.20979 7.08417C0.161089 6.90809 0.123626 6.74326 0.0936563 6.5522C0.0601266 6.36752 0.0363672 6.18119 0.0224775 5.99401C0.00749251 5.80669 0 5.61314 0 5.41334C0 5.21853 0 5.03871 0.0262238 4.83641C0.0524476 4.63412 0.0674326 4.46179 0.0974026 4.28197C0.127373 4.10215 0.172328 3.90734 0.221029 3.75C0.26973 3.59266 0.325924 3.40534 0.374625 3.24051C0.441048 3.07682 0.516078 2.91676 0.599401 2.76099C0.673643 2.608 0.756183 2.45918 0.846653 2.31518C0.936563 2.17283 1.03397 2.03422 1.13511 1.9031C1.23626 1.77198 1.34865 1.64835 1.46104 1.52847C1.57934 1.40781 1.70441 1.29399 1.83566 1.18756C1.96304 1.08267 2.09416 0.981518 2.23277 0.887862C2.37138 0.794206 2.51374 0.708042 2.66359 0.625624C2.81344 0.543207 2.97078 0.472028 3.13187 0.404595C3.29125 0.339113 3.45379 0.2816 3.61888 0.232268C3.78995 0.180141 3.9638 0.137617 4.13961 0.104895C4.32047 0.0702386 4.50305 0.0452283 4.68656 0.02997C4.87013 0 5.06494 0 5.24476 0C5.42458 0 5.61938 0 5.81793 0.0262238C6.00276 0.042722 6.18658 0.0689824 6.36863 0.104895C6.54471 0.138611 6.72078 0.17982 6.88936 0.228521C7.05794 0.277223 7.22278 0.337163 7.38387 0.404595C7.54495 0.472028 7.69855 0.546953 7.8484 0.625624C7.99825 0.704296 8.14061 0.794206 8.27922 0.887862C8.41712 0.980209 8.5497 1.08027 8.67632 1.18756C8.8012 1.29246 8.92607 1.40485 9.05095 1.52473C9.16648 1.64344 9.27529 1.76851 9.37687 1.89935C9.48064 2.03122 9.57695 2.1688 9.66533 2.31144C9.7558 2.45543 9.83835 2.60425 9.91259 2.75724C9.98912 2.91437 10.0567 3.07572 10.1149 3.24051ZM8.61638 7.11788C8.66141 6.99505 8.70017 6.87002 8.73252 6.74326C8.76249 6.60839 8.79246 6.47353 8.81119 6.33117C8.82992 6.18881 8.8524 6.04271 8.86364 5.89286C8.87488 5.74301 8.86364 5.58941 8.86364 5.42832C8.86364 5.26723 8.86364 5.11738 8.86364 4.97128C8.86364 4.82518 8.83741 4.67532 8.81494 4.53671C8.797 4.3979 8.77073 4.26029 8.73626 4.12463C8.70617 3.99766 8.66865 3.87257 8.62388 3.75C8.58308 3.6227 8.53556 3.49764 8.48152 3.37537C8.43287 3.25937 8.37656 3.14673 8.31294 3.03821C8.20064 2.82549 8.06358 2.62681 7.9046 2.4463C7.8279 2.35836 7.74529 2.27575 7.65734 2.19905C7.4833 2.04262 7.29082 1.90801 7.08417 1.7982C6.9798 1.73978 6.87223 1.68725 6.76199 1.64086C6.6496 1.5959 6.53347 1.5547 6.41359 1.51723C6.29038 1.48169 6.16532 1.45293 6.03896 1.43107C5.91534 1.40859 5.78796 1.38986 5.66434 1.37862C5.54071 1.36738 5.39461 1.35989 5.24476 1.35989C5.09491 1.35989 4.97128 1.35989 4.84016 1.37862C4.70904 1.39735 4.57792 1.40859 4.46553 1.43107C4.33882 1.45275 4.21367 1.48279 4.09091 1.52098C3.97273 1.55473 3.85643 1.59475 3.74251 1.64086C3.63104 1.68724 3.52223 1.73977 3.41658 1.7982C3.31276 1.85274 3.21264 1.91406 3.11688 1.98177C3.0204 2.04883 2.92784 2.12138 2.83966 2.19905C2.7505 2.2757 2.66664 2.35831 2.58866 2.4463C2.5065 2.53229 2.43016 2.62365 2.36014 2.71978C2.28879 2.81875 2.22252 2.92128 2.16159 3.02697C2.10165 3.13187 2.04545 3.24426 1.99301 3.36039C1.94056 3.47652 1.89186 3.5964 1.8469 3.73502C1.80195 3.87363 1.76823 3.98976 1.73452 4.10964C1.7008 4.22952 1.67458 4.37937 1.65584 4.52173C1.63711 4.66409 1.61838 4.80644 1.60714 4.95629C1.5959 5.10614 1.60714 5.25599 1.60714 5.41334C1.60714 5.57068 1.60714 5.72802 1.60714 5.87787C1.60714 6.02772 1.63337 6.17383 1.6521 6.31618C1.67083 6.45854 1.7008 6.59341 1.73452 6.72827C1.7644 6.8549 1.80066 6.97993 1.84316 7.1029C1.88811 7.22652 1.93307 7.3464 1.98551 7.47752C2.03796 7.60864 2.09416 7.70604 2.1541 7.81094C2.21404 7.91583 2.28147 8.01698 2.35265 8.11439C2.42251 8.21079 2.49754 8.30333 2.57742 8.39161C2.65546 8.47838 2.73932 8.55974 2.82842 8.63511C2.91532 8.71275 3.00663 8.7853 3.1019 8.8524C3.1993 8.91608 3.30045 8.97977 3.4016 9.03596C3.50731 9.09317 3.61612 9.14445 3.72752 9.18956C3.84145 9.23567 3.95775 9.27569 4.07592 9.30944C4.19876 9.34639 4.32391 9.37517 4.45055 9.3956C4.57424 9.42072 4.69935 9.43823 4.82517 9.44805C4.95629 9.44805 5.09116 9.46678 5.22977 9.46678C5.36838 9.46678 5.50325 9.46678 5.63437 9.44805C5.76019 9.43823 5.8853 9.42072 6.00899 9.3956C6.13571 9.37561 6.26089 9.34682 6.38362 9.30944C6.50179 9.27569 6.61809 9.23567 6.73202 9.18956C6.84342 9.14445 6.95223 9.09317 7.05794 9.03596C7.15909 8.97977 7.26024 8.91608 7.35764 8.8524C7.45727 8.77961 7.55236 8.70079 7.64236 8.61638C7.73058 8.54005 7.81438 8.45875 7.89336 8.37288C7.97324 8.2846 8.04827 8.19206 8.11813 8.09565C8.18556 7.99825 8.253 7.8971 8.31294 7.79221C8.37706 7.68465 8.4346 7.57331 8.48526 7.45879C8.53558 7.34781 8.57936 7.23398 8.61638 7.11788Z" fill="black"/>
<path d="M18.1131 0C18.3005 0 18.4878 0 18.6601 0.0224775C18.8336 0.0364899 19.0062 0.0602537 19.1771 0.0936563C19.3419 0.123626 19.503 0.161089 19.6603 0.206044C19.8145 0.25375 19.9658 0.310032 20.1136 0.374625C20.2597 0.434565 20.4021 0.501998 20.537 0.573177C20.6731 0.642653 20.8056 0.718923 20.9341 0.801698C21.0614 0.884116 21.1813 0.97028 21.3087 1.06394C21.4249 1.15403 21.5362 1.25032 21.6421 1.3524L21.1214 2.08292L21.0914 2.12038C21.0836 2.13443 21.0734 2.14709 21.0614 2.15784L21.0277 2.18781L20.9903 2.21404C20.9778 2.2237 20.9639 2.23129 20.9491 2.23651H20.9004C20.8829 2.23863 20.8653 2.23863 20.8479 2.23651H20.7917C20.7669 2.24015 20.7416 2.24015 20.7168 2.23651C20.6915 2.24506 20.6648 2.24887 20.6381 2.24775C20.608 2.23711 20.5791 2.2233 20.552 2.20654L20.462 2.1466L20.3609 2.07542L20.2298 1.97802L20.0987 1.89935L19.9525 1.81319L19.7915 1.72702L19.6116 1.64835C19.548 1.62213 19.4843 1.5959 19.4131 1.57343C19.3419 1.55095 19.2745 1.52473 19.1996 1.50225C19.121 1.47614 19.0409 1.45487 18.9598 1.43856L18.6938 1.39361L18.4016 1.36738H18.0794C17.9483 1.36738 17.8209 1.36738 17.7048 1.38611C17.5887 1.40485 17.4575 1.41234 17.3302 1.43482C17.2101 1.45735 17.0913 1.48611 16.9743 1.52098C16.8619 1.55844 16.7495 1.5959 16.6409 1.64461C16.5316 1.689 16.4252 1.7403 16.3224 1.7982C16.2213 1.8544 16.1239 1.91434 16.0265 1.98177C15.9291 2.0492 15.8429 2.12038 15.7567 2.1953C15.6706 2.27023 15.5882 2.35639 15.5095 2.44256C15.4275 2.52767 15.3523 2.61911 15.2847 2.71603C15.2167 2.80587 15.1542 2.89969 15.0974 2.997C15.0333 3.10456 14.9757 3.2159 14.9251 3.33042C14.8726 3.44655 14.8239 3.56643 14.779 3.70505C14.7341 3.82792 14.6953 3.95295 14.6628 4.07967C14.6291 4.21454 14.6029 4.35315 14.5804 4.4955C14.5579 4.63786 14.543 4.78397 14.5317 4.93382C14.5205 5.08367 14.5317 5.23726 14.5317 5.39461C14.5317 5.55195 14.5317 5.71304 14.5317 5.86663C14.5317 6.02023 14.5617 6.16633 14.5842 6.30869C14.6066 6.45105 14.6329 6.58966 14.6666 6.72453C14.7003 6.85939 14.7415 6.98676 14.7865 7.09915C14.8291 7.22685 14.8791 7.35194 14.9363 7.47378C14.987 7.58829 15.0445 7.69963 15.1086 7.80719C15.1708 7.91295 15.2384 8.01548 15.3109 8.11439C15.3821 8.21179 15.457 8.3017 15.5357 8.39161C15.6134 8.47744 15.696 8.55874 15.783 8.63511C15.8691 8.71364 15.9605 8.78624 16.0564 8.8524C16.1502 8.91925 16.2477 8.98055 16.3487 9.03596C16.4505 9.09313 16.5556 9.14442 16.6633 9.18956C16.7682 9.23452 16.8806 9.27198 16.9893 9.30944C17.0979 9.3469 17.2178 9.36938 17.3339 9.39186C17.4501 9.41434 17.5699 9.43307 17.7085 9.44431C17.8472 9.45554 17.9521 9.44431 18.0832 9.44431H18.3042H18.514L18.7125 9.42557L18.9036 9.39935L19.0834 9.36938L19.252 9.33192L19.4168 9.28696L19.5742 9.23452L19.724 9.17458C19.774 9.15631 19.8228 9.13504 19.8701 9.11089L20.0162 9.03596L20.1511 8.95355L20.2897 8.85989L20.4246 8.75874L20.5594 8.6501L20.6906 8.53397L20.7205 8.51149L20.7505 8.48901L20.7842 8.46653H20.8179H20.8517H20.8854H20.9191H20.979C20.9996 8.4723 21.0197 8.47982 21.039 8.48901L21.0914 8.51898L21.1401 8.56768L21.7582 9.24201C21.6538 9.37497 21.5399 9.50018 21.4173 9.61663C21.1772 9.84328 20.912 10.0419 20.6269 10.2085C20.4818 10.2949 20.3317 10.3724 20.1773 10.4408C20.0192 10.5126 19.8565 10.5739 19.6903 10.6244C19.5132 10.6786 19.3331 10.7224 19.1509 10.7555C18.9579 10.7937 18.7627 10.82 18.5664 10.8342C18.3641 10.8529 18.1543 10.8604 17.9333 10.8604C17.7123 10.8604 17.5587 10.8604 17.3714 10.8379C17.1841 10.8154 16.9968 10.7967 16.8394 10.763C16.6821 10.7293 16.4985 10.6881 16.3337 10.6394C16.1709 10.5891 16.0108 10.5303 15.8541 10.4633C15.6968 10.3959 15.5507 10.3247 15.4046 10.246C15.2585 10.1673 15.1236 10.0774 14.9925 9.98377C14.8621 9.89236 14.737 9.79355 14.6179 9.68781C14.498 9.57917 14.3819 9.46678 14.2732 9.3469C14.1627 9.22795 14.0588 9.10288 13.9623 8.97228C13.8638 8.84203 13.7737 8.70564 13.6926 8.56394C13.6058 8.41977 13.527 8.27095 13.4565 8.11813C13.382 7.96187 13.3158 7.80181 13.258 7.63861C13.1981 7.47003 13.1456 7.30145 13.1007 7.12912C13.0557 6.95679 13.0182 6.77697 12.9883 6.59341C12.9583 6.40984 12.9396 6.21878 12.9246 6.03522C12.9096 5.85165 12.9021 5.66059 12.9021 5.44705C12.9021 5.23352 12.9021 5.07243 12.9283 4.86264C12.9426 4.67549 12.9663 4.48918 12.9995 4.30445C13.0264 4.11641 13.064 3.93005 13.1119 3.74625C13.1606 3.57393 13.2168 3.4016 13.2805 3.23676C13.342 3.07338 13.412 2.91332 13.4903 2.75724C13.5645 2.60425 13.647 2.45543 13.7375 2.31144C13.8247 2.17008 13.9197 2.03375 14.0222 1.9031C14.1234 1.77198 14.232 1.64461 14.3444 1.52847C14.4568 1.41234 14.5804 1.2962 14.719 1.19131C14.8576 1.08641 14.9738 0.985265 15.0937 0.891608C15.2135 0.797952 15.3746 0.715535 15.5207 0.633117C15.6668 0.550699 15.8242 0.483267 15.9815 0.415834C16.145 0.343471 16.3126 0.280923 16.4835 0.228521C16.6546 0.177364 16.8284 0.136087 17.0042 0.104895C17.1838 0.070237 17.3652 0.0452261 17.5475 0.02997C17.7354 0.0104761 17.9242 0.000473376 18.1131 0Z" fill="black"/>
<path d="M31.6783 0.120117V1.43131L28.3179 1.43505L28.2992 10.7108H26.737L26.7557 1.43505H23.3804L23.3841 0.120117H31.6783Z" fill="black"/>
<path d="M43.3328 3.23676C43.3965 3.40534 43.449 3.57393 43.4977 3.74625C43.5464 3.91858 43.5838 4.0984 43.6176 4.28197C43.6513 4.46553 43.67 4.65659 43.685 4.83641C43.7 5.01623 43.7112 5.21104 43.7112 5.41334C43.7112 5.61563 43.7112 5.80669 43.685 5.99775C43.6588 6.18881 43.6438 6.37238 43.6138 6.5522C43.5838 6.73202 43.5389 6.92682 43.4939 7.08791C43.449 7.249 43.389 7.42882 43.3254 7.59366C43.2617 7.75849 43.1905 7.91958 43.1156 8.07318C43.0401 8.22622 42.9563 8.37505 42.8646 8.51898C42.7774 8.66155 42.6824 8.79913 42.5799 8.93107C42.475 9.06219 42.3663 9.18581 42.2502 9.30569C42.134 9.42557 42.0142 9.53796 41.8756 9.6466C41.7369 9.75525 41.6133 9.85265 41.4747 9.9463C41.336 10.0404 41.1922 10.1267 41.0439 10.2048C40.8931 10.2867 40.738 10.3605 40.5794 10.4258C40.4183 10.4933 40.2497 10.5495 40.0811 10.6019C39.9125 10.6543 39.7364 10.6918 39.5566 10.7255C39.3768 10.7592 39.182 10.7817 39.0059 10.8004C38.8299 10.8192 38.6313 10.8229 38.4327 10.8229C38.2342 10.8229 38.0581 10.8229 37.8596 10.7967C37.661 10.7705 37.4849 10.7555 37.3089 10.7255C37.1331 10.6928 36.9592 10.6503 36.7881 10.5982C36.6189 10.5503 36.4525 10.4927 36.2899 10.4258C36.1312 10.3605 35.9761 10.2867 35.8254 10.2048C35.6758 10.1267 35.5308 10.0404 35.3908 9.9463C35.2522 9.85265 35.1211 9.7515 34.9937 9.6466C34.7428 9.43063 34.5132 9.19101 34.3081 8.93107C34.2056 8.79913 34.1105 8.66155 34.0234 8.51898C33.9335 8.37662 33.8511 8.22677 33.7724 8.07318C33.6937 7.91958 33.6263 7.75849 33.5626 7.59366C33.4989 7.42882 33.4465 7.26024 33.3978 7.08791C33.3491 6.91558 33.3416 6.74326 33.2891 6.5522C33.2367 6.36114 33.2367 6.17757 33.2217 5.99775C33.2029 5.80355 33.1954 5.60841 33.1992 5.41334C33.1992 5.21853 33.1992 5.03871 33.2217 4.83641C33.2442 4.63412 33.2629 4.46179 33.2966 4.28197C33.3268 4.10135 33.3669 3.92252 33.4165 3.74625C33.5061 3.40427 33.6317 3.07275 33.7911 2.75724C33.8667 2.6042 33.9504 2.45537 34.0421 2.31144C34.1321 2.16908 34.2257 2.03422 34.3306 1.89935C34.4321 1.76844 34.5409 1.64337 34.6565 1.52473C34.7748 1.40399 34.8998 1.29017 35.0312 1.18382C35.1585 1.07892 35.2934 0.977772 35.432 0.884116C35.5706 0.79046 35.713 0.704296 35.8628 0.621878C36.0127 0.539461 36.17 0.468282 36.3311 0.400849C36.4922 0.333417 36.6495 0.277223 36.8181 0.224775C36.9867 0.172328 37.1628 0.134865 37.3426 0.101149C37.5234 0.0662417 37.706 0.0412294 37.8895 0.0262238C38.0769 0.0262238 38.2642 0 38.4627 0C38.6613 0 38.8373 0 39.0396 0.0262238C39.2232 0.0412294 39.4058 0.0662417 39.5866 0.101149C39.7664 0.134865 39.9612 0.176074 40.1111 0.224775C40.2609 0.273477 40.4445 0.333417 40.6056 0.400849C40.7667 0.468282 40.924 0.543207 41.0701 0.621878C41.2162 0.700549 41.3661 0.79046 41.5047 0.884116C41.6433 0.977772 41.7744 1.07517 41.9018 1.18382C42.033 1.28896 42.1581 1.40153 42.2764 1.52098C42.3925 1.64461 42.5012 1.76823 42.6023 1.8956C42.7049 2.02754 42.7999 2.16512 42.887 2.30769C42.9775 2.45168 43.0601 2.60051 43.1343 2.7535C43.2088 2.91102 43.2751 3.07233 43.3328 3.23676ZM41.8343 7.11788C41.8756 6.99051 41.913 6.86314 41.9467 6.74326C41.9805 6.62338 42.0067 6.47353 42.0292 6.33117C42.0516 6.18881 42.0666 6.04271 42.0779 5.89286C42.0891 5.74301 42.0779 5.58941 42.0779 5.42832C42.0779 5.26723 42.0779 5.11738 42.0779 4.96753C42.0779 4.81768 42.0479 4.67532 42.0292 4.53297C42.0104 4.39061 41.9805 4.25574 41.9467 4.12088C41.9168 3.99387 41.8793 3.86878 41.8343 3.74625C41.7941 3.61875 41.7466 3.49367 41.692 3.37163C41.6426 3.25718 41.5863 3.14584 41.5234 3.03821C41.4637 2.93257 41.3987 2.83004 41.3286 2.73102C41.2574 2.63736 41.1825 2.54371 41.1038 2.45754C41.0249 2.37048 40.9411 2.28793 40.8528 2.21029C40.7667 2.13176 40.6753 2.05917 40.5794 1.99301C40.4831 1.92611 40.383 1.86482 40.2797 1.80944C40.1748 1.752 40.0661 1.69955 39.9537 1.6521C39.8413 1.60714 39.7252 1.56593 39.6091 1.53222C39.4862 1.49448 39.3611 1.46445 39.2344 1.44231C39.1071 1.41983 38.9797 1.4011 38.8598 1.38986C38.7399 1.37862 38.5901 1.38986 38.4515 1.38986C38.3129 1.38986 38.178 1.38986 38.0469 1.38986C37.9158 1.38986 37.7846 1.41983 37.6723 1.44231C37.5454 1.46354 37.4203 1.49358 37.2976 1.53222C37.1795 1.56597 37.0632 1.60599 36.9492 1.6521C36.8378 1.69853 36.729 1.75106 36.6233 1.80944C36.5184 1.86563 36.4173 1.92932 36.3199 1.99301C36.2225 2.05669 36.1325 2.13536 36.0426 2.21029C35.9527 2.28521 35.8703 2.37138 35.7916 2.45754C35.7105 2.54577 35.6342 2.63831 35.5631 2.73477C35.4957 2.82842 35.4283 2.93332 35.3646 3.03821C35.3009 3.14311 35.2522 3.24051 35.2147 3.37163C35.1601 3.49367 35.1126 3.61875 35.0724 3.74625C35.0275 3.86912 34.9887 3.99415 34.9562 4.12088C34.9263 4.252 34.9 4.39061 34.8776 4.52922C34.8551 4.66783 34.8401 4.81768 34.8289 4.96753C34.8176 5.11738 34.8101 5.26723 34.8101 5.42458C34.8101 5.58192 34.8101 5.73926 34.8101 5.88911C34.8101 6.03896 34.8363 6.18506 34.8588 6.32742C34.8813 6.46978 34.9075 6.60839 34.9375 6.73951C34.9676 6.86648 35.0051 6.99157 35.0499 7.11414C35.0907 7.24144 35.1382 7.36649 35.1922 7.48876C35.2447 7.60115 35.3009 7.71354 35.3608 7.81843C35.4204 7.92494 35.4867 8.02755 35.5594 8.12562C35.6306 8.22303 35.7055 8.31294 35.7841 8.40285C35.8631 8.48872 35.9469 8.57002 36.0351 8.64635C36.1234 8.72281 36.2159 8.79411 36.3124 8.85989C36.4081 8.92883 36.5082 8.9914 36.6121 9.0472C36.717 9.1034 36.8256 9.1521 36.938 9.2008C37.0519 9.24691 37.1682 9.28693 37.2864 9.32068C37.4096 9.35622 37.5347 9.38499 37.661 9.40684C37.7846 9.42932 37.9158 9.44805 38.0356 9.45929C38.1555 9.47053 38.3016 9.47802 38.4402 9.47802C38.5789 9.47802 38.7175 9.47802 38.8486 9.45929C38.9797 9.44056 39.1108 9.42932 39.2232 9.40684C39.3495 9.38455 39.4745 9.35579 39.5978 9.32068C39.7148 9.28692 39.8298 9.2469 39.9425 9.2008C40.0549 9.1521 40.1635 9.1034 40.2684 9.0472C40.373 8.99056 40.4743 8.92802 40.5719 8.85989C40.668 8.79527 40.7593 8.72392 40.8453 8.64635C40.9344 8.57098 41.0183 8.48962 41.0963 8.40285C41.175 8.31294 41.2499 8.22303 41.3211 8.12562C41.3938 8.02755 41.4601 7.92494 41.5197 7.81843C41.5825 7.71209 41.6388 7.60199 41.6882 7.48876C41.7407 7.37138 41.7894 7.2465 41.8343 7.11414" fill="black"/>
<path d="M52.028 5.24485C52.3759 5.31039 52.7143 5.4186 53.0357 5.56703C53.3057 5.69151 53.5507 5.86417 53.7587 6.07652C53.9493 6.27696 54.0971 6.51402 54.1933 6.77332C54.2911 7.05768 54.3393 7.35675 54.3357 7.65744C54.3415 7.7685 54.3415 7.87979 54.3357 7.99085C54.3265 8.09773 54.3115 8.20403 54.2907 8.30928C54.269 8.41067 54.2414 8.51074 54.2083 8.60898C54.1776 8.70714 54.1414 8.80346 54.0997 8.89745C54.0584 8.98736 54.0097 9.07727 53.961 9.16343C53.9092 9.24994 53.8529 9.33372 53.7925 9.41443C53.7288 9.4931 53.6651 9.57177 53.5939 9.6467C53.5227 9.72162 53.4478 9.78905 53.3691 9.85649C53.2905 9.92392 53.2043 9.98761 53.1144 10.0513C53.0245 10.115 52.9308 10.1674 52.8334 10.2199C52.7323 10.2738 52.6285 10.3225 52.5225 10.366C52.4138 10.4109 52.3015 10.4484 52.1853 10.4859C52.0692 10.5233 51.9493 10.5533 51.8107 10.5833C51.6721 10.6132 51.5559 10.632 51.4361 10.6507C51.3162 10.6694 51.1663 10.6844 51.0277 10.6919C50.8891 10.6994 50.7393 10.6919 50.5932 10.6919H46.7607V0.09375H50.2148C50.3796 0.09375 50.5407 0.09375 50.6943 0.09375C50.8479 0.09375 50.9978 0.116228 51.1401 0.131213C51.2825 0.146198 51.4173 0.164929 51.5485 0.191153C51.6796 0.217376 51.8032 0.2436 51.9231 0.27357C52.043 0.30354 52.1553 0.341003 52.264 0.382212C52.3726 0.42342 52.4738 0.464629 52.5712 0.509584C52.6659 0.552778 52.7573 0.602863 52.8447 0.659434C52.93 0.71129 53.0125 0.76756 53.0919 0.828016C53.1662 0.886778 53.2363 0.950617 53.3017 1.01907C53.3678 1.0845 53.4292 1.15462 53.4853 1.22886C53.5429 1.30055 53.5942 1.377 53.6389 1.45739C53.6875 1.53589 53.7289 1.61865 53.7625 1.70464C53.7998 1.78974 53.8311 1.87737 53.8561 1.96688C53.8856 2.05899 53.9093 2.15283 53.9273 2.24785C53.9273 2.34525 53.9573 2.4464 53.9685 2.54755C53.9798 2.6487 53.9685 2.75734 53.9685 2.86598C53.9685 2.97462 53.9685 2.99335 53.9685 3.05329C53.9647 3.11612 53.9572 3.17866 53.9461 3.2406C53.9461 3.30054 53.9236 3.36048 53.9086 3.42042C53.8951 3.48145 53.8776 3.54152 53.8561 3.60024C53.8376 3.66036 53.8151 3.71918 53.7887 3.77632C53.7625 3.83251 53.7363 3.88871 53.7063 3.9449C53.6763 4.00109 53.6426 4.05354 53.6089 4.10599L53.4928 4.26333C53.4515 4.31203 53.4103 4.36448 53.3616 4.41318C53.3129 4.46188 53.268 4.50684 53.2193 4.55179C53.1682 4.59984 53.1145 4.64487 53.0582 4.68666C53.002 4.73161 52.9421 4.77282 52.8821 4.81403L52.6873 4.93016C52.6199 4.96763 52.5525 5.00509 52.4775 5.03881C52.4026 5.07252 52.3314 5.10249 52.2527 5.13246L52.028 5.24485ZM52.6573 8.35799C52.6794 8.3017 52.6982 8.24415 52.7135 8.18566C52.7135 8.12572 52.7398 8.06578 52.751 8.00584C52.7622 7.9459 52.7697 7.88221 52.7772 7.81853C52.7847 7.75484 52.7772 7.68741 52.7772 7.61997C52.7781 7.4943 52.7668 7.36885 52.7435 7.24535C52.7223 7.1308 52.6883 7.01897 52.6424 6.91193C52.598 6.80933 52.5414 6.71248 52.4738 6.62347C52.4018 6.53256 52.3215 6.44854 52.234 6.37247C52.1388 6.29392 52.0344 6.22724 51.9231 6.17392C51.8028 6.11509 51.6774 6.06743 51.5485 6.03156C51.397 5.99309 51.243 5.96555 51.0877 5.94914C50.91 5.92721 50.731 5.9172 50.552 5.91917H48.3267V9.45564H50.5407C50.6381 9.45564 50.7355 9.45564 50.8292 9.45564C50.9228 9.45564 51.009 9.45564 51.0952 9.43316C51.1813 9.41068 51.26 9.40694 51.3387 9.38821L51.5634 9.32827C51.6309 9.30579 51.6983 9.27956 51.7657 9.24959C51.8278 9.22417 51.888 9.19411 51.9456 9.15968C52.0031 9.13042 52.0582 9.0966 52.1104 9.05854C52.1614 9.02284 52.2102 8.98405 52.2565 8.9424C52.3014 8.90372 52.3428 8.86109 52.3801 8.81503C52.4195 8.77141 52.4558 8.72509 52.4888 8.67642C52.5223 8.62868 52.5523 8.5786 52.5787 8.52657C52.6055 8.47431 52.6293 8.42052 52.6499 8.36548M48.3492 1.34875V4.81778H50.1549C50.3363 4.81786 50.5177 4.80786 50.6981 4.78781C50.856 4.77016 51.0125 4.74136 51.1663 4.70164C51.3011 4.66327 51.4326 4.61442 51.5597 4.55554C51.6736 4.4997 51.7805 4.43053 51.8781 4.34949C51.9689 4.27314 52.0518 4.18779 52.1254 4.09475C52.196 4.00371 52.2552 3.90431 52.3015 3.7988C52.3516 3.69138 52.3881 3.57811 52.4101 3.46163C52.4322 3.33791 52.4447 3.21266 52.4476 3.08701C52.4484 2.94519 52.4371 2.80357 52.4138 2.66368C52.3947 2.53532 52.3607 2.40961 52.3127 2.28905C52.2701 2.18209 52.2134 2.0813 52.1441 1.98935C52.0772 1.89867 51.9977 1.81795 51.9081 1.74959C51.8126 1.67854 51.7096 1.61824 51.6009 1.56977C51.4805 1.51527 51.355 1.47261 51.2263 1.4424C51.0756 1.40704 50.923 1.38077 50.7692 1.36373C50.6044 1.36373 50.4283 1.33751 50.2373 1.33751H48.3641" fill="black"/>
<path d="M64.0197 0.112305L64.0159 1.39352H59.0297L59.0222 4.75017H63.0381V5.98268H59.0222L59.0184 9.43673H64.0122L64.0047 10.7142H57.4375L57.4525 0.116051L64.0197 0.112305Z" fill="black"/>
<path d="M72.0216 6.58958L74.9999 10.7105H73.5951C73.5295 10.711 73.464 10.7035 73.4003 10.688C73.3414 10.6747 73.2847 10.6532 73.2317 10.6243C73.1803 10.5984 73.1335 10.5642 73.0931 10.5231C73.0497 10.4793 73.012 10.4302 72.9807 10.377L70.3583 6.69822C70.3358 6.66825 70.3171 6.63828 70.2946 6.61206L70.2272 6.54088C70.2061 6.51903 70.1822 6.50012 70.156 6.48468C70.1346 6.46625 70.1107 6.4511 70.0848 6.43973C70.0588 6.4243 70.0312 6.41174 70.0024 6.40227L69.9013 6.37979H69.7814H68.6163V10.7254H67.0579V0.112305H70.1148C70.2834 0.112305 70.4482 0.112305 70.6093 0.112305C70.7704 0.112305 70.9202 0.134782 71.0664 0.149767C71.2125 0.164752 71.3548 0.190976 71.4934 0.2172C71.632 0.243424 71.7557 0.27714 71.868 0.310856C72.099 0.376876 72.3245 0.460797 72.5424 0.561855C72.6473 0.614303 72.7409 0.66675 72.8346 0.722944C72.9282 0.779138 73.0107 0.842824 73.0893 0.906511C73.1689 0.971322 73.2452 1.04009 73.3179 1.11255C73.3853 1.18373 73.4527 1.25866 73.5127 1.33358C73.5711 1.41153 73.6249 1.49284 73.6737 1.57709C73.7246 1.66262 73.7697 1.75148 73.8086 1.84307C73.8461 1.93298 73.8798 2.02664 73.9098 2.12404C73.936 2.2177 73.9622 2.31885 73.9809 2.42C73.9997 2.52115 74.0147 2.62604 74.0259 2.73468C74.0371 2.84332 74.0259 2.95197 74.0259 3.06435C74.0259 3.17674 74.0259 3.24792 74.0259 3.33783C74.0259 3.42774 74.0072 3.51765 73.9959 3.60381C73.9847 3.68998 73.9622 3.77614 73.9397 3.85856C73.9192 3.94227 73.8942 4.02481 73.8648 4.10581C73.8386 4.18823 73.8049 4.2669 73.7711 4.34557C73.7374 4.42424 73.7 4.49542 73.6588 4.57035C73.6175 4.64527 73.5726 4.7127 73.5239 4.78014C73.4756 4.85074 73.4231 4.9183 73.3666 4.98243C73.3141 5.04612 73.2542 5.10981 73.1942 5.16975C73.1343 5.22969 73.0669 5.28588 73.0032 5.34208C72.9395 5.39827 72.8646 5.45446 72.7934 5.50316L72.5649 5.65301L72.3213 5.78413C72.2364 5.82409 72.1503 5.86156 72.0629 5.89652C71.9729 5.93398 71.8793 5.9677 71.7856 5.99767L71.4934 6.08009L71.6358 6.17749C71.6821 6.21313 71.7259 6.25193 71.7669 6.29362C71.8109 6.33459 71.8522 6.37839 71.8905 6.42474C71.9467 6.48468 71.9842 6.53713 72.0216 6.58958ZM70.0549 5.22219H70.3471C70.4445 5.22219 70.5344 5.22219 70.6243 5.19222C70.7142 5.16225 70.8004 5.166 70.8828 5.14727C70.9652 5.12854 71.0439 5.10606 71.1225 5.07984C71.1978 5.05815 71.2716 5.03188 71.3436 5.00117C71.4148 4.9712 71.4822 4.93748 71.5459 4.90376C71.6092 4.86989 71.6705 4.83237 71.7294 4.79138C71.7868 4.7535 71.8419 4.71222 71.8943 4.66775C71.9467 4.61905 71.9954 4.57409 72.0404 4.52539C72.0853 4.47669 72.1265 4.42424 72.1678 4.36805C72.209 4.31186 72.2389 4.25941 72.2726 4.20321C72.3044 4.14477 72.3332 4.08475 72.3588 4.02339C72.3846 3.96093 72.4071 3.89715 72.4262 3.83233C72.4482 3.76641 72.4645 3.69873 72.4749 3.63004C72.4889 3.56073 72.4989 3.49069 72.5049 3.42025C72.5087 3.34662 72.5087 3.27284 72.5049 3.19922C72.5044 3.05482 72.4919 2.91071 72.4675 2.7684C72.4427 2.64006 72.405 2.51454 72.3551 2.39377C72.3067 2.27994 72.2438 2.1729 72.1678 2.07534C72.0909 1.97912 72.0028 1.89235 71.9055 1.81685C71.8014 1.73644 71.6883 1.66854 71.5683 1.61455C71.4434 1.55263 71.313 1.50246 71.1787 1.4647C71.0186 1.42369 70.8559 1.39365 70.6917 1.37479C70.505 1.35618 70.3174 1.34743 70.1298 1.34857H68.6313V5.22219H70.0549Z" fill="black"/>
</g>
<defs>
<clipPath id="clip0_2367_73009">
<rect width="75" height="10.8267" fill="white"/>
</clipPath>
</defs>
</svg>
