<svg width="18" height="18" viewBox="0 0 18 18" fill="none" xmlns="http://www.w3.org/2000/svg">
<g clip-path="url(#clip0_1768_341)">
<path fill-rule="evenodd" clip-rule="evenodd" d="M3.48568 1.76432C4.45388 0.796123 6.05513 0.909923 6.87667 2.00531L8.24038 3.82358C8.9122 4.71935 8.82312 5.97282 8.03136 6.76457L7.02594 7.76999C7.12338 8.02362 7.44414 8.58018 8.42094 9.55698C9.39774 10.5338 9.9543 10.8545 10.2079 10.952L11.2133 9.94656C12.0051 9.1548 13.2586 9.06572 14.1543 9.73755L15.9726 11.1013C17.068 11.9228 17.1818 13.524 16.2136 14.4922C15.8988 14.807 15.8456 14.8603 15.3203 15.3856C14.7849 15.9209 13.6482 16.4213 12.4973 16.4714C10.6963 16.5497 8.24997 15.75 5.23896 12.739C2.22796 9.72796 1.42826 7.28163 1.50656 5.48064C1.55012 4.47878 1.86864 3.37843 2.59654 2.66184C3.11764 2.13236 3.18541 2.06459 3.48568 1.76432ZM3.00515 5.54579C2.95087 6.7942 3.477 8.85568 6.29962 11.6783C9.12225 14.5009 11.1837 15.0271 12.4321 14.9728C13.5975 14.9221 14.2227 14.359 14.2596 14.3249L15.1529 13.4316C15.4757 13.1088 15.4377 12.5751 15.0726 12.3013L13.2543 10.9375C12.9557 10.7136 12.5379 10.7433 12.274 11.0072C11.8764 11.4049 11.6049 11.6803 11.0736 12.2096C9.96988 13.3092 8.08057 11.3379 7.36028 10.6176C6.69835 9.95571 4.6811 8.00641 5.76721 6.90742C5.76936 6.90526 6.0619 6.61272 6.97071 5.70391C7.23462 5.44 7.26432 5.02217 7.04038 4.72358L5.67667 2.90531C5.40282 2.54018 4.86907 2.50225 4.54634 2.82498C4.2493 3.12202 3.91314 3.45818 3.65391 3.71921C3.12038 4.25642 3.0337 4.88909 3.00515 5.54579Z" fill="#777E91"/>
</g>
<defs>
<clipPath id="clip0_1768_341">
<rect width="18" height="18" fill="white"/>
</clipPath>
</defs>
</svg>
