<svg width="50" height="29" viewBox="0 0 50 29" fill="none" xmlns="http://www.w3.org/2000/svg">
<path d="M4.01491 26.5737C3.97519 26.5737 3.95405 26.5573 3.95187 26.5252C3.95005 26.5136 3.973 26.4961 4.02074 26.472C4.10199 26.4265 4.18143 26.3441 4.25977 26.2261C4.33812 26.108 4.37419 25.9841 4.36617 25.8533L4.10272 21.8906C4.08705 21.6815 3.97956 21.5248 3.78024 21.422C3.58092 21.3185 3.36484 21.2671 3.13273 21.2671C2.90535 21.2712 2.69619 21.3233 2.50526 21.4249C2.31468 21.5255 2.21083 21.6756 2.19626 21.8742L1.89236 25.8533C1.88179 25.9841 1.91349 26.108 1.99001 26.2261C2.06654 26.3441 2.14706 26.4265 2.23014 26.472C2.27751 26.4961 2.29974 26.5136 2.29792 26.5252C2.29391 26.5573 2.27387 26.5737 2.23597 26.5737H0.673854C0.632314 26.5737 0.613001 26.5573 0.616645 26.5252C0.616645 26.5158 0.641788 26.4983 0.693166 26.472C0.782076 26.4265 0.874266 26.3441 0.967913 26.2261C1.06265 26.108 1.11585 25.9841 1.12678 25.8533L1.44234 21.7551C1.45109 21.6242 1.41829 21.5004 1.34177 21.3823C1.26416 21.2642 1.18582 21.1819 1.10456 21.1363C1.05537 21.1141 1.03205 21.0955 1.03387 21.0831C1.03788 21.0511 1.05901 21.0347 1.09873 21.0347H5.20827C5.24617 21.0347 5.26839 21.0511 5.27422 21.0831C5.27422 21.0955 5.25017 21.1141 5.20244 21.1363C5.11936 21.1819 5.03883 21.2642 4.96049 21.3823C4.88214 21.5004 4.84716 21.6242 4.857 21.7551L5.1292 25.8533C5.13867 25.9841 5.19005 26.108 5.28406 26.2261C5.37698 26.3441 5.46881 26.4265 5.55699 26.472C5.60836 26.4983 5.6346 26.5158 5.6346 26.5252C5.6346 26.5573 5.61529 26.5737 5.57739 26.5737H4.01491ZM8.23194 26.5912C8.18858 26.5912 8.17473 26.5755 8.18931 26.5456C8.20279 26.5234 8.22028 26.5059 8.24069 26.4943C8.30664 26.4662 8.37041 26.4159 8.43235 26.3441C8.49321 26.2724 8.52418 26.1922 8.52418 26.1029V23.6692L7.04987 26.0151C6.97918 26.1266 6.97445 26.225 7.0353 26.3102C7.09141 26.3955 7.16611 26.4564 7.25612 26.4943C7.27361 26.5041 7.29 26.5183 7.30458 26.5369C7.32207 26.5726 7.30932 26.5912 7.26778 26.5912H6.05073C6.007 26.5912 5.99352 26.5755 6.0081 26.5456C6.01976 26.5252 6.03725 26.5077 6.05947 26.4943C6.12725 26.4662 6.19211 26.4159 6.25223 26.3441C6.31309 26.2724 6.34333 26.1922 6.34333 26.1029V23.3893C6.34333 23.3001 6.31345 23.2159 6.25223 23.1368C6.19211 23.0574 6.12725 23.0031 6.05947 22.975C6.01976 22.9557 6.00117 22.9295 6.00518 22.8956C6.007 22.8763 6.02267 22.8664 6.05073 22.8664H7.26778C7.29474 22.8664 7.30932 22.8763 7.31333 22.8956C7.31733 22.9295 7.29875 22.9557 7.25721 22.975C7.18834 23.0031 7.12275 23.0574 7.05862 23.1368C6.99376 23.2162 6.96169 23.3004 6.96169 23.3893V25.6751C6.96169 25.6868 6.96934 25.6984 6.98574 25.709C7.00105 25.7207 7.01271 25.7207 7.01854 25.709L8.436 23.4484C8.47389 23.3904 8.49029 23.3292 8.48446 23.2673C8.47863 23.2122 8.4575 23.159 8.4196 23.1084C8.37405 23.0534 8.31393 23.0085 8.24069 22.9747C8.19696 22.9553 8.17983 22.9291 8.18639 22.8952C8.18639 22.8759 8.20206 22.8661 8.23194 22.8661H9.44607C9.47705 22.8661 9.49162 22.8759 9.49162 22.8952C9.49344 22.9291 9.47595 22.9553 9.43842 22.9747C9.36955 23.0027 9.30396 23.057 9.23983 23.1364C9.17497 23.2159 9.1429 23.3001 9.1429 23.389V26.1025C9.1429 26.1915 9.17497 26.272 9.23983 26.3438C9.3036 26.4156 9.36955 26.4658 9.43842 26.4939C9.45482 26.5037 9.47049 26.5179 9.48397 26.5365C9.50438 26.5722 9.49162 26.5908 9.44607 26.5908H8.23194V26.5912ZM9.85455 28.0801C9.81301 28.0801 9.80026 28.0637 9.81483 28.0316C9.82248 28.0094 9.83998 27.9919 9.86621 27.9802C9.93217 27.9503 9.99593 27.899 10.0561 27.8272C10.1169 27.7554 10.1479 27.6763 10.1501 27.5889V27.2886C10.0386 27.3349 9.93982 27.3746 9.85492 27.4078C9.80755 27.4223 9.77256 27.4165 9.75034 27.3903C9.71827 27.3447 9.72228 27.3108 9.762 27.2886C9.87131 27.2198 10.001 27.1531 10.1501 27.0871L10.153 23.6998C10.153 23.6116 10.1431 23.5409 10.1231 23.4888C10.1038 23.4374 10.0746 23.3853 10.0371 23.3347C10.0032 23.2913 9.94601 23.2494 9.86658 23.2097C9.82285 23.1944 9.80463 23.1689 9.80937 23.1332C9.8152 23.0935 9.82686 23.0701 9.84435 23.0643C9.87824 23.0566 9.94127 23.0402 10.032 23.0147C10.1238 22.9896 10.2138 22.9597 10.3031 22.9258C10.4434 22.8726 10.5589 22.8067 10.6496 22.7272C10.697 22.6893 10.7232 22.67 10.7291 22.67C10.763 22.6857 10.7775 22.7039 10.7728 22.7272C10.7681 22.7495 10.7659 22.8191 10.7659 22.9364V23.2742C10.857 23.252 10.9207 23.2308 10.9586 23.2122C11.061 23.1685 11.159 23.1175 11.2538 23.0603C11.3485 23.0024 11.4484 22.9546 11.554 22.9171C11.6335 22.889 11.7158 22.8639 11.8011 22.8417C11.8864 22.8205 11.9716 22.8118 12.0565 22.8147C12.2395 22.8245 12.4158 22.8777 12.5842 22.9736C12.8002 23.1022 12.954 23.2815 13.0458 23.5099C13.1388 23.7395 13.1832 23.9745 13.1796 24.2169C13.1614 24.9489 12.8815 25.5702 12.34 26.0825C12.1513 26.2607 11.9228 26.4301 11.6564 26.5908C11.5373 26.6622 11.4134 26.7264 11.2848 26.7825C11.1561 26.8375 11.029 26.8947 10.9051 26.9538C10.8286 26.9858 10.783 27.0069 10.7655 27.0157V27.5889C10.7655 27.676 10.7976 27.7554 10.8624 27.8272C10.9262 27.8986 10.9922 27.95 11.061 27.9802C11.0796 27.9879 11.0949 28.0025 11.1066 28.0229C11.1288 28.0608 11.1171 28.0801 11.0716 28.0801H9.85455ZM10.7655 23.4622V26.8237C10.8905 26.7763 10.9922 26.7318 11.0716 26.6899C11.3427 26.5467 11.6021 26.3288 11.8517 26.0384C12.0143 25.8409 12.1586 25.6026 12.2854 25.3231C12.3743 25.1245 12.4344 24.9048 12.4643 24.6629C12.4865 24.4548 12.4778 24.2748 12.4362 24.1236C12.383 23.9388 12.2959 23.7683 12.175 23.6134C12.0955 23.5147 11.9756 23.4218 11.8149 23.3354C11.7133 23.284 11.6098 23.2589 11.5059 23.2607C11.3616 23.2647 11.1951 23.2964 11.0064 23.3547C10.9626 23.3664 10.9222 23.3817 10.8836 23.4032C10.845 23.4236 10.8052 23.444 10.7655 23.4622ZM14.1317 23.6047C13.8839 23.8332 13.7823 24.1276 13.8278 24.4858C13.8734 24.844 14.0446 25.1752 14.342 25.4798C14.6364 25.7837 14.9771 25.9765 15.3622 26.057C15.7485 26.1375 16.0651 26.0617 16.3129 25.8314C16.5589 25.603 16.6613 25.2991 16.6219 24.9194C16.5822 24.5401 16.4146 24.1972 16.1205 23.8911C15.8232 23.5879 15.4785 23.4079 15.0875 23.3489C14.6961 23.2909 14.3777 23.3762 14.1317 23.6047ZM15.246 22.7903C15.5073 22.7903 15.7601 22.8493 16.005 22.9666C16.2499 23.0836 16.4503 23.2501 16.6073 23.4651C16.7283 23.6335 16.8147 23.828 16.8657 24.05C16.9171 24.2708 16.9393 24.4982 16.9335 24.7306C16.9189 25.2641 16.74 25.7199 16.396 26.0996C16.0535 26.4782 15.6476 26.6681 15.1811 26.6681C14.7136 26.6681 14.3117 26.4782 13.9739 26.0996C13.6369 25.7203 13.4762 25.2641 13.4937 24.7306C13.5061 24.1972 13.6842 23.7402 14.0282 23.3609C14.3707 22.9801 14.7774 22.7903 15.246 22.7903ZM18.2383 22.8621C18.3528 22.8621 18.4756 22.8591 18.6071 22.8522C18.7397 22.8453 18.8607 22.83 18.97 22.8049C19.0331 22.7921 19.0939 22.7721 19.1548 22.7458C19.2149 22.7196 19.2717 22.6944 19.3242 22.6722C19.3832 22.6489 19.4171 22.6682 19.4266 22.7283C19.447 22.9287 19.4762 23.0982 19.5119 23.2356C19.5283 23.3121 19.5505 23.3875 19.5767 23.464C19.6037 23.5405 19.6347 23.6276 19.6707 23.7235C19.7006 23.8047 19.6948 23.8463 19.6532 23.8485C19.631 23.8485 19.6095 23.8357 19.5895 23.8109C19.5702 23.7847 19.5574 23.7694 19.5516 23.7636C19.4663 23.6619 19.392 23.5788 19.3271 23.5158C19.2634 23.4527 19.2032 23.3948 19.1489 23.3445C19.0677 23.2709 18.9901 23.213 18.9165 23.1703C18.8421 23.1277 18.7547 23.1015 18.6523 23.092C18.5255 23.0822 18.4143 23.0978 18.3174 23.1375C18.2216 23.1773 18.1731 23.2789 18.1731 23.4433V26.0949C18.1731 26.1842 18.2052 26.2654 18.2679 26.3379C18.3316 26.4105 18.3965 26.4607 18.4653 26.4888C18.4836 26.4983 18.5003 26.5121 18.5138 26.5285C18.536 26.5682 18.5233 26.5886 18.4759 26.5886H17.2589C17.2173 26.5886 17.2046 26.5711 17.2191 26.5373C17.229 26.515 17.2461 26.4986 17.2705 26.4888C17.3365 26.4607 17.4002 26.4105 17.4622 26.3379C17.523 26.2654 17.554 26.1842 17.554 26.0949V23.3813C17.554 23.2942 17.523 23.2108 17.4622 23.1317C17.4002 23.0523 17.3365 22.998 17.2705 22.967C17.229 22.9484 17.2104 22.9226 17.2133 22.8876C17.2151 22.8712 17.2308 22.8624 17.2589 22.8624H18.2383V22.8621ZM22.1901 26.5912C22.1464 26.5912 22.1329 26.5755 22.1475 26.5456C22.1609 26.5234 22.1784 26.5059 22.1988 26.4943C22.2648 26.4662 22.3286 26.4159 22.3905 26.3441C22.4514 26.2724 22.4823 26.1922 22.4823 26.1029V23.6692L21.008 26.0151C20.9373 26.1266 20.9326 26.225 20.9935 26.3102C21.0496 26.3955 21.1243 26.4564 21.2143 26.4943C21.2318 26.5041 21.2482 26.5183 21.2627 26.5369C21.2802 26.5726 21.2675 26.5912 21.2259 26.5912H20.0089C19.9652 26.5912 19.9517 26.5755 19.9663 26.5456C19.9779 26.5252 19.9954 26.5077 20.0176 26.4943C20.0854 26.4662 20.1503 26.4159 20.2104 26.3441C20.2712 26.2724 20.3015 26.1922 20.3015 26.1029V23.3893C20.3015 23.3001 20.2716 23.2159 20.2104 23.1368C20.1503 23.0574 20.0854 23.0031 20.0176 22.975C19.9779 22.9557 19.9597 22.9295 19.9633 22.8956C19.9652 22.8763 19.9808 22.8664 20.0089 22.8664H21.2259C21.2529 22.8664 21.2675 22.8763 21.2715 22.8956C21.2755 22.9295 21.2569 22.9557 21.2154 22.975C21.1465 23.0031 21.0809 23.0574 21.0168 23.1368C20.9519 23.2162 20.9198 23.3004 20.9198 23.3893V25.6751C20.9198 25.6868 20.9275 25.6984 20.9439 25.709C20.9592 25.7207 20.9709 25.7207 20.9767 25.709L22.3942 23.4484C22.4321 23.3904 22.4484 23.3292 22.4426 23.2673C22.4368 23.2122 22.4157 23.159 22.3778 23.1084C22.3322 23.0534 22.2724 23.0085 22.1988 22.9747C22.1551 22.9553 22.138 22.9291 22.1445 22.8952C22.1445 22.8759 22.1599 22.8661 22.1901 22.8661H23.4042C23.4352 22.8661 23.4498 22.8759 23.4498 22.8952C23.4516 22.9291 23.4341 22.9553 23.3966 22.9747C23.3277 23.0027 23.2621 23.057 23.198 23.1364C23.1331 23.2159 23.1011 23.3001 23.1011 23.389V26.1025C23.1011 26.1915 23.1331 26.272 23.198 26.3438C23.2618 26.4156 23.3277 26.4658 23.3966 26.4939C23.413 26.5037 23.4286 26.5179 23.4421 26.5365C23.4625 26.5722 23.4498 26.5908 23.4042 26.5908H22.1901V26.5912ZM31.7796 26.5737C31.7399 26.5737 31.7188 26.5573 31.7166 26.5252C31.7148 26.5136 31.7381 26.4961 31.7855 26.472C31.8667 26.4265 31.9462 26.3441 32.0245 26.2261C32.1028 26.108 32.1389 25.9841 32.1309 25.8533L31.8675 21.8906C31.8521 21.6815 31.7447 21.5248 31.545 21.422C31.3457 21.3185 31.1296 21.2671 30.8975 21.2671C30.6701 21.2712 30.4609 21.3233 30.27 21.4249C30.0794 21.5255 29.9756 21.6756 29.961 21.8742L29.6571 25.8533C29.6465 25.9841 29.6782 26.108 29.7547 26.2261C29.8313 26.3441 29.9114 26.4265 29.9949 26.472C30.0422 26.4961 30.0645 26.5136 30.0627 26.5252C30.0586 26.5573 30.0386 26.5737 30.0007 26.5737H28.4382C28.3967 26.5737 28.3774 26.5573 28.381 26.5252C28.381 26.5158 28.4062 26.4983 28.4575 26.472C28.5464 26.4265 28.6386 26.3441 28.7326 26.2261C28.8274 26.108 28.8806 25.9841 28.8915 25.8533L29.2071 21.7551C29.2158 21.6242 29.183 21.5004 29.1065 21.3823C29.0289 21.2642 28.9505 21.1819 28.8693 21.1363C28.8201 21.1141 28.7968 21.0955 28.7986 21.0831C28.8026 21.0511 28.8237 21.0347 28.8635 21.0347H32.973C33.0109 21.0347 33.0331 21.0511 33.039 21.0831C33.039 21.0955 33.0149 21.1141 32.9672 21.1363C32.8841 21.1819 32.8036 21.2642 32.7252 21.3823C32.6469 21.5004 32.6119 21.6242 32.6217 21.7551L32.8939 25.8533C32.9034 25.9841 32.9548 26.108 33.0488 26.2261C33.1417 26.3441 33.2335 26.4265 33.3217 26.472C33.3731 26.4983 33.3993 26.5158 33.3993 26.5252C33.3993 26.5573 33.38 26.5737 33.3421 26.5737H31.7796ZM35.9967 26.5912C35.9529 26.5912 35.9395 26.5755 35.954 26.5456C35.9675 26.5234 35.985 26.5059 36.0054 26.4943C36.0714 26.4662 36.1351 26.4159 36.1971 26.3441C36.2583 26.2724 36.2893 26.1922 36.2893 26.1029V23.6692L34.815 26.0151C34.7443 26.1266 34.7395 26.225 34.8004 26.3102C34.8565 26.3955 34.9312 26.4564 35.0212 26.4943C35.0387 26.5041 35.0551 26.5183 35.0697 26.5369C35.0872 26.5726 35.0744 26.5912 35.0329 26.5912H33.8158C33.7721 26.5912 33.7586 26.5755 33.7732 26.5456C33.7848 26.5252 33.8023 26.5077 33.8246 26.4943C33.8923 26.4662 33.9572 26.4159 34.0173 26.3441C34.0782 26.2724 34.1084 26.1922 34.1084 26.1029V23.3893C34.1084 23.3001 34.0785 23.2159 34.0173 23.1368C33.9572 23.0574 33.8923 23.0031 33.8246 22.975C33.7849 22.9557 33.7666 22.9295 33.7703 22.8956C33.7721 22.8763 33.7878 22.8664 33.8158 22.8664H35.0329C35.0598 22.8664 35.0744 22.8763 35.0784 22.8956C35.0824 22.9295 35.0638 22.9557 35.0223 22.975C34.9534 23.0031 34.8878 23.0574 34.8237 23.1368C34.7589 23.2162 34.7268 23.3004 34.7268 23.3893V25.6751C34.7268 25.6868 34.7344 25.6984 34.7508 25.709C34.7665 25.7207 34.7778 25.7207 34.7836 25.709L36.2011 23.4484C36.239 23.3904 36.2554 23.3292 36.2496 23.2673C36.2437 23.2122 36.2226 23.159 36.1847 23.1084C36.1391 23.0534 36.0794 23.0085 36.0058 22.9747C35.9621 22.9553 35.9449 22.9291 35.9515 22.8952C35.9515 22.8759 35.9672 22.8661 35.997 22.8661H37.2112C37.2421 22.8661 37.2567 22.8759 37.2567 22.8952C37.2585 22.9291 37.2414 22.9553 37.2035 22.9747C37.1346 23.0027 37.0691 23.057 37.0049 23.1364C36.9401 23.2159 36.908 23.3001 36.908 23.389V26.1025C36.908 26.1915 36.9401 26.272 37.0049 26.3438C37.0687 26.4156 37.1346 26.4658 37.2035 26.4939C37.2199 26.5037 37.2356 26.5179 37.2491 26.5365C37.2695 26.5722 37.2567 26.5908 37.2112 26.5908H35.9967V26.5912ZM40.1295 25.9553L40.0588 23.3839C40.053 23.2968 40.0162 23.2133 39.9495 23.1343C39.8817 23.0548 39.8151 22.9994 39.7462 22.9696C39.7025 22.9502 39.6832 22.924 39.6872 22.8901C39.6872 22.8726 39.7006 22.8639 39.7298 22.8639H40.9468C40.9731 22.8639 40.9877 22.8726 40.9913 22.8901C40.9971 22.924 40.9815 22.9502 40.9439 22.9696C40.8773 22.9994 40.8153 23.0548 40.7563 23.1343C40.698 23.2137 40.671 23.2968 40.6768 23.3839L40.7475 25.9531C40.7515 26.0781 40.8 26.1798 40.8926 26.2592C40.9855 26.3387 41.0766 26.3853 41.1677 26.3988C41.273 26.417 41.3863 26.3427 41.5055 26.1743C41.5219 26.1503 41.5423 26.1357 41.5645 26.1317C41.5966 26.1317 41.6159 26.1492 41.6217 26.1831C41.6381 26.2877 41.6457 26.3795 41.6428 26.46C41.6399 26.5405 41.6505 26.6517 41.6749 26.7931C41.6982 26.9199 41.7234 27.0274 41.7525 27.1163C41.7806 27.2052 41.8021 27.301 41.8174 27.4056C41.8192 27.426 41.8068 27.4453 41.7806 27.4617C41.7543 27.4715 41.7292 27.4606 41.707 27.4307C41.6742 27.3852 41.6578 27.3455 41.6567 27.3105C41.6556 27.2755 41.6403 27.2351 41.6104 27.1895C41.5707 27.1352 41.5321 27.0802 41.4942 27.027C41.4563 26.9727 41.4129 26.9235 41.3633 26.878C41.2464 26.7686 41.1389 26.6961 41.0401 26.6622C40.9232 26.6243 40.7836 26.6014 40.6211 26.5915H37.6025C37.5522 26.5915 37.5417 26.5722 37.5715 26.5343C37.5792 26.5179 37.5956 26.5034 37.62 26.4917C37.6878 26.4637 37.7625 26.4028 37.8437 26.3099C37.925 26.2159 37.9687 26.1251 37.9746 26.0359L38.1112 23.3842C38.117 23.2971 38.089 23.2137 38.0288 23.1346C37.968 23.0552 37.9068 22.9998 37.8441 22.9699C37.8026 22.9524 37.7862 22.9262 37.7938 22.8905C37.7956 22.873 37.8113 22.8643 37.8423 22.8643H39.0553C39.0823 22.8643 39.0969 22.873 39.1009 22.8905C39.1009 22.9262 39.0805 22.9524 39.0389 22.9699C38.9712 22.9998 38.9034 23.0552 38.8378 23.1346C38.7711 23.2141 38.735 23.2971 38.7303 23.3842L38.6053 25.8908C38.59 26.1066 38.6691 26.2549 38.8414 26.335C39.0145 26.4152 39.1821 26.4549 39.3446 26.4549C39.5866 26.4549 39.7805 26.4035 39.9247 26.3019C40.0683 26.1991 40.1372 26.084 40.1295 25.9553ZM44.395 25.9553C44.4027 26.084 44.3342 26.1991 44.1888 26.3019C44.0445 26.4035 43.851 26.4549 43.6087 26.4549C43.4462 26.4549 43.2786 26.4152 43.1055 26.335C42.9331 26.2545 42.8537 26.1066 42.8693 25.8908L42.9943 23.3842C42.9991 23.2971 43.0351 23.2137 43.1018 23.1346C43.1678 23.0552 43.2352 22.9998 43.303 22.9699C43.3445 22.9524 43.3649 22.9262 43.3649 22.8905C43.3609 22.873 43.3463 22.8643 43.3194 22.8643H42.1063C42.0754 22.8643 42.06 22.873 42.0579 22.8905C42.0502 22.9262 42.0666 22.9524 42.1081 22.9699C42.1712 22.9998 42.232 23.0552 42.2929 23.1346C42.353 23.2141 42.3811 23.2971 42.3752 23.3842L42.2386 26.0359C42.2328 26.1248 42.189 26.2159 42.1078 26.3099C42.0265 26.4028 41.9518 26.4637 41.884 26.4917C41.8596 26.5034 41.8432 26.5179 41.8356 26.5343C41.8057 26.5722 41.8163 26.5915 41.8666 26.5915H44.8851C45.0476 26.6014 45.1872 26.6243 45.3042 26.6622C45.4029 26.6961 45.5104 26.7686 45.6274 26.878C45.6769 26.9235 45.7203 26.9727 45.7582 27.027C45.7961 27.0802 45.8347 27.1356 45.8744 27.1895C45.9043 27.2351 45.92 27.2759 45.9211 27.3105C45.9222 27.3455 45.9386 27.3852 45.9714 27.4307C45.9936 27.4606 46.0187 27.4715 46.045 27.4617C46.0712 27.4453 46.0836 27.426 46.0818 27.4056C46.0665 27.301 46.045 27.2052 46.0169 27.1163C45.9878 27.0274 45.9626 26.9199 45.9393 26.7931C45.9152 26.6517 45.9043 26.5405 45.9072 26.46C45.9101 26.3795 45.9025 26.2877 45.8861 26.1831C45.8803 26.1492 45.861 26.1317 45.8289 26.1317C45.8067 26.1357 45.7863 26.1503 45.7699 26.1743C45.6507 26.3427 45.5374 26.4174 45.4321 26.3988C45.341 26.3853 45.2502 26.3387 45.157 26.2592C45.064 26.1798 45.0156 26.0781 45.0119 25.9531L44.9412 23.3839C44.9354 23.2968 44.9624 23.2133 45.0207 23.1343C45.0797 23.0548 45.1417 22.9994 45.2083 22.9696C45.2462 22.9502 45.2615 22.924 45.2557 22.8901C45.2517 22.8726 45.2371 22.8639 45.2113 22.8639H43.9942C43.9651 22.8639 43.9516 22.8726 43.9516 22.8901C43.9476 22.924 43.9669 22.9502 44.0106 22.9696C44.0795 22.9994 44.1462 23.0548 44.2139 23.1343C44.2806 23.2137 44.3174 23.2968 44.3232 23.3839L44.395 25.9553ZM48.5064 26.5854C48.4434 26.5854 48.4124 26.5456 48.4124 26.4662V26.1342L47.4792 26.6677C47.3968 26.7133 47.3203 26.7278 47.2518 26.7122C47.1822 26.6958 47.125 26.6783 47.0806 26.659C46.8627 26.5671 46.6903 26.4596 46.5646 26.3387C46.3941 26.1762 46.2782 25.9863 46.2151 25.7684C46.1532 25.5516 46.1175 25.329 46.1076 25.1023C46.0942 24.8341 46.1222 24.5834 46.19 24.3509C46.2559 24.1312 46.37 23.9038 46.5329 23.6666C46.6539 23.4932 46.8116 23.3288 47.0073 23.174C47.1312 23.0792 47.289 22.9958 47.4807 22.9244C47.5805 22.8865 47.6858 22.8664 47.7955 22.8635C47.9048 22.8606 48.0134 22.8595 48.1216 22.8595H48.9582C49.0074 22.8595 49.0318 22.8876 49.0318 22.9437V26.0949C49.0318 26.1842 49.0639 26.2643 49.1288 26.3361C49.1925 26.4086 49.2585 26.4582 49.3274 26.487C49.3438 26.4957 49.3594 26.5103 49.3729 26.5296C49.3951 26.5675 49.3827 26.5857 49.335 26.5857H48.5064V26.5854ZM48.4127 25.9666V23.3809C48.3508 23.225 48.2025 23.1321 47.9704 23.1C47.6421 23.0566 47.3702 23.1525 47.1542 23.3886C46.9971 23.5591 46.8871 23.7468 46.824 23.953C46.761 24.1593 46.7282 24.375 46.7264 24.5998C46.7224 24.8593 46.7533 25.0906 46.8204 25.2951C46.8725 25.4656 46.9567 25.6223 47.0711 25.7655C47.1851 25.9098 47.3276 26.0133 47.497 26.0781C47.6395 26.1324 47.7663 26.1557 47.8804 26.147C47.9937 26.1393 48.103 26.1131 48.2087 26.0694C48.2426 26.0559 48.2765 26.0402 48.3093 26.0227C48.3421 26.0045 48.377 25.9863 48.4127 25.9666Z" fill="#DF0D14"/>
<path d="M24.7527 25.876C24.7527 25.6697 24.8059 25.4937 24.9119 25.348C25.018 25.2022 25.1794 25.0721 25.3958 24.9566C25.3149 24.8473 25.2534 24.7391 25.2107 24.632C25.1681 24.5248 25.147 24.4057 25.147 24.2741C25.147 24.171 25.1655 24.0759 25.2031 23.9888C25.2406 23.9017 25.2931 23.8267 25.3608 23.7629C25.4286 23.6991 25.5095 23.6492 25.6035 23.6128C25.6975 23.5763 25.801 23.5581 25.9143 23.5581C26.0437 23.5581 26.1541 23.5734 26.2448 23.6037C26.3359 23.6339 26.4103 23.6751 26.4678 23.7265C26.5254 23.7782 26.5673 23.8376 26.5939 23.9054C26.6202 23.9731 26.6333 24.0442 26.6333 24.1193C26.6333 24.2122 26.6147 24.2967 26.5772 24.3725C26.5396 24.4483 26.4875 24.5197 26.4208 24.5864C26.3542 24.6531 26.2747 24.7165 26.1825 24.7759C26.0903 24.8356 25.9898 24.8936 25.8808 24.9504C25.9373 25.0233 26 25.1002 26.0688 25.1811C26.1377 25.262 26.2095 25.3443 26.2842 25.4285C26.3589 25.5123 26.4358 25.5965 26.5149 25.6803C26.5936 25.7641 26.6737 25.8446 26.7543 25.9215C26.8454 25.8104 26.9095 25.6839 26.947 25.5422C26.9845 25.4008 27.0031 25.2631 27.0031 25.1297C27.0031 25.0954 27.0002 25.0576 26.994 25.016C26.9878 24.9745 26.9809 24.9417 26.9729 24.9176L27.3249 24.8418C27.3351 24.8703 27.3431 24.9063 27.3493 24.9512C27.3555 24.9956 27.3584 25.0382 27.3584 25.0787C27.3584 25.2507 27.3191 25.4198 27.24 25.5866C27.1613 25.7535 27.0498 25.9128 26.9066 26.0644C27.0582 26.1977 27.2028 26.3074 27.3402 26.3934C27.4776 26.4794 27.6 26.5224 27.7071 26.5224H27.7374V26.6587C27.6929 26.6751 27.6364 26.6878 27.5676 26.698C27.4987 26.7082 27.4291 26.7133 27.3584 26.7133C27.2433 26.7133 27.1223 26.6791 26.9958 26.6102C26.8694 26.5413 26.7404 26.4506 26.6092 26.3373C26.4515 26.4564 26.2893 26.5479 26.1224 26.6117C25.9555 26.6754 25.7861 26.7071 25.6145 26.7071C25.4709 26.7071 25.3455 26.6849 25.2384 26.6404C25.1313 26.596 25.0416 26.5359 24.9699 26.4601C24.8981 26.3843 24.8441 26.2961 24.8077 26.1963C24.7709 26.0961 24.7527 25.9893 24.7527 25.876ZM25.7719 26.4098C25.9034 26.4098 26.024 26.3916 26.1344 26.3551C26.2445 26.3187 26.3502 26.2651 26.4515 26.1944C26.3687 26.1157 26.286 26.0316 26.2044 25.9426C26.1224 25.8537 26.043 25.7641 25.9661 25.6741C25.8892 25.5841 25.8156 25.4948 25.7445 25.4055C25.6739 25.3166 25.6072 25.2317 25.5445 25.1508C25.4756 25.1993 25.4184 25.2474 25.3732 25.2948C25.3277 25.3421 25.2912 25.3917 25.2639 25.4434C25.2366 25.4952 25.2173 25.5495 25.2063 25.607C25.1954 25.6646 25.1896 25.7269 25.1896 25.7936C25.1896 25.8905 25.2042 25.9776 25.2337 26.0545C25.2628 26.1314 25.3033 26.1963 25.355 26.2487C25.4064 26.3012 25.4676 26.3413 25.5387 26.3686C25.6094 26.3963 25.687 26.4098 25.7719 26.4098ZM25.7085 24.7263C25.7147 24.7365 25.7212 24.7456 25.7281 24.7537C25.7354 24.7617 25.742 24.7708 25.7478 24.781C25.8571 24.7241 25.9479 24.6717 26.0207 24.6232C26.0936 24.5747 26.1516 24.5263 26.1953 24.4775C26.2387 24.429 26.27 24.3769 26.2893 24.3211C26.3086 24.2654 26.3181 24.2012 26.3181 24.1287C26.3181 24.0074 26.2827 23.9134 26.212 23.8467C26.1414 23.78 26.0473 23.7465 25.93 23.7465C25.8794 23.7465 25.8284 23.7545 25.777 23.7709C25.7256 23.7873 25.679 23.8135 25.6374 23.85C25.5959 23.8864 25.562 23.9338 25.5358 23.9925C25.5095 24.0511 25.4964 24.1229 25.4964 24.2078C25.4964 24.3011 25.5146 24.3878 25.5511 24.4687C25.5871 24.5496 25.6396 24.6352 25.7085 24.7263Z" fill="#DF0D14"/>
<path d="M10.8457 17.6757C10.7192 17.6757 10.6511 17.6233 10.6449 17.5212C10.6387 17.4844 10.7127 17.4287 10.8643 17.3514C11.1237 17.206 11.3773 16.9437 11.6276 16.5666C11.878 16.1898 11.992 15.7941 11.9676 15.3772L11.1273 2.73156C11.0778 2.06437 10.7349 1.5637 10.0987 1.23612C9.4621 0.905621 8.77341 0.74165 8.03188 0.74165C7.30603 0.754039 6.63847 0.920925 6.02995 1.24523C5.42142 1.56662 5.09093 2.04542 5.04428 2.67872L4.07356 15.3772C4.03967 15.7941 4.14134 16.1894 4.38547 16.5666C4.62961 16.9437 4.88614 17.206 5.15178 17.3514C5.303 17.4287 5.37442 17.4841 5.36786 17.5212C5.35547 17.6233 5.29061 17.6757 5.17036 17.6757H0.183744C0.0511072 17.6757 -0.0108384 17.6233 0.00155075 17.5212C0.00155075 17.4906 0.081716 17.4349 0.24569 17.3514C0.52991 17.206 0.82324 16.9437 1.12313 16.5666C1.42593 16.1898 1.59574 15.7941 1.62999 15.3772L2.63715 2.29903C2.66485 1.88218 2.5599 1.48682 2.31576 1.10968C2.06835 0.732539 1.81838 0.470182 1.55857 0.324792C1.40116 0.253737 1.32682 0.19507 1.33302 0.154987C1.34541 0.0529595 1.41355 0.000488281 1.53999 0.000488281H14.655C14.7756 0.000488281 14.8466 0.0529595 14.8652 0.154987C14.8652 0.19507 14.788 0.253737 14.6364 0.324792C14.3707 0.470182 14.1142 0.732539 13.8642 1.10968C13.6139 1.48645 13.5028 1.88218 13.5337 2.29903L14.4021 15.3772C14.433 15.7941 14.5967 16.1894 14.8965 16.5666C15.1932 16.9437 15.4865 17.206 15.7678 17.3514C15.9318 17.4345 16.0152 17.4906 16.0152 17.5212C16.0152 17.6233 15.9533 17.6757 15.8327 17.6757H10.8457Z" fill="#DF0D14"/>
<path d="M44.8305 17.6756C44.7036 17.6756 44.6355 17.6231 44.6297 17.5211C44.6235 17.4843 44.6974 17.4286 44.849 17.3513C45.1088 17.2059 45.3621 16.9436 45.6121 16.5664C45.8624 16.1897 45.9764 15.7939 45.952 15.3771L45.1118 2.73144C45.0622 2.06425 44.7193 1.56358 44.0831 1.236C43.4465 0.905498 42.7575 0.741526 42.0163 0.741526C41.2904 0.753915 40.6229 0.920802 40.0144 1.24511C39.4058 1.56649 39.0753 2.0453 39.0287 2.6786L38.0587 15.3767C38.0248 15.7936 38.1265 16.1889 38.3706 16.5661C38.6148 16.9432 38.8713 17.2056 39.1366 17.3509C39.2878 17.4282 39.3592 17.4836 39.3526 17.5208C39.3406 17.6228 39.2758 17.6753 39.1551 17.6753H34.1689C34.0363 17.6753 33.9743 17.6228 33.9863 17.5208C33.9863 17.4901 34.0669 17.4344 34.2308 17.3509C34.5151 17.2056 34.8084 16.9432 35.1079 16.5661C35.4107 16.1893 35.5805 15.7936 35.6144 15.3767L36.6216 2.29855C36.6496 1.88169 36.5443 1.48633 36.3002 1.10919C36.0531 0.732051 35.8028 0.469694 35.5434 0.324304C35.3856 0.253249 35.3116 0.194583 35.3174 0.1545C35.3298 0.0524723 35.398 0 35.5248 0H48.6397C48.7603 0 48.8314 0.0524723 48.85 0.1545C48.85 0.194583 48.7727 0.253249 48.6212 0.324304C48.3555 0.469694 48.0994 0.732051 47.849 1.10919C47.5987 1.48596 47.4875 1.88169 47.5185 2.29855L48.3869 15.3767C48.4178 15.7936 48.5814 16.1889 48.8813 16.5661C49.1776 16.9432 49.4713 17.2056 49.7526 17.3509C49.9165 17.434 50 17.4901 50 17.5208C50 17.6228 49.938 17.6753 49.8174 17.6753H44.8305V17.6756Z" fill="#DF0D14"/>
<path d="M18.9167 13.8841C18.9167 12.9498 19.1572 12.1525 19.6382 11.493C20.1189 10.8334 20.8494 10.2428 21.8293 9.72096C21.4631 9.22612 21.1836 8.73639 20.9912 8.25066C20.7988 7.7653 20.7026 7.22528 20.7026 6.62987C20.7026 6.16237 20.7871 5.73203 20.9569 5.33813C21.126 4.94459 21.3643 4.60316 21.6711 4.31457C21.978 4.02634 22.3442 3.79896 22.7705 3.63426C23.1961 3.46956 23.6654 3.38721 24.1788 3.38721C24.7648 3.38721 25.264 3.45571 25.6761 3.59309C26.0886 3.73046 26.4253 3.91629 26.6862 4.1495C26.9474 4.38307 27.1373 4.65345 27.2564 4.96026C27.3756 5.26707 27.435 5.58955 27.435 5.9288C27.435 6.35003 27.3501 6.73227 27.1806 7.07588C27.0112 7.41913 26.7751 7.74234 26.4734 8.04442C26.1706 8.34686 25.8113 8.6329 25.3944 8.90291C24.9779 9.17292 24.5221 9.43637 24.0273 9.6929C24.2838 10.0227 24.5676 10.3707 24.8792 10.7372C25.1907 11.1038 25.5158 11.4769 25.8547 11.857C26.1932 12.237 26.5415 12.6175 26.899 12.9971C27.2561 13.3776 27.6179 13.7416 27.9845 14.0896C28.397 13.586 28.6874 13.0135 28.8568 12.3719C29.0263 11.7309 29.1112 11.1078 29.1112 10.5033C29.1112 10.3477 29.097 10.1761 29.0696 9.98842C29.0423 9.80076 29.0099 9.65172 28.9734 9.54204L30.5669 9.19843C30.6128 9.32669 30.65 9.4914 30.6769 9.6929C30.7046 9.89441 30.7181 10.0868 30.7181 10.2701C30.7181 11.0488 30.5399 11.8158 30.1821 12.5715C29.8257 13.3269 29.3214 14.0488 28.6714 14.7353C29.3579 15.3398 30.0134 15.8368 30.6358 16.2263C31.2589 16.6155 31.8131 16.8101 32.2988 16.8101H32.4355V17.4281C32.2343 17.5017 31.9778 17.5607 31.6662 17.607C31.3551 17.6529 31.0388 17.6759 30.7185 17.6759C30.1967 17.6759 29.649 17.5203 29.0765 17.2084C28.5045 16.8972 27.92 16.485 27.3246 15.9724C26.6104 16.5127 25.8754 16.927 25.1197 17.2156C24.3643 17.5042 23.5969 17.6482 22.8186 17.6482C22.1682 17.6482 21.6001 17.5476 21.1151 17.3461C20.6294 17.1446 20.2242 16.8717 19.8988 16.5284C19.5737 16.1848 19.3289 15.7865 19.1638 15.3329C18.9995 14.8799 18.9167 14.3968 18.9167 13.8841ZM23.5332 16.3021C24.1282 16.3021 24.6755 16.2194 25.1751 16.0543C25.6743 15.8896 26.1527 15.647 26.6108 15.3263C26.2354 14.9692 25.8619 14.5891 25.491 14.1858C25.12 13.7831 24.7604 13.3779 24.4124 12.9698C24.0644 12.5628 23.7299 12.1572 23.4096 11.7539C23.089 11.3509 22.7865 10.9664 22.5027 10.5999C22.1911 10.8196 21.932 11.0375 21.7265 11.2525C21.5203 11.4678 21.3556 11.6923 21.2317 11.9255C21.1082 12.1591 21.0211 12.4065 20.9708 12.6674C20.9205 12.9286 20.8954 13.21 20.8954 13.5124C20.8954 13.9518 20.9617 14.3461 21.0943 14.6941C21.227 15.0421 21.4102 15.3354 21.6438 15.5734C21.877 15.8113 22.1543 15.9924 22.475 16.1163C22.796 16.2402 23.1487 16.3021 23.5332 16.3021ZM23.2449 8.67663C23.2722 8.72218 23.3021 8.76372 23.3338 8.80016C23.3659 8.83732 23.3958 8.8785 23.4235 8.92405C23.9179 8.66752 24.3301 8.42921 24.6598 8.20949C24.9896 7.98976 25.2527 7.77004 25.4498 7.54995C25.6469 7.33022 25.7883 7.0941 25.8758 6.84231C25.9629 6.59052 26.0059 6.29974 26.0059 5.96997C26.0059 5.42048 25.8459 4.99415 25.5252 4.69207C25.205 4.38963 24.779 4.23841 24.2473 4.23841C24.0185 4.23841 23.7871 4.27558 23.5536 4.34846C23.32 4.42206 23.1094 4.54122 22.9213 4.70592C22.7337 4.87099 22.5803 5.08597 22.4611 5.35161C22.342 5.61725 22.2822 5.94228 22.2822 6.32671C22.2822 6.74866 22.3646 7.1422 22.5296 7.50877C22.6954 7.87534 22.933 8.26451 23.2449 8.67663Z" fill="#DF0D14"/>
</svg>
