<svg width="55" height="39" viewBox="0 0 55 39" fill="none" xmlns="http://www.w3.org/2000/svg">
<path d="M18.0383 36.4712H18.8324C19.4656 36.4712 19.7822 36.715 19.7822 37.2015C19.7822 37.6891 19.4656 37.9328 18.8324 37.9328H18.4005V38.6955H18.0383V36.4712ZM19.2633 37.5151C19.3634 37.4564 19.414 37.3522 19.414 37.2025C19.414 37.0518 19.3634 36.9476 19.2633 36.89C19.1621 36.8313 19.0256 36.803 18.8516 36.803H18.4005V37.6041H18.8516C19.0256 37.6031 19.1621 37.5737 19.2633 37.5151Z" fill="#B1B1B1"/>
<path d="M20.4661 36.4712H21.9975V36.802H20.8282V37.4089H21.9024V37.7396H20.8282V38.3658H22.0167V38.6965H20.4661V36.4712Z" fill="#B1B1B1"/>
<path d="M22.582 37.603C22.582 37.4128 22.6154 37.2409 22.6842 37.0881C22.752 36.9354 22.842 36.812 22.9543 36.7179C23.0665 36.6239 23.191 36.552 23.3295 36.5035C23.4671 36.4549 23.6107 36.4307 23.7615 36.4307C23.988 36.4307 24.1984 36.4792 24.3937 36.5763V36.9293C24.2348 36.8191 24.0437 36.7645 23.8221 36.7645C23.5875 36.7645 23.3842 36.8353 23.2122 36.9769C23.0402 37.1185 22.9533 37.3279 22.9512 37.603C22.9512 37.777 22.9957 37.9257 23.0848 38.0511C23.1738 38.1765 23.283 38.2666 23.4125 38.3212C23.542 38.3758 23.6805 38.4041 23.8292 38.4041C24.0669 38.4041 24.2601 38.3465 24.4108 38.2322V38.5913C24.2116 38.6884 23.9971 38.7379 23.7655 38.7379C23.6168 38.7379 23.4742 38.7136 23.3366 38.6661C23.1991 38.6186 23.0726 38.5488 22.9583 38.4577C22.844 38.3667 22.753 38.2473 22.6852 38.0986C22.6154 37.95 22.582 37.7851 22.582 37.603Z" fill="#B1B1B1"/>
<path d="M24.9045 36.4712H26.7384V36.805H26.0041V38.6955H25.6419V36.805H24.9045V36.4712Z" fill="#B1B1B1"/>
<path d="M27.2128 38.0127C27.1632 37.8772 27.1379 37.7345 27.1379 37.5838C27.1379 37.4331 27.1632 37.2905 27.2128 37.1549C27.2624 37.0194 27.3342 36.897 27.4272 36.7878C27.5203 36.6785 27.6437 36.5915 27.7954 36.5268C27.9482 36.4621 28.1181 36.4297 28.3073 36.4297C28.4954 36.4297 28.6653 36.4621 28.8171 36.5268C28.9688 36.5915 29.0912 36.6785 29.1852 36.7878C29.2793 36.897 29.3511 37.0194 29.4017 37.1549C29.4513 37.2905 29.4766 37.4331 29.4766 37.5838C29.4766 37.7345 29.4513 37.8772 29.4017 38.0127C29.3521 38.1483 29.2803 38.2706 29.1852 38.3799C29.0912 38.4891 28.9678 38.5761 28.8171 38.6409C28.6653 38.7056 28.4954 38.738 28.3073 38.738C28.1191 38.738 27.9482 38.7056 27.7954 38.6409C27.6427 38.5761 27.5203 38.4891 27.4272 38.3799C27.3342 38.2706 27.2624 38.1483 27.2128 38.0127ZM28.9 38.1624C29.0386 38.0056 29.1084 37.8124 29.1084 37.5838C29.1084 37.3552 29.0386 37.162 28.9 37.0052C28.7614 36.8485 28.5632 36.7706 28.3073 36.7706C28.0534 36.7706 27.8561 36.8485 27.7165 37.0052C27.5769 37.162 27.5071 37.3552 27.5071 37.5838C27.5071 37.8124 27.5769 38.0056 27.7165 38.1624C27.8561 38.3192 28.0534 38.3971 28.3073 38.3971C28.5642 38.3971 28.7614 38.3192 28.9 38.1624Z" fill="#B1B1B1"/>
<path d="M30.1917 36.4712H30.9857C31.6189 36.4712 31.9355 36.715 31.9355 37.2015C31.9355 37.6891 31.6189 37.9328 30.9857 37.9328H30.5538V38.6955H30.1917V36.4712ZM31.4166 37.5151C31.5167 37.4564 31.5673 37.3522 31.5673 37.2025C31.5673 37.0518 31.5167 36.9476 31.4166 36.89C31.3154 36.8313 31.1789 36.803 31.0049 36.803H30.5538V37.6041H31.0049C31.1789 37.6031 31.3165 37.5737 31.4166 37.5151Z" fill="#B1B1B1"/>
<path d="M32.5687 38.6955H32.1843L33.125 36.4712H33.5226L34.4602 38.6955H34.0789L33.8816 38.2161H32.7659L32.5687 38.6955ZM33.2798 36.9486L32.8894 37.8984H33.7532L33.3627 36.9486C33.3455 36.9021 33.3324 36.8606 33.3213 36.8252C33.3112 36.8606 33.297 36.9021 33.2798 36.9486Z" fill="#B1B1B1"/>
<path d="M36.6006 36.4712H36.9627V38.6955H36.6006V37.7487H35.4283V38.6955H35.0662V36.4712H35.4283V37.4149H36.6006V36.4712Z" fill="#B1B1B1"/>
<path d="M2.18487 32.2175C2.18487 32.9367 2.50653 33.0682 3.44218 33.3241V33.3332H0V33.3241C0.88912 33.0692 1.19156 32.9367 1.19156 32.2175V27.8012C1.19156 27.1771 0.832475 26.8464 0 26.6947V26.6855H3.30967C5.40856 26.6855 6.22182 27.168 6.22182 28.4162C6.22182 29.6645 5.40856 30.2977 3.30967 30.2977H2.18386V32.2175H2.18487ZM2.18487 26.8838V30.0994H3.24392C4.60542 30.0994 5.17288 29.4753 5.17288 28.4162C5.17288 27.3481 4.60542 26.8838 3.24392 26.8838H2.18487Z" fill="black"/>
<path d="M14.6306 33.3241V33.3332H12.7107L10.4884 30.1085H9.37275V32.2175C9.37275 32.9367 9.67519 33.0682 10.536 33.3241V33.3332H7.198V33.3241C8.077 33.0692 8.38046 32.9367 8.38046 32.2175V27.7729C8.38046 27.1488 8.02137 26.8464 7.198 26.6947V26.6855H10.6594C12.7401 26.6855 13.5624 27.1397 13.5624 28.3212C13.5624 29.4935 12.7492 30.0994 10.6877 30.1085C11.0094 30.5627 11.1985 30.6567 11.8601 30.5809L13.0992 32.3308C13.4957 32.8699 13.8264 33.05 14.6306 33.3241ZM9.37275 29.9103H10.4986C11.8884 29.9103 12.5226 29.3428 12.5226 28.3212C12.5226 27.2904 11.8894 26.8838 10.4986 26.8838H9.37275V29.9103Z" fill="black"/>
<path d="M21.6191 31.1868V33.3332H15.3396V33.3241C16.2287 33.0692 16.5312 32.9367 16.5312 32.2175V27.8012C16.5312 27.1771 16.2287 26.8555 15.3396 26.6947V26.6855H21.5715V28.5771H21.5624C21.26 27.4331 21.0425 26.8848 19.681 26.8848H17.5245V29.7029H19.0185C19.7751 29.7029 19.8884 29.3155 20.1908 28.3596H20.1999V31.2535H20.1908C19.8884 30.2987 19.7751 29.9011 19.0185 29.9011H17.5245V33.135H19.681C21.0809 33.135 21.2984 32.5108 21.61 31.1868H21.6191Z" fill="black"/>
<path d="M33.7703 33.3241V33.3332H30.3939V33.3241C31.1981 33.1633 31.5855 32.9458 31.5855 32.2175V27.0446L28.2657 32.9357H27.7933L24.4452 27.4229L24.4543 31.9333V32.1508C24.4543 32.879 24.9368 33.1623 25.7399 33.3231V33.3322H23.0655V33.3231C23.813 33.1714 24.2287 32.8972 24.2571 32.2266L24.248 28.0187V27.8012C24.248 27.073 23.8605 26.8555 23.0564 26.6947V26.6855H25.1179L28.4751 32.2175L31.5956 26.6855H33.7703V26.6947C32.9763 26.8555 32.5788 27.073 32.5788 27.8012V32.2175C32.5788 32.9458 32.9763 33.1633 33.7703 33.3241Z" fill="black"/>
<path d="M38.4699 33.3241V33.3332H35.1218V33.3241C36.0008 33.1633 36.3134 32.9458 36.3134 32.2175V27.8012C36.3134 27.073 36.0008 26.8555 35.1218 26.6947V26.6855H38.4699V26.6947C37.6193 26.8555 37.3067 27.073 37.3067 27.8012V32.2175C37.3067 32.9458 37.6101 33.1633 38.4699 33.3241Z" fill="black"/>
<path d="M46.0927 31.1868V33.3332H39.8132V33.3241C40.7024 33.0692 41.0048 32.9367 41.0048 32.2175V27.8012C41.0048 27.1771 40.7024 26.8555 39.8132 26.6947V26.6855H46.0452V28.5771H46.0361C45.7336 27.4331 45.5161 26.8848 44.1547 26.8848H41.9981V29.7029H43.4921C44.2487 29.7029 44.362 29.3155 44.6645 28.3596H44.6736V31.2535H44.6645C44.362 30.2987 44.2487 29.9011 43.4921 29.9011H41.9981V33.135H44.1547C45.5546 33.135 45.7721 32.5108 46.0836 31.1868H46.0927Z" fill="black"/>
<path d="M55 33.3241V33.3332H53.0801L50.8578 30.1085H49.7421V32.2175C49.7421 32.9367 50.0446 33.0682 50.9054 33.3241V33.3332H47.5674V33.3241C48.4464 33.0692 48.7498 32.9367 48.7498 32.2175V27.7729C48.7498 27.1488 48.3908 26.8464 47.5674 26.6947V26.6855H51.0288C53.1095 26.6855 53.9318 27.1397 53.9318 28.3212C53.9318 29.4935 53.1186 30.0994 51.0571 30.1085C51.3788 30.5627 51.5679 30.6567 52.2294 30.5809L53.4685 32.3308C53.8651 32.8699 54.1968 33.05 55 33.3241ZM49.7421 29.9103H50.8679C52.2578 29.9103 52.892 29.3428 52.892 28.3212C52.892 27.2904 52.2588 26.8838 50.8679 26.8838H49.7421V29.9103Z" fill="black"/>
<path d="M42.863 13.1183C42.863 13.0364 42.8619 12.9534 42.8559 12.8715C42.8447 12.7208 42.8326 12.5701 42.8164 12.4194C42.8002 12.2585 42.783 12.0967 42.7588 11.9369C42.7355 11.7851 42.7031 11.6344 42.6718 11.4837C42.6172 11.2187 42.5494 10.9557 42.4715 10.6967C42.4007 10.4631 42.3258 10.2304 42.2328 10.0049C42.1701 9.85213 42.1063 9.70041 42.0366 9.55172C41.9344 9.33525 41.7806 9.16127 41.5895 9.02067C41.3285 8.8295 41.0341 8.73644 40.7105 8.73239C40.5567 8.73037 40.5102 8.72228 40.3058 8.72228C40.0449 8.71823 39.7273 8.73644 39.4683 8.76678C39.3156 8.78499 39.1628 8.80927 39.0131 8.84366C38.8574 8.87906 38.7046 8.91952 38.5529 8.96908C38.3637 9.0318 38.1776 9.10159 37.9945 9.18049C37.77 9.2776 37.5576 9.39797 37.3502 9.52845C37.1236 9.67006 36.9213 9.84202 36.7231 10.019C36.5673 10.1596 36.4206 10.3093 36.2709 10.457C36.1536 10.5733 36.0575 10.7079 35.9523 10.8343C35.8431 10.9648 35.7379 11.0983 35.6256 11.2268C35.4546 11.423 35.2898 11.6253 35.134 11.8337C34.961 12.0663 34.788 12.298 34.6141 12.5296C34.4563 12.74 34.2965 12.9494 34.1387 13.1588C33.9485 13.4116 33.7603 13.6645 33.5712 13.9184C33.4013 14.146 33.2303 14.3736 33.0604 14.6012C32.7974 14.9552 32.5354 15.3103 32.2724 15.6653C32.064 15.9475 31.8547 16.2287 31.6463 16.5109C31.4086 16.8316 31.1719 17.1512 30.9342 17.4719C30.743 17.7308 30.5508 17.9887 30.3617 18.2477C30.1573 18.5269 29.9368 18.7929 29.686 19.0316C29.5049 19.2046 29.3117 19.3624 29.1064 19.505C28.8414 19.6891 28.5622 19.8469 28.2658 19.9733C27.8976 20.1311 27.5163 20.2404 27.1198 20.298C27.0884 20.3021 27.056 20.3061 27.0257 20.3132C27.0085 20.3172 26.9883 20.3233 26.968 20.3435C27.0267 20.3435 27.0975 20.3435 27.1552 20.3435C27.6073 20.3435 28.0595 20.3435 28.5106 20.3435C28.7048 20.3435 28.899 20.3425 29.0922 20.3435C29.2551 20.3446 29.4159 20.3334 29.5767 20.3102C29.8114 20.2768 30.041 20.2262 30.2666 20.1524C30.7076 20.0087 31.1132 19.7973 31.4824 19.5161C31.7596 19.3047 32.0195 19.0731 32.2694 18.8293C32.325 18.7757 32.3746 18.717 32.4312 18.6644C32.5172 18.5845 32.5931 18.4955 32.6669 18.4055C32.7974 18.2447 32.9289 18.0838 33.0604 17.924C33.1413 17.8259 33.2293 17.7318 33.3082 17.6327C33.4488 17.4557 33.5864 17.2766 33.7229 17.0976C33.9384 16.8144 34.1508 16.5291 34.3652 16.2439C34.5787 15.9596 34.7931 15.6744 35.0065 15.3902C35.1087 15.2546 35.2109 15.1181 35.313 14.9825C35.4233 14.8359 35.5345 14.6902 35.6438 14.5435C35.8936 14.2057 36.1415 13.8668 36.3913 13.529C36.628 13.2083 36.8657 12.8887 37.1034 12.568C37.3816 12.1918 37.6607 11.8165 37.9389 11.4402C38.0967 11.2268 38.2535 11.0113 38.4113 10.7979C38.5994 10.543 38.8007 10.3002 39.0283 10.0787C39.3136 9.80055 39.6281 9.56183 39.971 9.36054C40.0651 9.30592 40.1612 9.25534 40.2593 9.2078C40.3979 9.14104 40.5456 9.10968 40.6983 9.10463C40.8157 9.10058 40.932 9.11272 41.0463 9.14003C41.1717 9.17037 41.283 9.23005 41.3902 9.30288C41.5085 9.38279 41.6087 9.48091 41.6815 9.60431C41.7331 9.6913 41.7817 9.78032 41.8211 9.87236C41.901 10.0605 41.9769 10.2507 42.0487 10.4418C42.1417 10.6907 42.2136 10.9466 42.2813 11.2025C42.336 11.4109 42.3805 11.6213 42.4169 11.8327C42.4553 12.0582 42.4826 12.2848 42.5039 12.5124C42.5231 12.7167 42.5322 12.9211 42.5383 13.1254C42.5453 13.3722 42.5413 13.62 42.5403 13.8668C42.5403 13.9174 42.5372 13.968 42.5332 14.0186C42.5221 14.1774 42.512 14.3372 42.4978 14.496C42.4857 14.6224 42.4705 14.7499 42.4523 14.8753C42.4351 14.9906 42.4068 15.1049 42.3936 15.2202C42.3825 15.3133 42.3633 15.4033 42.342 15.4933C42.2965 15.6845 42.249 15.8747 42.1954 16.0638C42.1286 16.2965 42.0507 16.5251 41.9637 16.7507C41.8899 16.9418 41.8039 17.1269 41.7179 17.312C41.375 18.0535 40.932 18.7282 40.3858 19.3351C40.0075 19.7548 39.5917 20.1342 39.1355 20.469C38.7228 20.7724 38.2848 21.0324 37.8226 21.2509C37.5151 21.3965 37.1995 21.522 36.8768 21.6292C36.5693 21.7313 36.2558 21.8143 35.9381 21.876C35.6256 21.9377 35.31 21.9832 34.9914 22.0055C34.7476 22.0227 34.5038 22.0348 34.259 22.0348C27.0571 22.0338 19.8551 22.0348 12.6531 22.0348C12.6137 22.0348 12.5732 22.0348 12.5338 22.0348C12.5186 22.0348 12.4983 22.0348 12.4751 22.0358C12.4751 22.0216 12.4741 22.0105 12.4741 22.0034C12.4741 16.3218 12.4741 10.6411 12.4741 4.95945C12.4741 4.95237 12.4741 4.94124 12.4741 4.92607C12.4953 4.92607 12.5105 4.92708 12.5257 4.92607C12.5601 4.92506 12.5944 4.92506 12.6288 4.92506C16.7174 4.92506 20.8069 4.92506 24.8955 4.92506C25.207 4.92506 25.5175 4.92303 25.8281 4.9291C26.083 4.93416 26.3389 4.93112 26.5918 4.96754C26.6858 4.98069 26.7809 4.99384 26.874 5.01407C27.0803 5.05756 27.2776 5.12635 27.4708 5.2103C27.6812 5.30134 27.8794 5.41463 28.0615 5.55422C28.3902 5.80608 28.6077 6.13786 28.7544 6.5192C28.8029 6.64564 28.8454 6.7741 28.8818 6.90459C28.9223 7.04822 28.9557 7.19186 28.985 7.33852C29.0052 7.43968 29.0244 7.54184 29.0416 7.644C29.073 7.83214 29.1044 8.0213 29.1296 8.21045C29.1539 8.38645 29.1671 8.56448 29.1913 8.74048C29.2025 8.82241 29.2085 8.90435 29.2146 8.98628C29.2156 8.9964 29.2156 9.00752 29.2166 9.01764C29.2379 9.16734 29.251 9.31806 29.2591 9.46978C29.2591 9.47383 29.2642 9.47686 29.2723 9.48597C29.2753 9.46675 29.2783 9.45461 29.2793 9.44247C29.2844 9.37065 29.2874 9.29884 29.2945 9.22803C29.3147 9.03787 29.337 8.8477 29.3572 8.65855C29.3623 8.61607 29.3633 8.57358 29.3684 8.5311C29.3906 8.35206 29.4119 8.17302 29.4371 7.99398C29.4614 7.82304 29.4877 7.65209 29.5211 7.48317C29.5605 7.28289 29.602 7.08261 29.6597 6.88638C29.7163 6.6952 29.779 6.50706 29.865 6.326C29.9682 6.10853 30.0987 5.90926 30.2686 5.7373C30.4345 5.56939 30.6267 5.43688 30.832 5.3246C31.0687 5.19513 31.3196 5.10207 31.5795 5.03228C31.6463 5.01407 31.713 4.99788 31.7818 4.98676C31.9153 4.9645 32.0519 4.96349 32.1864 4.95237C32.2947 4.94326 32.4039 4.94023 32.5132 4.93517C32.5587 4.93315 32.6032 4.9291 32.6487 4.9291C32.8641 4.92809 33.0796 4.92708 33.2951 4.92708C33.6622 4.92708 34.0284 4.92404 34.3956 4.92809C34.605 4.93011 34.8154 4.94023 35.0247 4.95641C35.1937 4.96855 35.3626 4.99283 35.5315 5.01508C35.8188 5.05251 36.102 5.11117 36.3822 5.18501C36.7271 5.27504 37.064 5.38732 37.3947 5.52084C37.9065 5.7282 38.3911 5.98512 38.8503 6.29161C39.3045 6.59506 39.7232 6.94302 40.1086 7.33043C40.3433 7.56713 40.5628 7.81596 40.7661 8.07895C40.8076 8.13357 40.7914 8.12751 40.8632 8.14066C41.0058 8.16291 41.1424 8.2064 41.2759 8.25698C41.287 8.26102 41.2992 8.26406 41.3184 8.27013C41.3083 8.25192 41.3042 8.24282 41.2981 8.23371C41.0635 7.89385 40.8045 7.57421 40.5233 7.27176C40.2533 6.98146 39.9629 6.7124 39.6544 6.46357C39.3712 6.23395 39.0738 6.02457 38.7633 5.83339C38.3435 5.57546 37.9045 5.35596 37.4463 5.1749C37.2217 5.08589 36.9931 5.008 36.7615 4.93922C36.4742 4.85223 36.1819 4.78547 35.8876 4.72781C35.6316 4.67825 35.3727 4.64588 35.1138 4.62261C34.8548 4.59935 34.5938 4.5862 34.3329 4.5862C33.7826 4.5862 33.2323 4.58519 32.6821 4.5862C32.5041 4.5862 32.326 4.57406 32.15 4.55282C31.883 4.52045 31.621 4.46482 31.3651 4.38086C31.0677 4.28275 30.7885 4.14821 30.5346 3.96614C30.2635 3.77193 30.0542 3.52512 29.9035 3.22774C29.778 2.97992 29.69 2.71895 29.6243 2.44988C29.6091 2.38818 29.5939 2.32648 29.5798 2.26377C29.5585 2.16767 29.5342 2.07259 29.5191 1.97548C29.4837 1.76104 29.4523 1.54559 29.4189 1.33014C29.4149 1.30081 29.4088 1.27248 29.4058 1.24315C29.3866 1.07119 29.3673 0.900246 29.3491 0.728289C29.341 0.654448 29.334 0.580609 29.3259 0.506768C29.3218 0.469342 29.3178 0.432927 29.3137 0.396513C29.3067 0.330765 29.2996 0.265016 29.2935 0.198256C29.2885 0.137566 29.2844 0.0768751 29.2793 0.0151728C29.2793 0.0101153 29.2733 0.00606908 29.2682 0C29.2642 0.00910362 29.2611 0.0131497 29.2611 0.0182073C29.252 0.121382 29.2429 0.224556 29.2338 0.32773C29.2257 0.422812 29.2176 0.517895 29.2096 0.613988C29.2085 0.627138 29.2085 0.640288 29.2065 0.653437C29.1873 0.803141 29.1671 0.952845 29.1479 1.10356C29.1317 1.23506 29.1185 1.36757 29.0993 1.49906C29.0781 1.64371 29.0548 1.78734 29.0285 1.93199C28.989 2.15149 28.9425 2.36896 28.8808 2.5834C28.8252 2.77761 28.7604 2.96879 28.6735 3.15086C28.5652 3.37845 28.4277 3.5848 28.2466 3.76182C28.0878 3.91759 27.9067 4.04302 27.7125 4.14923C27.3716 4.33636 27.0055 4.45167 26.6241 4.51944C26.346 4.56799 26.0658 4.58721 25.7836 4.58721C21.2854 4.5862 16.7892 4.5862 12.291 4.5862C12.2586 4.5862 12.2283 4.5862 12.1939 4.5862C12.1757 4.5862 12.1635 4.5862 12.1423 4.5862C12.1423 4.62666 12.1423 4.67117 12.1423 4.70758C12.1423 10.5481 12.1423 16.3895 12.1423 22.23C12.1423 22.2563 12.1413 22.2826 12.1423 22.3089C12.1433 22.3241 12.1423 22.3423 12.1423 22.3605C12.1858 22.3605 12.2273 22.3605 12.2637 22.3605C19.6467 22.3605 27.0297 22.3605 34.4118 22.3605C34.696 22.3605 34.9802 22.3575 35.2635 22.3221C35.3606 22.3099 35.4587 22.3018 35.5558 22.2867C35.7894 22.2492 36.0231 22.2138 36.2527 22.1552C36.453 22.1046 36.6543 22.053 36.8515 21.9933C37.1287 21.9104 37.3998 21.8092 37.6668 21.6949C37.9622 21.5685 38.2505 21.4259 38.5296 21.266C38.8129 21.1032 39.087 20.9252 39.351 20.731C39.6565 20.5074 39.9417 20.2616 40.2158 20.0017C40.3908 19.8348 40.5557 19.6577 40.7155 19.4757C40.938 19.2218 41.1454 18.9547 41.3356 18.6756C41.6491 18.2153 41.9142 17.7278 42.1326 17.2159C42.255 16.9297 42.3592 16.6374 42.4523 16.341C42.5109 16.1539 42.5676 15.9657 42.6101 15.7735C42.6475 15.6056 42.6839 15.4367 42.7173 15.2668C42.7396 15.1545 42.7557 15.0422 42.775 14.9289C42.7901 14.8348 42.8043 14.7408 42.8114 14.6447C42.8205 14.5203 42.8397 14.3969 42.8478 14.2724C42.8579 14.1136 42.865 13.9538 42.867 13.794C42.865 13.5705 42.864 13.3439 42.863 13.1183ZM36.4844 11.2753C36.1728 11.6961 35.8623 12.1169 35.5507 12.5377C35.2453 12.9494 34.9408 13.3621 34.6343 13.7738C34.3855 14.1086 34.1356 14.4424 33.8868 14.7772C33.6976 15.0301 33.5085 15.284 33.3193 15.5358C33.0351 15.9141 32.7498 16.2914 32.4656 16.6687C32.3422 16.8316 32.2208 16.9964 32.0944 17.1573C32.0074 17.2675 31.9143 17.3737 31.8223 17.48C31.6847 17.6388 31.5502 17.7996 31.4086 17.9544C31.1891 18.1941 30.9544 18.4176 30.7056 18.625C30.6398 18.6796 30.5731 18.7322 30.5073 18.7858C30.4952 18.7959 30.482 18.804 30.4699 18.8121C30.4547 18.799 30.4659 18.7909 30.4709 18.7838C30.6631 18.5228 30.8553 18.2619 31.0485 18.0009C31.2488 17.7298 31.449 17.4577 31.6503 17.1866C31.8 16.9833 31.9508 16.781 32.1015 16.5777C32.3543 16.2358 32.6072 15.8939 32.8601 15.552C33.1039 15.2233 33.3477 14.8945 33.5924 14.5668C33.8372 14.2391 34.084 13.9123 34.3288 13.5856C34.5534 13.2862 34.7779 12.9868 35.0035 12.6874C35.1744 12.4598 35.3434 12.2322 35.5184 12.0077C35.6225 11.8731 35.7348 11.7457 35.8441 11.6152C35.9139 11.5312 35.9857 11.4503 36.0545 11.3643C36.2042 11.1772 36.368 11.0032 36.5319 10.8293C36.7413 10.6087 36.9739 10.4155 37.2197 10.2375C37.2278 10.2315 37.2379 10.2264 37.247 10.2213C37.2491 10.2203 37.2521 10.2213 37.2632 10.2223C36.9982 10.5794 36.7413 10.9274 36.4844 11.2753ZM27.7813 4.67926C27.8733 4.65498 27.9654 4.62565 28.0534 4.58923C28.1434 4.55181 28.2324 4.5073 28.3164 4.45673C28.3983 4.40716 28.4742 4.34951 28.55 4.29084C28.6289 4.23116 28.7008 4.1644 28.7635 4.08752C28.8242 4.01368 28.8828 3.93782 28.9385 3.86094C28.9961 3.78104 29.0447 3.69506 29.0821 3.60402C29.1195 3.51602 29.1549 3.42701 29.1833 3.33597C29.2116 3.24392 29.2308 3.14783 29.2561 3.04566C29.2753 3.06994 29.2713 3.09118 29.2753 3.1104C29.2804 3.13367 29.2844 3.15693 29.2895 3.18121C29.2935 3.20245 29.2996 3.22268 29.3046 3.24291C29.3107 3.26618 29.3168 3.28944 29.3228 3.3127C29.3289 3.33293 29.334 3.35418 29.3411 3.3734C29.3481 3.39565 29.3572 3.41891 29.3653 3.44117C29.3724 3.4614 29.3805 3.48061 29.3876 3.50085C29.3967 3.5231 29.4048 3.54535 29.4149 3.56761C29.423 3.58682 29.4331 3.60604 29.4422 3.62526C29.4513 3.64448 29.4604 3.6637 29.4705 3.68191C29.4817 3.70315 29.4928 3.72439 29.5049 3.74462C29.515 3.76283 29.5262 3.78104 29.5373 3.79924C29.5494 3.81947 29.5626 3.8397 29.5757 3.85993C29.5879 3.87814 29.6 3.89534 29.6121 3.91253C29.6263 3.93175 29.6405 3.95097 29.6546 3.97019C29.6678 3.98738 29.6799 4.00458 29.6931 4.02076C29.7082 4.03897 29.7244 4.05617 29.7406 4.07437C29.7548 4.09056 29.7689 4.10674 29.7831 4.12191C29.7993 4.13911 29.8154 4.15631 29.8326 4.1735C29.8478 4.18867 29.863 4.20284 29.8792 4.217C29.8954 4.23116 29.9115 4.24532 29.9277 4.25847C29.9459 4.27465 29.9631 4.29084 29.9813 4.30601C29.9975 4.31916 30.0147 4.33231 30.0319 4.34445C30.0511 4.35861 30.0703 4.37277 30.0906 4.38592C30.1078 4.39806 30.125 4.4102 30.1432 4.42233C30.1634 4.43548 30.1836 4.44762 30.2049 4.45976C30.2231 4.47089 30.2413 4.48201 30.2595 4.49213C30.2807 4.50427 30.301 4.51539 30.3222 4.52652C30.3414 4.53663 30.3607 4.54574 30.3799 4.55484C30.3991 4.56394 30.4183 4.57204 30.4385 4.58013C30.4608 4.58923 30.483 4.59834 30.5053 4.60643C30.5255 4.61452 30.5447 4.62261 30.565 4.62969C30.5872 4.63779 30.6105 4.64386 30.6338 4.65094C30.654 4.65701 30.6742 4.66409 30.6945 4.67016C30.7177 4.67622 30.741 4.68229 30.7642 4.68735C30.7845 4.69241 30.8057 4.69544 30.826 4.7005C30.8492 4.70556 30.8725 4.71061 30.8957 4.71668C30.915 4.72174 30.9392 4.71062 30.9554 4.73793C30.5093 4.81076 30.126 5.00193 29.8144 5.32764C29.5059 5.65031 29.3319 6.03772 29.2692 6.47975C29.2035 6.01951 29.0153 5.623 28.6846 5.29931C28.3548 4.97664 27.9593 4.78951 27.5001 4.73489C27.5921 4.7177 27.6882 4.70353 27.7813 4.67926Z" fill="url(#paint0_linear_2367_90282)"/>
<path d="M26.8486 9.75997C26.8456 9.63454 26.8254 9.51114 26.8061 9.38773C26.7748 9.18543 26.7242 8.98717 26.6544 8.79499C26.5654 8.55121 26.446 8.32362 26.2903 8.11626C26.0809 7.83607 25.8189 7.61253 25.5215 7.43046C25.3263 7.3111 25.121 7.21298 24.9075 7.12801C24.6506 7.02585 24.3856 6.94898 24.1165 6.88424C23.9183 6.83569 23.718 6.79624 23.5147 6.7669C23.3781 6.74667 23.2426 6.7224 23.105 6.7052C22.931 6.68497 22.756 6.66777 22.581 6.65361C22.313 6.63338 22.046 6.61012 21.7779 6.6C21.4593 6.58786 21.1396 6.58281 20.821 6.58281C18.5562 6.58078 16.2915 6.5818 14.0267 6.5818C14.0166 6.5818 14.0054 6.5818 13.9933 6.5818C13.9933 6.58787 13.9933 6.59393 13.9933 6.6C14.0044 6.60405 14.0135 6.60708 14.0257 6.61113C14.1835 6.64653 14.3433 6.67789 14.5001 6.71734C14.7479 6.78005 14.9896 6.85996 15.2213 6.96617C15.4398 7.06631 15.6441 7.1887 15.8262 7.3465C16.1994 7.67018 16.3795 8.09198 16.4361 8.57245C16.4513 8.70091 16.4523 8.83241 16.4523 8.9629C16.4533 11.9721 16.4533 14.9814 16.4523 17.9906C16.4523 18.1343 16.4482 18.2779 16.4361 18.4205C16.424 18.5581 16.3987 18.6937 16.3623 18.8272C16.2935 19.073 16.1751 19.2884 15.989 19.4654C15.8848 19.5656 15.7685 19.6485 15.6431 19.7203C15.4206 19.8478 15.1849 19.9429 14.9441 20.0268C14.6781 20.1199 14.409 20.2008 14.139 20.2797C14.0955 20.2918 14.0257 20.31 13.9822 20.3232C13.9832 20.3303 13.9822 20.3313 13.9832 20.3444C16.3592 20.3444 18.7383 20.3444 21.1042 20.3444C21.1042 20.3404 21.1042 20.3343 21.1042 20.3242C21.0982 20.3212 21.0941 20.3192 21.086 20.3171C20.9272 20.2726 20.7684 20.2301 20.6106 20.1846C20.294 20.0936 19.9794 19.9975 19.675 19.87C19.4787 19.7881 19.2886 19.692 19.1166 19.5656C18.9184 19.4189 18.7646 19.2358 18.6665 19.0082C18.5684 18.7806 18.5299 18.5399 18.5138 18.2951C18.5067 18.1889 18.5067 18.0827 18.5067 17.9765C18.5067 16.7435 18.5067 15.5094 18.5067 14.2764C18.5067 14.2207 18.5067 14.1641 18.5067 14.1085C18.5067 14.0933 18.5067 14.0781 18.5067 14.0609C18.537 14.0609 18.5714 14.0609 18.5977 14.0609C19.2592 14.0609 19.9218 14.0619 20.5833 14.0609C20.9181 14.0609 21.2529 14.067 21.5877 14.0457C21.7445 14.0356 21.9013 14.0356 22.0581 14.0235C22.2513 14.0093 22.4445 13.9881 22.6377 13.9679C22.8329 13.9476 23.0271 13.9203 23.2213 13.888C23.5329 13.8364 23.8414 13.7696 24.1459 13.6816C24.4776 13.5855 24.8013 13.4641 25.1078 13.3043C25.4305 13.1354 25.7248 12.929 25.9797 12.6681C26.2417 12.401 26.443 12.0935 26.5856 11.7486C26.7111 11.4451 26.7879 11.1285 26.8264 10.8018C26.8365 10.7118 26.8446 10.6218 26.8496 10.5318C26.8577 10.3992 26.8658 10.2667 26.8658 10.1332C26.8668 10.0088 26.8517 9.88439 26.8486 9.75997ZM17.6085 19.5838C17.2716 19.5838 16.9348 19.5828 16.5899 19.5828C16.5979 19.5646 16.603 19.5524 16.6091 19.5423C16.7062 19.3714 16.7568 19.1852 16.7922 18.9941C16.8316 18.7756 16.8367 18.5551 16.8367 18.3346C16.8377 15.0866 16.8377 11.8376 16.8367 8.58965C16.8367 8.45714 16.8357 8.32261 16.8195 8.19111C16.7851 7.90688 16.7102 7.63377 16.5595 7.38595C16.5545 7.37684 16.5494 7.36774 16.5373 7.34448C16.8185 7.34448 17.0885 7.34448 17.3627 7.34448C17.3647 7.36471 17.3677 7.37988 17.3677 7.39505C17.3687 7.41326 17.3677 7.43248 17.3677 7.45069C17.3677 9.35638 17.3677 11.2631 17.3677 13.1688C17.3677 14.8964 17.3677 16.6241 17.3687 18.3528C17.3687 18.4883 17.3748 18.6239 17.3839 18.7594C17.394 18.9162 17.4233 19.0699 17.4679 19.2206C17.5012 19.3329 17.5468 19.4401 17.6074 19.5413C17.6135 19.5524 17.6196 19.5625 17.6256 19.5737C17.6155 19.5787 17.6115 19.5838 17.6085 19.5838ZM24.689 10.377C24.689 10.5257 24.6718 10.6734 24.6536 10.8221C24.6344 10.9778 24.6101 11.1326 24.5717 11.2843C24.5049 11.5503 24.4139 11.8083 24.2824 12.049C24.0589 12.4557 23.7504 12.7824 23.3589 13.0322C23.1293 13.1789 22.8825 13.2891 22.6256 13.3771C22.4445 13.4399 22.2594 13.4864 22.0723 13.5248C21.958 13.5481 21.8416 13.5633 21.7273 13.5825C21.52 13.6159 21.3106 13.626 21.1012 13.6411C21.0324 13.6462 20.9626 13.6472 20.8938 13.6472C20.1312 13.6472 19.3685 13.6472 18.6048 13.6472C18.5734 13.6472 18.5492 13.6472 18.5097 13.6462C18.5097 13.3792 18.5097 7.08148 18.5097 6.99449C18.5299 6.99449 18.5542 6.99449 18.5694 6.99449C19.2926 6.99449 20.0159 6.99551 20.7381 6.99449C21.0092 6.99449 21.2802 7.0036 21.5503 7.02686C21.6717 7.03698 21.7931 7.05619 21.9145 7.06934C22.0682 7.08553 22.2189 7.11689 22.3696 7.14622C22.5234 7.17555 22.6741 7.21905 22.8238 7.26659C23.0777 7.34751 23.3195 7.45675 23.545 7.60039C23.9152 7.83607 24.1964 8.15065 24.3856 8.54716C24.4948 8.77678 24.5687 9.01651 24.6172 9.26534C24.6516 9.44033 24.6729 9.61735 24.685 9.79436C24.6961 9.95013 24.6911 10.1079 24.6931 10.2647C24.6911 10.3032 24.689 10.3406 24.689 10.377ZM25.6115 10.6258C25.5802 10.8666 25.5266 11.1012 25.4406 11.3288C25.3516 11.5675 25.2312 11.7881 25.0744 11.9883C24.9986 12.0854 24.9146 12.1734 24.8175 12.2493C24.8054 12.2584 24.7922 12.2665 24.77 12.2817C24.773 12.2604 24.772 12.2483 24.776 12.2382C24.8418 12.0591 24.9085 11.8791 24.9622 11.696C25.0228 11.4897 25.0704 11.2803 25.1058 11.0679C25.1422 10.8494 25.1645 10.6309 25.1736 10.4104C25.1827 10.1848 25.1776 9.95924 25.1564 9.73367C25.1392 9.55059 25.1149 9.36953 25.0815 9.18948C25.0228 8.87793 24.9298 8.5765 24.8276 8.27709C24.8246 8.26698 24.8216 8.25787 24.8145 8.23663C24.8549 8.24776 24.8741 8.27102 24.8954 8.29024C24.9854 8.37015 25.0603 8.46321 25.1301 8.56031C25.3091 8.80915 25.4325 9.08428 25.5165 9.37762C25.5741 9.57992 25.6105 9.78728 25.6247 9.99666C25.6409 10.2071 25.6389 10.4164 25.6115 10.6258Z" fill="url(#paint1_linear_2367_90282)"/>
<path d="M22.1573 20.3438C22.6176 20.3438 23.0768 20.3438 23.537 20.3438C23.6402 20.3438 23.7444 20.3407 23.8475 20.3427C24.1621 20.3508 24.4737 20.3347 24.7832 20.2699C24.9916 20.2254 25.1959 20.1698 25.3952 20.0959C25.7947 19.9472 26.1609 19.7419 26.4967 19.4789C26.5948 19.402 26.6899 19.3201 26.785 19.2392C26.961 19.0895 27.1329 18.9347 27.2958 18.7698C27.3272 18.7375 27.3555 18.7021 27.3889 18.6707C27.487 18.5807 27.573 18.4795 27.6559 18.3753C27.7308 18.2823 27.8046 18.1872 27.8805 18.0962C28.012 17.9394 28.1465 17.7856 28.277 17.6268C28.3751 17.5075 28.4692 17.3861 28.5622 17.2637C28.7099 17.0695 28.8556 16.8733 29.0032 16.677C29.0862 16.5668 29.1691 16.4565 29.2521 16.3463C29.4311 16.1085 29.6101 15.8708 29.7892 15.6331C29.9237 15.4551 30.0572 15.2761 30.1907 15.098C30.3405 14.8978 30.4902 14.6985 30.6388 14.4982C30.8594 14.2018 31.0778 13.9045 31.2984 13.6071C31.5249 13.3016 31.7515 12.9961 31.9771 12.6906C32.1733 12.4256 32.3685 12.1606 32.5648 11.8956C32.847 11.5132 33.1302 11.1299 33.4124 10.7475C33.5308 10.5867 33.6582 10.434 33.7917 10.2853C34.0112 10.0415 34.256 9.82503 34.521 9.63183C34.7861 9.43863 35.0673 9.27376 35.3656 9.1372C35.6104 9.02594 35.8633 8.93692 36.1233 8.86915C36.2983 8.82363 36.4753 8.79025 36.6543 8.76497C36.6826 8.76092 36.71 8.75485 36.7393 8.7326C36.7231 8.73057 36.714 8.72754 36.7049 8.72754C36.1789 8.72754 35.6519 8.72754 35.1259 8.72855C35.044 8.72855 34.961 8.73159 34.8791 8.73159C34.7486 8.73159 34.6181 8.72754 34.4887 8.72956C34.3956 8.73159 34.3025 8.73765 34.2105 8.74979C34.1002 8.76395 33.991 8.78621 33.8807 8.80745C33.5975 8.86005 33.3254 8.95108 33.0624 9.06741C32.7124 9.22116 32.3898 9.42043 32.0954 9.66319C31.974 9.76333 31.8587 9.86954 31.7394 9.97069C31.5563 10.1244 31.3894 10.2974 31.2225 10.4673C31.1446 10.5473 31.0758 10.6363 31.005 10.7222C30.8897 10.8618 30.7764 11.0024 30.6601 11.141C30.5701 11.2492 30.475 11.3534 30.387 11.4637C30.2757 11.6023 30.1685 11.7449 30.0603 11.8865C29.8883 12.1131 29.7184 12.3407 29.5474 12.5683C29.3846 12.7847 29.2217 13.0012 29.0589 13.2176C28.8798 13.4554 28.7018 13.6931 28.5228 13.9308C28.4074 14.0835 28.2921 14.2362 28.1778 14.389C28.0221 14.5984 27.8683 14.8077 27.7136 15.0171C27.5092 15.2923 27.3049 15.5674 27.1006 15.8435C26.7971 16.2532 26.4937 16.6639 26.1902 17.0745C25.9424 17.4104 25.6936 17.7452 25.4457 18.081C25.2788 18.3076 25.1119 18.5352 24.9238 18.7456C24.8216 18.8609 24.7144 18.9721 24.6011 19.0763C24.3513 19.3049 24.0832 19.5082 23.7929 19.6832C23.5441 19.8329 23.2841 19.9594 23.012 20.0595C22.7652 20.1516 22.5124 20.2234 22.2524 20.2679C22.1715 20.2821 22.0895 20.2952 22.0086 20.3084C21.9854 20.3124 21.9621 20.3154 21.9358 20.3427C22.0197 20.3438 22.0885 20.3438 22.1573 20.3438ZM25.4103 18.7951C25.5944 18.5443 25.7785 18.2944 25.9636 18.0446C26.1558 17.7836 26.35 17.5237 26.5422 17.2637C26.7809 16.941 27.0197 16.6184 27.2584 16.2967C27.5254 15.9356 27.7925 15.5745 28.0605 15.2144C28.2891 14.9079 28.5177 14.6014 28.7473 14.2949C28.9699 13.9975 29.1944 13.7001 29.4169 13.4038C29.595 13.1661 29.773 12.9273 29.952 12.6896C30.1038 12.4873 30.2535 12.285 30.4072 12.0848C30.4902 11.9775 30.5771 11.8744 30.6641 11.7702C30.8169 11.5861 30.9706 11.403 31.1244 11.2199C31.1658 11.1714 31.2083 11.1238 31.2518 11.0773C31.3843 10.9387 31.5138 10.7981 31.6514 10.6646C31.8041 10.5169 31.97 10.3834 32.144 10.26C32.1571 10.2509 32.1703 10.2428 32.1834 10.2337C32.1875 10.2367 32.1905 10.2398 32.1946 10.2428C32.1895 10.2509 32.1865 10.26 32.1804 10.2681C31.9265 10.612 31.6716 10.9559 31.4177 11.2998C31.0607 11.7823 30.7036 12.2648 30.3465 12.7473C30.0744 13.1145 29.8033 13.4827 29.5312 13.8498C29.3047 14.1553 29.0771 14.4588 28.8495 14.7632C28.6553 15.0232 28.4611 15.2821 28.2668 15.5411C28.0504 15.8304 27.8329 16.1187 27.6154 16.4069C27.4587 16.6153 27.3049 16.8247 27.1451 17.03C27.0358 17.1706 26.9205 17.3062 26.8052 17.4417C26.6707 17.5995 26.5351 17.7553 26.3976 17.9111C26.2448 18.085 26.0779 18.2459 25.909 18.4027C25.7593 18.5422 25.6025 18.6737 25.4407 18.7992C25.4285 18.8083 25.4154 18.8184 25.4012 18.8285C25.3901 18.8103 25.4043 18.8032 25.4103 18.7951Z" fill="url(#paint2_linear_2367_90282)"/>
<path d="M40.7528 11.1035C40.7346 11.1248 40.7184 11.143 40.7103 11.1521C40.6759 11.1925 40.6405 11.233 40.6071 11.2735C40.4969 11.406 40.3815 11.5354 40.2774 11.673C40.0042 12.0321 39.7352 12.3962 39.4641 12.7563C39.2132 13.0891 38.9604 13.4209 38.7105 13.7547C38.4971 14.0389 38.2847 14.3252 38.0733 14.6114C37.8022 14.9766 37.5321 15.3418 37.261 15.7069C37.0162 16.0377 36.7714 16.3695 36.5267 16.7002C36.3385 16.9541 36.1494 17.208 35.9612 17.4619C35.7984 17.6824 35.6365 17.9029 35.4747 18.1234C35.329 18.3196 35.1844 18.5169 35.0225 18.701C34.9103 18.8284 34.795 18.9549 34.6695 19.0692C34.4429 19.2755 34.2032 19.4637 33.9433 19.6275C33.4689 19.9269 32.9591 20.1373 32.4098 20.2506C32.2985 20.2739 32.1853 20.2901 32.072 20.3093C32.0467 20.3133 31.9951 20.3214 31.9678 20.3457C31.989 20.3457 32.0214 20.3457 32.0305 20.3457C32.5464 20.3447 33.0622 20.3447 33.5771 20.3437C33.7045 20.3437 33.832 20.3417 33.9594 20.3437C34.1486 20.3477 34.3367 20.3396 34.5249 20.3255C34.71 20.3113 34.8941 20.283 35.0782 20.2577C35.1722 20.2446 35.2663 20.2264 35.3604 20.2071C35.5506 20.1687 35.7377 20.1201 35.9228 20.0635C36.2687 19.9583 36.6056 19.8288 36.9323 19.6751C37.1295 19.583 37.3217 19.4799 37.5058 19.3625C37.6919 19.2442 37.877 19.1238 38.051 18.9883C38.2098 18.8638 38.3707 18.7394 38.5193 18.6049C38.9027 18.2579 39.2476 17.8766 39.539 17.4467C39.808 17.0502 40.0467 16.6365 40.2318 16.1934C40.3866 15.8253 40.5039 15.4449 40.5919 15.0555C40.6132 14.9624 40.6294 14.8684 40.6445 14.7733C40.6627 14.6661 40.6769 14.5578 40.6921 14.4506C40.7012 14.3879 40.7093 14.3242 40.7153 14.2604C40.7234 14.1603 40.7285 14.0592 40.7356 13.958C40.7457 13.8012 40.7528 13.6454 40.7518 13.4877C40.7497 13.2135 40.7518 12.9404 40.7507 12.6663C40.7507 12.5864 40.7518 12.5045 40.7507 12.4246C40.7507 12.4144 40.7507 12.3912 40.7507 12.3689C40.7356 12.3881 40.7184 12.4114 40.7113 12.4205C40.5757 12.6046 40.4392 12.7877 40.3037 12.9718C40.1722 13.1488 40.0417 13.3268 39.9102 13.5028C39.8161 13.6283 39.718 13.7506 39.6239 13.8761C39.5521 13.9712 39.4843 14.0703 39.4135 14.1664C39.1778 14.481 38.9411 14.7955 38.7055 15.1091C38.4738 15.4166 38.2422 15.7241 38.0106 16.0326C37.8012 16.3108 37.5928 16.5889 37.3834 16.8671C37.3005 16.9774 37.2165 17.0876 37.1295 17.1948C37.0425 17.3021 36.9505 17.4052 36.8605 17.5104C36.7482 17.6419 36.6369 17.7734 36.5226 17.9029C36.3598 18.086 36.1868 18.259 36.0037 18.4208C35.8611 18.5483 35.7124 18.6686 35.5647 18.791C35.5556 18.7981 35.5445 18.8193 35.5273 18.8001C35.5293 18.7951 35.5313 18.79 35.5344 18.7849C35.6699 18.6008 35.8044 18.4168 35.941 18.2327C36.2788 17.7755 36.6177 17.3183 36.9566 16.8621C37.1639 16.5819 37.3713 16.3027 37.5786 16.0225C37.7506 15.7899 37.9226 15.5562 38.0945 15.3235C38.2038 15.1759 38.311 15.0282 38.4212 14.8815C38.662 14.5609 38.9047 14.2412 39.1434 13.9196C39.2942 13.7173 39.4479 13.517 39.5946 13.3116C39.7595 13.08 39.9355 12.8565 40.1064 12.6289C40.1914 12.5166 40.2753 12.4033 40.3613 12.291C40.4817 12.1322 40.6031 11.9744 40.7244 11.8166C40.7609 11.765 40.7538 11.7863 40.7538 11.7276C40.7538 11.6669 40.7538 11.6315 40.7528 11.584C40.7528 11.4586 40.7538 11.3341 40.7528 11.2087C40.7528 11.1844 40.7528 11.142 40.7528 11.1035Z" fill="url(#paint3_linear_2367_90282)"/>
<defs>
<linearGradient id="paint0_linear_2367_90282" x1="27.5006" y1="0.00141612" x2="27.5006" y2="22.3614" gradientUnits="userSpaceOnUse">
<stop stop-color="#B4B4B4"/>
<stop offset="0.3128" stop-color="#E2E1E1"/>
<stop offset="0.5539" stop-color="#ADADAD"/>
<stop offset="0.7662" stop-color="#878889"/>
<stop offset="0.8126" stop-color="#929293"/>
<stop offset="0.8919" stop-color="#B0B0B0"/>
<stop offset="0.9609" stop-color="#D2D2D2"/>
</linearGradient>
<linearGradient id="paint1_linear_2367_90282" x1="20.426" y1="6.58193" x2="20.426" y2="20.3449" gradientUnits="userSpaceOnUse">
<stop stop-color="#E0E0E0"/>
<stop offset="0.7716" stop-color="#878889"/>
<stop offset="0.8343" stop-color="#929393"/>
<stop offset="0.9406" stop-color="#B1B0B0"/>
<stop offset="1" stop-color="#C7C6C6"/>
</linearGradient>
<linearGradient id="paint2_linear_2367_90282" x1="29.3381" y1="8.72992" x2="29.3381" y2="20.3447" gradientUnits="userSpaceOnUse">
<stop stop-color="#D0D0D0"/>
<stop offset="0.4471" stop-color="#A0A0A0"/>
<stop offset="0.7353" stop-color="#888989"/>
<stop offset="0.809" stop-color="#929393"/>
<stop offset="0.9312" stop-color="#AFAFAF"/>
<stop offset="1" stop-color="#C5C5C4"/>
</linearGradient>
<linearGradient id="paint3_linear_2367_90282" x1="36.3606" y1="11.1033" x2="36.3606" y2="20.3457" gradientUnits="userSpaceOnUse">
<stop stop-color="#B8B7B7"/>
<stop offset="0.6599" stop-color="#888989"/>
<stop offset="0.7631" stop-color="#8C8C8C"/>
<stop offset="0.8439" stop-color="#969696"/>
<stop offset="0.9172" stop-color="#A9A8A9"/>
<stop offset="0.9856" stop-color="#C5C4C4"/>
<stop offset="1" stop-color="#CCCCCB"/>
</linearGradient>
</defs>
</svg>
