<svg width="89" height="60" viewBox="0 0 89 60" fill="none" xmlns="http://www.w3.org/2000/svg">
<path d="M1.13903 22.5687C0.987598 22.5687 0.82629 22.526 0.655107 22.4407C0.483923 22.3553 0.339075 22.2568 0.21398 22.1452C0.0921758 22.0336 0.019752 21.9385 0 21.863C0.474047 20.4877 0.875671 19.2929 1.20487 18.2853C1.53736 17.2776 1.81389 16.3258 2.04104 15.4297C2.26818 14.5336 2.47229 13.6015 2.65006 12.6299C2.83111 11.6584 3.00888 10.5457 3.18994 9.29183C3.371 8.038 3.57181 6.52486 3.79896 4.75243C3.83517 4.52595 3.88455 4.36184 3.94052 4.25681C3.99648 4.15177 4.17754 4.10254 4.4804 4.10254C5.06638 4.10254 5.49105 4.25681 5.7577 4.56862C6.02106 4.88044 6.15603 5.22508 6.15603 5.60254C6.15603 5.79291 6.12311 6.12114 6.05727 6.59379C5.99143 7.06644 5.89267 7.62115 5.76099 8.26119C6.11982 7.71305 6.53132 7.19773 6.99549 6.70539C7.45966 6.21633 7.97321 5.81589 8.54272 5.50407C9.10895 5.19226 9.72455 5.03799 10.3862 5.03799C11.3113 5.03799 12.0783 5.34981 12.6841 5.97016C13.2898 6.59379 13.5926 7.41436 13.5926 8.43187C13.5926 9.1671 13.428 9.945 13.0956 10.7656C12.7631 11.5861 12.2956 12.3608 11.6899 13.0861C11.0841 13.8115 10.3566 14.4056 9.50728 14.8684C8.65465 15.3312 7.71973 15.561 6.69921 15.561C6.09348 15.561 5.61285 15.4855 5.25073 15.3345C4.8919 15.1835 4.71084 15.0128 4.71084 14.8258C4.71084 14.6945 4.78327 14.6124 4.92482 14.5861C5.06638 14.5599 5.22439 14.5435 5.39229 14.5435C6.28112 14.5238 7.09096 14.3367 7.81849 13.9789C8.54602 13.6212 9.17479 13.1551 9.7048 12.5774C10.2348 12.003 10.6397 11.3859 10.9228 10.7262C11.2059 10.0664 11.3475 9.41655 11.3475 8.77323C11.3475 8.20867 11.2191 7.71633 10.9656 7.30276C10.7089 6.8892 10.3072 6.67913 9.76076 6.67913C9.28672 6.67913 8.80938 6.83012 8.32874 7.13209C7.84811 7.43406 7.39711 7.8148 6.98232 8.2776C6.56753 8.7404 6.19882 9.21962 5.87621 9.72181C5.55359 10.2207 5.30999 10.6605 5.1388 11.038C4.77998 12.282 4.45407 13.5227 4.16108 14.7568C3.86809 15.991 3.58827 17.1365 3.32491 18.1934C3.06155 19.2503 2.79161 20.1463 2.51508 20.8816C2.24185 21.6168 1.94228 22.1157 1.62295 22.3816C1.47152 22.5129 1.31021 22.5785 1.14232 22.5785L1.13903 22.5687Z" fill="white"/>
<path d="M20.9688 15.3872C20.2676 15.3872 19.7013 15.2034 19.2668 14.8358C18.8323 14.4682 18.615 13.9725 18.615 13.3522C18.615 12.8237 18.7467 12.2592 19.0133 11.6552C19.2767 11.0513 19.5466 10.4572 19.8231 9.87297C20.0964 9.28872 20.2346 8.77012 20.2346 8.31716C20.2346 7.86421 20.0931 7.51957 19.81 7.22745C19.5269 6.93532 19.1944 6.69572 18.8158 6.50534C18.401 7.54254 17.9302 8.54692 17.4101 9.51848C16.89 10.49 16.4686 11.2482 16.1493 11.7964L15.7246 10.9758C15.988 10.4868 16.3402 9.78763 16.7748 8.88172C17.2093 7.97581 17.6274 6.96814 18.0224 5.85545C17.8315 5.66836 17.7393 5.41234 17.7393 5.09068C17.7393 4.60162 17.8907 4.13882 18.1936 3.70556C18.4965 3.27229 18.7895 3.05566 19.0726 3.05566C19.2997 3.05566 19.4643 3.18367 19.5697 3.43641C19.675 3.68914 19.7244 3.86639 19.7244 3.95829C19.7244 4.0502 19.6816 4.22416 19.596 4.46705C19.5104 4.71322 19.4479 4.89046 19.4116 5.00534C19.4314 5.21212 19.596 5.41563 19.9087 5.61256C20.2215 5.8095 20.577 6.04254 20.972 6.30512C21.3704 6.57099 21.7193 6.89922 22.0222 7.29637C22.3251 7.69353 22.4765 8.19244 22.4765 8.79638C22.4765 9.34452 22.3547 9.89922 22.1078 10.4638C21.8609 11.0283 21.6173 11.5568 21.3704 12.0491C21.1235 12.5415 21.0017 12.9649 21.0017 13.3226C21.0017 13.5885 21.0741 13.7625 21.2157 13.8445C21.3572 13.9299 21.5218 13.9725 21.7127 13.9725C22.167 13.9725 22.6378 13.8347 23.1316 13.5623C23.6221 13.2898 24.106 12.9353 24.5768 12.5021C25.0508 12.0688 25.4656 11.6126 25.8244 11.1301C26.1833 10.6509 26.4565 10.211 26.6474 9.81388L27.3289 10.3226C26.9701 11.1334 26.4499 11.931 25.7685 12.7121C25.087 13.4933 24.3299 14.1366 23.5003 14.6356C22.6674 15.1345 21.828 15.3839 20.9753 15.3839L20.9688 15.3872Z" fill="white"/>
<path d="M30.5851 15.8962C29.3737 15.8962 28.442 15.5713 27.7902 14.9214C27.1384 14.2715 26.8125 13.4542 26.8125 12.4761C26.8125 11.6457 27.0265 10.766 27.4511 9.83056C27.8758 8.89839 28.4486 8.02202 29.1663 7.20145C29.8839 6.38088 30.6806 5.71786 31.5497 5.20911C32.4188 4.70035 33.2879 4.44434 34.1602 4.44434C34.6507 4.44434 35.1182 4.57234 35.5659 4.82508C36.0103 5.07782 36.2342 5.58329 36.2342 6.33821C36.2342 7.09314 36.0268 7.72334 35.6087 8.34697C35.1939 8.9706 34.6343 9.52531 33.9364 10.0144C33.2352 10.5067 32.4649 10.9071 31.6254 11.2157C30.7826 11.5275 29.9366 11.731 29.0873 11.8229C29.0675 11.8984 29.0543 11.9772 29.0445 12.0625C29.0346 12.1479 29.0313 12.2857 29.0313 12.4728C29.0313 12.568 29.0445 12.7321 29.0741 12.9684C29.1037 13.2047 29.1827 13.4542 29.3144 13.7168C29.4461 13.9794 29.6634 14.2058 29.9662 14.3962C30.2691 14.5866 30.6839 14.6785 31.2139 14.6785C32.0073 14.6785 32.8072 14.4586 33.6105 14.0122C34.4137 13.5691 35.1709 12.9816 35.8787 12.2463C36.5864 11.5111 37.179 10.6905 37.653 9.78461L38.2193 10.2376C37.709 11.37 37.0506 12.3579 36.2474 13.208C35.4441 14.0581 34.5553 14.7179 33.5808 15.1872C32.6064 15.6599 31.6089 15.8929 30.5884 15.8929L30.5851 15.8962ZM29.3934 10.7759C29.8839 10.7201 30.4337 10.5494 31.0394 10.2671C31.6451 9.98483 32.2245 9.62706 32.7842 9.1938C33.3405 8.76054 33.8014 8.28461 34.1602 7.76601C34.5191 7.24741 34.7001 6.72552 34.7001 6.19707C34.7001 5.99029 34.6606 5.84915 34.5882 5.77366C34.5125 5.69817 34.3907 5.66206 34.2195 5.66206C33.7849 5.66206 33.3306 5.81633 32.8566 6.12815C32.3826 6.43996 31.9217 6.84368 31.4674 7.34587C31.0131 7.84478 30.6082 8.3962 30.246 9.00014C29.8872 9.60408 29.6041 10.1982 29.3934 10.7824V10.7759Z" fill="white"/>
<path d="M53.0796 15.5281C52.3422 15.5281 51.7924 15.3114 51.4336 14.8782C51.0748 14.4449 50.8937 13.9263 50.8937 13.3224C50.8937 12.8891 50.9596 12.4559 51.0912 12.0226C51.2229 11.5893 51.3546 11.1594 51.4896 10.7359C51.6213 10.3125 51.6871 9.9285 51.6871 9.59042C51.6871 9.26876 51.6245 9.04885 51.5027 8.9274C51.3809 8.80596 51.2229 8.7436 51.0353 8.7436C50.6007 8.7436 50.0938 9.07511 49.5177 9.73485C48.9416 10.3946 48.2272 11.3563 47.3746 12.62C47.0717 13.0729 46.7886 13.5489 46.522 14.0478C46.2553 14.5467 46.0216 14.9668 45.8142 15.3049C45.643 15.3049 45.4224 15.2753 45.1492 15.2195C44.876 15.1637 44.6324 15.0817 44.425 14.9799C44.2176 14.8749 44.1122 14.7403 44.1122 14.5696C44.1122 14.399 44.2077 14.0707 44.3953 13.5784C44.583 13.0893 44.8002 12.5182 45.0471 11.8683C45.294 11.2184 45.5113 10.5784 45.699 9.94491C45.8866 9.31471 45.9821 8.7797 45.9821 8.34644C45.9821 8.08386 45.936 7.87707 45.8405 7.72281C45.745 7.57182 45.5936 7.49633 45.3862 7.49633C44.9879 7.49633 44.5105 7.73265 43.9542 8.20202C43.3979 8.67467 42.8086 9.29174 42.1963 10.0532C41.5807 10.818 41.0046 11.6648 40.4647 12.6003C39.9248 13.5324 39.487 14.4712 39.1446 15.4132C38.9372 15.4132 38.6804 15.3705 38.3776 15.2852C38.0747 15.1998 37.8113 15.0948 37.5842 14.9734C37.357 14.8519 37.2451 14.7436 37.2451 14.6484C37.2451 14.6287 37.311 14.3596 37.4426 13.841C37.5743 13.3224 37.7356 12.6758 37.9266 11.9044C38.1175 11.1298 38.315 10.3388 38.5224 9.52806C38.7298 8.71734 38.9109 8.01165 39.0623 7.40771C39.1183 7.20092 39.3257 7.01712 39.6878 6.85628C40.0466 6.69545 40.3593 6.61668 40.6227 6.61668C40.8861 6.61668 41.1132 6.70202 41.3041 6.8727C41.4918 7.04337 41.5873 7.26985 41.5873 7.55213C41.5873 7.73922 41.5478 8.01493 41.4753 8.3727C41.3996 8.73047 41.3041 9.13747 41.1922 9.58714C41.5905 9.0587 42.0086 8.53681 42.4531 8.01821C42.8975 7.49961 43.3616 7.03353 43.8423 6.61668C44.3262 6.20311 44.8068 5.8716 45.2907 5.62543C45.7714 5.37926 46.2487 5.25781 46.7228 5.25781C47.4207 5.25781 47.8947 5.50727 48.1416 6.00617C48.3885 6.50508 48.5103 7.04994 48.5103 7.63418C48.5103 7.88036 48.4906 8.11996 48.4544 8.35629C48.4149 8.59261 48.3655 8.82894 48.2996 9.06198C48.2338 9.2983 48.1449 9.5773 48.0297 9.89568C48.3885 9.36723 48.7803 8.88145 49.2082 8.43834C49.6329 7.99524 50.0905 7.64075 50.5843 7.37817C51.0748 7.11558 51.5949 6.98101 52.1447 6.98101C52.8821 6.98101 53.3923 7.20421 53.6755 7.64403C53.9586 8.08714 54.1001 8.57292 54.1001 9.10136C54.1001 9.59042 54.0178 10.1057 53.8598 10.644C53.6985 11.1823 53.5372 11.6911 53.3759 12.1703C53.2146 12.6495 53.1356 13.0598 53.1356 13.4012C53.1356 13.5882 53.1817 13.7655 53.2771 13.923C53.3726 14.0839 53.5602 14.1626 53.8433 14.1626C54.3536 14.1626 54.8441 13.9263 55.3182 13.457C55.7922 12.9876 56.23 12.4066 56.6383 11.7173C57.0432 11.0281 57.3888 10.3749 57.6719 9.75126L58.1559 10.3454C57.853 11.12 57.4613 11.9044 56.9773 12.7086C56.4967 13.5095 55.9338 14.1791 55.2885 14.7174C54.6466 15.2556 53.9092 15.5248 53.0763 15.5248L53.0796 15.5281Z" fill="white"/>
<path d="M60.5142 15.4989C59.6814 15.4989 59.0592 15.2528 58.6411 14.7637C58.223 14.2746 58.0156 13.6806 58.0156 12.9814C58.0156 12.5482 58.0913 12 58.2428 11.3403C58.3942 10.6805 58.6082 9.98798 58.8814 9.2626C59.1547 8.53722 59.4707 7.8545 59.8328 7.21117C60.1916 6.57113 60.5801 6.04596 60.9949 5.64224C61.4097 5.23852 61.8278 5.03502 62.2425 5.03502C62.4697 5.03502 62.6672 5.10723 62.8384 5.24837C63.0096 5.38951 63.0952 5.59301 63.0952 5.85559C63.0952 6.10176 62.947 6.46938 62.654 6.95844C62.3611 7.45078 62.0187 8.01533 61.6335 8.65538C61.2451 9.29542 60.906 9.96173 60.613 10.651C60.32 11.3403 60.1719 11.9935 60.1719 12.6171C60.1719 13.2407 60.2805 13.6215 60.4978 13.8184C60.7151 14.0153 61.0311 14.1171 61.4492 14.1171C62.0911 14.1171 62.7923 13.7954 63.5495 13.1554C64.3066 12.5153 65.0901 11.3928 65.9032 9.79105L66.3279 10.244C65.6662 11.9048 64.8235 13.1948 63.8029 14.1204C62.7824 15.0427 61.6862 15.5055 60.511 15.5055L60.5142 15.4989ZM63.8622 2.74399C63.5034 2.74399 63.1775 2.65537 62.8845 2.47484C62.5915 2.29432 62.4434 2.0186 62.4434 1.64114C62.4434 1.18819 62.6903 0.800877 63.1808 0.482496C63.6713 0.160832 64.1815 0 64.7115 0C65.0506 0 65.3403 0.0754925 65.5773 0.226477C65.8144 0.377462 65.9329 0.649892 65.9329 1.04705C65.9329 1.4442 65.7156 1.82495 65.2811 2.19256C64.8465 2.56018 64.3725 2.74399 63.8622 2.74399Z" fill="white"/>
<path d="M69.7306 15.8962C68.5192 15.8962 67.5875 15.5713 66.9357 14.9214C66.2839 14.2715 65.958 13.4542 65.958 12.4761C65.958 11.6457 66.172 10.766 66.5967 9.83056C67.0213 8.89839 67.5941 8.02202 68.3118 7.20145C69.0294 6.38088 69.8261 5.71786 70.6952 5.20911C71.5643 4.70035 72.4334 4.44434 73.3057 4.44434C73.7962 4.44434 74.2637 4.57234 74.7114 4.82508C75.1558 5.07782 75.3797 5.58329 75.3797 6.33821C75.3797 7.09314 75.1723 7.72334 74.7542 8.34697C74.3394 8.9706 73.7798 9.52531 73.0819 10.0144C72.3807 10.5067 71.6104 10.9071 70.7709 11.2157C69.9282 11.5275 69.0821 11.731 68.2328 11.8229C68.213 11.8984 68.1999 11.9772 68.19 12.0625C68.1801 12.1479 68.1768 12.2857 68.1768 12.4728C68.1768 12.568 68.19 12.7321 68.2196 12.9684C68.2492 13.2047 68.3282 13.4542 68.4599 13.7168C68.5916 13.9794 68.8089 14.2058 69.1117 14.3962C69.4146 14.5866 69.8294 14.6785 70.3594 14.6785C71.1528 14.6785 71.9527 14.4586 72.756 14.0122C73.5592 13.5691 74.3164 12.9816 75.0242 12.2463C75.7319 11.5111 76.3245 10.6905 76.7985 9.78461L77.3648 10.2376C76.8545 11.37 76.1961 12.3579 75.3929 13.208C74.5896 14.0581 73.7008 14.7179 72.7263 15.1872C71.7519 15.6599 70.7544 15.8929 69.7339 15.8929L69.7306 15.8962ZM68.5389 10.7759C69.0294 10.7201 69.5792 10.5494 70.1849 10.2671C70.7907 9.98483 71.37 9.62706 71.9297 9.1938C72.486 8.76054 72.9469 8.28461 73.3057 7.76601C73.6646 7.24741 73.8456 6.72552 73.8456 6.19707C73.8456 5.99029 73.8061 5.84915 73.7337 5.77366C73.658 5.69817 73.5362 5.66206 73.365 5.66206C72.9305 5.66206 72.4762 5.81633 72.0021 6.12815C71.5281 6.43996 71.0672 6.84368 70.6129 7.34587C70.1586 7.84478 69.7537 8.3962 69.3916 9.00014C69.0327 9.60408 68.7496 10.1982 68.5389 10.7824V10.7759Z" fill="white"/>
<path d="M82.6387 15.3872C81.9375 15.3872 81.3713 15.2034 80.9367 14.8358C80.5022 14.4682 80.2849 13.9725 80.2849 13.3522C80.2849 12.8237 80.4166 12.2592 80.6832 11.6552C80.9466 11.0513 81.2165 10.4572 81.4931 9.87297C81.7663 9.28872 81.9046 8.77012 81.9046 8.31716C81.9046 7.86421 81.763 7.51957 81.4799 7.22745C81.1968 6.93532 80.8643 6.69572 80.4857 6.50534C80.0709 7.54254 79.6002 8.54692 79.08 9.51848C78.5599 10.49 78.1385 11.2482 77.8192 11.7964L77.3945 10.9758C77.6579 10.4868 78.0101 9.78763 78.4447 8.88172C78.8792 7.97581 79.2973 6.96814 79.6923 5.85545C79.5014 5.66836 79.4092 5.41234 79.4092 5.09068C79.4092 4.60162 79.5607 4.13882 79.8635 3.70556C80.1664 3.27229 80.4594 3.05566 80.7425 3.05566C80.9696 3.05566 81.1342 3.18367 81.2396 3.43641C81.3449 3.68914 81.3943 3.86639 81.3943 3.95829C81.3943 4.0502 81.3515 4.22416 81.2659 4.46705C81.1803 4.71322 81.1178 4.89046 81.0816 5.00534C81.1013 5.21212 81.2659 5.41563 81.5787 5.61256C81.8914 5.8095 82.2469 6.04254 82.642 6.30512C83.0403 6.57099 83.3893 6.89922 83.6921 7.29637C83.995 7.69353 84.1464 8.19244 84.1464 8.79638C84.1464 9.34452 84.0246 9.89922 83.7777 10.4638C83.5308 11.0283 83.2872 11.5568 83.0403 12.0491C82.7934 12.5415 82.6716 12.9649 82.6716 13.3226C82.6716 13.5885 82.744 13.7625 82.8856 13.8445C83.0271 13.9299 83.1917 13.9725 83.3827 13.9725C83.837 13.9725 84.3077 13.8347 84.8015 13.5623C85.292 13.2898 85.7759 12.9353 86.2467 12.5021C86.7207 12.0688 87.1355 11.6126 87.4944 11.1301C87.8532 10.6509 88.1264 10.211 88.3174 9.81388L88.9988 10.3226C88.64 11.1334 88.1199 11.931 87.4384 12.7121C86.757 13.4933 85.9998 14.1366 85.1702 14.6356C84.3373 15.1345 83.4979 15.3839 82.6453 15.3839L82.6387 15.3872Z" fill="white"/>
<path d="M23.0815 26.7272C24.53 27.039 25.8303 27.4755 26.9858 28.0335L24.8131 34.6834L24.1712 34.9788C23.2823 34.3224 22.2783 33.8136 21.159 33.4526C20.0397 33.0915 18.904 32.911 17.7485 32.911C14.8482 32.911 12.7183 33.9121 11.3521 35.9143C9.98595 37.9165 9.30122 40.9395 9.30122 44.9767C9.30122 50.4614 11.4081 53.2021 15.6251 53.2021C16.7444 53.2021 17.946 53.0478 19.2332 52.7327C20.517 52.4209 21.6857 52.0008 22.7424 51.4756L23.3844 51.8695L21.903 58.5686C20.6191 59.0938 19.3912 59.4614 18.2225 59.678C17.0539 59.8914 15.8095 59.9997 14.4927 59.9997C10.0123 59.9997 6.57874 58.8082 4.19204 56.4286C1.80535 54.0489 0.610352 50.6583 0.610352 46.2568C0.610352 42.1178 1.30825 38.5467 2.71064 35.5434C4.10974 32.5368 6.15078 30.2392 8.83704 28.6473C11.52 27.0554 14.756 26.2578 18.5451 26.2578C20.1253 26.2578 21.6396 26.4154 23.0914 26.7272H23.0815Z" fill="white"/>
<path d="M51.4644 41.7998C50.2629 43.7199 48.5741 45.3053 46.4014 46.5525C48.212 50.1335 50.1872 53.6784 52.3302 57.1937L52.1821 58.0307C49.5814 58.8512 46.9281 59.36 44.2286 59.5569L43.5373 58.9169C41.9242 54.9749 40.6371 51.5777 39.6824 48.7221H35.4818V48.8698L34.593 59.0186H26.7383L28.3184 49.6116L30.6887 27.2494L43.3859 27.2002C46.4804 27.2002 48.9033 27.9157 50.648 29.3435C52.3928 30.7713 53.2652 32.7998 53.2652 35.4256C53.2652 37.756 52.6627 39.8829 51.4612 41.8031L51.4644 41.7998ZM36.3707 42.86L40.67 43.0569C42.1514 42.5317 43.2312 41.744 43.906 40.6937C44.5809 39.6433 44.92 38.314 44.92 36.7024C44.92 35.4223 44.5578 34.4705 43.8336 33.8468C43.1094 33.2232 42.0066 32.8785 40.5219 32.8129L37.806 32.9606L36.3739 42.8632L36.3707 42.86Z" fill="white"/>
<path d="M82.3679 43.3516L81.7753 47.8845C81.3144 51.6295 79.8989 54.5015 77.5254 56.5037C75.1551 58.5059 71.8763 59.507 67.6955 59.507C64.0381 59.507 61.1905 58.7127 59.1494 57.1175C57.1084 55.5256 56.0879 53.2674 56.0879 50.3429C56.0879 49.6208 56.1373 48.8495 56.236 48.0289L56.9273 43.2499L58.705 27.2422H66.5103L63.7418 46.995C63.6759 47.7827 63.643 48.3243 63.643 48.6197C63.643 50.1952 64.0216 51.3538 64.7788 52.0923C65.5359 52.8309 66.721 53.2018 68.3374 53.2018C70.2468 53.2018 71.7051 52.7193 72.7092 51.7477C73.7132 50.7794 74.3321 49.2597 74.5626 47.1919L76.6859 27.2422H84.59L82.3679 43.3516Z" fill="white"/>
</svg>
