<svg width="56" height="31" viewBox="0 0 56 31" fill="none" xmlns="http://www.w3.org/2000/svg">
<path fill-rule="evenodd" clip-rule="evenodd" d="M4.64497 7.27696C4.80032 7.29652 4.95567 7.29652 5.11102 7.29652C5.47985 7.29652 5.82912 7.25741 6.13874 7.17973C6.44944 7.10206 6.76014 6.98581 7.0904 6.81091C7.34244 6.67511 7.57601 6.51976 7.8085 6.32584C8.04098 6.13192 8.25445 5.89889 8.42882 5.6273C8.60372 5.35571 8.75908 5.045 8.85631 4.67672C8.95299 4.32745 9.01166 3.93907 9.01166 3.51267C8.9921 2.8918 8.87586 2.36763 8.64229 1.96023C8.4098 1.5523 8.13875 1.24214 7.82805 0.990099C7.45923 0.718505 7.05238 0.543599 6.56677 0.446368C6.08116 0.349138 5.69332 0.310571 5.36361 0.310571C4.83943 0.310571 4.35436 0.31057 3.94697 0.330125C3.52057 0.349137 3.05451 0.349137 2.54989 0.349137C2.10393 0.349137 1.65743 0.330126 1.25004 0.310571C0.842649 0.291016 0.531944 0.291016 0.357581 0.291016C0.338569 0.31057 0.319015 0.349137 0.319015 0.426813C0.298917 0.504489 0.298917 0.562611 0.319015 0.582165C0.512933 0.60172 0.687838 0.640286 0.84319 0.659841C0.978444 0.679396 1.11424 0.717962 1.25058 0.737517C1.50262 0.795638 1.65797 0.912423 1.71555 1.08679C1.77421 1.26169 1.81278 1.49472 1.83234 1.82444C1.85189 1.97979 1.85189 2.21227 1.8709 2.54199C1.8709 2.87225 1.8709 3.22152 1.8709 3.62891C1.8709 4.0363 1.8709 4.46379 1.8709 4.89019C1.8709 5.31714 1.8709 5.70552 1.8709 6.0738C1.8709 6.77234 1.8709 7.37419 1.8709 7.87827C1.85189 8.3829 1.85189 8.80984 1.85189 9.17812C1.83234 9.54695 1.83234 9.8381 1.83234 10.0706C1.81278 10.3232 1.81278 10.5171 1.79377 10.6724C1.77476 10.925 1.75521 11.1189 1.73565 11.2547C1.71555 11.3905 1.67699 11.5068 1.61886 11.5654C1.56074 11.6431 1.50208 11.7012 1.42495 11.7208C1.34673 11.7403 1.25058 11.7789 1.15281 11.7985C1.03711 11.8175 0.900768 11.837 0.745416 11.8566C0.590065 11.8761 0.415159 11.9147 0.240796 11.9343C0.221241 11.9538 0.202228 12.0119 0.22124 12.0896C0.22124 12.1673 0.240796 12.2254 0.259808 12.245C0.493379 12.245 0.842647 12.226 1.2886 12.2064C1.73511 12.1868 2.20062 12.1868 2.64712 12.1868C2.84104 12.1868 3.05451 12.1868 3.287 12.1868C3.52057 12.2064 3.75305 12.2064 3.96652 12.2064C4.18 12.2254 4.39402 12.226 4.60749 12.226C4.80141 12.245 4.95676 12.245 5.07354 12.245C5.09255 12.2254 5.11211 12.1868 5.11211 12.0896C5.11211 12.0119 5.09255 11.9538 5.05344 11.9343C4.89918 11.9147 4.74383 11.8761 4.58847 11.8566C4.41357 11.837 4.25822 11.8175 4.12242 11.7985C3.98662 11.7789 3.87038 11.7403 3.77315 11.7012C3.67646 11.6627 3.6178 11.604 3.55968 11.5073C3.50155 11.4296 3.44289 11.3134 3.42388 11.158C3.40432 11.0217 3.38531 10.8278 3.38531 10.5953C3.36576 10.2265 3.36576 9.81908 3.36576 9.37258C3.3462 8.92608 3.3462 8.48012 3.3462 8.01461C3.3462 7.56811 3.3462 7.12215 3.36576 6.71476C3.36576 6.30683 3.36576 5.93855 3.36576 5.6474C3.36576 4.34755 3.36576 3.29919 3.38531 2.54253C3.40433 1.78587 3.40432 1.3008 3.42388 1.06832C3.44343 0.931978 3.5021 0.835291 3.55968 0.815736C3.6178 0.796181 3.73458 0.777169 3.88994 0.757614C4.04529 0.73806 4.16099 0.73806 4.27777 0.73806C4.85953 0.73806 5.34514 0.815736 5.73297 0.990643C6.12081 1.16555 6.45107 1.37902 6.70365 1.66963C6.95569 1.96078 7.13005 2.31005 7.24684 2.69788C7.34353 3.10527 7.40111 3.51321 7.40111 3.95917C7.4212 4.54147 7.34298 5.04609 7.18763 5.49205C7.03337 5.93855 6.72266 6.28782 6.27562 6.55941C6.0817 6.6561 5.88778 6.73378 5.67431 6.7919C5.46083 6.85002 5.20825 6.86957 4.91765 6.86957C4.70363 6.86957 4.54828 6.86957 4.45159 6.85002C4.33481 6.83046 4.21911 6.831 4.12133 6.81091C4.10178 6.81091 4.10178 6.83046 4.08277 6.85002C4.06321 6.86957 4.06321 6.88858 4.06321 6.90814C4.08277 6.92769 4.10178 6.98581 4.14034 7.04393C4.17891 7.12161 4.21856 7.17973 4.25713 7.19929C4.35328 7.2384 4.48962 7.25741 4.64497 7.27696Z" fill="#050006"/>
<path fill-rule="evenodd" clip-rule="evenodd" d="M15.8025 11.7399C15.3946 11.6041 15.0062 11.4292 14.6765 11.1967C14.2501 10.9056 13.8812 10.5368 13.5705 10.1098C13.2598 9.68288 13.0078 9.23692 12.8139 8.75185C12.62 8.26679 12.4836 7.76216 12.3864 7.23799C12.2897 6.73336 12.2511 6.22929 12.2511 5.74422C12.2511 4.73497 12.4054 3.80395 12.7357 2.96907C13.0654 2.13473 13.5705 1.49486 14.2881 1.04781C14.5407 0.912014 14.8313 0.795229 15.142 0.698541C15.4527 0.601311 15.7829 0.5622 16.1512 0.5622C16.6754 0.5622 17.1599 0.639878 17.5869 0.775675C18.0133 0.931027 18.4011 1.1445 18.7509 1.41609C19.1388 1.70724 19.469 2.0375 19.7602 2.44489C20.0513 2.83273 20.2843 3.27923 20.4587 3.74474C20.6331 4.21025 20.7694 4.69532 20.8661 5.19994C20.9432 5.70402 20.9829 6.18963 20.9829 6.6747C20.9829 7.58671 20.8661 8.44061 20.6141 9.23638C20.3615 10.0316 19.9345 10.672 19.3338 11.1962C19.0812 11.4287 18.7509 11.6036 18.3821 11.7394C18.0133 11.8752 17.6064 11.9333 17.1789 11.9333C16.6759 11.9339 16.2099 11.8757 15.8025 11.7399ZM17.8976 12.3608C18.3832 12.2636 18.8297 12.0892 19.2756 11.8757C19.7031 11.6623 20.1105 11.4102 20.4788 11.08C20.8476 10.7693 21.1773 10.401 21.469 9.99358C21.8379 9.43084 22.1279 8.84854 22.3224 8.20812C22.5163 7.5677 22.6135 6.85015 22.6135 6.05438C22.6135 5.25861 22.4968 4.48294 22.2447 3.74529C21.9927 3.02719 21.6233 2.38677 21.1388 1.82403C20.6532 1.26128 20.0318 0.814784 19.3142 0.485069C18.5771 0.15481 17.7232 0 16.7531 0C16.2675 0 15.7628 0.0581224 15.2789 0.174365C14.7742 0.290607 14.2886 0.465513 13.8432 0.678986C13.3967 0.912013 12.9698 1.18361 12.6015 1.49431C12.2137 1.82403 11.8834 2.1733 11.6113 2.56168C11.281 3.04674 11.0099 3.60949 10.8356 4.2108C10.6417 4.81265 10.5444 5.47208 10.5444 6.17062C10.5444 6.98595 10.6802 7.78118 10.9323 8.57695C11.1849 9.37218 11.6118 10.0903 12.1936 10.7307C12.6792 11.2739 13.3006 11.7008 14.0567 12.0311C14.7938 12.3608 15.589 12.5357 16.4625 12.5357C16.947 12.5357 17.4131 12.477 17.8976 12.3608Z" fill="#050006"/>
<path fill-rule="evenodd" clip-rule="evenodd" d="M31.1899 0.970001C31.2089 1.02812 31.2285 1.06723 31.2285 1.1058C31.248 1.31927 31.248 1.62943 31.267 2.03737C31.267 2.46431 31.267 2.92983 31.267 3.41489C31.267 3.91952 31.267 4.40458 31.2866 4.88911C31.2866 5.37417 31.2866 5.78211 31.2866 6.11182C31.2866 6.16995 31.248 6.20906 31.1899 6.20906C30.8211 6.22861 30.4142 6.19004 30.0058 6.13138C29.5794 6.07326 29.1915 5.95647 28.8227 5.743C28.4539 5.52953 28.1432 5.23838 27.9107 4.83098C27.6581 4.4426 27.5413 3.91897 27.5413 3.23944C27.5413 2.44421 27.7749 1.82335 28.2208 1.37685C28.6673 0.949903 29.2301 0.736431 29.9482 0.736431C30.2203 0.736431 30.4528 0.73643 30.6277 0.755985C30.8026 0.774996 30.9384 0.814107 31.0541 0.853216C31.1128 0.873314 31.1513 0.91188 31.1899 0.970001ZM34.2752 0.426813C34.2752 0.349137 34.2557 0.31057 34.2367 0.291016C34.0042 0.291016 33.6935 0.291015 33.3056 0.31057C32.9178 0.330124 32.5875 0.349137 32.3154 0.349137C31.9851 0.349137 31.6169 0.349137 31.2095 0.330125C30.8021 0.31057 30.3556 0.31057 29.9096 0.31057C29.2301 0.31057 28.6483 0.388246 28.1633 0.543598C27.6586 0.717961 27.2513 0.931978 26.9215 1.22258C26.5913 1.51373 26.3398 1.84345 26.1844 2.21227C26.0101 2.60065 25.9318 3.00804 25.9318 3.43499C25.9318 4.26933 26.204 4.94831 26.7282 5.47249C27.2523 6.01568 27.9123 6.3845 28.7265 6.55941C28.7651 6.59798 28.7651 6.61753 28.7265 6.63654C28.4941 6.73378 28.2219 6.9668 27.9313 7.29652C27.6402 7.64579 27.3295 8.03362 26.9992 8.46057C26.67 8.90707 26.3403 9.35303 26.0101 9.79953C25.6798 10.265 25.3887 10.6534 25.0981 10.9831C24.884 11.2357 24.6901 11.4101 24.5549 11.5459C24.4191 11.6817 24.2827 11.7594 24.1469 11.8175C24.0117 11.8756 23.8759 11.9147 23.7205 11.9343C23.5652 11.9538 23.3713 11.9924 23.1388 12.0119C23.1198 12.0315 23.1198 12.0896 23.1388 12.1673C23.1583 12.245 23.1773 12.2841 23.1969 12.3031C23.3713 12.3226 23.5657 12.3226 23.7982 12.3031C24.0122 12.3031 24.2447 12.2841 24.4777 12.2645C24.7102 12.245 24.9438 12.2064 25.1573 12.1477C25.3707 12.1092 25.5451 12.0505 25.7004 11.9924C26.0302 11.8761 26.3409 11.6236 26.651 11.2357C26.8259 11.0222 27.0399 10.7697 27.2724 10.4595C27.4859 10.1488 27.7184 9.81909 27.971 9.48937C28.2035 9.15965 28.4359 8.81038 28.6695 8.46111C28.902 8.1314 29.1345 7.82069 29.349 7.5491C29.5239 7.33563 29.6983 7.14171 29.9118 6.9668C30.1253 6.79244 30.3577 6.69521 30.6299 6.67565C30.7662 6.6561 30.8434 6.63654 30.9009 6.63654C30.9596 6.63654 31.0563 6.63654 31.1921 6.63654C31.2111 6.63654 31.2502 6.6561 31.2692 6.67565C31.2888 6.71422 31.2888 6.75333 31.2888 6.77288C31.2888 7.04448 31.2888 7.35518 31.2888 7.72346C31.2888 8.09229 31.2888 8.48067 31.2888 8.84895C31.2888 9.21778 31.2888 9.5866 31.2888 9.91577C31.2888 10.246 31.2888 10.5176 31.2692 10.7115C31.2502 11.1195 31.1921 11.3911 31.1139 11.5073C31.0367 11.6431 30.9004 11.7403 30.726 11.7985C30.5908 11.8175 30.474 11.837 30.3768 11.8566C30.2611 11.8761 30.0861 11.9147 29.8732 11.9343C29.8542 11.9538 29.8336 12.0119 29.8336 12.0896C29.8336 12.1673 29.8531 12.2254 29.8732 12.245C29.9504 12.245 30.0671 12.245 30.2225 12.226C30.3768 12.226 30.5517 12.226 30.7456 12.2064C30.9406 12.2064 31.1535 12.2064 31.367 12.1868C31.5805 12.1868 31.7934 12.1868 32.008 12.1868C32.2214 12.1868 32.4344 12.1868 32.6668 12.1868C32.8809 12.2064 33.1133 12.2064 33.3268 12.2064C33.5403 12.2254 33.7147 12.226 33.8896 12.226C34.0645 12.245 34.1807 12.245 34.2584 12.245C34.2779 12.2254 34.2969 12.1868 34.2969 12.0896C34.2969 12.0119 34.2969 11.9538 34.2774 11.9343C34.1421 11.9147 33.9868 11.8957 33.8314 11.8761C33.6761 11.8566 33.5403 11.8376 33.4436 11.818C33.2296 11.7599 33.0748 11.6437 32.9775 11.4883C32.8809 11.333 32.8222 11.0809 32.8032 10.7121C32.7836 10.5763 32.7836 10.3433 32.7836 9.99453C32.7641 9.64526 32.7641 9.25689 32.7641 8.84949C32.7445 8.4421 32.7445 8.01516 32.7445 7.60777C32.7445 7.19983 32.7445 6.8511 32.7445 6.57951C32.7445 6.24979 32.7445 5.84186 32.7445 5.35679C32.7445 4.87172 32.7445 4.3671 32.7445 3.86302C32.7445 3.3584 32.7445 2.89289 32.7641 2.44639C32.7641 2.01944 32.7641 1.70874 32.7836 1.51482C32.8032 1.26224 32.8608 1.06832 32.9971 0.952077C33.1329 0.835291 33.2882 0.758158 33.4827 0.719048C33.6185 0.700037 33.7347 0.660928 33.8705 0.641373C33.9873 0.621818 34.103 0.621817 34.2394 0.602805C34.2557 0.582164 34.2752 0.524044 34.2752 0.426813Z" fill="#050006"/>
<path fill-rule="evenodd" clip-rule="evenodd" d="M34.1199 12.0893C34.1199 12.1865 34.1394 12.2256 34.1595 12.2446C34.3344 12.2446 34.5859 12.2256 34.8776 12.2061C35.1682 12.1865 35.5365 12.1865 35.9835 12.1865C36.41 12.1865 36.8374 12.1865 37.2448 12.2061C37.6522 12.2251 37.9629 12.2446 38.1759 12.2446C38.1954 12.2251 38.2144 12.167 38.2345 12.0893C38.2535 12.0116 38.2345 11.9535 38.2144 11.9339C37.9819 11.9144 37.8266 11.8758 37.7299 11.8563C37.6327 11.8367 37.5164 11.7981 37.3996 11.7786C37.1085 11.7205 36.9146 11.5847 36.8369 11.4098C36.7397 11.2349 36.7782 10.9247 36.914 10.5168C36.9722 10.3228 37.0884 10.0121 37.2437 9.60475C37.3801 9.19682 37.5544 8.71229 37.7484 8.16856C37.9227 7.64493 38.1362 7.08218 38.3497 6.48033C38.5632 5.87848 38.7571 5.31574 38.9515 4.75354C39.1454 4.2098 39.3204 3.70573 39.4947 3.23967C39.649 2.77416 39.7658 2.40533 39.8635 2.15329H39.9407C40.0765 2.52212 40.2318 2.98763 40.4067 3.51181C40.5816 4.055 40.756 4.61774 40.9695 5.21905C41.1634 5.82036 41.3573 6.44122 41.5708 7.06209C41.7647 7.68295 41.9597 8.26525 42.1341 8.80844C42.3079 9.37118 42.4437 9.85625 42.58 10.2636C42.7164 10.6906 42.8125 11.0013 42.8712 11.2148C42.9097 11.331 42.9293 11.4282 42.9097 11.5059C42.8902 11.6031 42.793 11.6808 42.6572 11.7389C42.5219 11.7971 42.3861 11.8362 42.2308 11.8552C42.0559 11.8747 41.8815 11.9133 41.7066 11.9329C41.687 11.9524 41.668 12.0105 41.687 12.0882C41.687 12.1659 41.687 12.224 41.7066 12.2436C41.8234 12.224 41.9787 12.2245 42.1531 12.205C42.328 12.205 42.5409 12.205 42.7544 12.1854C42.9679 12.1854 43.1808 12.1854 43.3943 12.1854C43.6083 12.1854 43.8218 12.1854 44.0157 12.1854C44.171 12.1854 44.3459 12.1854 44.5399 12.1854C44.7338 12.205 44.9277 12.205 45.1412 12.205C45.3351 12.224 45.5301 12.2246 45.724 12.2246C45.8989 12.2436 46.0543 12.2436 46.17 12.2436C46.1895 12.224 46.2085 12.1854 46.2281 12.0882C46.2482 12.0105 46.2281 11.9524 46.2085 11.9329C45.8794 11.8943 45.6268 11.8552 45.4519 11.8161C45.258 11.7775 45.1026 11.6998 44.9858 11.6026C44.8506 11.5054 44.7533 11.3696 44.6566 11.1952C44.5594 11.0203 44.4426 10.7878 44.3074 10.4771C44.2101 10.2245 44.0934 9.85625 43.9184 9.35163C43.7441 8.86656 43.5496 8.30382 43.3367 7.68295C43.1232 7.06154 42.8907 6.42167 42.6767 5.74214C42.4632 5.06261 42.2503 4.42273 42.0564 3.82088C41.8429 3.21903 41.6686 2.69539 41.5132 2.22988C41.3579 1.78338 41.2411 1.45367 41.1835 1.24019C41.1254 1.06583 41.0667 0.890923 41.0477 0.716016C41.0091 0.541653 40.9706 0.424867 40.951 0.327637C40.9315 0.327637 40.8728 0.327637 40.7957 0.327637C40.6984 0.346648 40.5822 0.346647 40.4268 0.346647C40.2905 0.346647 40.1742 0.346648 40.0776 0.327637C39.9803 0.327637 39.9222 0.327637 39.9027 0.327637C39.8836 0.443879 39.844 0.599229 39.8054 0.774136C39.7473 0.949043 39.6897 1.14296 39.6311 1.31787C39.5729 1.51179 39.4562 1.80294 39.3214 2.19077C39.1856 2.59816 39.0107 3.04466 38.8358 3.54874C38.6615 4.07292 38.448 4.61611 38.2345 5.21742C38.0205 5.81873 37.788 6.40103 37.5745 7.00288C37.341 7.60419 37.1085 8.16693 36.895 8.72968C36.6815 9.29188 36.4686 9.81605 36.2736 10.2626C36.1384 10.5928 36.0026 10.8644 35.8858 11.0583C35.7701 11.2718 35.6337 11.4271 35.4979 11.5244C35.3621 11.6406 35.1872 11.7183 34.9738 11.777C34.7603 11.8351 34.4882 11.8932 34.1595 11.9323C34.1389 11.9535 34.1199 12.0116 34.1199 12.0893Z" fill="#050006"/>
<path fill-rule="evenodd" clip-rule="evenodd" d="M45.9761 12.0896C45.9566 12.1869 45.9761 12.226 45.9951 12.245C46.2863 12.245 46.6361 12.245 47.0239 12.245C47.3928 12.2645 47.7806 12.2645 48.1695 12.2645C48.5384 12.2841 48.9066 12.2841 49.2369 12.2841C49.5671 12.3031 49.8572 12.3031 50.0707 12.3031C50.7116 12.3031 51.2353 12.2645 51.6041 12.2064C51.9729 12.1483 52.3222 12.0511 52.6329 11.9153C53.4086 11.6241 53.9909 11.1586 54.3988 10.5568C54.8062 9.95491 55.0001 9.29547 55.0001 8.55782C55.0001 8.13088 54.923 7.72349 54.7866 7.33565C54.6508 6.96683 54.4178 6.61756 54.1267 6.32641C53.8361 6.03526 53.4471 5.78322 52.9822 5.60831C52.5161 5.4334 51.9534 5.35573 51.313 5.35573C50.9827 5.35573 50.6334 5.35573 50.2852 5.37528C49.936 5.39484 49.5867 5.41385 49.2374 5.4334L49.1978 5.39484C49.1788 5.37528 49.1788 5.35573 49.1788 5.33672C49.1788 4.50184 49.1788 3.78428 49.1978 3.20199C49.1978 2.63924 49.1978 2.15418 49.2179 1.78535C49.2369 1.41653 49.276 1.14493 49.3336 1.00913C49.3922 0.872793 49.5275 0.776107 49.741 0.717985C49.8382 0.698974 49.955 0.659865 50.1098 0.64031C50.2651 0.620755 50.4205 0.601743 50.5758 0.582188C50.5954 0.562633 50.6144 0.504511 50.6144 0.426835C50.6144 0.34916 50.5949 0.291039 50.5758 0.271484C50.3434 0.271484 50.0327 0.290496 49.6638 0.31005C49.276 0.329605 48.8686 0.348616 48.4411 0.348616C48.0147 0.348616 47.6269 0.348618 47.257 0.329606C46.8881 0.310051 46.559 0.310051 46.2678 0.290496C46.2483 0.310051 46.2293 0.368171 46.2293 0.445847C46.2097 0.523523 46.2293 0.582189 46.2483 0.6012C46.3651 0.620212 46.5193 0.620211 46.6942 0.639766C46.8691 0.659321 47.0435 0.697887 47.1988 0.756551C47.3346 0.795118 47.4514 0.872793 47.5286 0.970024C47.6057 1.06725 47.6649 1.26117 47.6839 1.53277C47.7035 1.70767 47.7035 1.92115 47.7225 2.17319C47.7225 2.42577 47.7225 2.73593 47.7225 3.0852C47.7225 3.45403 47.7225 3.88097 47.7225 4.38505C47.7225 4.88967 47.7225 5.49098 47.7225 6.16997C47.7225 6.8495 47.7225 7.45081 47.7225 7.95543C47.7225 8.47906 47.7225 8.90601 47.7225 9.27483C47.7029 9.64366 47.7029 9.93481 47.7029 10.1673C47.6834 10.4193 47.6834 10.6138 47.6644 10.7691C47.6448 11.0989 47.6057 11.3319 47.5476 11.4677C47.4895 11.6035 47.3537 11.7007 47.1787 11.7588C46.9653 11.817 46.7909 11.8365 46.616 11.8561C46.4416 11.8756 46.2282 11.9142 46.0147 11.9337C45.9957 11.9538 45.9761 12.012 45.9761 12.0896ZM50.1489 11.7404C49.8768 11.6822 49.6247 11.585 49.4118 11.4107C49.3531 11.3525 49.295 11.2749 49.276 11.1776C49.2564 11.0999 49.2374 11.0223 49.2179 10.9256C49.1978 10.7121 49.1978 10.4014 49.1978 9.97446C49.1788 9.56653 49.1788 9.10101 49.1788 8.61649C49.1788 8.13142 49.1788 7.66537 49.1788 7.1803C49.1788 6.71479 49.1788 6.32641 49.1788 6.01625C49.1788 5.99669 49.1788 5.95812 49.1978 5.93857C49.2179 5.91901 49.2374 5.89946 49.2564 5.89946C49.3531 5.88045 49.4504 5.88045 49.5471 5.86089C49.6443 5.86089 49.8192 5.86089 50.0712 5.86089C52.2646 5.86089 53.3706 6.90871 53.3706 9.02388C53.3706 9.41226 53.332 9.78054 53.2348 10.1103C53.1381 10.4595 53.0023 10.7507 52.8084 11.0027C52.5943 11.2548 52.3423 11.4688 52.0316 11.6046C51.7024 11.7599 51.3135 11.8376 50.8681 11.8376C50.6535 11.8376 50.42 11.7985 50.1489 11.7404Z" fill="#050006"/>
<path fill-rule="evenodd" clip-rule="evenodd" d="M0 27.5877C0 27.6849 0.0190105 27.7235 0.0396517 27.7431C0.330257 27.7431 0.679528 27.7431 1.04835 27.7431C1.41718 27.7431 1.78546 27.7431 2.15537 27.7626C2.5242 27.7822 2.85337 27.7822 3.18308 27.7822C3.51334 27.8012 3.78494 27.8017 3.99841 27.8017C4.61873 27.8017 5.16192 27.7632 5.60896 27.7045C6.05492 27.6464 6.52097 27.5106 6.96748 27.3357C7.74315 27.0445 8.30589 26.6176 8.65516 26.0548C9.00443 25.4921 9.17934 24.8712 9.17934 24.1727C9.17934 23.7457 9.10221 23.3383 8.96587 22.9505C8.81052 22.5817 8.57803 22.252 8.26733 21.9608C7.95662 21.6892 7.54923 21.4757 7.06416 21.3008C6.57855 21.1259 5.97779 21.0483 5.29826 21.0483C4.77408 21.0483 4.34768 21.0483 4.01796 21.0673C3.6877 21.0868 3.43621 21.0868 3.29987 21.0868C3.2613 21.0868 3.24175 21.0673 3.24175 21.0091C3.24175 20.5822 3.24175 20.1553 3.24175 19.7283C3.24175 19.3014 3.24175 18.894 3.24175 18.5061C3.24175 18.1373 3.24175 17.788 3.26076 17.4779C3.26076 17.1867 3.26076 16.9341 3.28032 16.7598C3.28032 16.6821 3.29987 16.6044 3.33843 16.5268C3.35799 16.4686 3.41666 16.4295 3.49379 16.41C3.62959 16.3904 3.84306 16.3904 4.11411 16.3714C4.38625 16.3714 4.6774 16.3714 4.98756 16.3714C5.27871 16.391 5.5704 16.391 5.861 16.391C6.13314 16.4105 6.34661 16.4105 6.50197 16.4105C6.90936 16.4301 7.20051 16.624 7.33685 16.9733C7.39497 17.1286 7.4721 17.3611 7.53076 17.6522C7.58889 17.9629 7.62745 18.2731 7.64646 18.5838C7.66602 18.6028 7.74369 18.6224 7.84038 18.6028C7.93761 18.5838 7.97618 18.5643 7.97618 18.5447C7.99573 17.982 8.0544 17.4583 8.13153 16.9341C8.18965 16.4105 8.26787 16.0417 8.345 15.8087C8.345 15.7505 8.30644 15.7114 8.24831 15.7114C8.15108 15.731 7.97618 15.7695 7.74369 15.7891C7.51121 15.8277 7.12229 15.8472 6.55954 15.8472H2.48454C2.00002 15.8472 1.61109 15.8472 1.28138 15.8277C0.952207 15.8081 0.583384 15.8081 0.215102 15.7891C0.195004 15.8087 0.175449 15.8668 0.175449 15.9445C0.156437 16.0221 0.17545 16.0803 0.195004 16.0998C0.409021 16.1194 0.622493 16.1384 0.796856 16.1579C0.97122 16.1775 1.10648 16.2161 1.24282 16.2742C1.37916 16.3323 1.4954 16.3904 1.57307 16.4876C1.63174 16.5849 1.68986 16.7788 1.70887 17.0308C1.72842 17.2052 1.72842 17.4192 1.74744 17.6713C1.74744 17.9233 1.74744 18.234 1.76699 18.5833C1.76699 18.9521 1.76699 19.379 1.76699 19.8831C1.76699 20.3877 1.76699 20.989 1.76699 21.6686C1.76699 22.3476 1.76699 22.9494 1.76699 23.454C1.76699 23.9777 1.76699 24.4046 1.76699 24.7734C1.74744 25.1423 1.74744 25.4334 1.74744 25.6659C1.72788 25.9179 1.72788 26.1124 1.70887 26.2672C1.68986 26.5969 1.63174 26.8495 1.57307 26.9853C1.51495 27.1211 1.37915 27.2183 1.20425 27.2765C1.02934 27.3346 0.854978 27.3541 0.661059 27.3737C0.447586 27.3932 0.253669 27.4123 0.0407391 27.4318C0.0195548 27.4519 0 27.51 0 27.5877ZM4.26892 27.2574C3.9593 27.2189 3.70617 27.1216 3.49324 26.9473C3.35745 26.8305 3.29933 26.6757 3.29933 26.4622C3.27977 26.2683 3.27977 25.9576 3.27977 25.5502C3.26022 25.1428 3.26021 24.7159 3.26021 24.2308C3.2412 23.7647 3.2412 23.2992 3.2412 22.8337C3.2412 22.3682 3.2412 21.9798 3.2412 21.6697C3.2412 21.6501 3.2412 21.6115 3.26021 21.592C3.27977 21.5724 3.29878 21.5534 3.31834 21.5534C3.41557 21.5339 3.55082 21.5339 3.68716 21.5339C3.8235 21.5339 3.9392 21.5339 4.03643 21.5339C5.27816 21.5339 6.17116 21.8055 6.73336 22.3296C7.27655 22.8728 7.54869 23.649 7.54869 24.6583C7.54869 25.0271 7.51012 25.3764 7.41289 25.7061C7.3162 26.0358 7.18041 26.327 6.98649 26.56C6.79257 26.8126 6.53999 26.9869 6.22928 27.1227C5.90011 27.2585 5.53074 27.3362 5.08479 27.3362C4.83275 27.3351 4.56061 27.3156 4.26892 27.2574Z" fill="#050006"/>
<path fill-rule="evenodd" clip-rule="evenodd" d="M16.5136 21.9984C16.5331 22.0761 16.5331 22.1152 16.475 22.1152C16.4364 22.1152 16.3778 22.1152 16.2811 22.1152C16.1839 22.1348 16.0676 22.1348 15.9514 22.1348C15.8156 22.1348 15.6803 22.1348 15.544 22.1348C15.4076 22.1348 15.2718 22.1348 15.1561 22.1348C14.6901 22.1348 14.3408 22.1348 14.1083 22.1348C13.8557 22.1348 13.7004 22.1348 13.6037 22.1152C13.5456 22.0957 13.5255 22.0571 13.5255 21.9984C13.6037 21.7849 13.7194 21.4742 13.8557 21.0669C13.9915 20.6595 14.1279 20.2521 14.2832 19.8056C14.419 19.3591 14.5738 18.9321 14.7096 18.5247C14.8454 18.1173 14.9622 17.8066 15.0399 17.5932C15.0399 17.5736 15.0589 17.5736 15.117 17.5736L16.5136 21.9984ZM9.27612 27.5873C9.27612 27.6845 9.29568 27.7231 9.31469 27.7426C9.4896 27.7426 9.7411 27.7231 10.0328 27.7041C10.3239 27.6845 10.6928 27.6845 11.1387 27.6845C11.5651 27.6845 11.9926 27.6845 12.4 27.7041C12.8074 27.7231 13.1371 27.7426 13.3506 27.7426C13.3707 27.7231 13.3902 27.665 13.4092 27.5873C13.4288 27.5096 13.4092 27.4515 13.3897 27.4319C13.1762 27.4124 13.0209 27.3738 12.9046 27.3543C12.7878 27.3347 12.6721 27.2961 12.5554 27.2766C12.2447 27.2185 12.0697 27.1022 12.0312 26.9664C11.9731 26.8306 11.9731 26.6753 11.9926 26.5004C12.0116 26.3646 12.0507 26.1511 12.148 25.86C12.2447 25.5688 12.3419 25.2391 12.4771 24.8898C12.6129 24.5405 12.7297 24.1913 12.8661 23.8225C13.0024 23.4732 13.0985 23.182 13.1963 22.9294C13.2159 22.8322 13.2734 22.7937 13.3506 22.7937C13.4092 22.7937 13.4674 22.7937 13.5249 22.7741C13.5836 22.7741 13.6803 22.7741 13.7971 22.7741C13.9139 22.7741 14.0692 22.7741 14.2436 22.7741C14.4185 22.7741 14.67 22.7741 14.9617 22.7741C15.4848 22.7741 15.8737 22.7741 16.1252 22.7741C16.3577 22.7741 16.5326 22.7741 16.6298 22.7937C16.6488 22.7937 16.6879 22.8132 16.7265 22.8322C16.7461 22.8708 16.7662 22.8903 16.7852 22.8903C16.8819 23.1424 16.9791 23.4531 17.1154 23.8024C17.2311 24.1516 17.3479 24.5009 17.4842 24.8697C17.5999 25.2385 17.7167 25.5683 17.814 25.898C17.9106 26.2277 17.9889 26.4998 18.0464 26.7128C18.085 26.8295 18.1046 26.9262 18.085 27.0039C18.0655 27.1011 17.9682 27.1788 17.833 27.2369C17.6972 27.2951 17.5608 27.3342 17.4055 27.3532C17.2311 27.3727 17.0562 27.4113 16.8813 27.4309C16.8623 27.4504 16.8427 27.5085 16.8623 27.5862C16.8623 27.6639 16.8623 27.722 16.8813 27.7416C16.9981 27.722 17.1534 27.722 17.3278 27.703C17.5022 27.703 17.6966 27.703 17.9096 27.6834C18.123 27.6834 18.3371 27.6834 18.5505 27.6834C18.764 27.6834 18.9769 27.6834 19.1708 27.6834C19.3262 27.6834 19.5011 27.6834 19.695 27.6834C19.8889 27.703 20.0829 27.703 20.2963 27.703C20.4913 27.722 20.6853 27.7225 20.8792 27.7225C21.0541 27.7421 21.2094 27.7421 21.3251 27.7421C21.3452 27.7225 21.3648 27.6644 21.3838 27.5867C21.4028 27.5091 21.3838 27.4509 21.3642 27.4314C21.034 27.3928 20.7814 27.3537 20.607 27.3146C20.4131 27.276 20.2578 27.1978 20.1421 27.1011C20.0063 27.0039 19.9085 26.8681 19.8118 26.6932C19.7146 26.5183 19.5983 26.2858 19.4625 25.9751C19.3653 25.7225 19.2491 25.3542 19.0747 24.8496C18.8998 24.345 18.7059 23.7823 18.4919 23.1614C18.2784 22.54 18.0459 21.8806 17.833 21.2016C17.619 20.5226 17.4055 19.8822 17.2116 19.2803C16.9981 18.6785 16.8237 18.1358 16.6684 17.6698C16.513 17.2037 16.3962 16.874 16.3381 16.6801L16.1056 15.8262C16.0861 15.8262 16.0274 15.8262 15.9503 15.8262C15.8536 15.8457 15.7368 15.8457 15.5815 15.8457C15.4457 15.8457 15.3294 15.8457 15.2322 15.8262C15.135 15.8262 15.0768 15.8262 15.0383 15.8262C15.0187 15.943 14.9801 16.0788 14.941 16.2341C14.9025 16.4085 14.8443 16.5834 14.7868 16.7583C14.7086 16.9718 14.5918 17.2629 14.4565 17.6507C14.3207 18.0581 14.1458 18.5046 13.9714 19.0283C13.7775 19.5524 13.5836 20.0956 13.3701 20.6969C13.1561 21.2988 12.9236 21.8806 12.7102 22.4824C12.4777 23.0843 12.2441 23.666 12.0306 24.2288C11.8172 24.7915 11.6042 25.3151 11.4293 25.7616C11.2935 26.0913 11.1572 26.3629 11.0404 26.5569C10.9247 26.7703 10.7884 26.9257 10.6526 27.0419C10.4972 27.1582 10.3234 27.2358 10.1094 27.2945C9.8959 27.3526 9.64441 27.3917 9.31415 27.4303C9.29568 27.4515 9.27612 27.5096 9.27612 27.5873Z" fill="#050006"/>
<path fill-rule="evenodd" clip-rule="evenodd" d="M25.6538 22.775C25.8092 22.7945 25.9634 22.7945 26.1188 22.7945C26.4876 22.7945 26.8374 22.7559 27.1476 22.6783C27.4583 22.6006 27.769 22.4844 28.0993 22.3094C28.3513 22.1731 28.5838 22.0183 28.8174 21.8238C29.0498 21.6299 29.2633 21.3969 29.4377 21.1253C29.6126 20.8532 29.7679 20.543 29.8641 20.1747C29.9613 19.8254 30.0194 19.4371 30.0194 19.0101C29.9999 18.3893 29.8842 17.8656 29.6506 17.4577C29.4181 17.0503 29.146 16.7396 28.8364 16.4875C28.4675 16.216 28.0596 16.041 27.5751 15.9444C27.09 15.8471 26.7016 15.8086 26.3719 15.8086C25.8477 15.8086 25.3627 15.8086 24.9553 15.8281C24.5289 15.8477 24.0628 15.8477 23.5582 15.8477C23.1122 15.8477 22.6657 15.8281 22.2583 15.8091C21.851 15.7896 21.5403 15.7896 21.3659 15.7896C21.3463 15.8091 21.3273 15.8477 21.3273 15.9253C21.3072 16.003 21.3072 16.0611 21.3273 16.0807C21.5212 16.0997 21.6962 16.1388 21.8504 16.1584C21.9862 16.1779 22.1226 16.2165 22.2583 16.2361C22.5104 16.2942 22.6657 16.4104 22.7233 16.5853C22.782 16.7597 22.8205 16.9927 22.8401 17.323C22.8597 17.4783 22.8597 17.7108 22.8787 18.0411C22.8787 18.3708 22.8787 18.7201 22.8787 19.1274C22.8787 19.5348 22.8787 19.9618 22.8787 20.3887C22.8787 20.8157 22.8787 21.2035 22.8787 21.5723C22.8787 22.2709 22.8787 22.8722 22.8787 23.3768C22.8591 23.8814 22.8591 24.3084 22.8591 24.6772C22.8396 25.046 22.8396 25.3372 22.8396 25.5697C22.8205 25.8217 22.8206 26.0162 22.801 26.1715C22.7814 26.4236 22.7624 26.618 22.7423 26.7538C22.7233 26.8896 22.6842 27.0059 22.6266 27.0645C22.568 27.1422 22.5098 27.2003 22.4327 27.2199C22.3545 27.2394 22.2578 27.278 22.1606 27.2975C22.0438 27.3171 21.9085 27.3367 21.7532 27.3557C21.5978 27.3752 21.4229 27.4138 21.2486 27.4333C21.2296 27.4529 21.21 27.511 21.2295 27.5887C21.2295 27.6664 21.2486 27.7245 21.2681 27.744C21.5017 27.744 21.8499 27.7245 22.2969 27.7055C22.7434 27.6859 23.2089 27.6859 23.6554 27.6859C23.8493 27.6859 24.0628 27.6859 24.2953 27.6859C24.5289 27.7055 24.7614 27.7055 24.9748 27.7055C25.1883 27.7245 25.4012 27.725 25.6158 27.725C25.8097 27.7446 25.964 27.7446 26.0808 27.7446C26.0998 27.725 26.1193 27.6865 26.1193 27.5892C26.1204 27.5116 26.0998 27.4534 26.0612 27.4339C25.9059 27.4143 25.7505 27.3758 25.5952 27.3562C25.4213 27.3367 25.266 27.3176 25.1302 27.2981C24.9944 27.2785 24.8776 27.24 24.7809 27.2009C24.6837 27.1623 24.6256 27.1042 24.5674 27.0069C24.5088 26.9293 24.4507 26.813 24.4316 26.6577C24.4121 26.5219 24.3931 26.328 24.3931 26.0949C24.3735 25.7261 24.3735 25.3187 24.3735 24.8728C24.3545 24.4262 24.3545 23.9797 24.3545 23.5142C24.3545 23.0677 24.3545 22.6212 24.3735 22.2138C24.3735 21.8065 24.3735 21.4376 24.3735 21.147C24.3735 19.8466 24.3735 18.7988 24.3931 18.0422C24.4126 17.285 24.4126 16.7999 24.4316 16.5674C24.4507 16.4316 24.5088 16.3344 24.5674 16.3154C24.6256 16.2958 24.7423 16.2768 24.8977 16.2572C25.052 16.2377 25.1688 16.2382 25.2855 16.2382C25.8673 16.2382 26.3529 16.3159 26.7407 16.4908C27.1286 16.6652 27.4588 16.8792 27.7103 17.1698C27.9629 17.4609 28.1378 17.8102 28.2546 18.1981C28.3513 18.6054 28.4089 19.0128 28.4089 19.4593C28.429 20.0416 28.3508 20.5463 28.1954 20.9922C28.04 21.4387 27.7293 21.788 27.2834 22.0596C27.0895 22.1563 26.8955 22.2339 26.6821 22.2926C26.4681 22.3507 26.216 22.3703 25.9249 22.3703C25.7114 22.3703 25.556 22.3703 25.4599 22.3507C25.3431 22.3312 25.2263 22.3312 25.1296 22.3122C25.1106 22.3122 25.1106 22.3312 25.0911 22.3507C25.0715 22.3703 25.0715 22.3893 25.0715 22.4088C25.0911 22.4284 25.1101 22.4865 25.1487 22.5446C25.1872 22.6223 25.2258 22.6804 25.2654 22.7C25.3621 22.7364 25.4985 22.7554 25.6538 22.775Z" fill="#050006"/>
<path d="M44.6136 19.5782C44.6136 19.5999 44.5827 19.6222 44.5208 19.6439C44.492 19.651 44.4621 19.6602 44.4328 19.6711C44.404 19.6819 44.3719 19.6928 44.3399 19.7042C44.3029 19.7151 44.2388 19.727 44.1449 19.7395C44.052 19.752 43.9292 19.764 43.7755 19.7748C43.713 19.859 43.6446 19.9492 43.5702 20.0459C43.4958 20.1426 43.4159 20.2496 43.3312 20.3664C43.4121 20.469 43.5235 20.5798 43.6658 20.701C43.7386 20.7558 43.8097 20.8112 43.8771 20.8677C43.9444 20.9242 44.0107 20.9818 44.0764 21.0405L43.9613 21.1333C43.914 21.1078 43.8667 21.0834 43.8189 21.0595C43.7717 21.0356 43.7223 21.0095 43.6707 20.9802C43.5582 20.9106 43.4539 20.8406 43.3589 20.7694C43.2644 20.6982 43.178 20.6222 43.1009 20.5423C42.7543 20.7797 42.467 20.9459 42.2404 21.041C41.9966 21.1361 41.7163 21.1833 41.4023 21.1833C41.0487 21.1833 40.7651 21.1013 40.5538 20.9367C40.3387 20.7797 40.2274 20.5771 40.2192 20.3289C40.2192 20.0768 40.3252 19.8433 40.537 19.6276C40.7532 19.4049 41.1367 19.129 41.6875 18.8003C41.6549 18.6982 41.6315 18.5885 41.6163 18.4717C41.6017 18.3549 41.5924 18.2322 41.5892 18.1045C41.5892 17.8052 41.7858 17.4706 42.1807 17.1018C42.5713 16.7362 42.9379 16.5521 43.2812 16.5488C43.4208 16.5488 43.536 16.5945 43.6261 16.6857C43.7217 16.7694 43.7712 16.8737 43.7744 16.9975C43.7744 17.2425 43.5224 17.5782 43.0188 18.0057C42.8689 18.1262 42.707 18.2506 42.5338 18.3783C42.361 18.5065 42.1742 18.6358 41.9727 18.7672C42.1296 19.1724 42.5441 19.6743 43.2155 20.2735C43.2741 20.2224 43.3382 20.1561 43.4078 20.0736C43.4773 19.9916 43.5517 19.8884 43.6326 19.764C43.5197 19.764 43.4588 19.7384 43.4518 19.6874C43.4518 19.6325 43.5012 19.5798 43.5995 19.5288C43.6212 19.5217 43.706 19.5141 43.8521 19.507C44.3605 19.5065 44.6136 19.5304 44.6136 19.5782ZM43.5289 17.1018C43.5289 16.8753 43.3719 16.7601 43.0574 16.7569C42.908 16.7569 42.7597 16.7905 42.6142 16.8584C42.4675 16.9258 42.3252 17.029 42.1867 17.1681C41.9162 17.438 41.7776 17.7232 41.7706 18.0225C41.7706 18.1208 41.7923 18.2474 41.8363 18.4006C41.8466 18.4516 41.8591 18.4983 41.8716 18.5402C41.8847 18.5825 41.8999 18.6271 41.9183 18.6743C42.0683 18.5722 42.2165 18.4712 42.3648 18.3701C42.512 18.2696 42.6652 18.1664 42.8222 18.0605C43.2937 17.7102 43.5289 17.3902 43.5289 17.1018ZM42.9982 20.4489C42.9102 20.3756 42.8244 20.3028 42.7402 20.2295C42.6565 20.1567 42.5761 20.0801 42.4995 19.9997C42.1448 19.6347 41.8841 19.2729 41.7157 18.915C41.2741 19.1887 40.9656 19.4261 40.7907 19.6271C40.6185 19.8313 40.531 20.0508 40.5272 20.2843C40.5272 20.5217 40.6054 20.7151 40.7624 20.865C40.9194 21.0111 41.1334 21.0839 41.4034 21.0839C41.7358 21.0839 42.0009 21.0437 42.1986 20.9633C42.2969 20.9231 42.4126 20.8601 42.5463 20.7743C42.6793 20.689 42.8298 20.5804 42.9982 20.4489Z" fill="#E30613"/>
<path d="M34.4038 23.4938C34.4038 23.8507 34.0958 24.3629 33.4788 25.0305C33.0925 25.4417 32.6575 25.8513 32.1746 26.2587C32.0149 26.3847 31.8443 26.5189 31.6612 26.6617C31.4787 26.8046 31.2767 26.9556 31.054 27.1153C31.0583 27.2033 31.1295 27.2853 31.268 27.3608C31.3902 27.4282 31.532 27.4613 31.696 27.4613C32.0067 27.4613 32.3701 27.325 32.7851 27.0517C32.8063 27.0349 32.8845 26.9762 33.0187 26.8757C33.1528 26.7752 33.3506 26.628 33.6102 26.4347C33.6232 26.426 33.6401 26.4222 33.6613 26.4222C33.6738 26.4222 33.6797 26.4347 33.6797 26.4597C33.6797 26.489 33.6738 26.5123 33.6613 26.5292C33.4728 26.6845 33.3022 26.8198 33.1512 26.9355C32.9991 27.0512 32.8633 27.1468 32.7411 27.2223C32.3049 27.4868 31.9176 27.621 31.5825 27.6253C31.011 27.6253 30.7215 27.4005 30.7134 26.9512C30.7134 26.5563 30.9231 26.0403 31.3429 25.4021C31.746 24.81 32.2082 24.294 32.7286 23.8529C33.2702 23.3868 33.7107 23.1538 34.0513 23.1538C34.1512 23.1538 34.2354 23.1875 34.3033 23.2543C34.3707 23.3173 34.4038 23.3966 34.4038 23.4938ZM34.1143 23.5628C34.1143 23.395 34.0073 23.3195 33.7933 23.3363C33.6759 23.3445 33.5336 23.3982 33.3652 23.4971C33.1974 23.5954 33.0002 23.7459 32.7737 23.9474C32.5472 24.1364 32.3419 24.3304 32.1593 24.5297C31.9768 24.7291 31.8128 24.936 31.665 25.15C31.4722 25.4314 31.3103 25.7486 31.1805 26.1012C31.0751 26.3912 31.0165 26.6302 31.004 26.8192C31.004 26.8741 31.0143 26.9181 31.0355 26.9518C31.1485 26.8969 31.3962 26.7166 31.778 26.4102C32.2316 26.0365 32.6477 25.665 33.0252 25.2956C33.3902 24.9387 33.6482 24.647 33.8003 24.4205C34.01 24.1131 34.1143 23.8274 34.1143 23.5628Z" fill="#E30613"/>
<path d="M35.5816 26.4597C35.5816 26.4722 35.5805 26.4836 35.5789 26.4945C35.5762 26.5048 35.5691 26.5184 35.5571 26.5357C35.405 26.7204 35.1747 26.9176 34.864 27.1273C34.6962 27.2489 34.5495 27.3397 34.4235 27.3983C34.2969 27.457 34.1926 27.4885 34.1085 27.4928C33.9911 27.4928 33.8901 27.4532 33.8064 27.3733C33.769 27.4239 33.6723 27.4928 33.5169 27.5814C33.336 27.6781 33.1687 27.7264 33.0134 27.7264C32.795 27.7264 32.6853 27.6406 32.6853 27.4684C32.6853 27.3554 32.7277 27.2365 32.8119 27.1126C32.8961 26.9888 33.0172 26.8557 33.1769 26.7128C33.3322 26.5787 33.4778 26.4798 33.6147 26.4168C33.7505 26.3538 33.8738 26.3223 33.9835 26.3223C34.1975 26.3223 34.3046 26.4228 34.3046 26.6243C34.3046 26.847 34.178 27.0653 33.9265 27.2794C33.9808 27.3337 34.0487 27.3614 34.1286 27.3614C34.2709 27.3614 34.5044 27.2457 34.8271 27.0148C34.9656 26.9181 35.0933 26.822 35.2079 26.7253C35.3236 26.6286 35.4273 26.5325 35.5202 26.4358C35.5235 26.4233 35.537 26.4211 35.5577 26.4293C35.574 26.4282 35.5816 26.4385 35.5816 26.4597ZM34.2155 26.5732C34.2155 26.5059 34.178 26.4684 34.1025 26.4597C34.0058 26.4597 33.9216 26.5015 33.8504 26.5857C33.7874 26.6612 33.7521 26.7514 33.7434 26.8562C33.7434 27.0116 33.7706 27.1148 33.8249 27.1648C34.0764 26.9681 34.2073 26.7704 34.2155 26.5732ZM33.7309 27.2658C33.6467 27.1821 33.6044 27.073 33.6044 26.9382C33.6044 26.7579 33.6419 26.6297 33.7174 26.5537C33.2182 26.7845 32.9678 27.0262 32.9678 27.2783C32.9678 27.4293 33.0291 27.507 33.1514 27.5113C33.336 27.5113 33.5289 27.4298 33.7309 27.2658Z" fill="#E30613"/>
<path d="M38.0826 26.46C38.0826 26.4856 38.0722 26.5084 38.051 26.5296C37.1358 27.302 36.4932 27.6882 36.1238 27.6882C35.9272 27.6882 35.8099 27.5247 35.7707 27.1971C35.6621 27.3188 35.5002 27.4302 35.2862 27.5312C35.1222 27.6024 35.0027 27.6404 34.9272 27.6442C34.8598 27.6442 34.799 27.6149 34.7447 27.5562C34.686 27.5062 34.6545 27.4405 34.6501 27.3612C34.6501 27.2183 34.7132 27.0776 34.8397 26.9391C34.9022 26.8805 34.994 26.8055 35.1162 26.7153C35.2384 26.6252 35.3938 26.5187 35.5823 26.397C35.6197 26.397 35.6333 26.4264 35.6197 26.485C35.5654 26.5187 35.5111 26.5556 35.4562 26.5953C35.4019 26.6349 35.3449 26.6762 35.2862 26.718C35.0842 26.894 34.9815 27.0537 34.9771 27.1966C34.9771 27.327 35.0146 27.3981 35.0912 27.4106C35.1325 27.4106 35.2151 27.3813 35.3362 27.3226C35.4128 27.2889 35.4791 27.2542 35.5383 27.2189C35.5969 27.183 35.6496 27.1483 35.6952 27.1151C35.7838 27.0521 35.9223 26.8946 36.1113 26.6425C36.2623 26.4497 36.3721 26.353 36.4389 26.353C36.4888 26.353 36.5171 26.3758 36.5203 26.4226C36.5203 26.4437 36.5019 26.4774 36.4644 26.523C36.4269 26.5692 36.365 26.6322 36.2819 26.7121C36.1303 26.8549 36.0548 26.9766 36.0548 27.0771C36.0548 27.1738 36.0847 27.2574 36.1434 27.3291C36.1901 27.4003 36.246 27.4405 36.3134 27.4486C36.4932 27.4486 36.7827 27.3145 37.1825 27.0456C37.2412 27.0032 37.3378 26.9321 37.472 26.8316C37.6062 26.7311 37.7871 26.5964 38.0136 26.4285C38.0261 26.4247 38.0391 26.4226 38.051 26.4226C38.0673 26.4226 38.0782 26.435 38.0826 26.46Z" fill="#E30613"/>
<path d="M41.023 26.4599C41.023 26.4854 41.0143 26.5082 40.9975 26.5294C40.5901 26.8651 40.3049 27.0878 40.1409 27.197C39.759 27.4572 39.4298 27.5875 39.1528 27.5875C38.9176 27.5875 38.7981 27.4615 38.7938 27.2095C38.7938 27.1633 38.7992 27.1057 38.8095 27.0362C38.8198 26.9667 38.8378 26.8841 38.8633 26.7874C38.7036 26.8798 38.5412 26.9754 38.3755 27.0742C38.2098 27.1725 38.0387 27.2812 37.8622 27.3985C37.6145 27.562 37.4803 27.644 37.4591 27.644C37.4548 27.644 37.438 27.6359 37.4081 27.619C37.3826 27.6065 37.3706 27.5919 37.3706 27.575C37.3706 27.5452 37.3891 27.4974 37.4244 27.43C37.4602 27.3626 37.52 27.2703 37.6042 27.1524C37.6922 27.0221 37.7622 26.9183 37.8149 26.8406C37.8676 26.763 37.9046 26.707 37.9257 26.6739C37.9089 26.6489 37.9002 26.613 37.9002 26.5669C37.9002 26.5332 37.9274 26.4973 37.9817 26.4599C38.0404 26.4262 38.0871 26.4072 38.1202 26.4034C38.2544 26.4034 38.3255 26.4577 38.3342 26.5669C38.3342 26.5962 38.2674 26.7032 38.1322 26.8879C38.0697 26.9677 38.0165 27.0351 37.9714 27.0894C37.9274 27.1437 37.8888 27.1877 37.8557 27.2214C38.6536 26.6755 39.168 26.4028 39.3983 26.4028C39.4195 26.4028 39.4358 26.43 39.4483 26.4849C39.4483 26.493 39.3831 26.5707 39.2533 26.7179C39.1311 26.8689 39.0681 27.0117 39.0637 27.1459C39.0637 27.2969 39.1707 27.3746 39.3847 27.3789C39.5444 27.3789 39.8111 27.2529 40.1854 27.0009C40.2566 26.9585 40.5129 26.77 40.9535 26.4343C40.966 26.43 40.9806 26.4278 40.9975 26.4278C41.0111 26.4284 41.0187 26.4387 41.023 26.4599Z" fill="#E30613"/>
<path d="M43.5614 26.46C43.5614 26.4855 43.5527 26.5083 43.5359 26.5295C43.3094 26.7185 43.135 26.8608 43.0128 26.9575C42.8917 27.0542 42.8194 27.1107 42.7988 27.1275C42.4756 27.3627 42.1149 27.5518 41.7157 27.6946C41.569 27.8837 41.3734 28.0906 41.1301 28.315C40.8868 28.5393 40.5929 28.7843 40.248 29.0488C39.3202 29.7539 38.5836 30.1107 38.0377 30.1194C37.8949 30.1194 37.7797 30.0819 37.6912 30.0064C37.5945 29.9347 37.5461 29.8424 37.5461 29.7294C37.5461 29.2253 38.0904 28.7658 39.1779 28.3503C39.4212 28.2579 39.8433 28.1194 40.4435 27.9347C40.7412 27.8467 40.9753 27.7761 41.1459 27.7234C41.3159 27.6707 41.4283 27.6343 41.4826 27.6132C41.7765 27.2818 41.9275 26.9668 41.9357 26.6686C41.9357 26.467 41.8178 26.3665 41.5837 26.3665C41.4951 26.3665 41.4093 26.3769 41.3246 26.398C41.2409 26.4192 41.1567 26.4529 41.0725 26.4985C40.9003 26.599 40.8145 26.7109 40.8145 26.8326C40.8145 27.0004 40.884 27.0863 41.0225 27.0906C41.0769 27.0906 41.1393 27.0797 41.2083 27.0591C41.2768 27.0379 41.3604 27.0026 41.4566 26.9521C41.5109 26.9271 41.5636 26.9005 41.6135 26.8733C41.6646 26.8462 41.7173 26.8174 41.7716 26.7886L41.7205 26.8831C41.6619 26.9168 41.6048 26.9505 41.5478 26.9836C41.4908 27.0173 41.4337 27.0553 41.3751 27.0971C41.1855 27.2063 41.0057 27.2612 40.8335 27.2612C40.7325 27.2612 40.651 27.2297 40.588 27.1667C40.5369 27.108 40.5098 27.0281 40.5065 26.9271C40.5065 26.7804 40.6363 26.6246 40.896 26.4611C41.1524 26.3138 41.3979 26.2362 41.6331 26.228C41.7884 26.228 41.9253 26.2704 42.0421 26.354C42.1388 26.442 42.1893 26.5556 42.1942 26.6941C42.1942 26.8913 42.0888 27.1498 41.8792 27.4687C42.0177 27.4268 42.2197 27.3198 42.4864 27.1476C42.7532 26.9755 43.0883 26.7381 43.4913 26.4361C43.5038 26.4274 43.5185 26.4236 43.5353 26.4236C43.5446 26.4225 43.5527 26.435 43.5614 26.46ZM41.3762 27.7886C41.1741 27.8435 40.9758 27.8978 40.7814 27.9521C40.5858 28.007 40.3876 28.0656 40.1866 28.1286C39.846 28.2248 39.5424 28.3236 39.2762 28.4247C39.0095 28.5252 38.7814 28.6262 38.5923 28.7272C38.0633 28.9961 37.7944 29.2813 37.7868 29.5838C37.7868 29.6887 37.8454 29.7816 37.9633 29.8614C38.0633 29.9239 38.1746 29.9559 38.2968 29.9559C38.4267 29.9559 38.6179 29.9054 38.8699 29.8049C39.1263 29.7001 39.3631 29.5719 39.5815 29.4209C40.0133 29.1058 40.3778 28.8141 40.6744 28.5458C40.9699 28.2758 41.204 28.0238 41.3762 27.7886Z" fill="#E30613"/>
<path d="M44.9841 26.46C44.9841 26.4856 44.9765 26.5084 44.9596 26.5296C44.7413 26.7142 44.5566 26.8652 44.4051 26.9831C44.254 27.101 44.1345 27.189 44.046 27.2476C43.6267 27.529 43.2464 27.6735 42.9059 27.6822C42.6163 27.6822 42.4697 27.5334 42.4653 27.2352C42.4653 27.0505 42.5723 26.8343 42.7864 26.5866C43.0139 26.3514 43.2068 26.2319 43.3654 26.2275C43.4208 26.2275 43.4691 26.2487 43.5104 26.2905C43.5479 26.3242 43.5718 26.3661 43.5799 26.4166C43.5799 26.4921 43.5425 26.5676 43.467 26.6431C43.4246 26.6768 43.3855 26.7093 43.3475 26.7409C43.31 26.7724 43.2692 26.8049 43.2274 26.8381C43.1019 26.9473 42.9406 27.0505 42.7429 27.1466C42.7386 27.2471 42.7804 27.3313 42.8684 27.3987C42.9401 27.4448 43.0178 27.4676 43.1019 27.4676C43.3203 27.4676 43.6451 27.327 44.0781 27.0461C44.1204 27.0168 44.2106 26.9516 44.3491 26.8506C44.4876 26.7495 44.6767 26.6094 44.9162 26.4285C44.9287 26.4247 44.9434 26.4225 44.9602 26.4225C44.9721 26.4225 44.9808 26.435 44.9841 26.46ZM43.3035 26.4856C43.3035 26.4649 43.2752 26.4481 43.2209 26.435C43.1497 26.435 43.0552 26.5002 42.9374 26.63C42.8195 26.7479 42.7608 26.8527 42.7608 26.9451C42.782 26.9451 42.8195 26.9348 42.8749 26.9136C43.147 26.7539 43.2904 26.611 43.3035 26.4856Z" fill="#E30613"/>
<path d="M48.8266 26.4785C48.8266 26.4997 48.7022 26.6132 48.4545 26.8185C48.3415 26.9152 48.2432 26.994 48.1585 27.0548C48.0743 27.1156 48.0048 27.1672 47.9504 27.2091C47.6865 27.3937 47.4263 27.5301 47.1726 27.6186C46.9189 27.7066 46.6712 27.7528 46.4328 27.7571C46.2562 27.7571 46.1134 27.7044 46.0047 27.5996C45.8994 27.5116 45.8467 27.3916 45.8467 27.2406C45.8467 27.0222 45.9879 26.787 46.2687 26.5355C46.4159 26.397 46.5707 26.2927 46.7321 26.2237C46.8934 26.1542 47.0602 26.1156 47.2324 26.1069C47.3622 26.1069 47.4344 26.1699 47.4464 26.296C47.4464 26.4176 47.3519 26.5371 47.1628 26.655C47.083 26.7099 47.0075 26.7484 46.9363 26.7718C46.8652 26.7946 46.7994 26.8082 46.7408 26.8125C46.6441 26.8125 46.5957 26.7897 46.5957 26.7436C46.5957 26.6219 46.6587 26.561 46.7853 26.561C46.7935 26.561 46.8027 26.5621 46.8136 26.5643C46.8239 26.5665 46.8396 26.5714 46.8608 26.5801C46.8853 26.5925 46.926 26.6029 46.9803 26.6116C47.039 26.6116 47.0933 26.5779 47.1444 26.5111C47.203 26.4437 47.2324 26.3872 47.2324 26.341C47.2324 26.3079 47.178 26.2867 47.0694 26.2786C46.8798 26.2786 46.6718 26.3791 46.4453 26.5811C46.2399 26.774 46.1302 26.9549 46.1177 27.1227C46.1177 27.2319 46.1721 27.3307 46.2818 27.4187C46.3654 27.5029 46.4958 27.5448 46.6712 27.5448C46.9238 27.5448 47.2275 27.4459 47.5849 27.2487C47.7028 27.1901 47.8282 27.1167 47.9629 27.0282C48.0971 26.9402 48.2378 26.8354 48.3845 26.7131C48.6327 26.5203 48.7647 26.4236 48.781 26.4236C48.8119 26.422 48.8266 26.4405 48.8266 26.4785Z" fill="#E30613"/>
<path d="M51.4148 26.4533C51.4148 26.487 51.4061 26.5103 51.3893 26.5228C51.1752 26.7075 50.9927 26.8596 50.8417 26.9797C50.6907 27.0997 50.5707 27.1888 50.4827 27.2475C50.2687 27.3903 50.0753 27.4984 49.9036 27.5717C49.7309 27.6451 49.5761 27.682 49.4376 27.682C49.21 27.682 49.091 27.512 49.0785 27.172C48.9775 27.2556 48.833 27.3458 48.644 27.4425C48.4631 27.5391 48.3121 27.5875 48.1904 27.5875C48.1062 27.5875 48.0291 27.5663 47.9569 27.5245C47.8857 27.4908 47.8499 27.4403 47.8499 27.3735C47.8499 27.1844 48.0199 26.9579 48.3604 26.6934C48.537 26.563 48.6994 26.4647 48.8482 26.3974C48.9976 26.33 49.1372 26.2969 49.267 26.2969C49.4224 26.2969 49.5022 26.3344 49.5066 26.4099C49.5066 26.4941 49.481 26.5549 49.4311 26.5924C49.38 26.6298 49.3257 26.6489 49.267 26.6489C49.267 26.6445 49.2654 26.6364 49.2611 26.6239C49.2567 26.6157 49.2524 26.6059 49.248 26.5956C49.2448 26.5848 49.2377 26.5712 49.2295 26.5543C49.204 26.4957 49.154 26.462 49.0785 26.4539C48.9102 26.4539 48.7211 26.5462 48.5115 26.7314C48.2974 26.9074 48.1904 27.0671 48.1904 27.21C48.1904 27.298 48.2219 27.3441 48.2844 27.3485C48.5071 27.3485 48.7445 27.2627 48.996 27.0905C49.0514 27.0525 49.1454 26.9601 49.2795 26.8129C49.3637 26.7081 49.4349 26.6597 49.4935 26.6679C49.5479 26.6679 49.5761 26.6891 49.5761 26.7309C49.5761 26.7684 49.5403 26.8504 49.468 26.9764C49.4012 27.0943 49.3681 27.1801 49.3681 27.2344C49.3681 27.3898 49.4452 27.4696 49.6005 27.474C49.7901 27.474 50.0921 27.3311 50.5071 27.0459C50.5625 27.0123 50.6587 26.9449 50.7967 26.8444C50.9352 26.7439 51.1204 26.607 51.3512 26.4354C51.3599 26.4267 51.3724 26.4229 51.3887 26.4229C51.4061 26.4224 51.4148 26.4327 51.4148 26.4533Z" fill="#E30613"/>
<path d="M54.6202 23.4305C54.6202 23.6108 54.4018 23.9552 53.9656 24.4636C53.5496 24.9378 53.0965 25.3642 52.6049 25.7417C52.3697 25.9264 52.146 26.0894 51.9347 26.2295C51.7223 26.3702 51.5153 26.4886 51.3143 26.5853L51.0688 27.0198H52.1139C52.1981 27.0198 52.2405 27.0595 52.2405 27.1393C52.2405 27.173 52.1981 27.1958 52.1139 27.2089L50.8923 27.2594C50.687 27.5321 50.5218 27.7472 50.398 27.9047C50.2741 28.0622 50.1888 28.1643 50.1427 28.21C50.046 28.3278 49.9314 28.4598 49.7967 28.607C49.6614 28.7542 49.5028 28.9199 49.3176 29.1046C49.1964 29.2263 49.0721 29.342 48.9466 29.4512C48.82 29.5603 48.6842 29.663 48.5376 29.7597C48.298 29.9194 48.0758 30.0389 47.8721 30.1187C47.6684 30.1986 47.4729 30.2382 47.2839 30.2382C47.166 30.2382 47.0671 30.2067 46.9873 30.1437C46.9036 30.0851 46.8618 30.0155 46.8618 29.9357C46.8618 29.839 46.9161 29.7906 47.0253 29.7906C47.0427 29.8031 47.0595 29.8178 47.0764 29.8346C47.1008 29.8645 47.1492 29.9063 47.2214 29.9607C47.2757 30.0068 47.3273 30.0394 47.3757 30.0579C47.424 30.0769 47.4729 30.0905 47.5229 30.0992C47.6114 30.0992 47.7157 30.0764 47.8379 30.0297C47.9601 29.9835 48.1046 29.9123 48.2725 29.8156C48.5875 29.6304 48.8857 29.3936 49.1671 29.1041C49.3393 28.9281 49.5077 28.745 49.6706 28.556C49.8347 28.367 49.996 28.1698 50.1557 27.9639C50.4365 27.582 50.5843 27.3468 50.5962 27.2588H50.5267C50.4257 27.2588 50.3757 27.2148 50.3757 27.1263C50.3757 27.0633 50.4555 27.028 50.6142 27.0193H50.8097C50.8939 26.8846 51.0205 26.6885 51.1905 26.4305C51.3605 26.1725 51.5778 25.852 51.8429 25.4701C52.9336 23.9334 53.763 23.161 54.3301 23.1523C54.41 23.1523 54.4795 23.1795 54.5382 23.2344C54.593 23.2898 54.6202 23.355 54.6202 23.4305ZM54.3747 23.4305C54.3747 23.3338 54.3019 23.2854 54.1541 23.2854C54.0156 23.2854 53.7739 23.4364 53.4301 23.739C53.2622 23.89 53.1041 24.0475 52.958 24.211C52.8108 24.3751 52.6701 24.5451 52.536 24.7211C52.4018 24.9101 52.2378 25.1431 52.0444 25.4202C51.8515 25.6972 51.6294 26.0204 51.3773 26.3903C51.4784 26.3229 51.6001 26.242 51.7451 26.1475C51.8901 26.053 52.0634 25.9432 52.2649 25.8172C52.6929 25.557 53.1454 25.1687 53.6191 24.6521C54.1226 24.1105 54.3747 23.7037 54.3747 23.4305Z" fill="#E30613"/>
<path d="M54.9853 26.46C54.9853 26.4856 54.9772 26.5084 54.9609 26.5296C54.7425 26.7142 54.5573 26.8652 54.4063 26.9831C54.2553 27.101 54.1358 27.189 54.0472 27.2476C53.6279 27.529 53.2477 27.6735 52.9071 27.6822C52.6176 27.6822 52.4709 27.5334 52.4666 27.2352C52.4666 27.0505 52.5736 26.8343 52.7876 26.5866C53.0141 26.3514 53.2069 26.2319 53.3666 26.2275C53.4209 26.2275 53.4693 26.2487 53.5116 26.2905C53.5491 26.3242 53.573 26.3661 53.5812 26.4166C53.5812 26.4921 53.5437 26.5676 53.4682 26.6431C53.4258 26.6768 53.3867 26.7093 53.3487 26.7409C53.3112 26.7724 53.2705 26.8049 53.2286 26.8381C53.1032 26.9473 52.9418 27.0505 52.7441 27.1466C52.7398 27.2471 52.7816 27.3313 52.8696 27.3987C52.9418 27.4448 53.019 27.4676 53.1032 27.4676C53.3215 27.4676 53.6464 27.327 54.0793 27.0461C54.1216 27.0168 54.2118 26.9516 54.3503 26.8506C54.4883 26.7495 54.6779 26.6094 54.9163 26.4285C54.9294 26.4247 54.9435 26.4225 54.9609 26.4225C54.9734 26.4225 54.9821 26.435 54.9853 26.46ZM53.3036 26.4856C53.3036 26.4649 53.2764 26.4481 53.2221 26.435C53.151 26.435 53.0565 26.5002 52.9386 26.63C52.8207 26.7479 52.762 26.8527 52.762 26.9451C52.7832 26.9451 52.8207 26.9348 52.8761 26.9136C53.1482 26.7539 53.2917 26.611 53.3036 26.4856Z" fill="#E30613"/>
<path d="M44.6136 19.5782C44.6136 19.5999 44.5826 19.6222 44.5207 19.6439C44.4919 19.651 44.462 19.6602 44.4327 19.6711C44.4039 19.6819 44.3719 19.6928 44.3398 19.7042C44.3029 19.7151 44.2388 19.727 44.1448 19.7395C44.0519 19.752 43.9292 19.764 43.7754 19.7748C43.713 19.859 43.6445 19.9492 43.5701 20.0459C43.4957 20.1426 43.4158 20.2496 43.3311 20.3664C43.412 20.469 43.5234 20.5798 43.6657 20.701C43.7385 20.7558 43.8097 20.8112 43.877 20.8677C43.9444 20.9242 44.0106 20.9818 44.0764 21.0405L43.9612 21.1333C43.9139 21.1078 43.8667 21.0834 43.8189 21.0595C43.7716 21.0356 43.7222 21.0095 43.6706 20.9802C43.5582 20.9106 43.4539 20.8406 43.3588 20.7694C43.2643 20.6982 43.1779 20.6222 43.1008 20.5423C42.7542 20.7797 42.4669 20.9459 42.2404 21.041C41.9965 21.1361 41.7162 21.1833 41.4022 21.1833C41.0486 21.1833 40.7651 21.1013 40.5538 20.9367C40.3387 20.7797 40.2273 20.5771 40.2192 20.3289C40.2192 20.0768 40.3251 19.8433 40.5369 19.6276C40.7531 19.4049 41.1366 19.129 41.6874 18.8003C41.6548 18.6982 41.6315 18.5885 41.6163 18.4717C41.6016 18.3549 41.5924 18.2322 41.5891 18.1045C41.5891 17.8052 41.7857 17.4706 42.1806 17.1018C42.5712 16.7362 42.9378 16.5521 43.2811 16.5488C43.4207 16.5488 43.5359 16.5945 43.6261 16.6857C43.7217 16.7694 43.7711 16.8737 43.7743 16.9975C43.7743 17.2425 43.5223 17.5782 43.0188 18.0057C42.8689 18.1262 42.707 18.2506 42.5337 18.3783C42.361 18.5065 42.1741 18.6358 41.9726 18.7672C42.1296 19.1724 42.544 19.6743 43.2154 20.2735C43.2741 20.2224 43.3382 20.1561 43.4077 20.0736C43.4772 19.9916 43.5516 19.8884 43.6326 19.764C43.5196 19.764 43.4588 19.7384 43.4517 19.6874C43.4517 19.6325 43.5011 19.5798 43.5994 19.5288C43.6212 19.5217 43.7059 19.5141 43.852 19.507C44.3604 19.5065 44.6136 19.5304 44.6136 19.5782ZM43.5288 17.1018C43.5288 16.8753 43.3718 16.7601 43.0573 16.7569C42.908 16.7569 42.7597 16.7905 42.6141 16.8584C42.4674 16.9258 42.3251 17.029 42.1866 17.1681C41.9161 17.438 41.7776 17.7232 41.7705 18.0225C41.7705 18.1208 41.7923 18.2474 41.8362 18.4006C41.8466 18.4516 41.8591 18.4983 41.8716 18.5402C41.8846 18.5825 41.8998 18.6271 41.9183 18.6743C42.0682 18.5722 42.2165 18.4712 42.3648 18.3701C42.512 18.2696 42.6652 18.1664 42.8221 18.0605C43.2936 17.7102 43.5288 17.3902 43.5288 17.1018ZM42.9981 20.4489C42.9101 20.3756 42.8243 20.3028 42.7401 20.2295C42.6565 20.1567 42.5761 20.0801 42.4995 19.9997C42.1448 19.6347 41.8841 19.2729 41.7157 18.915C41.2741 19.1887 40.9655 19.4261 40.7906 19.6271C40.6184 19.8313 40.531 20.0508 40.5272 20.2843C40.5272 20.5217 40.6054 20.7151 40.7624 20.865C40.9193 21.0111 41.1334 21.0839 41.4033 21.0839C41.7358 21.0839 42.0008 21.0437 42.1986 20.9633C42.2969 20.9231 42.4126 20.8601 42.5462 20.7743C42.6793 20.689 42.8297 20.5804 42.9981 20.4489ZM34.4038 23.494C34.4038 23.8509 34.0958 24.3631 33.4788 25.0307C33.0925 25.4419 32.6575 25.8515 32.1746 26.2589C32.0149 26.3849 31.8443 26.5191 31.6612 26.6619C31.4787 26.8048 31.2767 26.9558 31.054 27.1155C31.0583 27.2035 31.1295 27.2855 31.268 27.361C31.3902 27.4283 31.532 27.4615 31.696 27.4615C32.0067 27.4615 32.3701 27.3251 32.7851 27.0519C32.8063 27.0351 32.8845 26.9764 33.0187 26.8759C33.1528 26.7754 33.3506 26.6282 33.6102 26.4349C33.6232 26.4262 33.6401 26.4224 33.6613 26.4224C33.6738 26.4224 33.6797 26.4349 33.6797 26.4598C33.6797 26.4892 33.6738 26.5125 33.6613 26.5294C33.4728 26.6847 33.3022 26.82 33.1512 26.9357C32.9991 27.0514 32.8633 27.147 32.7411 27.2225C32.3049 27.487 31.9176 27.6212 31.5825 27.6255C31.011 27.6255 30.7215 27.4006 30.7134 26.9514C30.7134 26.5565 30.9231 26.0405 31.3429 25.4023C31.746 24.8102 32.2082 24.2942 32.7286 23.8531C33.2702 23.387 33.7107 23.154 34.0513 23.154C34.1512 23.154 34.2354 23.1877 34.3033 23.2545C34.3707 23.3175 34.4038 23.3968 34.4038 23.494ZM34.1143 23.563C34.1143 23.3952 34.0073 23.3197 33.7933 23.3365C33.6759 23.3447 33.5336 23.3984 33.3652 23.4973C33.1974 23.5956 33.0002 23.7461 32.7737 23.9476C32.5472 24.1366 32.3419 24.3305 32.1593 24.5299C31.9768 24.7292 31.8128 24.9362 31.665 25.1502C31.4722 25.4316 31.3103 25.7488 31.1805 26.1013C31.0751 26.3914 31.0165 26.6304 31.004 26.8194C31.004 26.8743 31.0143 26.9183 31.0355 26.952C31.1485 26.8971 31.3962 26.7168 31.778 26.4104C32.2316 26.0367 32.6477 25.6652 33.0252 25.2958C33.3902 24.9389 33.6482 24.6472 33.8003 24.4207C34.01 24.1133 34.1143 23.8276 34.1143 23.563ZM35.5814 26.4598C35.5814 26.4723 35.5804 26.4837 35.5787 26.4946C35.576 26.5049 35.5689 26.5185 35.557 26.5359C35.4049 26.7206 35.1746 26.9178 34.8639 27.1274C34.696 27.2491 34.5494 27.3398 34.4234 27.3985C34.2968 27.4571 34.1925 27.4886 34.1083 27.493C33.991 27.493 33.8899 27.4533 33.8063 27.3735C33.7688 27.424 33.6721 27.493 33.5168 27.5815C33.3359 27.6782 33.1686 27.7266 33.0132 27.7266C32.7949 27.7266 32.6852 27.6407 32.6852 27.4685C32.6852 27.3556 32.7275 27.2366 32.8117 27.1128C32.8959 26.9889 33.017 26.8558 33.1767 26.713C33.3321 26.5788 33.4777 26.4799 33.6146 26.4169C33.7503 26.3539 33.8737 26.3224 33.9834 26.3224C34.1974 26.3224 34.3044 26.4229 34.3044 26.6244C34.3044 26.8471 34.1778 27.0655 33.9263 27.2795C33.9807 27.3338 34.0486 27.3615 34.1284 27.3615C34.2707 27.3615 34.5043 27.2458 34.827 27.015C34.9655 26.9183 35.0931 26.8222 35.2077 26.7255C35.3234 26.6288 35.4272 26.5326 35.5201 26.4359C35.5233 26.4234 35.5369 26.4213 35.5575 26.4294C35.5738 26.4283 35.5814 26.4387 35.5814 26.4598ZM34.2153 26.5734C34.2153 26.506 34.1778 26.4685 34.1023 26.4598C34.0056 26.4598 33.9214 26.5017 33.8503 26.5859C33.7873 26.6614 33.752 26.7515 33.7433 26.8564C33.7433 27.0117 33.7704 27.1149 33.8248 27.1649C34.0763 26.9683 34.2072 26.7705 34.2153 26.5734ZM33.7308 27.2659C33.6466 27.1823 33.6042 27.0731 33.6042 26.9384C33.6042 26.7581 33.6417 26.6299 33.7172 26.5538C33.218 26.7847 32.9676 27.0264 32.9676 27.2784C32.9676 27.4294 33.029 27.5071 33.1512 27.5115C33.3359 27.5115 33.5287 27.43 33.7308 27.2659ZM38.0823 26.4598C38.0823 26.4854 38.072 26.5082 38.0508 26.5294C37.1355 27.3018 36.4929 27.688 36.1235 27.688C35.9269 27.688 35.8096 27.5245 35.7705 27.197C35.6618 27.3186 35.5 27.43 35.2859 27.531C35.1219 27.6022 35.0024 27.6402 34.9269 27.644C34.8595 27.644 34.7987 27.6147 34.7444 27.556C34.6857 27.506 34.6542 27.4403 34.6499 27.361C34.6499 27.2181 34.7129 27.0774 34.8394 26.9389C34.9019 26.8803 34.9937 26.8053 35.1159 26.7151C35.2381 26.625 35.3935 26.5185 35.582 26.3968C35.6195 26.3968 35.633 26.4262 35.6195 26.4848C35.5651 26.5185 35.5108 26.5554 35.456 26.5951C35.4016 26.6347 35.3446 26.676 35.2859 26.7179C35.0839 26.8939 34.9812 27.0535 34.9769 27.1964C34.9769 27.3268 35.0143 27.3979 35.0909 27.4104C35.1322 27.4104 35.2148 27.3811 35.3359 27.3224C35.4125 27.2887 35.4788 27.254 35.538 27.2187C35.5966 27.1828 35.6493 27.1481 35.695 27.1149C35.7835 27.0519 35.922 26.8944 36.111 26.6424C36.262 26.4495 36.3718 26.3528 36.4386 26.3528C36.4886 26.3528 36.5168 26.3756 36.5201 26.4224C36.5201 26.4435 36.5016 26.4772 36.4641 26.5229C36.4266 26.569 36.3647 26.632 36.2816 26.7119C36.1301 26.8547 36.0546 26.9764 36.0546 27.0769C36.0546 27.1736 36.0844 27.2572 36.1431 27.3289C36.1898 27.4001 36.2458 27.4403 36.3131 27.4484C36.4929 27.4484 36.7824 27.3143 37.1822 27.0454C37.2409 27.003 37.3376 26.9319 37.4717 26.8314C37.6059 26.7309 37.7868 26.5962 38.0133 26.4283C38.0258 26.4245 38.0388 26.4224 38.0508 26.4224C38.0671 26.4224 38.0779 26.4349 38.0823 26.4598ZM41.0231 26.4598C41.0231 26.4854 41.0144 26.5082 40.9976 26.5294C40.5902 26.8651 40.305 27.0878 40.141 27.197C39.7591 27.4571 39.4299 27.5875 39.1529 27.5875C38.9177 27.5875 38.7982 27.4615 38.7939 27.2094C38.7939 27.1633 38.7993 27.1057 38.8096 27.0362C38.8199 26.9666 38.8379 26.8841 38.8634 26.7874C38.7037 26.8797 38.5413 26.9753 38.3756 27.0742C38.2099 27.1725 38.0388 27.2811 37.8623 27.3985C37.6146 27.562 37.4804 27.644 37.4592 27.644C37.4549 27.644 37.4381 27.6358 37.4082 27.619C37.3826 27.6065 37.3707 27.5918 37.3707 27.575C37.3707 27.5451 37.3892 27.4973 37.4245 27.43C37.4603 27.3626 37.5201 27.2703 37.6043 27.1524C37.6923 27.022 37.7623 26.9183 37.815 26.8406C37.8677 26.7629 37.9047 26.707 37.9258 26.6739C37.909 26.6489 37.9003 26.613 37.9003 26.5669C37.9003 26.5332 37.9275 26.4973 37.9818 26.4598C38.0405 26.4262 38.0872 26.4072 38.1203 26.4034C38.2545 26.4034 38.3256 26.4577 38.3343 26.5669C38.3343 26.5962 38.2675 26.7032 38.1323 26.8879C38.0698 26.9677 38.0165 27.0351 37.9715 27.0894C37.9275 27.1437 37.8889 27.1877 37.8558 27.2214C38.6537 26.6755 39.1681 26.4028 39.3984 26.4028C39.4196 26.4028 39.4359 26.43 39.4484 26.4848C39.4484 26.493 39.3832 26.5707 39.2534 26.7179C39.1312 26.8689 39.0682 27.0117 39.0638 27.1459C39.0638 27.2969 39.1708 27.3746 39.3848 27.3789C39.5445 27.3789 39.8112 27.2529 40.1855 27.0009C40.2567 26.9585 40.513 26.77 40.9536 26.4343C40.9661 26.43 40.9807 26.4278 40.9976 26.4278C41.0111 26.4283 41.0188 26.4387 41.0231 26.4598ZM43.5614 26.4598C43.5614 26.4854 43.5527 26.5082 43.5359 26.5294C43.3094 26.7184 43.135 26.8607 43.0128 26.9574C42.8917 27.0541 42.8194 27.1106 42.7988 27.1274C42.4756 27.3626 42.1149 27.5517 41.7157 27.6945C41.569 27.8835 41.3735 28.0905 41.1301 28.3148C40.8868 28.5392 40.5929 28.7841 40.248 29.0487C39.3202 29.7537 38.5836 30.1106 38.0377 30.1193C37.8949 30.1193 37.7797 30.0818 37.6912 30.0063C37.5945 29.9346 37.5461 29.8423 37.5461 29.7293C37.5461 29.2252 38.0904 28.7657 39.1779 28.3501C39.4212 28.2578 39.8433 28.1193 40.4435 27.9346C40.7412 27.8466 40.9753 27.776 41.1459 27.7233C41.3159 27.6706 41.4283 27.6342 41.4826 27.613C41.7765 27.2817 41.9275 26.9666 41.9357 26.6684C41.9357 26.4669 41.8178 26.3664 41.5837 26.3664C41.4951 26.3664 41.4093 26.3767 41.3246 26.3979C41.2409 26.4191 41.1567 26.4528 41.0725 26.4984C40.9003 26.5989 40.8145 26.7108 40.8145 26.8325C40.8145 27.0003 40.884 27.0861 41.0226 27.0905C41.0769 27.0905 41.1393 27.0796 41.2083 27.059C41.2768 27.0378 41.3604 27.0025 41.4566 26.952C41.5109 26.927 41.5636 26.9004 41.6135 26.8732C41.6646 26.8461 41.7173 26.8173 41.7716 26.7885L41.7205 26.883C41.6619 26.9167 41.6049 26.9503 41.5478 26.9835C41.4908 27.0172 41.4337 27.0552 41.3751 27.097C41.1855 27.2062 41.0057 27.261 40.8335 27.261C40.7325 27.261 40.651 27.2295 40.588 27.1665C40.5369 27.1079 40.5098 27.028 40.5065 26.927C40.5065 26.7803 40.6363 26.6244 40.896 26.4609C41.1524 26.3137 41.3979 26.2361 41.6331 26.2279C41.7884 26.2279 41.9253 26.2703 42.0421 26.3539C42.1388 26.4419 42.1893 26.5554 42.1942 26.694C42.1942 26.8911 42.0888 27.1497 41.8792 27.4685C42.0177 27.4267 42.2197 27.3197 42.4865 27.1475C42.7532 26.9753 43.0883 26.738 43.4913 26.4359C43.5038 26.4273 43.5185 26.4235 43.5353 26.4235C43.5446 26.4224 43.5527 26.4349 43.5614 26.4598ZM41.3762 27.7885C41.1741 27.8433 40.9758 27.8977 40.7814 27.952C40.5858 28.0068 40.3876 28.0655 40.1866 28.1285C39.846 28.2247 39.5424 28.3235 39.2762 28.4246C39.0095 28.525 38.7814 28.6261 38.5923 28.7271C38.0633 28.996 37.7944 29.2812 37.7868 29.5837C37.7868 29.6886 37.8454 29.7814 37.9633 29.8613C38.0633 29.9238 38.1746 29.9558 38.2968 29.9558C38.4267 29.9558 38.6179 29.9053 38.8699 29.8048C39.1263 29.7 39.3631 29.5718 39.5815 29.4208C40.0133 29.1057 40.3778 28.814 40.6744 28.5457C40.9699 28.2757 41.204 28.0237 41.3762 27.7885ZM44.984 26.4598C44.984 26.4854 44.9764 26.5082 44.9596 26.5294C44.7412 26.7141 44.5565 26.8651 44.405 26.9829C44.254 27.1008 44.1345 27.1888 44.0459 27.2475C43.6266 27.5288 43.2464 27.6733 42.9058 27.682C42.6163 27.682 42.4696 27.5332 42.4653 27.235C42.4653 27.0503 42.5723 26.8341 42.7863 26.5864C43.0139 26.3512 43.2067 26.2317 43.3653 26.2274C43.4207 26.2274 43.4691 26.2485 43.5104 26.2904C43.5478 26.324 43.5717 26.3659 43.5799 26.4164C43.5799 26.4919 43.5424 26.5674 43.4669 26.6429C43.4245 26.6766 43.3854 26.7092 43.3474 26.7407C43.3099 26.7722 43.2692 26.8048 43.2274 26.8379C43.1019 26.9471 42.9406 27.0503 42.7428 27.1464C42.7385 27.2469 42.7803 27.3311 42.8683 27.3985C42.94 27.4446 43.0177 27.4675 43.1019 27.4675C43.3202 27.4675 43.6451 27.3268 44.078 27.0459C44.1204 27.0166 44.2105 26.9514 44.349 26.8504C44.4876 26.7494 44.6766 26.6092 44.9161 26.4283C44.9286 26.4245 44.9433 26.4224 44.9601 26.4224C44.9721 26.4224 44.9808 26.4349 44.984 26.4598ZM43.3034 26.4854C43.3034 26.4647 43.2752 26.4479 43.2208 26.4349C43.1497 26.4349 43.0552 26.5 42.9373 26.6299C42.8194 26.7477 42.7608 26.8526 42.7608 26.9449C42.7819 26.9449 42.8194 26.9346 42.8748 26.9134C43.147 26.7537 43.2904 26.6109 43.3034 26.4854ZM48.8265 26.4789C48.8265 26.5 48.7022 26.6136 48.4545 26.8189C48.3415 26.9156 48.2432 26.9943 48.1584 27.0552C48.0742 27.116 48.0047 27.1676 47.9504 27.2094C47.6864 27.3941 47.4262 27.5305 47.1725 27.619C46.9189 27.707 46.6712 27.7532 46.4327 27.7575C46.2562 27.7575 46.1133 27.7048 46.0047 27.6C45.8993 27.512 45.8466 27.392 45.8466 27.2409C45.8466 27.0226 45.9878 26.7874 46.2687 26.5359C46.4159 26.3974 46.5707 26.2931 46.732 26.2241C46.8933 26.1546 47.0601 26.116 47.2323 26.1073C47.3621 26.1073 47.4344 26.1703 47.4463 26.2963C47.4463 26.418 47.3518 26.5375 47.1628 26.6554C47.0829 26.7103 47.0074 26.7488 46.9362 26.7722C46.8651 26.795 46.7994 26.8086 46.7407 26.8129C46.644 26.8129 46.5957 26.7901 46.5957 26.7439C46.5957 26.6223 46.6587 26.5614 46.7852 26.5614C46.7934 26.5614 46.8026 26.5625 46.8135 26.5647C46.8238 26.5669 46.8396 26.5717 46.8607 26.5804C46.8852 26.5929 46.9259 26.6032 46.9802 26.6119C47.0389 26.6119 47.0932 26.5783 47.1443 26.5114C47.203 26.4441 47.2323 26.3876 47.2323 26.3414C47.2323 26.3083 47.178 26.2871 47.0693 26.279C46.8798 26.279 46.6717 26.3795 46.4452 26.5815C46.2399 26.7743 46.1302 26.9552 46.1177 27.1231C46.1177 27.2323 46.172 27.3311 46.2817 27.4191C46.3654 27.5033 46.4957 27.5451 46.6712 27.5451C46.9238 27.5451 47.2274 27.4463 47.5848 27.2491C47.7027 27.1904 47.8282 27.1171 47.9629 27.0286C48.097 26.9406 48.2377 26.8357 48.3844 26.7135C48.6326 26.5207 48.7646 26.424 48.7809 26.424C48.8119 26.4224 48.8265 26.4408 48.8265 26.4789ZM51.4148 26.4533C51.4148 26.487 51.4061 26.5104 51.3893 26.5229C51.1753 26.7075 50.9928 26.8596 50.8418 26.9797C50.6908 27.0997 50.5707 27.1888 50.4827 27.2475C50.2687 27.3903 50.0753 27.4984 49.9037 27.5718C49.731 27.6451 49.5761 27.682 49.4376 27.682C49.21 27.682 49.0911 27.512 49.0786 27.172C48.9776 27.2556 48.8331 27.3458 48.644 27.4425C48.4632 27.5392 48.3121 27.5875 48.1905 27.5875C48.1063 27.5875 48.0291 27.5663 47.9569 27.5245C47.8857 27.4908 47.8499 27.4403 47.8499 27.3735C47.8499 27.1845 48.0199 26.9579 48.3605 26.6934C48.537 26.5631 48.6994 26.4647 48.8483 26.3974C48.9976 26.33 49.1372 26.2969 49.2671 26.2969C49.4224 26.2969 49.5023 26.3344 49.5066 26.4099C49.5066 26.4941 49.4811 26.5549 49.4311 26.5924C49.3801 26.6299 49.3257 26.6489 49.2671 26.6489C49.2671 26.6445 49.2654 26.6364 49.2611 26.6239C49.2567 26.6157 49.2524 26.606 49.2481 26.5956C49.2448 26.5848 49.2377 26.5712 49.2296 26.5544C49.2041 26.4957 49.1541 26.462 49.0786 26.4539C48.9102 26.4539 48.7212 26.5462 48.5115 26.7314C48.2975 26.9074 48.1905 27.0671 48.1905 27.21C48.1905 27.298 48.222 27.3442 48.2844 27.3485C48.5072 27.3485 48.7445 27.2627 48.996 27.0905C49.0514 27.0525 49.1454 26.9601 49.2796 26.8129C49.3638 26.7081 49.4349 26.6597 49.4936 26.6679C49.5479 26.6679 49.5761 26.6891 49.5761 26.7309C49.5761 26.7684 49.5403 26.8504 49.468 26.9764C49.4012 27.0943 49.3681 27.1801 49.3681 27.2344C49.3681 27.3898 49.4452 27.4696 49.6006 27.474C49.7902 27.474 50.0922 27.3311 50.5072 27.0459C50.5626 27.0123 50.6587 26.9449 50.7967 26.8444C50.9352 26.7439 51.1204 26.607 51.3513 26.4354C51.36 26.4267 51.3725 26.4229 51.3888 26.4229C51.4061 26.4224 51.4148 26.4327 51.4148 26.4533ZM54.6202 23.4305C54.6202 23.6108 54.4018 23.9552 53.9656 24.4636C53.5496 24.9378 53.0965 25.3642 52.605 25.7417C52.3698 25.9264 52.146 26.0894 51.9347 26.2295C51.7223 26.3702 51.5153 26.4886 51.3143 26.5853L51.0688 27.0199H52.1139C52.1981 27.0199 52.2405 27.0595 52.2405 27.1394C52.2405 27.1731 52.1981 27.1959 52.1139 27.2089L50.8923 27.2594C50.687 27.5321 50.5218 27.7472 50.398 27.9047C50.2741 28.0623 50.1889 28.1644 50.1427 28.21C50.046 28.3279 49.9314 28.4599 49.7967 28.6071C49.6614 28.7543 49.5028 28.9199 49.3176 29.1046C49.1965 29.2263 49.0721 29.342 48.9466 29.4512C48.82 29.5604 48.6842 29.663 48.5376 29.7597C48.298 29.9194 48.0759 30.0389 47.8722 30.1188C47.6685 30.1986 47.4729 30.2383 47.2839 30.2383C47.166 30.2383 47.0672 30.2068 46.9873 30.1437C46.9037 30.0851 46.8618 30.0156 46.8618 29.9357C46.8618 29.839 46.9161 29.7907 47.0253 29.7907C47.0427 29.8032 47.0596 29.8178 47.0764 29.8347C47.1008 29.8645 47.1492 29.9064 47.2214 29.9607C47.2757 30.0069 47.3273 30.0395 47.3757 30.0579C47.424 30.0769 47.4729 30.0905 47.5229 30.0992C47.6114 30.0992 47.7157 30.0764 47.8379 30.0297C47.9602 29.9835 48.1046 29.9124 48.2725 29.8157C48.5875 29.6304 48.8858 29.3936 49.1671 29.1041C49.3393 28.9281 49.5077 28.745 49.6707 28.556C49.8347 28.367 49.996 28.1698 50.1557 27.9639C50.4366 27.5821 50.5843 27.3469 50.5962 27.2589H50.5267C50.4257 27.2589 50.3757 27.2149 50.3757 27.1263C50.3757 27.0633 50.4556 27.028 50.6142 27.0193H50.8097C50.8939 26.8846 51.0205 26.6885 51.1905 26.4305C51.3605 26.1725 51.5778 25.852 51.8429 25.4702C52.9336 23.9335 53.763 23.1611 54.3301 23.1524C54.41 23.1524 54.4795 23.1795 54.5382 23.2344C54.593 23.2898 54.6202 23.355 54.6202 23.4305ZM54.3747 23.4305C54.3747 23.3338 54.3019 23.2854 54.1541 23.2854C54.0156 23.2854 53.7739 23.4365 53.4301 23.739C53.2622 23.89 53.1041 24.0475 52.958 24.211C52.8108 24.3751 52.6701 24.5451 52.536 24.7211C52.4018 24.9101 52.2378 25.1432 52.0444 25.4202C51.8516 25.6972 51.6294 26.0204 51.3774 26.3903C51.4784 26.323 51.6001 26.242 51.7451 26.1475C51.8901 26.053 52.0634 25.9433 52.2649 25.8173C52.693 25.5571 53.1454 25.1687 53.6191 24.6521C54.1226 24.1106 54.3747 23.7037 54.3747 23.4305ZM54.9852 26.4598C54.9852 26.4854 54.9771 26.5082 54.9608 26.5294C54.7424 26.7141 54.5572 26.8651 54.4062 26.9829C54.2552 27.1008 54.1357 27.1888 54.0471 27.2475C53.6278 27.5288 53.2476 27.6733 52.907 27.682C52.6175 27.682 52.4708 27.5332 52.4665 27.235C52.4665 27.0503 52.5735 26.8341 52.7875 26.5864C53.014 26.3512 53.2068 26.2317 53.3665 26.2274C53.4208 26.2274 53.4692 26.2485 53.5115 26.2904C53.549 26.324 53.5729 26.3659 53.5811 26.4164C53.5811 26.4919 53.5436 26.5674 53.4681 26.6429C53.4257 26.6766 53.3866 26.7092 53.3486 26.7407C53.3111 26.7722 53.2704 26.8048 53.2285 26.8379C53.1031 26.9471 52.9417 27.0503 52.744 27.1464C52.7397 27.2469 52.7815 27.3311 52.8695 27.3985C52.9417 27.4446 53.0189 27.4675 53.1031 27.4675C53.3214 27.4675 53.6463 27.3268 54.0792 27.0459C54.1215 27.0166 54.2117 26.9514 54.3502 26.8504C54.4882 26.7494 54.6778 26.6092 54.9162 26.4283C54.9293 26.4245 54.9434 26.4224 54.9608 26.4224C54.9733 26.4224 54.982 26.4349 54.9852 26.4598ZM53.3035 26.4854C53.3035 26.4647 53.2763 26.4479 53.222 26.4349C53.1509 26.4349 53.0563 26.5 52.9385 26.6299C52.8206 26.7477 52.7619 26.8526 52.7619 26.9449C52.7831 26.9449 52.8206 26.9346 52.876 26.9134C53.1481 26.7537 53.2915 26.6109 53.3035 26.4854Z" stroke="#E30613" stroke-width="0.216" stroke-miterlimit="22.9256"/>
</svg>
