<svg display="none" xmlns="http://www.w3.org/2000/svg">
	<symbol id="cart" viewBox="0 0 21 25">
		<path d="M19.1649 6.64773H15.8126V5.34091C15.841 2.38636 13.4263 0 10.5001 0C7.574 0 5.15922 2.38636 5.15922 5.34091V6.64773H1.83536C1.324 6.64773 0.92627 7.04545 0.92627 7.55682V18.0398C0.92627 21.875 4.05127 25 7.8865 25H13.1138C16.949 25 20.074 21.875 20.074 18.0398V7.55682C20.074 7.04545 19.6763 6.64773 19.1649 6.64773ZM14.0229 6.64773H6.97741V5.34091C6.97741 3.40909 8.53991 1.81818 10.5001 1.81818C12.4604 1.81818 14.0229 3.38068 14.0229 5.34091V6.64773Z"/>
	</symbol>
	<symbol id="arrow" viewBox="0 0 18 18">
		<path d="M17.8535 8.64525L12.7155 3.50728C12.5196 3.31137 12.2054 3.31137 12.0095 3.50728C11.8136 3.70319 11.8136 4.01738 12.0095 4.21329L16.2973 8.50109H0.499011C0.221783 8.50109 0 8.72287 0 9.0001C0 9.27733 0.221783 9.49911 0.499011 9.49911H16.2973L12.0095 13.7869C11.8136 13.9828 11.8136 14.297 12.0095 14.4929C12.1056 14.589 12.235 14.6408 12.3607 14.6408C12.4864 14.6408 12.6157 14.5927 12.7118 14.4929L17.8498 9.35496C18.0494 9.15535 18.0494 8.83746 17.8535 8.64525Z"/>
	</symbol>
	<symbol id="arrowMenu" viewBox="0 0 8 8">
		<path d="M3.99998 6.27995C3.8566 6.27995 3.71324 6.22521 3.60393 6.11595L0.164113 2.67609C-0.0547044 2.45728 -0.0547044 2.1025 0.164113 1.88377C0.382842 1.66504 0.737546 1.66504 0.956381 1.88377L3.99998 4.92755L7.04359 1.88388C7.26241 1.66515 7.61708 1.66515 7.83579 1.88388C8.05471 2.10261 8.05471 2.45738 7.83579 2.6762L4.39602 6.11606C4.28666 6.22533 4.1433 6.27995 3.99998 6.27995Z"/>
	</symbol>
	<symbol id="weight" viewBox="0 0 20 20">
		<path d="M9.61183 0.02857C9.31796 0.0918353 9.0751 0.222448 8.87714 0.42857C8.60775 0.706121 8.50979 0.993876 8.50979 1.50408V1.7551H5.87714H3.24449V2.1C3.24449 2.37959 3.25062 2.44694 3.27306 2.45306C3.29347 2.45714 2.79756 3.45714 1.64858 5.72857C0.740415 7.52857 0.00368107 9.00816 0.00980351 9.02041C0.0179668 9.03265 0.168987 9.04082 0.397558 9.04082C0.766945 9.04082 0.775109 9.04082 0.80368 8.99388C0.817966 8.96939 1.50776 7.60816 2.33633 5.96939C3.1649 4.33061 3.84857 2.98163 3.85878 2.97143C3.86694 2.96122 4.55878 4.32245 5.39551 5.99796L6.91796 9.04082H7.31592H7.71388L6.07102 5.7551C5.16694 3.94898 4.42817 2.4653 4.42817 2.45918C4.42817 2.45306 5.46082 2.44898 6.72408 2.44898H9.02V10.0388C9.02 17.251 9.01796 17.6306 8.9853 17.6408C8.87714 17.6735 3.26082 19.2653 3.25266 19.2653C3.24858 19.2653 3.24449 19.4306 3.24449 19.6327V20H9.97918H16.7139V19.6367V19.2735L13.8118 18.4796C12.2139 18.0449 10.8649 17.6755 10.8118 17.6592L10.7139 17.6306V10.0408V2.44898H13.1526H15.5914L15.4465 2.73877C15.3669 2.9 14.622 4.37347 13.7914 6.01428C12.9628 7.65714 12.2894 9.00816 12.2955 9.02041C12.3159 9.05306 13.0506 9.04694 13.0751 9.01428C13.0873 9.00204 13.7833 7.63265 14.6241 5.97347C16.0669 3.12041 16.1526 2.95918 16.1833 2.99796C16.1996 3.02245 16.8894 4.38979 17.7139 6.04082L19.2139 9.04082H19.6057H19.9975L18.3547 5.74286L16.7139 2.4449V2.1V1.7551H13.9914H11.269L11.2608 1.40204C11.2526 1.11428 11.2424 1.03061 11.2077 0.932652C11.0465 0.487754 10.7465 0.202039 10.2955 0.0632639C10.1118 0.00612103 9.79551 -0.0102055 9.61183 0.02857Z"/>
		<path d="M0 10.0245C0.00204082 11.3694 0.830612 12.6347 2.11224 13.247C3.46327 13.8919 5.10408 13.7327 6.26939 12.8449C6.46939 12.6919 6.7898 12.3755 6.94898 12.1735C7.42041 11.5755 7.66735 10.9102 7.70816 10.1266L7.72041 9.8776H3.86122H0V10.0245Z"/>
		<path d="M12.2852 10.0469C12.2852 10.6755 12.4994 11.3653 12.8709 11.9286C13.626 13.0735 14.9852 13.7265 16.4199 13.6306C17.4178 13.5653 18.328 13.1429 19.0015 12.4327C19.2607 12.1592 19.4423 11.902 19.6117 11.5612C19.7648 11.2531 19.8485 11.0204 19.9158 10.7102C19.9607 10.498 20.0056 10.0041 19.9872 9.92653L19.975 9.87755H16.1301H12.2852V10.0469Z"/>
	</symbol>
	<symbol id="plus" viewBox="0 0 18 18">
		<path d="M8.07188 0.0224226C7.79203 0.0814851 7.55297 0.30086 7.45594 0.583516L7.41797 0.696016L7.41375 4.05273L7.41094 7.41086H4.09781C0.414844 7.41086 0.673594 7.40383 0.464063 7.50648C0.317813 7.5768 0.165938 7.72867 0.0942188 7.87633C0.00140625 8.06477 0 8.08164 0 8.99992C0 9.91539 0.0028125 9.93648 0.0928125 10.1179C0.189844 10.3162 0.355781 10.4596 0.576563 10.5384L0.696094 10.582L4.05281 10.5862L7.41094 10.589L7.41375 13.9471L7.41797 17.3038L7.45734 17.4163C7.56 17.706 7.79344 17.9184 8.08031 17.9788C8.22234 18.0084 9.77766 18.0084 9.91969 17.9788C10.2066 17.9184 10.44 17.706 10.5427 17.4163L10.582 17.3038L10.5863 13.9471L10.5891 10.589L13.9472 10.5862L17.3039 10.582L17.4234 10.5384C17.6442 10.4596 17.8102 10.3162 17.9072 10.1179C17.9972 9.93648 18 9.91539 18 8.99992C18 8.08164 17.9986 8.06477 17.9058 7.87633C17.8341 7.72867 17.6822 7.5768 17.5359 7.50648C17.3264 7.40383 17.5852 7.41086 13.9022 7.41086H10.5891L10.5863 4.05273L10.582 0.696016L10.5441 0.583516C10.4456 0.298048 10.2066 0.0814851 9.92109 0.0210164C9.78047 -0.00851485 8.20969 -0.0071086 8.07188 0.0224226Z"/>
	</symbol>
	<symbol id="whatsapp" viewBox="0 0 30 30">
		<path d="M16.6624 22.5953C21.7249 23.8003 23.5062 19.4703 22.6137 17.8541C22.2562 17.2091 19.0437 15.9703 18.8874 15.9103C17.5074 15.4078 16.9974 16.3453 16.0412 17.5791C14.2049 16.6603 12.9737 15.9366 11.7087 13.8791C11.7799 13.7903 11.8749 13.6853 11.9462 13.6053C12.3887 13.1103 13.2174 12.1878 12.6524 11.0591C12.1774 10.1128 11.9412 9.45281 11.7674 8.96906C11.2637 7.56781 10.8799 7.18781 9.14494 7.18781C7.33869 7.18781 5.93744 9.56156 5.93744 11.6053C5.93744 16.0666 11.9349 21.4666 16.6624 22.5953ZM9.14494 9.06281C9.51994 9.06281 9.70994 9.0753 9.80494 9.0903C10.0074 9.51905 10.2124 10.4141 10.9674 11.8066C10.8499 12.2453 9.18119 13.2741 9.95494 14.6041C11.5362 17.2891 13.1187 18.2203 15.3862 19.3478C16.8962 20.0303 17.3787 18.7941 18.3362 17.7078C18.7799 17.8878 20.2774 18.5503 20.9349 18.8828C20.8762 20.1778 19.6262 21.3728 17.0974 20.7703C12.7574 19.7341 7.81119 14.8516 7.81119 11.6041C7.81244 10.3691 8.67869 9.06281 9.14494 9.06281V9.06281Z"/>
		<path d="M0.104112 28.8563C-0.0596383 29.4488 0.384112 30.0426 1.00786 30.0426C1.23286 30.0426 0.865362 30.1001 8.31786 28.1676C11.3516 29.7126 13.6579 29.6638 15.1304 29.8026C28.3241 29.8026 34.7866 13.7113 25.7066 4.34882C13.2604 -7.68118 -6.12339 7.26882 1.98786 22.0076L0.104112 28.8563ZM24.2141 5.51632C24.4304 5.91132 30.6329 11.5051 27.1791 19.8638C25.0529 25.0138 20.1466 28.1876 14.6491 27.8901C10.1766 27.6413 9.01911 26.0438 8.19536 26.2626L2.34161 27.7876L3.89786 22.1326C3.96536 21.8901 3.93161 21.6313 3.80661 21.4138C-3.67214 8.50882 13.2391 -4.75993 24.2141 5.51632Z"/>
	</symbol>
	<symbol id="telegram" viewBox="0 0 22 22">
		<path d="M21.6603 3.52583C21.3916 3.26291 20.9891 3.11816 20.5269 3.11816C20.2756 3.11816 20.0094 3.16046 19.7358 3.24412L1.11319 8.93116C0.124912 9.23289 -0.00818995 9.68567 0.000370223 9.92871C0.00893039 10.1718 0.173923 10.6178 1.18201 10.8744C1.18805 10.8759 1.1941 10.8774 1.20014 10.8787L5.06296 11.7631L7.15198 16.542C7.43682 17.1935 8.07615 17.5982 8.82072 17.5982C9.29018 17.5982 9.75193 17.4409 10.1561 17.1433L12.5454 15.3834L16.011 17.6156C16.0112 17.616 16.0117 17.6161 16.0121 17.6164L16.045 17.6375C16.048 17.6395 16.0512 17.6414 16.0543 17.6434C16.4395 17.8823 16.8599 18.0086 17.2706 18.0087H17.2707C18.0732 18.0087 18.7122 17.5335 18.8984 16.7982L21.9496 4.74494C22.0722 4.26113 21.9694 3.82822 21.6603 3.52583ZM6.35521 11.5951L13.8078 8.54927L9.16731 12.4939C9.09128 12.5585 9.0374 12.6376 9.01088 12.7237L8.11609 15.6233L6.35521 11.5951ZM9.2828 16.3846C9.25192 16.4074 9.22086 16.4276 9.1898 16.4462L10.02 13.7564L11.5301 14.7293L9.2828 16.3846ZM20.6864 4.54017L17.635 16.5936C17.6056 16.7089 17.5118 16.9773 17.2706 16.9773C17.1514 16.9773 17.0017 16.9253 16.8485 16.831L12.9216 14.3015C12.9211 14.3011 12.9204 14.3006 12.9197 14.3004L10.5831 12.7951L17.2938 7.09063C17.5086 6.908 17.5281 6.62831 17.3399 6.42769C17.1516 6.22709 16.8104 6.16397 16.5313 6.27812L5.49399 10.789L1.57863 9.89286L20.1955 4.20756C20.3528 4.15948 20.4626 4.14941 20.5269 4.14941C20.5663 4.14941 20.6365 4.15317 20.6625 4.17882C20.6967 4.21226 20.7404 4.32625 20.6864 4.54017Z"/>
	</symbol>
	<symbol id="vk" viewBox="0 0 30 30">
		<path d="M15.1811 24C19.521 24 17.9736 21.3624 18.3085 20.604C18.3035 20.0376 18.2985 19.4928 18.3185 19.1616C18.5935 19.236 19.2423 19.5516 20.5823 20.802C22.651 22.806 23.1797 24 24.851 24H27.9272C28.9022 24 29.4097 23.6124 29.6634 23.2872C29.9084 22.9728 30.1484 22.4208 29.8859 21.5616C29.1997 19.4928 25.1972 15.9204 24.9485 15.5436C24.986 15.474 25.046 15.3816 25.0772 15.3336H25.0747C25.8647 14.3316 28.8797 9.9948 29.3234 8.2596C29.3247 8.2572 29.3259 8.2536 29.3259 8.25C29.5659 7.458 29.3459 6.9444 29.1184 6.654C28.7759 6.2196 28.2309 6 27.4947 6H24.4185C23.3885 6 22.6073 6.498 22.2123 7.4064C21.551 9.0204 19.6935 12.3396 18.301 13.5144C18.2585 11.85 18.2873 10.5792 18.3098 9.6348C18.3548 7.7928 18.4998 6 16.5086 6H11.6736C10.4261 6 9.2324 7.308 10.5249 8.8608C11.6549 10.2216 10.9311 10.98 11.1749 14.7552C10.2249 13.7772 8.53491 11.136 7.33992 7.7604C7.00492 6.8472 6.49743 6.0012 5.06869 6.0012H1.99248C0.744992 6.0012 0 6.654 0 7.7472C0 10.2024 5.66119 24 15.1811 24V24ZM5.06869 7.8012C5.33994 7.8012 5.36744 7.8012 5.56869 8.3496C6.79243 11.8092 9.5374 16.9284 11.5424 16.9284C13.0486 16.9284 13.0486 15.4464 13.0486 14.8884L13.0474 10.446C12.9649 8.976 12.4074 8.244 12.0411 7.8L16.4261 7.8048C16.4286 7.8252 16.4011 12.7188 16.4386 13.9044C16.4386 15.588 17.8311 16.5528 20.0048 14.4408C22.2985 11.9556 23.8847 8.2404 23.9485 8.0892C24.0422 7.8732 24.1235 7.8 24.4185 7.8H27.4947H27.5072C27.5059 7.8036 27.5059 7.8072 27.5047 7.8108C27.2235 9.0708 24.4472 13.086 23.5185 14.3328C23.5035 14.352 23.4897 14.3724 23.476 14.3928C23.0672 15.0336 22.7348 15.7416 23.5322 16.7376H23.5335C23.606 16.8216 23.7947 17.0184 24.0697 17.292C24.9247 18.1392 27.8572 21.036 28.1172 22.188C27.9447 22.2144 27.7572 22.1952 24.851 22.2012C24.2322 22.2012 23.7485 21.3132 21.9023 19.5252C20.2423 17.9748 19.1648 17.3412 18.1836 17.3412C16.2786 17.3412 16.4173 18.8256 16.4348 20.6208C16.4411 22.5672 16.4286 21.9516 16.4423 22.074C16.3311 22.116 16.0123 22.2 15.1811 22.2C7.24992 22.2 2.08498 10.1148 1.88623 7.8048C1.95498 7.7988 2.90122 7.8024 5.06869 7.8012V7.8012Z"/>
	</symbol>
	<symbol id="arrowMore" viewBox="0 0 6 10">
		<path d="M5.5865 4.72558L0.961201 0.113083C0.809659 -0.0379512 0.564308 -0.0376973 0.41302 0.113865C0.261849 0.265407 0.262239 0.510894 0.413801 0.662046L4.76378 5.00002L0.413645 9.33797C0.262103 9.48914 0.261712 9.73447 0.412864 9.88603C0.488703 9.96201 0.588058 10 0.687414 10C0.786515 10 0.885479 9.96226 0.961182 9.88681L5.5865 5.27443C5.65948 5.20181 5.70044 5.10299 5.70044 5.00002C5.70044 4.89705 5.65937 4.79834 5.5865 4.72558Z"/>
	</symbol>
	<symbol id="cartDel" viewBox="0 0 20 20">
		<path d="M13.8564 13.6768L5.70081 5.58215L6.14109 5.13855L14.2967 13.2332L13.8564 13.6768Z"/>
		<path d="M14.2677 5.55014L6.17333 13.7055L5.72974 13.2652L13.8241 5.10986L14.2677 5.55014Z"/>
		<path d="M10.0001 0.625366C4.82256 0.625366 0.625366 4.82256 0.625366 10.0001C0.625366 15.1776 4.82256 19.3747 10.0001 19.3747C15.1776 19.3747 19.3747 15.1776 19.3747 10.0001C19.3747 4.82256 15.1776 0.625366 10.0001 0.625366ZM0.000366211 10.0001C0.000366211 4.47738 4.47738 0.000366211 10.0001 0.000366211C15.5227 0.000366211 19.9997 4.47738 19.9997 10.0001C19.9997 15.5227 15.5227 19.9997 10.0001 19.9997C4.47738 19.9997 0.000366211 15.5227 0.000366211 10.0001Z"/>
	</symbol>
	<symbol id="search" viewBox="0 0 18 18">
		<path d="M7.92682 0C3.55609 0 0 3.55609 0 7.92682C0 12.2978 3.55609 15.8536 7.92682 15.8536C12.2978 15.8536 15.8536 12.2978 15.8536 7.92682C15.8536 3.55609 12.2978 0 7.92682 0ZM7.92682 14.3903C4.36293 14.3903 1.46341 11.4908 1.46341 7.92686C1.46341 4.36296 4.36293 1.46341 7.92682 1.46341C11.4907 1.46341 14.3902 4.36293 14.3902 7.92682C14.3902 11.4907 11.4907 14.3903 7.92682 14.3903Z"/>
		<path d="M17.7855 16.7511L13.5904 12.5559C13.3046 12.2701 12.8416 12.2701 12.5558 12.5559C12.2699 12.8416 12.2699 13.305 12.5558 13.5906L16.7509 17.7857C16.8938 17.9286 17.0809 18.0001 17.2682 18.0001C17.4553 18.0001 17.6426 17.9286 17.7855 17.7857C18.0714 17.5001 18.0714 17.0367 17.7855 16.7511Z"/>
	</symbol>
	<symbol id="price" viewBox="0 0 24 24">
		<path d="M4 8C4.55228 8 5 7.55228 5 7C5 6.44772 4.55228 6 4 6C3.44772 6 3 6.44772 3 7C3 7.55228 3.44772 8 4 8Z"/>
		<path d="M4 13C4.55228 13 5 12.5523 5 12C5 11.4477 4.55228 11 4 11C3.44772 11 3 11.4477 3 12C3 12.5523 3.44772 13 4 13Z"/>
		<path d="M4 18C4.55228 18 5 17.5523 5 17C5 16.4477 4.55228 16 4 16C3.44772 16 3 16.4477 3 17C3 17.5523 3.44772 18 4 18Z"/>
		<path d="M20.06 11H7.94C7.42085 11 7 11.4209 7 11.94V12.06C7 12.5791 7.42085 13 7.94 13H20.06C20.5791 13 21 12.5791 21 12.06V11.94C21 11.4209 20.5791 11 20.06 11Z"/>
		<path d="M20.06 16H7.94C7.42085 16 7 16.4209 7 16.94V17.06C7 17.5791 7.42085 18 7.94 18H20.06C20.5791 18 21 17.5791 21 17.06V16.94C21 16.4209 20.5791 16 20.06 16Z"/>
		<path d="M20.06 6H7.94C7.42085 6 7 6.42085 7 6.94V7.06C7 7.57915 7.42085 8 7.94 8H20.06C20.5791 8 21 7.57915 21 7.06V6.94C21 6.42085 20.5791 6 20.06 6Z"/>
	</symbol>
	<symbol id="mail" viewBox="0 0 51 32">
		<path d="M1.00018 0H47.9896V24.1474C47.9896 26.6704 45.9443 28.7158 43.4213 28.7158H5.5686C3.04553 28.7158 1.00018 26.6704 1.00018 24.1474V0ZM2.30544 1.30526V24.1474C2.30544 25.9496 3.76642 27.4106 5.5686 27.4106H43.4213C45.2234 27.4106 46.6844 25.9496 46.6844 24.1474V1.30526H2.30544Z"/>
		<path d="M24.8165 14.5691L1.66696 0.422108L0.986328 1.53586L24.8262 16.1047L48.0108 1.53153L47.3162 0.426445L24.8165 14.5691Z"/>
		<path d="M49.2949 26.4316V8.81053H50.6002V26.4316C50.6002 29.3151 48.2627 31.6526 45.3792 31.6526H28.0845V30.3473H45.3792C47.5418 30.3473 49.2949 28.5942 49.2949 26.4316Z"/>
	</symbol>
	<symbol id="phone" viewBox="0 0 24 24">
		<path d="M7 4V20H17V4H7ZM6 2H18C18.2652 2 18.5196 2.10536 18.7071 2.29289C18.8946 2.48043 19 2.73478 19 3V21C19 21.2652 18.8946 21.5196 18.7071 21.7071C18.5196 21.8946 18.2652 22 18 22H6C5.73478 22 5.48043 21.8946 5.29289 21.7071C5.10536 21.5196 5 21.2652 5 21V3C5 2.73478 5.10536 2.48043 5.29289 2.29289C5.48043 2.10536 5.73478 2 6 2ZM12 17C12.2652 17 12.5196 17.1054 12.7071 17.2929C12.8946 17.4804 13 17.7348 13 18C13 18.2652 12.8946 18.5196 12.7071 18.7071C12.5196 18.8946 12.2652 19 12 19C11.7348 19 11.4804 18.8946 11.2929 18.7071C11.1054 18.5196 11 18.2652 11 18C11 17.7348 11.1054 17.4804 11.2929 17.2929C11.4804 17.1054 11.7348 17 12 17Z"/>
	</symbol>
	<symbol id="place" viewBox="0 0 24 24">
		<path d="M12 23.7279L5.636 17.3639C4.37734 16.1052 3.52019 14.5016 3.17293 12.7558C2.82567 11.0099 3.00391 9.20035 3.6851 7.55582C4.36629 5.91129 5.51984 4.50569 6.99988 3.51677C8.47992 2.52784 10.22 2 12 2C13.78 2 15.5201 2.52784 17.0001 3.51677C18.4802 4.50569 19.6337 5.91129 20.3149 7.55582C20.9961 9.20035 21.1743 11.0099 20.8271 12.7558C20.4798 14.5016 19.6227 16.1052 18.364 17.3639L12 23.7279ZM16.95 15.9499C17.9289 14.9709 18.5955 13.7236 18.8656 12.3658C19.1356 11.0079 18.9969 9.60052 18.4671 8.32148C17.9373 7.04244 17.04 5.94923 15.8889 5.18009C14.7378 4.41095 13.3844 4.00043 12 4.00043C10.6156 4.00043 9.26222 4.41095 8.11109 5.18009C6.95996 5.94923 6.06275 7.04244 5.53292 8.32148C5.00308 9.60052 4.86442 11.0079 5.13445 12.3658C5.40449 13.7236 6.07111 14.9709 7.05 15.9499L12 20.8999L16.95 15.9499ZM12 12.9999C11.4696 12.9999 10.9609 12.7892 10.5858 12.4141C10.2107 12.0391 10 11.5304 10 10.9999C10 10.4695 10.2107 9.96078 10.5858 9.58571C10.9609 9.21064 11.4696 8.99992 12 8.99992C12.5304 8.99992 13.0391 9.21064 13.4142 9.58571C13.7893 9.96078 14 10.4695 14 10.9999C14 11.5304 13.7893 12.0391 13.4142 12.4141C13.0391 12.7892 12.5304 12.9999 12 12.9999Z"/>
	</symbol>
	<symbol id="clock" viewBox="0 0 24 24">
		<path d="M12 22C6.477 22 2 17.523 2 12C2 6.477 6.477 2 12 2C17.523 2 22 6.477 22 12C22 17.523 17.523 22 12 22ZM12 20C14.1217 20 16.1566 19.1571 17.6569 17.6569C19.1571 16.1566 20 14.1217 20 12C20 9.87827 19.1571 7.84344 17.6569 6.34315C16.1566 4.84285 14.1217 4 12 4C9.87827 4 7.84344 4.84285 6.34315 6.34315C4.84285 7.84344 4 9.87827 4 12C4 14.1217 4.84285 16.1566 6.34315 17.6569C7.84344 19.1571 9.87827 20 12 20ZM13 12H17V14H11V7H13V12Z"/>
	</symbol>
</svg>