<svg width="40" height="40" viewBox="0 0 40 40" fill="none" xmlns="http://www.w3.org/2000/svg">
<path d="M11.5035 13.2498C11.4308 13.3152 11.3784 13.3589 11.3289 13.4084C10.2577 14.481 9.18365 15.5522 8.11684 16.6292C8.0106 16.7369 7.90581 16.7805 7.75591 16.7776C7.36004 16.7674 6.96417 16.7747 6.56831 16.7747C6.5261 16.7747 6.48244 16.7747 6.44751 16.7747C8.73684 14.4825 11.0218 12.1946 13.3155 9.89798C13.5644 10.1396 13.8191 10.387 14.0825 10.6446C14.0447 10.6868 14.0141 10.7232 13.9821 10.7567C13.7754 10.9648 13.5702 11.1744 13.3592 11.3781C12.9604 11.7638 12.7261 12.2339 12.6577 12.7811C12.534 13.7679 12.8672 14.5727 13.6561 15.1796C14.0083 15.4503 14.4158 15.5929 14.8568 15.6526C15.6543 15.7588 16.3296 15.5114 16.8987 14.9598C17.3266 14.5465 17.7443 14.1215 18.1663 13.6995C19.1545 12.7127 20.1413 11.726 21.1281 10.7377C21.9009 9.96348 22.6708 9.1863 23.4407 8.41057C23.4741 8.3771 23.5047 8.33926 23.5484 8.28978C22.3797 7.10945 21.2023 5.95096 20.0409 4.78374C19.9405 4.83468 16.6585 8.09767 16.4984 8.30142C16.5756 8.4164 16.6877 8.50372 16.7852 8.60414C16.8798 8.70311 16.9802 8.79917 17.0777 8.89668C17.1781 8.9971 17.2785 9.09752 17.379 9.19794C17.4794 9.29836 17.5798 9.39879 17.6802 9.49921C17.7777 9.59672 17.8752 9.69423 17.9728 9.79174C18.0732 9.89216 18.1736 9.99259 18.274 10.093C18.3744 10.1934 18.4749 10.2939 18.5753 10.3943C18.6728 10.4918 18.7703 10.5893 18.8678 10.6868C18.9668 10.7872 19.0658 10.8891 19.1778 11.0026C18.9304 11.2719 18.6757 11.5237 18.4152 11.7929C17.2451 10.6155 16.0647 9.46719 14.9528 8.27377C16.6425 6.58406 18.3235 4.90308 20.0147 3.21191C20.0161 3.21191 20.0423 3.22647 20.0642 3.24684C20.1136 3.29196 20.1602 3.33853 20.2082 3.38656C21.8063 4.98313 23.4028 6.57969 25.0009 8.17626C25.0256 8.201 25.0489 8.2272 25.0838 8.26358C25.0474 8.30433 25.0154 8.34508 24.979 8.38147C24.4522 8.92433 23.9297 9.4701 23.3985 10.0071C22.5136 10.9007 21.62 11.7885 20.7322 12.6792C19.7338 13.6805 18.7354 14.6833 17.7384 15.6875C17.2029 16.2275 16.5639 16.5811 15.8173 16.7107C14.5992 16.9217 13.5309 16.6001 12.63 15.7472C12.0231 15.1723 11.6811 14.4592 11.5618 13.6354C11.5487 13.5437 11.5428 13.4491 11.5312 13.3575C11.5283 13.3313 11.5196 13.3065 11.5035 13.2498Z" fill="#5C8C58"/>
<path d="M0.0537109 16.7473C5.63514 11.1688 11.2166 5.59025 16.7965 0.0131836C16.9275 0.103418 19.0582 2.23266 19.1223 2.3389C18.8807 2.58486 18.6347 2.83373 18.3771 3.09425C17.8633 2.5805 17.354 2.07402 16.8402 1.56027C16.8053 1.58501 16.7762 1.60247 16.7514 1.6243C16.7049 1.66651 16.6626 1.71163 16.619 1.75529C12.835 5.53931 9.04949 9.32333 5.26547 13.1088C4.08078 14.2935 2.89609 15.4782 1.71431 16.6658C1.64009 16.74 1.56586 16.7749 1.45816 16.7735C1.0361 16.7677 0.614037 16.7706 0.191973 16.7706C0.149767 16.7706 0.106105 16.7706 0.0638986 16.7706C0.0595325 16.7633 0.0566217 16.756 0.0537109 16.7473Z" fill="#5C8C58"/>
<path d="M23.1654 1.54999C22.6488 2.06666 22.1409 2.57459 21.6431 3.07233C21.3797 2.81764 21.125 2.57313 20.8601 2.31698C21.6358 1.54417 22.4057 0.777179 23.1858 0C28.7774 5.58871 34.3589 11.1658 39.9519 16.7545C39.9214 16.7618 39.8995 16.7705 39.8792 16.7705C39.4164 16.7719 38.955 16.769 38.4922 16.7734C38.418 16.7734 38.3656 16.7487 38.3175 16.6977C38.2157 16.5915 38.1109 16.4896 38.0075 16.3863C36.9859 15.3646 35.9642 14.3429 34.9425 13.3212C31.0799 9.45714 27.2158 5.59162 23.3532 1.72755C23.295 1.67079 23.2368 1.61694 23.1654 1.54999Z" fill="#5C8C58"/>
<path d="M33.5976 16.7717C33.5233 16.7717 33.4797 16.7717 33.436 16.7717C33.0227 16.7717 32.6094 16.7673 32.196 16.7746C32.084 16.7761 32.0054 16.7411 31.9282 16.6625C30.8396 15.5695 29.7481 14.4795 28.6565 13.3894C28.6143 13.3472 28.5663 13.3093 28.4979 13.2497C28.4804 13.3413 28.4644 13.4039 28.4586 13.4665C28.3931 14.1942 28.1457 14.8506 27.6799 15.4167C27.1153 16.1037 26.4007 16.5592 25.5201 16.7106C24.3136 16.9202 23.2454 16.6087 22.3518 15.7646C21.8482 15.2887 21.3694 14.7851 20.8804 14.2932C20.8629 14.2757 20.8483 14.2524 20.8396 14.2408C21.0957 13.9846 21.3461 13.7343 21.608 13.4723C21.6328 13.4942 21.6677 13.5262 21.6997 13.5582C22.1538 14.0094 22.605 14.4634 23.0591 14.9146C23.3894 15.2435 23.7708 15.4895 24.2278 15.6016C25.4954 15.913 26.9886 15.1955 27.3175 13.6717C27.4718 12.9542 27.335 12.2847 26.91 11.6822C26.8344 11.5745 26.7398 11.477 26.6466 11.3824C26.4298 11.1597 26.2085 10.9414 25.9888 10.7202C25.9699 10.7013 25.9538 10.6794 25.9378 10.6605C25.9786 10.5761 26.5404 10.0129 26.7092 9.8877C28.9985 12.1727 31.285 14.4591 33.5976 16.7717Z" fill="#5C8C58"/>
<path d="M0.83685 22.4771C0.554504 22.3956 0.279435 22.3141 0 22.234C0 22.1074 0 21.9895 0 21.8629C0.0436618 21.86 0.0829574 21.8556 0.122253 21.8556C1.11774 21.8556 2.11323 21.8542 3.10872 21.8556C3.40271 21.8556 3.69379 21.8876 3.97468 21.9822C4.04599 22.0055 4.1173 22.0317 4.18571 22.0652C4.71256 22.317 4.97744 22.7332 4.96725 23.3183C4.95852 23.8131 4.72857 24.1959 4.33416 24.4768C4.17698 24.5889 3.99651 24.6674 3.82186 24.7635C3.84806 24.7708 3.88299 24.781 3.91792 24.7882C4.29486 24.8668 4.63834 25.0138 4.91632 25.2889C5.24087 25.6076 5.37622 26.002 5.34711 26.4503C5.29908 27.2115 4.88138 27.7034 4.19444 27.9872C3.90336 28.1065 3.59773 28.1589 3.28337 28.1589C2.22093 28.1604 1.15849 28.1589 0.0960559 28.1589C0.0698588 28.1589 0.0436613 28.156 0.00582115 28.1531C0.00582115 28.0352 0.00582115 27.9173 0.00582115 27.7849C0.277979 27.7048 0.557415 27.6233 0.838306 27.5418C0.83685 25.8507 0.83685 24.1712 0.83685 22.4771ZM1.95605 27.5302C1.97642 27.5389 1.98515 27.5448 1.99243 27.5448C2.39121 27.5418 2.7929 27.5564 3.19022 27.5287C3.6967 27.4938 4.0489 27.1664 4.15223 26.6773C4.1959 26.4721 4.19881 26.264 4.16388 26.0559C4.07364 25.5218 3.69379 25.0982 3.0636 25.1041C2.73032 25.107 2.39703 25.1041 2.0652 25.1055C2.03173 25.1055 1.9968 25.1099 1.9575 25.1143C1.95605 25.9234 1.95605 26.7254 1.95605 27.5302ZM1.95605 24.487C1.99243 24.4899 2.01863 24.4928 2.04483 24.4928C2.34755 24.4928 2.64881 24.4957 2.95154 24.4928C3.35905 24.4884 3.67487 24.2599 3.81167 23.8757C3.89317 23.6501 3.91355 23.4158 3.88444 23.18C3.84078 22.8176 3.6443 22.6052 3.28773 22.5178C3.2528 22.5091 3.21933 22.4989 3.1844 22.4945C2.78125 22.4451 2.37811 22.4669 1.97351 22.4727C1.9706 22.4727 1.96769 22.4785 1.95605 22.4873C1.95605 23.1436 1.95605 23.8088 1.95605 24.487Z" fill="black"/>
<path d="M21.1993 24.1786C21.1993 24.0709 21.1993 23.9792 21.1993 23.8787C21.387 23.8453 21.569 23.8103 21.7524 23.7798C22.0944 23.7216 22.4349 23.6633 22.777 23.6051C22.9152 23.5818 22.9967 23.6488 22.9982 23.7885C22.9996 24.18 22.9982 24.5715 22.9982 24.9616C22.9982 25.7577 22.9982 26.5523 22.9982 27.3484C22.9982 27.3964 22.9982 27.4459 22.9982 27.5085C23.2572 27.5609 23.5119 27.6133 23.7724 27.6657C23.7724 27.7719 23.7724 27.8709 23.7724 27.9771C23.4595 28.0339 23.1539 28.0892 22.8497 28.1445C22.6838 28.1736 22.5179 28.2042 22.3505 28.2318C22.2297 28.2522 22.1351 28.1853 22.1133 28.0645C22.0915 27.9437 22.0696 27.8214 22.0449 27.6788C21.9939 27.7093 21.9532 27.7326 21.9139 27.7574C21.5893 27.964 21.2488 28.1329 20.8689 28.21C20.6259 28.2595 20.3843 28.2682 20.1427 28.2042C19.8458 28.1256 19.6144 27.9597 19.4441 27.705C19.4252 27.6759 19.4048 27.6468 19.3786 27.6045C19.332 27.6351 19.2898 27.6642 19.2462 27.6933C18.9289 27.9102 18.5942 28.0906 18.2187 28.1867C17.9567 28.2537 17.6933 28.2769 17.4269 28.2158C16.9306 28.1023 16.5741 27.7181 16.4867 27.1898C16.4635 27.0457 16.4547 26.8987 16.4547 26.7517C16.4518 26.0007 16.4533 25.2497 16.4533 24.4987C16.4533 24.4507 16.4533 24.4012 16.4533 24.3372C16.1971 24.2833 15.9424 24.231 15.6863 24.1786C15.6863 24.0752 15.6863 23.9835 15.6863 23.8787C15.81 23.8569 15.9308 23.8351 16.053 23.8133C16.4373 23.7463 16.8229 23.6779 17.2086 23.6124C17.4313 23.5746 17.4895 23.6255 17.4895 23.8482C17.4895 24.7549 17.4895 25.6616 17.4895 26.5683C17.4895 26.759 17.4924 26.9511 17.5463 27.1359C17.5623 27.1912 17.5812 27.2465 17.6045 27.2989C17.702 27.5143 17.8752 27.6249 18.1066 27.6351C18.2027 27.6395 18.3031 27.6307 18.3977 27.6118C18.7062 27.5507 18.9857 27.4183 19.2491 27.2392C19.185 26.9409 19.2083 26.6425 19.2069 26.3456C19.204 25.7271 19.2069 25.11 19.2069 24.4915C19.2069 24.4434 19.2069 24.3954 19.2069 24.3357C18.9493 24.2833 18.6989 24.2324 18.4428 24.18C18.4428 24.081 18.4428 23.9894 18.4428 23.8802C18.5723 23.8569 18.7062 23.8307 18.8401 23.8074C19.2302 23.7405 19.6187 23.6735 20.0088 23.608C20.1689 23.5804 20.2446 23.6473 20.2446 23.8147C20.2446 24.7622 20.2417 25.7082 20.2475 26.6556C20.2489 26.8143 20.278 26.9729 20.2999 27.1315C20.3086 27.1869 20.3319 27.2422 20.3552 27.2945C20.4541 27.5143 20.6288 27.6307 20.8675 27.6366C20.981 27.6395 21.0989 27.6249 21.2109 27.6016C21.4511 27.5492 21.6723 27.4445 21.8833 27.3193C21.9328 27.2902 21.9605 27.2567 21.9605 27.1941C21.9576 26.2569 21.959 25.3181 21.9576 24.3809C21.9576 24.3721 21.9547 24.3634 21.9488 24.3357C21.7087 24.2848 21.4584 24.2324 21.1993 24.1786Z" fill="black"/>
<path d="M19.8645 35.896C19.8572 36.4621 19.799 37.0166 19.6054 37.5507C19.4817 37.8928 19.3085 38.2057 19.0553 38.4705C18.6259 38.9203 18.0875 39.1138 17.4762 39.1284C17.172 39.1357 16.8737 39.0993 16.5855 38.9959C16.0426 38.8024 15.6599 38.4298 15.3979 37.9248C15.216 37.574 15.1068 37.2 15.05 36.8114C14.9482 36.1114 14.954 35.4128 15.0981 34.7171C15.1548 34.4464 15.2378 34.1844 15.3586 33.9355C15.7938 33.0419 16.5156 32.6228 17.5024 32.6475C18.1049 32.6635 18.6318 32.8615 19.0553 33.3039C19.3274 33.5892 19.5065 33.9283 19.6316 34.2994C19.8063 34.8175 19.8587 35.3545 19.8645 35.896ZM18.7235 35.8989C18.6973 35.5714 18.6813 35.2425 18.6405 34.9165C18.5939 34.541 18.4993 34.1742 18.3232 33.8351C18.2344 33.6634 18.1253 33.5077 17.9768 33.3825C17.6261 33.087 17.1604 33.1016 16.8271 33.4174C16.6757 33.5601 16.568 33.7332 16.4822 33.9195C16.3221 34.2659 16.2391 34.6341 16.1911 35.0096C16.1168 35.5903 16.1154 36.171 16.1896 36.7517C16.2347 37.1098 16.3133 37.4605 16.4574 37.7938C16.5506 38.0077 16.667 38.2057 16.8431 38.3643C17.0745 38.5739 17.3423 38.6466 17.6465 38.5666C17.8662 38.5084 18.0351 38.3759 18.1719 38.1984C18.3349 37.9874 18.4367 37.7472 18.511 37.494C18.6652 36.9759 18.706 36.4403 18.7235 35.8989Z" fill="black"/>
<path d="M11.0915 24.3253C10.8383 24.2743 10.5865 24.2234 10.3303 24.171C10.3303 24.0691 10.3303 23.9731 10.3303 23.8668C10.3769 23.8552 10.422 23.8421 10.4686 23.8333C10.8965 23.7562 11.3258 23.6805 11.7537 23.6048C11.8658 23.5845 11.9604 23.647 11.9866 23.7606C12.004 23.8377 12.0142 23.9177 12.0302 23.9963C12.039 24.0429 12.0506 24.0895 12.0622 24.1477C12.1205 24.1084 12.1685 24.0778 12.2165 24.0458C12.4974 23.8624 12.7928 23.7111 13.1218 23.6369C13.9761 23.4418 14.8042 23.8406 15.1811 24.6323C15.4067 25.1068 15.4664 25.6089 15.43 26.127C15.4024 26.5229 15.2947 26.8955 15.0764 27.2317C14.7489 27.7352 14.2803 28.0336 13.7039 28.1704C13.2076 28.2883 12.7172 28.2636 12.2383 28.0743C12.2107 28.0627 12.1816 28.0569 12.1437 28.0452C12.1437 28.6216 12.1437 29.1892 12.1437 29.7684C12.4275 29.847 12.7128 29.9242 13.0039 30.0042C13.0039 30.1119 13.0039 30.2123 13.0039 30.3127C12.9122 30.3404 10.6025 30.3506 10.3798 30.3229C10.3798 30.2196 10.3798 30.1163 10.3798 30.0027C10.6156 29.9256 10.8514 29.8499 11.0929 29.7713C11.0915 27.9565 11.0915 26.146 11.0915 24.3253ZM12.1379 27.5257C12.4072 27.6363 12.675 27.7149 12.9573 27.7192C13.3459 27.7251 13.6632 27.5722 13.912 27.2739C14.0387 27.1225 14.1289 26.9493 14.1929 26.763C14.3559 26.2842 14.3618 25.7967 14.2803 25.3033C14.2381 25.0515 14.1595 24.8114 14.0066 24.6032C13.7709 24.2816 13.4521 24.1462 13.0563 24.1885C12.7681 24.2205 12.5105 24.3354 12.2573 24.4679C12.1685 24.5145 12.1336 24.5698 12.135 24.676C12.1408 25.5813 12.1379 26.488 12.1379 27.3932C12.1379 27.434 12.1379 27.4733 12.1379 27.5257Z" fill="black"/>
<path d="M30.5414 24.333C30.2853 24.2806 30.0335 24.2296 29.7788 24.1787C29.7788 24.0753 29.7788 23.9837 29.7788 23.8803C29.9156 23.8556 30.0495 23.8294 30.1834 23.8061C30.5735 23.7392 30.962 23.6722 31.3521 23.6067C31.5093 23.5805 31.5893 23.6504 31.5893 23.8134C31.5893 24.3242 31.5893 24.8365 31.5893 25.3474C31.5893 25.3954 31.5893 25.4434 31.5893 25.5002C32.2224 25.5002 32.841 25.5002 33.4668 25.5002C33.4668 25.1116 33.4668 24.7317 33.4668 24.3359C33.215 24.2849 32.9603 24.2325 32.7027 24.1801C32.7027 24.0783 32.7027 23.9851 32.7027 23.8861C32.7333 23.8774 32.7609 23.8658 32.7915 23.8614C33.295 23.7741 33.7986 23.6882 34.3007 23.6023C34.4113 23.5834 34.5103 23.6649 34.5103 23.777C34.5117 24.1234 34.5103 24.4698 34.5103 24.8176C34.5103 25.6894 34.5103 26.5597 34.5103 27.4315C34.5103 27.4839 34.5103 27.5363 34.5103 27.5945C34.7563 27.6745 34.9906 27.7517 35.2322 27.8288C35.2322 27.9336 35.2322 28.034 35.2322 28.1344C35.1405 28.1635 33.0069 28.1737 32.8046 28.1446C32.8046 28.0457 32.8046 27.9467 32.8046 27.8288C33.0156 27.7546 33.2368 27.676 33.4639 27.5959C33.4639 27.0836 33.4639 26.5757 33.4639 26.0663C33.3634 26.0401 31.7392 26.0358 31.5966 26.0634C31.5937 26.0998 31.5893 26.1391 31.5893 26.1769C31.5893 26.6077 31.5893 27.04 31.5893 27.4708C31.5893 27.5945 31.5908 27.5945 31.7116 27.6367C31.8906 27.7007 32.0711 27.7633 32.2544 27.8273C32.2544 27.9336 32.2544 28.034 32.2544 28.133C32.1482 28.1621 29.9607 28.165 29.8268 28.1359C29.8268 28.0369 29.8268 27.9365 29.8268 27.8273C30.0626 27.7502 30.2984 27.6745 30.5312 27.5988C30.5604 27.4984 30.5691 24.5251 30.5414 24.333Z" fill="black"/>
<path d="M21.5994 36.0092C21.5994 35.8549 21.5994 35.7094 21.5994 35.558C21.7217 35.5333 21.8381 35.51 21.9531 35.4838C22.2093 35.4256 22.4567 35.3397 22.6881 35.2146C22.8613 35.1214 23.0185 35.0064 23.1524 34.8609C23.3663 34.6295 23.4842 34.3573 23.4929 34.043C23.506 33.5933 23.2091 33.2454 22.7638 33.1872C22.4145 33.1406 22.0841 33.2207 21.7625 33.3458C21.7013 33.3691 21.6926 33.4172 21.6795 33.4695C21.5762 33.8916 21.4714 34.3151 21.368 34.7372C21.3579 34.7809 21.3448 34.8231 21.3317 34.8755C21.173 34.8755 21.0158 34.8755 20.8601 34.8755C20.8325 34.7736 20.8252 33.1668 20.8514 32.9733C21.0377 32.918 21.2312 32.8554 21.4292 32.8059C21.9502 32.6764 22.4785 32.6167 23.0141 32.656C23.3823 32.6822 23.7331 32.771 24.0474 32.9718C24.3734 33.1799 24.5786 33.4681 24.615 33.8581C24.6441 34.1725 24.5757 34.4679 24.4142 34.7401C24.2395 35.0341 23.9907 35.2524 23.7039 35.43C23.6588 35.4576 23.6152 35.4853 23.557 35.5217C23.6064 35.5391 23.6428 35.5522 23.6778 35.5624C23.8742 35.6221 24.062 35.7007 24.2337 35.8142C24.7751 36.1678 24.9949 36.6743 24.925 37.3103C24.8464 38.0235 24.4651 38.5401 23.8277 38.8414C22.9122 39.2737 22.0026 39.2373 21.1294 38.7075C20.8441 38.5343 20.6171 38.2985 20.4468 37.9915C20.6651 37.8008 20.8805 37.6116 21.1046 37.4151C21.1308 37.4661 21.1497 37.5039 21.1687 37.5417C21.3011 37.8241 21.483 38.0686 21.729 38.2607C22.0332 38.4979 22.3752 38.6085 22.7623 38.5576C23.1655 38.5052 23.4551 38.2869 23.6254 37.9245C23.8335 37.4835 23.8524 37.0222 23.6996 36.5608C23.5744 36.1824 23.2993 35.9495 22.9209 35.8404C22.87 35.8258 22.806 35.8331 22.7536 35.8477C22.461 35.9277 22.1641 35.983 21.8629 36.0078C21.7799 36.015 21.6955 36.0092 21.5994 36.0092Z" fill="black"/>
<path d="M28.7119 35.5291C28.7701 35.548 28.8283 35.567 28.8851 35.5859C29.1456 35.6703 29.3857 35.794 29.5909 35.9788C29.9461 36.2961 30.0989 36.7007 30.0756 37.1708C30.0363 37.9669 29.6404 38.5389 28.9258 38.862C28.0002 39.2797 27.0847 39.2302 26.2188 38.6742C25.9583 38.5069 25.7472 38.2827 25.5857 37.9916C25.8011 37.8039 26.0165 37.6147 26.2421 37.4153C26.2654 37.459 26.2843 37.4924 26.3003 37.5259C26.4429 37.8286 26.6365 38.0906 26.9086 38.29C27.2041 38.5054 27.5316 38.6058 27.8998 38.5578C28.2913 38.5069 28.5736 38.2973 28.7541 37.9509C28.9084 37.654 28.9476 37.3353 28.9287 37.0063C28.9171 36.823 28.8836 36.6454 28.8094 36.4766C28.6609 36.1404 28.399 35.9366 28.0511 35.8391C28.0031 35.826 27.9449 35.8348 27.8954 35.8479C27.6029 35.9294 27.306 35.9832 27.0047 36.0079C26.9217 36.0152 26.8359 36.0094 26.7355 36.0094C26.7253 35.8639 26.7311 35.7154 26.7311 35.5582C26.817 35.5408 26.8941 35.5262 26.9712 35.5102C27.287 35.4462 27.5898 35.3501 27.8707 35.1886C28.0773 35.0707 28.2593 34.9237 28.4004 34.7287C28.5562 34.5133 28.6333 34.2702 28.6333 34.0053C28.6333 33.5876 28.3495 33.2558 27.9332 33.1903C27.5708 33.1335 27.2274 33.218 26.8912 33.3489C26.833 33.3722 26.8301 33.4203 26.8184 33.4668C26.7427 33.7681 26.67 34.0708 26.5957 34.3721C26.555 34.5351 26.5157 34.6995 26.4706 34.8786C26.3119 34.8931 26.1548 34.8727 25.9874 34.8727C25.9874 34.2411 25.9874 33.6167 25.9874 32.9735C26.1766 32.9181 26.3702 32.8541 26.5666 32.8046C27.0833 32.6766 27.6072 32.6183 28.1399 32.6547C28.4397 32.6751 28.7293 32.7377 29.0015 32.8701C29.4352 33.0797 29.7234 33.4028 29.7568 33.902C29.7801 34.2455 29.6841 34.5613 29.4861 34.8451C29.313 35.094 29.0859 35.2832 28.8283 35.4403C28.7905 35.4636 28.7541 35.4884 28.7177 35.5117C28.7162 35.5131 28.7162 35.5189 28.7119 35.5291Z" fill="black"/>
<path d="M27.5099 24.3356C27.2421 24.2817 26.9903 24.2294 26.7385 24.1784C26.7385 24.0736 26.7385 23.9805 26.7385 23.8801C26.8768 23.8539 27.0121 23.8277 27.146 23.8044C27.536 23.7374 27.9246 23.6705 28.3147 23.605C28.466 23.5788 28.5461 23.6487 28.5461 23.8058C28.5461 24.5263 28.5461 25.2467 28.5461 25.9656C28.5461 26.4503 28.5461 26.9349 28.5461 27.4196C28.5461 27.4458 28.549 27.472 28.5519 27.5098C28.8022 27.5607 29.054 27.6131 29.3102 27.6655C29.3102 27.7689 29.3102 27.8649 29.3102 27.977C29.1777 28.0017 29.0438 28.0265 28.9099 28.0498C28.5694 28.1109 28.2288 28.172 27.8868 28.2331C27.7791 28.2521 27.6845 28.1895 27.6641 28.0818C27.6394 27.9552 27.6205 27.8285 27.5943 27.6801C27.5448 27.7063 27.5026 27.7267 27.4633 27.7499C27.1446 27.9377 26.8113 28.0934 26.4503 28.1837C26.1578 28.2564 25.8638 28.2768 25.5669 28.204C25.0386 28.073 24.6747 27.6815 24.5932 27.143C24.5758 27.0295 24.567 26.9131 24.567 26.7981C24.5641 26.0297 24.5656 25.2598 24.5656 24.4913C24.5656 24.4433 24.5656 24.3953 24.5656 24.3371C24.308 24.2847 24.0577 24.2323 23.8015 24.1799C23.8015 24.0794 23.8015 23.9878 23.8015 23.8815C23.9325 23.8568 24.0664 23.8306 24.2003 23.8073C24.5903 23.7403 24.9789 23.6734 25.369 23.6079C25.5232 23.5817 25.6033 23.6487 25.6033 23.8029C25.6033 24.7358 25.6018 25.6702 25.6047 26.6031C25.6047 26.7312 25.612 26.8607 25.6339 26.9873C25.7154 27.4676 26.0064 27.683 26.494 27.6306C26.8331 27.5942 27.1446 27.4603 27.4458 27.3031C27.4909 27.2799 27.5128 27.2478 27.5084 27.1984C27.5069 27.1809 27.5084 27.1634 27.5084 27.1445C27.5084 26.2509 27.5084 25.3573 27.5084 24.4637C27.5099 24.4258 27.5099 24.3865 27.5099 24.3356Z" fill="black"/>
<path d="M10.8426 33.4854C10.8426 34.0283 10.8426 34.5464 10.8426 35.0849C10.8936 35.0703 10.9387 35.0572 10.9824 35.0441C11.5791 34.868 12.1787 34.8331 12.7827 35.0063C13.1203 35.1038 13.426 35.2624 13.6836 35.5055C14.1056 35.9057 14.2861 36.4035 14.2803 36.9783C14.2701 38.1034 13.4638 38.898 12.4421 39.0814C11.5965 39.2328 10.8383 39.0246 10.1935 38.4439C10.0538 38.3188 9.93739 38.1732 9.8457 37.9928C10.0596 37.8021 10.2736 37.6129 10.4948 37.415C10.521 37.4703 10.5399 37.511 10.5588 37.5503C10.7044 37.8618 10.8994 38.1339 11.1818 38.3348C11.4859 38.5516 11.8236 38.6404 12.1918 38.5647C12.5469 38.492 12.7885 38.2649 12.9588 37.9535C13.0752 37.7395 13.1378 37.5081 13.164 37.268C13.2018 36.9158 13.1873 36.5665 13.065 36.2288C12.9108 35.8053 12.627 35.523 12.1714 35.4415C11.9546 35.4036 11.7377 35.4182 11.5238 35.472C11.2312 35.5462 10.9634 35.6685 10.7277 35.8606C10.7146 35.8723 10.6986 35.881 10.6738 35.897C10.5239 35.7587 10.3726 35.6234 10.227 35.4793C10.2008 35.4531 10.1965 35.3992 10.1965 35.357C10.1935 35.1038 10.195 34.8506 10.195 34.5973C10.195 34.0283 10.195 33.4592 10.195 32.8902C10.195 32.8421 10.195 32.7941 10.195 32.7417C11.3913 32.7417 12.5717 32.7417 13.7607 32.7417C13.7607 32.9891 13.7607 33.2307 13.7607 33.4869C12.7914 33.4854 11.8236 33.4854 10.8426 33.4854Z" fill="black"/>
<path d="M38.2753 25.4502C38.2782 25.4051 38.2811 25.3658 38.2811 25.3265C38.2811 25.1315 38.2841 24.935 38.2797 24.74C38.2782 24.6643 38.2724 24.5886 38.2564 24.5159C38.2025 24.2699 38.0497 24.1258 37.8023 24.0938C37.5156 24.0574 37.2362 24.1069 36.9611 24.1899C36.9087 24.2059 36.8956 24.2423 36.8825 24.2859C36.8068 24.5275 36.7311 24.7691 36.654 25.0107C36.6424 25.0486 36.6293 25.0864 36.6147 25.1271C36.4532 25.1271 36.2945 25.1271 36.1286 25.1271C36.1286 24.7138 36.1286 24.3063 36.1286 23.8813C36.2392 23.8464 36.3557 23.8042 36.4735 23.7707C36.9262 23.647 37.3861 23.5757 37.8562 23.5902C38.1472 23.599 38.431 23.6456 38.6974 23.7707C39.0176 23.9221 39.2373 24.1593 39.3028 24.5144C39.3217 24.6178 39.3247 24.7269 39.3247 24.8332C39.3261 25.6816 39.3261 26.5316 39.3261 27.3801C39.3261 27.4325 39.3261 27.4849 39.3261 27.546C39.5546 27.5999 39.7744 27.6508 40 27.7032C40 27.8036 40 27.8997 40 28.0132C39.8821 28.0336 39.7613 28.0554 39.6405 28.0758C39.329 28.1296 39.019 28.182 38.7076 28.2344C38.6042 28.2519 38.514 28.1966 38.4893 28.0947C38.4587 27.9695 38.4325 27.8444 38.4005 27.6988C38.3539 27.7323 38.3161 27.7585 38.2782 27.7861C37.9959 27.9957 37.6888 28.15 37.341 28.2126C37.0615 28.2621 36.7821 28.249 36.5114 28.1631C36.0427 28.0146 35.7531 27.6333 35.7196 27.1327C35.6862 26.6189 35.887 26.226 36.3251 25.9553C36.6395 25.7602 36.9888 25.6555 37.3482 25.5885C37.6015 25.5405 37.8576 25.5114 38.1123 25.475C38.1647 25.4663 38.2171 25.459 38.2753 25.4502ZM38.2739 25.9538C38.1967 25.9655 38.1269 25.9727 38.0585 25.9858C37.7703 26.0397 37.485 26.1066 37.226 26.2536C36.737 26.5301 36.7224 27.0221 36.8374 27.3466C36.948 27.6581 37.2274 27.8051 37.5491 27.7279C37.798 27.6683 37.9988 27.5242 38.1967 27.3699C38.2579 27.3219 38.2841 27.2695 38.2826 27.1894C38.2782 26.8212 38.2811 26.4516 38.2811 26.0833C38.2811 26.044 38.2768 26.0047 38.2739 25.9538Z" fill="black"/>
<path d="M9.62585 27.146C9.71463 27.2319 9.8136 27.3265 9.92421 27.4342C9.85872 27.5084 9.80341 27.5826 9.73646 27.6438C9.3275 28.0294 8.83558 28.2201 8.27962 28.2492C7.98126 28.2652 7.68436 28.2317 7.39619 28.1502C6.68451 27.9509 6.2115 27.4982 6.00629 26.7895C5.82583 26.168 5.83747 25.5393 6.05578 24.928C6.33376 24.1494 6.90864 23.7302 7.71638 23.6138C8.05403 23.5658 8.39023 23.5759 8.7206 23.6662C9.1645 23.7884 9.49487 24.0519 9.70881 24.4594C9.8689 24.7635 9.94313 25.091 9.97224 25.4301C9.98534 25.5742 9.98825 25.7197 9.99552 25.8784C8.99421 25.8784 8.00891 25.8784 7.01925 25.8784C7.01197 25.9133 7.00033 25.938 7.00033 25.9628C7.00178 26.2946 7.05272 26.6177 7.19826 26.9204C7.39328 27.3236 7.69746 27.5987 8.14426 27.6889C8.52994 27.766 8.88797 27.6743 9.21252 27.4662C9.35952 27.3731 9.48759 27.2537 9.62585 27.146ZM7.04108 25.3661C7.21281 25.3937 8.82975 25.3879 8.94036 25.3573C8.92872 25.2467 8.92436 25.1318 8.90398 25.0197C8.86032 24.7621 8.77445 24.522 8.59689 24.3226C8.35239 24.049 7.99436 23.9936 7.67854 24.1785C7.54901 24.2542 7.44713 24.3575 7.36272 24.4797C7.1808 24.7446 7.09202 25.0444 7.04108 25.3661Z" fill="black"/>
</svg>
