<svg width="275" height="270" viewBox="0 0 275 270" fill="none" xmlns="http://www.w3.org/2000/svg">
<path d="M79.1697 91.43C78.6697 91.88 78.3097 92.18 77.9697 92.52C70.6097 99.89 63.2297 107.25 55.8997 114.65C55.1697 115.39 54.4497 115.69 53.4197 115.67C50.6997 115.6 47.9797 115.65 45.2597 115.65C44.9697 115.65 44.6697 115.65 44.4297 115.65C60.1597 99.9 75.8597 84.18 91.6197 68.4C93.3297 70.06 95.0797 71.76 96.8897 73.53C96.6297 73.82 96.4197 74.07 96.1997 74.3C94.7797 75.73 93.3697 77.17 91.9197 78.57C89.1797 81.22 87.5697 84.45 87.0997 88.21C86.2497 94.99 88.5397 100.52 93.9597 104.69C96.3797 106.55 99.1797 107.53 102.21 107.94C107.69 108.67 112.33 106.97 116.24 103.18C119.18 100.34 122.05 97.42 124.95 94.52C131.74 87.74 138.52 80.96 145.3 74.17C150.61 68.85 155.9 63.51 161.19 58.18C161.42 57.95 161.63 57.69 161.93 57.35C153.9 49.24 145.81 41.28 137.83 33.26C137.14 33.61 114.59 56.03 113.49 57.43C114.02 58.22 114.79 58.82 115.46 59.51C116.11 60.19 116.8 60.85 117.47 61.52C118.16 62.21 118.85 62.9 119.54 63.59C120.23 64.28 120.92 64.97 121.61 65.66C122.28 66.33 122.95 67 123.62 67.67C124.31 68.36 125 69.05 125.69 69.74C126.38 70.43 127.07 71.12 127.76 71.81C128.43 72.48 129.1 73.15 129.77 73.82C130.45 74.51 131.13 75.21 131.9 75.99C130.2 77.84 128.45 79.57 126.66 81.42C118.62 73.33 110.51 65.44 102.87 57.24C114.48 45.63 126.03 34.08 137.65 22.46C137.66 22.46 137.84 22.56 137.99 22.7C138.33 23.01 138.65 23.33 138.98 23.66C149.96 34.63 160.93 45.6 171.91 56.57C172.08 56.74 172.24 56.92 172.48 57.17C172.23 57.45 172.01 57.73 171.76 57.98C168.14 61.71 164.55 65.46 160.9 69.15C154.82 75.29 148.68 81.39 142.58 87.51C135.72 94.39 128.86 101.28 122.01 108.18C118.33 111.89 113.94 114.32 108.81 115.21C100.44 116.66 93.0997 114.45 86.9097 108.59C82.7397 104.64 80.3897 99.74 79.5697 94.08C79.4797 93.45 79.4397 92.8 79.3597 92.17C79.3397 91.99 79.2797 91.82 79.1697 91.43Z" fill="#5C8C58"/>
<path d="M0.5 115.46C38.85 77.13 77.2 38.8 115.54 0.47998C116.44 1.09998 131.08 15.73 131.52 16.46C129.86 18.15 128.17 19.86 126.4 21.65C122.87 18.12 119.37 14.64 115.84 11.11C115.6 11.28 115.4 11.4 115.23 11.55C114.91 11.84 114.62 12.15 114.32 12.45C88.32 38.45 62.31 64.45 36.31 90.46C28.17 98.6 20.03 106.74 11.91 114.9C11.4 115.41 10.89 115.65 10.15 115.64C7.25 115.6 4.35 115.62 1.45 115.62C1.16 115.62 0.86 115.62 0.57 115.62C0.54 115.57 0.52 115.52 0.5 115.46Z" fill="#5C8C58"/>
<path d="M159.3 11.04C155.75 14.59 152.26 18.08 148.84 21.5C147.03 19.75 145.28 18.07 143.46 16.31C148.79 11 154.08 5.73001 159.44 0.390015C197.86 38.79 236.21 77.11 274.64 115.51C274.43 115.56 274.28 115.62 274.14 115.62C270.96 115.63 267.79 115.61 264.61 115.64C264.1 115.64 263.74 115.47 263.41 115.12C262.71 114.39 261.99 113.69 261.28 112.98C254.26 105.96 247.24 98.94 240.22 91.92C213.68 65.37 187.13 38.81 160.59 12.26C160.19 11.87 159.79 11.5 159.3 11.04Z" fill="#5C8C58"/>
<path d="M230.98 115.63C230.47 115.63 230.17 115.63 229.87 115.63C227.03 115.63 224.19 115.6 221.35 115.65C220.58 115.66 220.04 115.42 219.51 114.88C212.03 107.37 204.53 99.8801 197.03 92.3901C196.74 92.1001 196.41 91.8401 195.94 91.4301C195.82 92.0601 195.71 92.4901 195.67 92.9201C195.22 97.9201 193.52 102.43 190.32 106.32C186.44 111.04 181.53 114.17 175.48 115.21C167.19 116.65 159.85 114.51 153.71 108.71C150.25 105.44 146.96 101.98 143.6 98.6001C143.48 98.4801 143.38 98.3201 143.32 98.2401C145.08 96.4801 146.8 94.7601 148.6 92.9601C148.77 93.1101 149.01 93.3301 149.23 93.5501C152.35 96.6501 155.45 99.7701 158.57 102.87C160.84 105.13 163.46 106.82 166.6 107.59C175.31 109.73 185.57 104.8 187.83 94.3301C188.89 89.4001 187.95 84.8001 185.03 80.6601C184.51 79.9201 183.86 79.2501 183.22 78.6001C181.73 77.0701 180.21 75.5701 178.7 74.0501C178.57 73.9201 178.46 73.7701 178.35 73.6401C178.63 73.0601 182.49 69.1901 183.65 68.3301C199.38 84.0301 215.09 99.7401 230.98 115.63Z" fill="#5C8C58"/>
<path d="M5.87988 154.83C3.93988 154.27 2.04988 153.71 0.129883 153.16C0.129883 152.29 0.129883 151.48 0.129883 150.61C0.429883 150.59 0.699883 150.56 0.969883 150.56C7.80988 150.56 14.6499 150.55 21.4899 150.56C23.5099 150.56 25.5099 150.78 27.4399 151.43C27.9299 151.59 28.4199 151.77 28.8899 152C32.5099 153.73 34.3299 156.59 34.2599 160.61C34.1999 164.01 32.6199 166.64 29.9099 168.57C28.8299 169.34 27.5899 169.88 26.3899 170.54C26.5699 170.59 26.8099 170.66 27.0499 170.71C29.6399 171.25 31.9999 172.26 33.9099 174.15C36.1399 176.34 37.0699 179.05 36.8699 182.13C36.5399 187.36 33.6699 190.74 28.9499 192.69C26.9499 193.51 24.8499 193.87 22.6899 193.87C15.3899 193.88 8.08988 193.87 0.789883 193.87C0.609883 193.87 0.42988 193.85 0.16988 193.83C0.16988 193.02 0.16988 192.21 0.16988 191.3C2.03988 190.75 3.95988 190.19 5.88988 189.63C5.87988 178.01 5.87988 166.47 5.87988 154.83ZM13.5699 189.55C13.7099 189.61 13.7699 189.65 13.8199 189.65C16.5599 189.63 19.3199 189.73 22.0499 189.54C25.5299 189.3 27.9499 187.05 28.6599 183.69C28.9599 182.28 28.9799 180.85 28.7399 179.42C28.1199 175.75 25.5099 172.84 21.1799 172.88C18.8899 172.9 16.5999 172.88 14.3199 172.89C14.0899 172.89 13.8499 172.92 13.5799 172.95C13.5699 178.51 13.5699 184.02 13.5699 189.55ZM13.5699 168.64C13.8199 168.66 13.9999 168.68 14.1799 168.68C16.2599 168.68 18.3299 168.7 20.4099 168.68C23.2099 168.65 25.3799 167.08 26.3199 164.44C26.8799 162.89 27.0199 161.28 26.8199 159.66C26.5199 157.17 25.1699 155.71 22.7199 155.11C22.4799 155.05 22.2499 154.98 22.0099 154.95C19.2399 154.61 16.4699 154.76 13.6899 154.8C13.6699 154.8 13.6499 154.84 13.5699 154.9C13.5699 159.41 13.5699 163.98 13.5699 168.64Z" fill="black"/>
<path d="M145.79 166.52C145.79 165.78 145.79 165.15 145.79 164.46C147.08 164.23 148.33 163.99 149.59 163.78C151.94 163.38 154.28 162.98 156.63 162.58C157.58 162.42 158.14 162.88 158.15 163.84C158.16 166.53 158.15 169.22 158.15 171.9C158.15 177.37 158.15 182.83 158.15 188.3C158.15 188.63 158.15 188.97 158.15 189.4C159.93 189.76 161.68 190.12 163.47 190.48C163.47 191.21 163.47 191.89 163.47 192.62C161.32 193.01 159.22 193.39 157.13 193.77C155.99 193.97 154.85 194.18 153.7 194.37C152.87 194.51 152.22 194.05 152.07 193.22C151.92 192.39 151.77 191.55 151.6 190.57C151.25 190.78 150.97 190.94 150.7 191.11C148.47 192.53 146.13 193.69 143.52 194.22C141.85 194.56 140.19 194.62 138.53 194.18C136.49 193.64 134.9 192.5 133.73 190.75C133.6 190.55 133.46 190.35 133.28 190.06C132.96 190.27 132.67 190.47 132.37 190.67C130.19 192.16 127.89 193.4 125.31 194.06C123.51 194.52 121.7 194.68 119.87 194.26C116.46 193.48 114.01 190.84 113.41 187.21C113.25 186.22 113.19 185.21 113.19 184.2C113.17 179.04 113.18 173.88 113.18 168.72C113.18 168.39 113.18 168.05 113.18 167.61C111.42 167.24 109.67 166.88 107.91 166.52C107.91 165.81 107.91 165.18 107.91 164.46C108.76 164.31 109.59 164.16 110.43 164.01C113.07 163.55 115.72 163.08 118.37 162.63C119.9 162.37 120.3 162.72 120.3 164.25C120.3 170.48 120.3 176.71 120.3 182.94C120.3 184.25 120.32 185.57 120.69 186.84C120.8 187.22 120.93 187.6 121.09 187.96C121.76 189.44 122.95 190.2 124.54 190.27C125.2 190.3 125.89 190.24 126.54 190.11C128.66 189.69 130.58 188.78 132.39 187.55C131.95 185.5 132.11 183.45 132.1 181.41C132.08 177.16 132.1 172.92 132.1 168.67C132.1 168.34 132.1 168.01 132.1 167.6C130.33 167.24 128.61 166.89 126.85 166.53C126.85 165.85 126.85 165.22 126.85 164.47C127.74 164.31 128.66 164.13 129.58 163.97C132.26 163.51 134.93 163.05 137.61 162.6C138.71 162.41 139.23 162.87 139.23 164.02C139.23 170.53 139.21 177.03 139.25 183.54C139.26 184.63 139.46 185.72 139.61 186.81C139.67 187.19 139.83 187.57 139.99 187.93C140.67 189.44 141.87 190.24 143.51 190.28C144.29 190.3 145.1 190.2 145.87 190.04C147.52 189.68 149.04 188.96 150.49 188.1C150.83 187.9 151.02 187.67 151.02 187.24C151 180.8 151.01 174.35 151 167.91C151 167.85 150.98 167.79 150.94 167.6C149.29 167.25 147.57 166.89 145.79 166.52Z" fill="black"/>
<path d="M136.62 247.03C136.57 250.92 136.17 254.73 134.84 258.4C133.99 260.75 132.8 262.9 131.06 264.72C128.11 267.81 124.41 269.14 120.21 269.24C118.12 269.29 116.07 269.04 114.09 268.33C110.36 267 107.73 264.44 105.93 260.97C104.68 258.56 103.93 255.99 103.54 253.32C102.84 248.51 102.88 243.71 103.87 238.93C104.26 237.07 104.83 235.27 105.66 233.56C108.65 227.42 113.61 224.54 120.39 224.71C124.53 224.82 128.15 226.18 131.06 229.22C132.93 231.18 134.16 233.51 135.02 236.06C136.22 239.62 136.58 243.31 136.62 247.03ZM128.78 247.05C128.6 244.8 128.49 242.54 128.21 240.3C127.89 237.72 127.24 235.2 126.03 232.87C125.42 231.69 124.67 230.62 123.65 229.76C121.24 227.73 118.04 227.83 115.75 230C114.71 230.98 113.97 232.17 113.38 233.45C112.28 235.83 111.71 238.36 111.38 240.94C110.87 244.93 110.86 248.92 111.37 252.91C111.68 255.37 112.22 257.78 113.21 260.07C113.85 261.54 114.65 262.9 115.86 263.99C117.45 265.43 119.29 265.93 121.38 265.38C122.89 264.98 124.05 264.07 124.99 262.85C126.11 261.4 126.81 259.75 127.32 258.01C128.38 254.45 128.66 250.77 128.78 247.05Z" fill="black"/>
<path d="M76.3403 167.53C74.6003 167.18 72.8704 166.83 71.1104 166.47C71.1104 165.77 71.1104 165.11 71.1104 164.38C71.4304 164.3 71.7403 164.21 72.0603 164.15C75.0003 163.62 77.9504 163.1 80.8904 162.58C81.6604 162.44 82.3104 162.87 82.4904 163.65C82.6104 164.18 82.6803 164.73 82.7903 165.27C82.8503 165.59 82.9303 165.91 83.0103 166.31C83.4103 166.04 83.7404 165.83 84.0704 165.61C86.0004 164.35 88.0303 163.31 90.2903 162.8C96.1603 161.46 101.85 164.2 104.44 169.64C105.99 172.9 106.4 176.35 106.15 179.91C105.96 182.63 105.22 185.19 103.72 187.5C101.47 190.96 98.2503 193.01 94.2903 193.95C90.8803 194.76 87.5104 194.59 84.2204 193.29C84.0304 193.21 83.8304 193.17 83.5704 193.09C83.5704 197.05 83.5704 200.95 83.5704 204.93C85.5204 205.47 87.4803 206 89.4803 206.55C89.4803 207.29 89.4803 207.98 89.4803 208.67C88.8503 208.86 72.9803 208.93 71.4503 208.74C71.4503 208.03 71.4503 207.32 71.4503 206.54C73.0703 206.01 74.6904 205.49 76.3504 204.95C76.3404 192.48 76.3403 180.04 76.3403 167.53ZM83.5303 189.52C85.3803 190.28 87.2204 190.82 89.1604 190.85C91.8304 190.89 94.0104 189.84 95.7204 187.79C96.5904 186.75 97.2103 185.56 97.6503 184.28C98.7703 180.99 98.8104 177.64 98.2504 174.25C97.9604 172.52 97.4203 170.87 96.3703 169.44C94.7503 167.23 92.5603 166.3 89.8403 166.59C87.8603 166.81 86.0904 167.6 84.3504 168.51C83.7404 168.83 83.5003 169.21 83.5103 169.94C83.5503 176.16 83.5303 182.39 83.5303 188.61C83.5303 188.89 83.5303 189.16 83.5303 189.52Z" fill="black"/>
<path d="M209.98 167.58C208.22 167.22 206.49 166.87 204.74 166.52C204.74 165.81 204.74 165.18 204.74 164.47C205.68 164.3 206.6 164.12 207.52 163.96C210.2 163.5 212.87 163.04 215.55 162.59C216.63 162.41 217.18 162.89 217.18 164.01C217.18 167.52 217.18 171.04 217.18 174.55C217.18 174.88 217.18 175.21 217.18 175.6C221.53 175.6 225.78 175.6 230.08 175.6C230.08 172.93 230.08 170.32 230.08 167.6C228.35 167.25 226.6 166.89 224.83 166.53C224.83 165.83 224.83 165.19 224.83 164.51C225.04 164.45 225.23 164.37 225.44 164.34C228.9 163.74 232.36 163.15 235.81 162.56C236.57 162.43 237.25 162.99 237.25 163.76C237.26 166.14 237.25 168.52 237.25 170.91C237.25 176.9 237.25 182.88 237.25 188.87C237.25 189.23 237.25 189.59 237.25 189.99C238.94 190.54 240.55 191.07 242.21 191.6C242.21 192.32 242.21 193.01 242.21 193.7C241.58 193.9 226.92 193.97 225.53 193.77C225.53 193.09 225.53 192.41 225.53 191.6C226.98 191.09 228.5 190.55 230.06 190C230.06 186.48 230.06 182.99 230.06 179.49C229.37 179.31 218.21 179.28 217.23 179.47C217.21 179.72 217.18 179.99 217.18 180.25C217.18 183.21 217.18 186.18 217.18 189.14C217.18 189.99 217.19 189.99 218.02 190.28C219.25 190.72 220.49 191.15 221.75 191.59C221.75 192.32 221.75 193.01 221.75 193.69C221.02 193.89 205.99 193.91 205.07 193.71C205.07 193.03 205.07 192.34 205.07 191.59C206.69 191.06 208.31 190.54 209.91 190.02C210.11 189.33 210.17 168.9 209.98 167.58Z" fill="black"/>
<path d="M148.54 247.81C148.54 246.75 148.54 245.75 148.54 244.71C149.38 244.54 150.18 244.38 150.97 244.2C152.73 243.8 154.43 243.21 156.02 242.35C157.21 241.71 158.29 240.92 159.21 239.92C160.68 238.33 161.49 236.46 161.55 234.3C161.64 231.21 159.6 228.82 156.54 228.42C154.14 228.1 151.87 228.65 149.66 229.51C149.24 229.67 149.18 230 149.09 230.36C148.38 233.26 147.66 236.17 146.95 239.07C146.88 239.37 146.79 239.66 146.7 240.02C145.61 240.02 144.53 240.02 143.46 240.02C143.27 239.32 143.22 228.28 143.4 226.95C144.68 226.57 146.01 226.14 147.37 225.8C150.95 224.91 154.58 224.5 158.26 224.77C160.79 224.95 163.2 225.56 165.36 226.94C167.6 228.37 169.01 230.35 169.26 233.03C169.46 235.19 168.99 237.22 167.88 239.09C166.68 241.11 164.97 242.61 163 243.83C162.69 244.02 162.39 244.21 161.99 244.46C162.33 244.58 162.58 244.67 162.82 244.74C164.17 245.15 165.46 245.69 166.64 246.47C170.36 248.9 171.87 252.38 171.39 256.75C170.85 261.65 168.23 265.2 163.85 267.27C157.56 270.24 151.31 269.99 145.31 266.35C143.35 265.16 141.79 263.54 140.62 261.43C142.12 260.12 143.6 258.82 145.14 257.47C145.32 257.82 145.45 258.08 145.58 258.34C146.49 260.28 147.74 261.96 149.43 263.28C151.52 264.91 153.87 265.67 156.53 265.32C159.3 264.96 161.29 263.46 162.46 260.97C163.89 257.94 164.02 254.77 162.97 251.6C162.11 249 160.22 247.4 157.62 246.65C157.27 246.55 156.83 246.6 156.47 246.7C154.46 247.25 152.42 247.63 150.35 247.8C149.78 247.85 149.2 247.81 148.54 247.81Z" fill="black"/>
<path d="M197.41 244.51C197.81 244.64 198.21 244.77 198.6 244.9C200.39 245.48 202.04 246.33 203.45 247.6C205.89 249.78 206.94 252.56 206.78 255.79C206.51 261.26 203.79 265.19 198.88 267.41C192.52 270.28 186.23 269.94 180.28 266.12C178.49 264.97 177.04 263.43 175.93 261.43C177.41 260.14 178.89 258.84 180.44 257.47C180.6 257.77 180.73 258 180.84 258.23C181.82 260.31 183.15 262.11 185.02 263.48C187.05 264.96 189.3 265.65 191.83 265.32C194.52 264.97 196.46 263.53 197.7 261.15C198.76 259.11 199.03 256.92 198.9 254.66C198.82 253.4 198.59 252.18 198.08 251.02C197.06 248.71 195.26 247.31 192.87 246.64C192.54 246.55 192.14 246.61 191.8 246.7C189.79 247.26 187.75 247.63 185.68 247.8C185.11 247.85 184.52 247.81 183.83 247.81C183.76 246.81 183.8 245.79 183.8 244.71C184.39 244.59 184.92 244.49 185.45 244.38C187.62 243.94 189.7 243.28 191.63 242.17C193.05 241.36 194.3 240.35 195.27 239.01C196.34 237.53 196.87 235.86 196.87 234.04C196.87 231.17 194.92 228.89 192.06 228.44C189.57 228.05 187.21 228.63 184.9 229.53C184.5 229.69 184.48 230.02 184.4 230.34C183.88 232.41 183.38 234.49 182.87 236.56C182.59 237.68 182.32 238.81 182.01 240.04C180.92 240.14 179.84 240 178.69 240C178.69 235.66 178.69 231.37 178.69 226.95C179.99 226.57 181.32 226.13 182.67 225.79C186.22 224.91 189.82 224.51 193.48 224.76C195.54 224.9 197.53 225.33 199.4 226.24C202.38 227.68 204.36 229.9 204.59 233.33C204.75 235.69 204.09 237.86 202.73 239.81C201.54 241.52 199.98 242.82 198.21 243.9C197.95 244.06 197.7 244.23 197.45 244.39C197.44 244.4 197.44 244.44 197.41 244.51Z" fill="black"/>
<path d="M189.15 167.6C187.31 167.23 185.58 166.87 183.85 166.52C183.85 165.8 183.85 165.16 183.85 164.47C184.8 164.29 185.73 164.11 186.65 163.95C189.33 163.49 192 163.03 194.68 162.58C195.72 162.4 196.27 162.88 196.27 163.96C196.27 168.91 196.27 173.86 196.27 178.8C196.27 182.13 196.27 185.46 196.27 188.79C196.27 188.97 196.29 189.15 196.31 189.41C198.03 189.76 199.76 190.12 201.52 190.48C201.52 191.19 201.52 191.85 201.52 192.62C200.61 192.79 199.69 192.96 198.77 193.12C196.43 193.54 194.09 193.96 191.74 194.38C191 194.51 190.35 194.08 190.21 193.34C190.04 192.47 189.91 191.6 189.73 190.58C189.39 190.76 189.1 190.9 188.83 191.06C186.64 192.35 184.35 193.42 181.87 194.04C179.86 194.54 177.84 194.68 175.8 194.18C172.17 193.28 169.67 190.59 169.11 186.89C168.99 186.11 168.93 185.31 168.93 184.52C168.91 179.24 168.92 173.95 168.92 168.67C168.92 168.34 168.92 168.01 168.92 167.61C167.15 167.25 165.43 166.89 163.67 166.53C163.67 165.84 163.67 165.21 163.67 164.48C164.57 164.31 165.49 164.13 166.41 163.97C169.09 163.51 171.76 163.05 174.44 162.6C175.5 162.42 176.05 162.88 176.05 163.94C176.05 170.35 176.04 176.77 176.06 183.18C176.06 184.06 176.11 184.95 176.26 185.82C176.82 189.12 178.82 190.6 182.17 190.24C184.5 189.99 186.64 189.07 188.71 187.99C189.02 187.83 189.17 187.61 189.14 187.27C189.13 187.15 189.14 187.03 189.14 186.9C189.14 180.76 189.14 174.62 189.14 168.48C189.15 168.22 189.15 167.95 189.15 167.6Z" fill="black"/>
<path d="M74.6303 230.47C74.6303 234.2 74.6303 237.76 74.6303 241.46C74.9803 241.36 75.2903 241.27 75.5903 241.18C79.6903 239.97 83.8103 239.73 87.9603 240.92C90.2803 241.59 92.3803 242.68 94.1503 244.35C97.0503 247.1 98.2903 250.52 98.2503 254.47C98.1803 262.2 92.6403 267.66 85.6203 268.92C79.8103 269.96 74.6003 268.53 70.1703 264.54C69.2103 263.68 68.4103 262.68 67.7803 261.44C69.2503 260.13 70.7203 258.83 72.2403 257.47C72.4203 257.85 72.5503 258.13 72.6803 258.4C73.6803 260.54 75.0203 262.41 76.9603 263.79C79.0503 265.28 81.3703 265.89 83.9003 265.37C86.3403 264.87 88.0003 263.31 89.1703 261.17C89.9703 259.7 90.4003 258.11 90.5803 256.46C90.8403 254.04 90.7403 251.64 89.9003 249.32C88.8403 246.41 86.8903 244.47 83.7603 243.91C82.2703 243.65 80.7803 243.75 79.3103 244.12C77.3003 244.63 75.4603 245.47 73.8403 246.79C73.7503 246.87 73.6403 246.93 73.4703 247.04C72.4403 246.09 71.4003 245.16 70.4003 244.17C70.2203 243.99 70.1903 243.62 70.1903 243.33C70.1703 241.59 70.1803 239.85 70.1803 238.11C70.1803 234.2 70.1803 230.29 70.1803 226.38C70.1803 226.05 70.1803 225.72 70.1803 225.36C78.4003 225.36 86.5103 225.36 94.6803 225.36C94.6803 227.06 94.6803 228.72 94.6803 230.48C88.0203 230.47 81.3703 230.47 74.6303 230.47Z" fill="black"/>
<path d="M263.12 175.26C263.14 174.95 263.16 174.68 263.16 174.41C263.16 173.07 263.18 171.72 263.15 170.38C263.14 169.86 263.1 169.34 262.99 168.84C262.62 167.15 261.57 166.16 259.87 165.94C257.9 165.69 255.98 166.03 254.09 166.6C253.73 166.71 253.64 166.96 253.55 167.26C253.03 168.92 252.51 170.58 251.98 172.24C251.9 172.5 251.81 172.76 251.71 173.04C250.6 173.04 249.51 173.04 248.37 173.04C248.37 170.2 248.37 167.4 248.37 164.48C249.13 164.24 249.93 163.95 250.74 163.72C253.85 162.87 257.01 162.38 260.24 162.48C262.24 162.54 264.19 162.86 266.02 163.72C268.22 164.76 269.73 166.39 270.18 168.83C270.31 169.54 270.33 170.29 270.33 171.02C270.34 176.85 270.34 182.69 270.34 188.52C270.34 188.88 270.34 189.24 270.34 189.66C271.91 190.03 273.42 190.38 274.97 190.74C274.97 191.43 274.97 192.09 274.97 192.87C274.16 193.01 273.33 193.16 272.5 193.3C270.36 193.67 268.23 194.03 266.09 194.39C265.38 194.51 264.76 194.13 264.59 193.43C264.38 192.57 264.2 191.71 263.98 190.71C263.66 190.94 263.4 191.12 263.14 191.31C261.2 192.75 259.09 193.81 256.7 194.24C254.78 194.58 252.86 194.49 251 193.9C247.78 192.88 245.79 190.26 245.56 186.82C245.33 183.29 246.71 180.59 249.72 178.73C251.88 177.39 254.28 176.67 256.75 176.21C258.49 175.88 260.25 175.68 262 175.43C262.36 175.37 262.72 175.32 263.12 175.26ZM263.11 178.72C262.58 178.8 262.1 178.85 261.63 178.94C259.65 179.31 257.69 179.77 255.91 180.78C252.55 182.68 252.45 186.06 253.24 188.29C254 190.43 255.92 191.44 258.13 190.91C259.84 190.5 261.22 189.51 262.58 188.45C263 188.12 263.18 187.76 263.17 187.21C263.14 184.68 263.16 182.14 263.16 179.61C263.16 179.34 263.13 179.07 263.11 178.72Z" fill="black"/>
<path d="M66.2697 186.91C66.8797 187.5 67.5597 188.15 68.3197 188.89C67.8697 189.4 67.4897 189.91 67.0297 190.33C64.2197 192.98 60.8397 194.29 57.0197 194.49C54.9697 194.6 52.9297 194.37 50.9497 193.81C46.0597 192.44 42.8097 189.33 41.3997 184.46C40.1597 180.19 40.2397 175.87 41.7397 171.67C43.6497 166.32 47.5997 163.44 53.1497 162.64C55.4697 162.31 57.7797 162.38 60.0497 163C63.0997 163.84 65.3697 165.65 66.8397 168.45C67.9397 170.54 68.4497 172.79 68.6497 175.12C68.7397 176.11 68.7597 177.11 68.8097 178.2C61.9297 178.2 55.1597 178.2 48.3597 178.2C48.3097 178.44 48.2297 178.61 48.2297 178.78C48.2397 181.06 48.5897 183.28 49.5897 185.36C50.9297 188.13 53.0197 190.02 56.0897 190.64C58.7397 191.17 61.1997 190.54 63.4297 189.11C64.4397 188.47 65.3197 187.65 66.2697 186.91ZM48.5097 174.68C49.6897 174.87 60.7997 174.83 61.5597 174.62C61.4797 173.86 61.4497 173.07 61.3097 172.3C61.0097 170.53 60.4197 168.88 59.1997 167.51C57.5197 165.63 55.0597 165.25 52.8897 166.52C51.9997 167.04 51.2997 167.75 50.7197 168.59C49.4697 170.41 48.8597 172.47 48.5097 174.68Z" fill="black"/>
</svg>
