<svg width="307" height="300" viewBox="0 0 307 300" fill="none" xmlns="http://www.w3.org/2000/svg">
<path d="M88.5502 102.12C88.0002 102.62 87.5902 102.95 87.2202 103.33C79.0402 111.52 70.8402 119.7 62.6902 127.92C61.8802 128.74 61.0802 129.08 59.9402 129.05C56.9202 128.97 53.9002 129.02 50.8802 129.02C50.5502 129.02 50.2302 129.02 49.9502 129.02C67.4302 111.52 84.8802 94.0399 102.4 76.4999C104.3 78.3499 106.24 80.24 108.26 82.2C107.97 82.52 107.74 82.7999 107.49 83.0499C105.91 84.6399 104.34 86.2399 102.73 87.7999C99.6902 90.7499 97.9002 94.3299 97.3702 98.5099C96.4302 106.05 98.9802 112.19 104.99 116.82C107.68 118.89 110.79 119.98 114.16 120.43C120.25 121.24 125.41 119.35 129.76 115.14C133.03 111.98 136.22 108.73 139.44 105.52C146.98 97.98 154.52 90.4499 162.05 82.8999C167.95 76.9899 173.83 71.0599 179.71 65.1299C179.97 64.8699 180.2 64.5799 180.53 64.2099C171.6 55.1999 162.62 46.3499 153.74 37.4299C152.97 37.8199 127.91 62.7299 126.69 64.2999C127.28 65.1799 128.14 65.8399 128.88 66.6099C129.61 67.3699 130.36 68.0999 131.11 68.8499C131.88 69.6199 132.65 70.3899 133.41 71.1499C134.18 71.9199 134.95 72.69 135.71 73.45C136.45 74.19 137.2 74.9399 137.94 75.6799C138.71 76.4499 139.48 77.2199 140.24 77.9799C141.01 78.7499 141.78 79.5199 142.54 80.2799C143.28 81.0199 144.03 81.7699 144.77 82.5099C145.53 83.2799 146.28 84.05 147.13 84.92C145.24 86.97 143.3 88.89 141.31 90.95C132.37 81.96 123.36 73.1899 114.87 64.0799C127.78 51.1699 140.61 38.3399 153.52 25.4299C153.53 25.4299 153.73 25.5399 153.89 25.6899C154.27 26.0299 154.63 26.3899 154.99 26.7499C167.19 38.9399 179.39 51.1299 191.59 63.3299C191.78 63.5199 191.96 63.7199 192.22 63.9999C191.94 64.3099 191.69 64.6199 191.42 64.8999C187.4 69.0399 183.41 73.2099 179.35 77.3099C172.59 84.1399 165.77 90.9099 158.99 97.7199C151.36 105.37 143.74 113.02 136.13 120.69C132.04 124.81 127.17 127.52 121.46 128.51C112.16 130.12 104 127.66 97.1202 121.15C92.4802 116.76 89.8702 111.32 88.9602 105.03C88.8602 104.33 88.8102 103.61 88.7302 102.91C88.7502 102.74 88.6702 102.56 88.5502 102.12Z" fill="#FDDD92"/>
<path d="M1.12012 128.83C43.7401 86.2299 86.3701 43.6299 128.97 1.03992C129.97 1.71992 146.25 17.9899 146.73 18.7999C144.88 20.6699 143.01 22.5699 141.04 24.5699C137.11 20.6499 133.23 16.7699 129.3 12.8499C129.04 13.0399 128.81 13.1699 128.62 13.3399C128.27 13.6599 127.94 13.9999 127.6 14.3399C98.7001 43.2399 69.8001 72.1399 40.9001 101.04C31.8501 110.09 22.8101 119.14 13.7801 128.2C13.2101 128.77 12.6401 129.03 11.8301 129.02C8.61012 128.98 5.38012 129 2.16012 129C1.83012 129 1.51012 129 1.18012 129C1.17012 128.96 1.15012 128.89 1.12012 128.83Z" fill="#FDDD92"/>
<path d="M177.61 12.7799C173.66 16.7199 169.79 20.5999 165.98 24.3999C163.97 22.4599 162.03 20.5899 160 18.6299C165.92 12.7299 171.8 6.86993 177.76 0.929932C220.46 43.5999 263.08 86.1999 305.79 128.88C305.55 128.93 305.39 129 305.23 129C301.7 129.01 298.17 128.99 294.64 129.02C294.07 129.02 293.68 128.83 293.3 128.44C292.52 127.63 291.72 126.85 290.93 126.06C283.13 118.26 275.32 110.46 267.52 102.65C238.02 73.14 208.52 43.6299 179.02 14.1199C178.6 13.6999 178.15 13.2999 177.61 12.7799Z" fill="#FDDD92"/>
<path d="M257.27 129.02C256.7 129.02 256.37 129.02 256.04 129.02C252.88 129.02 249.72 128.99 246.57 129.04C245.71 129.05 245.12 128.79 244.52 128.19C236.21 119.84 227.87 111.52 219.54 103.19C219.22 102.87 218.85 102.58 218.33 102.12C218.2 102.82 218.07 103.29 218.03 103.77C217.53 109.33 215.64 114.34 212.08 118.66C207.76 123.91 202.31 127.38 195.59 128.54C186.38 130.14 178.22 127.76 171.4 121.32C167.55 117.69 163.9 113.84 160.17 110.09C160.03 109.95 159.93 109.78 159.86 109.69C161.82 107.73 163.73 105.82 165.73 103.82C165.91 103.99 166.18 104.23 166.43 104.48C169.89 107.93 173.35 111.39 176.82 114.83C179.35 117.34 182.26 119.22 185.75 120.07C195.43 122.45 206.84 116.97 209.35 105.34C210.53 99.86 209.48 94.7499 206.24 90.1499C205.66 89.3199 204.94 88.5899 204.23 87.8599C202.57 86.1599 200.88 84.4899 199.21 82.7999C199.07 82.6599 198.95 82.4899 198.82 82.3499C199.13 81.7099 203.42 77.3999 204.72 76.4399C222.15 93.8999 239.61 111.36 257.27 129.02Z" fill="#FDDD92"/>
<path d="M7.09996 172.58C4.94996 171.95 2.83996 171.34 0.709961 170.72C0.709961 169.75 0.709961 168.85 0.709961 167.89C1.04996 167.87 1.33996 167.83 1.63996 167.83C9.23996 167.83 16.84 167.82 24.45 167.83C26.7 167.83 28.92 168.08 31.07 168.8C31.62 168.98 32.16 169.18 32.68 169.43C36.7 171.35 38.72 174.54 38.64 179C38.57 182.78 36.82 185.7 33.8 187.84C32.6 188.69 31.22 189.29 29.89 190.02C30.09 190.07 30.36 190.15 30.63 190.21C33.51 190.81 36.13 191.94 38.25 194.03C40.73 196.47 41.76 199.48 41.54 202.9C41.17 208.71 37.98 212.47 32.73 214.63C30.51 215.54 28.17 215.94 25.77 215.95C17.66 215.96 9.54996 215.95 1.43996 215.95C1.23996 215.95 1.03996 215.93 0.749962 215.91C0.749962 215.01 0.749962 214.11 0.749962 213.1C2.82996 212.49 4.95996 211.87 7.10996 211.24C7.09996 198.35 7.09996 185.53 7.09996 172.58ZM15.65 211.17C15.81 211.24 15.87 211.28 15.93 211.28C18.98 211.25 22.04 211.36 25.07 211.16C28.94 210.89 31.63 208.4 32.41 204.66C32.74 203.09 32.77 201.5 32.5 199.91C31.82 195.83 28.91 192.59 24.1 192.64C21.56 192.67 19.01 192.64 16.47 192.65C16.21 192.65 15.95 192.69 15.64 192.71C15.65 198.9 15.65 205.03 15.65 211.17ZM15.65 187.93C15.93 187.95 16.13 187.98 16.33 187.98C18.64 187.98 20.94 188 23.25 187.98C26.36 187.94 28.77 186.2 29.82 183.27C30.44 181.54 30.6 179.76 30.38 177.95C30.05 175.18 28.54 173.56 25.82 172.9C25.56 172.84 25.29 172.76 25.03 172.73C21.95 172.35 18.87 172.52 15.79 172.56C15.76 172.56 15.74 172.6 15.66 172.67C15.65 177.68 15.65 182.75 15.65 187.93Z" fill="black"/>
<path d="M162.59 185.58C162.59 184.76 162.59 184.06 162.59 183.29C164.02 183.03 165.42 182.77 166.82 182.53C169.43 182.08 172.03 181.64 174.64 181.2C175.69 181.02 176.32 181.54 176.32 182.6C176.33 185.59 176.32 188.57 176.32 191.56C176.32 197.64 176.32 203.71 176.32 209.79C176.32 210.16 176.32 210.53 176.32 211.02C178.3 211.42 180.24 211.82 182.23 212.23C182.23 213.04 182.23 213.8 182.23 214.61C179.84 215.04 177.51 215.47 175.18 215.89C173.91 216.12 172.64 216.34 171.37 216.56C170.45 216.72 169.73 216.21 169.56 215.28C169.39 214.35 169.23 213.42 169.04 212.34C168.65 212.57 168.34 212.75 168.04 212.94C165.56 214.52 162.96 215.81 160.06 216.39C158.21 216.76 156.36 216.83 154.51 216.34C152.24 215.74 150.47 214.47 149.17 212.52C149.02 212.3 148.87 212.07 148.67 211.75C148.32 211.99 147.99 212.2 147.66 212.42C145.23 214.07 142.68 215.46 139.82 216.19C137.82 216.7 135.81 216.88 133.78 216.41C129.98 215.54 127.27 212.61 126.6 208.58C126.42 207.48 126.36 206.35 126.35 205.24C126.33 199.5 126.34 193.77 126.34 188.03C126.34 187.66 126.34 187.29 126.34 186.8C124.38 186.39 122.44 185.99 120.49 185.58C120.49 184.79 120.49 184.09 120.49 183.29C121.44 183.12 122.36 182.96 123.29 182.8C126.23 182.29 129.17 181.77 132.11 181.27C133.81 180.98 134.26 181.37 134.26 183.06C134.26 189.98 134.26 196.91 134.26 203.83C134.26 205.29 134.28 206.75 134.7 208.17C134.82 208.59 134.96 209.01 135.14 209.41C135.89 211.05 137.2 211.9 138.98 211.98C139.72 212.01 140.48 211.94 141.2 211.8C143.56 211.34 145.69 210.33 147.7 208.96C147.21 206.68 147.39 204.4 147.38 202.13C147.36 197.41 147.37 192.69 147.37 187.98C147.37 187.61 147.37 187.24 147.37 186.79C145.41 186.39 143.5 186 141.54 185.6C141.54 184.84 141.54 184.14 141.54 183.31C142.53 183.13 143.55 182.93 144.57 182.75C147.54 182.24 150.52 181.73 153.49 181.23C154.72 181.02 155.29 181.53 155.29 182.81C155.29 190.04 155.27 197.27 155.31 204.5C155.32 205.71 155.54 206.92 155.71 208.13C155.77 208.56 155.96 208.98 156.14 209.38C156.9 211.06 158.23 211.95 160.05 211.99C160.92 212.01 161.82 211.9 162.67 211.72C164.51 211.32 166.19 210.52 167.81 209.57C168.19 209.35 168.4 209.09 168.4 208.61C168.38 201.45 168.38 194.29 168.38 187.12C168.38 187.05 168.35 186.99 168.31 186.78C166.48 186.39 164.57 185.99 162.59 185.58Z" fill="black"/>
<path d="M152.4 275.05C152.34 279.38 151.91 283.61 150.42 287.68C149.47 290.29 148.15 292.68 146.22 294.7C142.94 298.14 138.83 299.61 134.16 299.72C131.84 299.77 129.55 299.5 127.36 298.71C123.22 297.23 120.3 294.39 118.29 290.53C116.9 287.85 116.07 284.99 115.64 282.02C114.86 276.68 114.9 271.34 116 266.03C116.43 263.97 117.06 261.96 117.99 260.06C121.31 253.23 126.82 250.03 134.36 250.22C138.96 250.34 142.99 251.86 146.21 255.23C148.29 257.4 149.65 260 150.61 262.83C151.96 266.82 152.36 270.93 152.4 275.05ZM143.69 275.08C143.49 272.58 143.36 270.07 143.06 267.58C142.71 264.71 141.98 261.92 140.64 259.32C139.96 258.01 139.13 256.82 137.99 255.87C135.31 253.62 131.76 253.73 129.21 256.14C128.06 257.23 127.24 258.55 126.58 259.98C125.36 262.63 124.73 265.43 124.36 268.3C123.79 272.73 123.79 277.17 124.35 281.6C124.7 284.34 125.29 287.01 126.4 289.55C127.11 291.18 128 292.7 129.34 293.91C131.11 295.51 133.15 296.07 135.47 295.46C137.14 295.02 138.44 294 139.48 292.65C140.72 291.04 141.5 289.21 142.07 287.27C143.25 283.3 143.56 279.21 143.69 275.08Z" fill="black"/>
<path d="M85.4099 186.7C83.4699 186.31 81.5498 185.92 79.5898 185.52C79.5898 184.74 79.5898 184.01 79.5898 183.19C79.9398 183.11 80.2898 183 80.6498 182.94C83.9198 182.35 87.1899 181.77 90.4599 181.2C91.3199 181.05 92.0399 181.52 92.2399 182.39C92.3799 182.98 92.4599 183.59 92.5699 184.19C92.6399 184.55 92.7199 184.9 92.8199 185.34C93.2699 185.04 93.6298 184.8 93.9998 184.56C96.1398 183.16 98.3999 182.01 100.91 181.43C107.43 179.94 113.76 182.99 116.64 189.04C118.36 192.66 118.82 196.5 118.54 200.45C118.33 203.48 117.51 206.32 115.84 208.89C113.34 212.73 109.76 215.01 105.36 216.06C101.57 216.96 97.8198 216.77 94.1698 215.32C93.9598 215.24 93.7298 215.18 93.4498 215.1C93.4498 219.51 93.4498 223.84 93.4498 228.26C95.6198 228.86 97.7999 229.45 100.02 230.06C100.02 230.88 100.02 231.65 100.02 232.42C99.3199 232.63 81.6898 232.7 79.9798 232.5C79.9798 231.71 79.9798 230.92 79.9798 230.06C81.7798 229.47 83.5798 228.89 85.4198 228.29C85.4098 214.43 85.4099 200.6 85.4099 186.7ZM93.3998 211.15C95.4598 212 97.4999 212.59 99.6599 212.63C102.63 212.68 105.05 211.51 106.95 209.23C107.91 208.07 108.6 206.75 109.09 205.33C110.34 201.68 110.38 197.95 109.76 194.18C109.44 192.25 108.83 190.42 107.67 188.83C105.87 186.37 103.43 185.34 100.41 185.67C98.2099 185.91 96.2398 186.79 94.3098 187.81C93.6298 188.17 93.3698 188.59 93.3698 189.39C93.4098 196.31 93.3898 203.22 93.3898 210.14C93.3998 210.44 93.3998 210.74 93.3998 211.15Z" fill="black"/>
<path d="M233.94 186.76C231.99 186.36 230.07 185.97 228.12 185.58C228.12 184.79 228.12 184.09 228.12 183.31C229.16 183.12 230.19 182.92 231.21 182.74C234.18 182.23 237.16 181.72 240.14 181.22C241.34 181.02 241.95 181.55 241.95 182.8C241.95 186.7 241.95 190.61 241.95 194.51C241.95 194.88 241.95 195.24 241.95 195.67C246.78 195.67 251.51 195.67 256.29 195.67C256.29 192.71 256.29 189.8 256.29 186.78C254.36 186.39 252.42 185.99 250.46 185.59C250.46 184.81 250.46 184.1 250.46 183.34C250.69 183.27 250.91 183.19 251.13 183.15C254.97 182.49 258.82 181.83 262.66 181.17C263.51 181.03 264.26 181.64 264.26 182.51C264.27 185.16 264.26 187.81 264.26 190.45C264.26 197.1 264.26 203.76 264.26 210.41C264.26 210.81 264.26 211.21 264.26 211.65C266.13 212.26 267.93 212.84 269.77 213.44C269.77 214.24 269.77 215.01 269.77 215.77C269.07 215.99 252.78 216.07 251.23 215.85C251.23 215.1 251.23 214.33 251.23 213.44C252.84 212.87 254.53 212.28 256.26 211.66C256.26 207.75 256.26 203.87 256.26 199.98C255.49 199.77 243.08 199.74 242 199.96C241.98 200.24 241.94 200.53 241.94 200.83C241.94 204.12 241.94 207.42 241.94 210.71C241.94 211.65 241.95 211.65 242.87 211.98C244.24 212.46 245.61 212.95 247.02 213.44C247.02 214.26 247.02 215.02 247.02 215.78C246.21 216 229.5 216.03 228.49 215.8C228.49 215.04 228.49 214.27 228.49 213.45C230.29 212.86 232.09 212.28 233.87 211.7C234.08 210.93 234.15 188.22 233.94 186.76Z" fill="black"/>
<path d="M165.65 275.92C165.65 274.74 165.65 273.63 165.65 272.47C166.58 272.28 167.47 272.11 168.35 271.9C170.31 271.45 172.19 270.8 173.97 269.84C175.29 269.12 176.49 268.25 177.52 267.14C179.16 265.38 180.05 263.3 180.12 260.89C180.22 257.46 177.95 254.8 174.55 254.36C171.88 254.01 169.36 254.62 166.9 255.57C166.43 255.75 166.36 256.11 166.26 256.52C165.47 259.75 164.67 262.97 163.88 266.2C163.8 266.53 163.71 266.85 163.6 267.25C162.39 267.25 161.19 267.25 160 267.25C159.79 266.48 159.73 254.21 159.93 252.73C161.36 252.31 162.83 251.82 164.34 251.45C168.31 250.46 172.35 250.01 176.45 250.31C179.26 250.51 181.94 251.19 184.35 252.72C186.84 254.31 188.41 256.51 188.69 259.49C188.91 261.89 188.39 264.14 187.16 266.23C185.83 268.48 183.93 270.14 181.74 271.5C181.4 271.71 181.06 271.93 180.61 272.2C180.99 272.33 181.26 272.43 181.53 272.51C183.03 272.97 184.47 273.57 185.78 274.43C189.92 277.14 191.6 281 191.06 285.86C190.46 291.31 187.55 295.25 182.68 297.55C175.69 300.85 168.74 300.57 162.08 296.53C159.91 295.21 158.17 293.41 156.87 291.06C158.53 289.6 160.18 288.16 161.9 286.66C162.1 287.05 162.25 287.34 162.39 287.63C163.41 289.78 164.79 291.65 166.67 293.12C168.99 294.93 171.6 295.78 174.56 295.39C177.64 294.99 179.85 293.32 181.15 290.55C182.73 287.18 182.88 283.66 181.72 280.14C180.77 277.25 178.67 275.47 175.77 274.64C175.38 274.53 174.89 274.58 174.49 274.69C172.26 275.3 169.99 275.72 167.69 275.91C167.04 275.97 166.39 275.92 165.65 275.92Z" fill="black"/>
<path d="M219.96 272.26C220.4 272.41 220.84 272.55 221.29 272.7C223.28 273.35 225.11 274.29 226.68 275.7C229.39 278.13 230.56 281.21 230.39 284.8C230.09 290.88 227.07 295.25 221.61 297.72C214.54 300.92 207.55 300.53 200.94 296.29C198.95 295.01 197.34 293.31 196.11 291.08C197.75 289.64 199.39 288.2 201.12 286.68C201.29 287.01 201.44 287.27 201.56 287.53C202.64 289.84 204.13 291.85 206.2 293.36C208.45 295.01 210.96 295.77 213.77 295.4C216.76 295.01 218.92 293.41 220.29 290.76C221.46 288.5 221.77 286.06 221.62 283.54C221.54 282.14 221.27 280.78 220.7 279.49C219.57 276.92 217.57 275.37 214.91 274.62C214.55 274.52 214.1 274.59 213.72 274.69C211.49 275.31 209.22 275.72 206.92 275.92C206.28 275.97 205.63 275.93 204.86 275.93C204.78 274.82 204.83 273.68 204.83 272.49C205.48 272.36 206.08 272.24 206.67 272.12C209.08 271.63 211.4 270.89 213.54 269.67C215.12 268.77 216.51 267.65 217.58 266.16C218.77 264.51 219.36 262.66 219.36 260.63C219.36 257.44 217.19 254.9 214.02 254.4C211.25 253.97 208.63 254.61 206.07 255.61C205.63 255.78 205.6 256.16 205.52 256.51C204.95 258.81 204.38 261.12 203.82 263.43C203.51 264.68 203.21 265.93 202.87 267.3C201.66 267.41 200.46 267.25 199.18 267.25C199.18 262.43 199.18 257.66 199.18 252.74C200.63 252.32 202.1 251.83 203.61 251.46C207.55 250.48 211.56 250.04 215.62 250.31C217.91 250.46 220.12 250.95 222.2 251.95C225.51 253.55 227.71 256.01 227.97 259.83C228.15 262.46 227.42 264.87 225.91 267.03C224.58 268.93 222.85 270.38 220.89 271.57C220.6 271.75 220.32 271.93 220.04 272.12C220 272.14 220 272.18 219.96 272.26Z" fill="black"/>
<path d="M210.779 186.78C208.729 186.36 206.81 185.97 204.89 185.58C204.89 184.78 204.89 184.07 204.89 183.3C205.95 183.1 206.97 182.9 208.01 182.73C210.98 182.22 213.959 181.71 216.929 181.21C218.089 181.01 218.7 181.54 218.7 182.74C218.7 188.24 218.7 193.74 218.7 199.24C218.7 202.94 218.7 206.64 218.7 210.34C218.7 210.54 218.729 210.74 218.749 211.03C220.669 211.42 222.59 211.82 224.54 212.22C224.54 213.01 224.54 213.74 224.54 214.59C223.52 214.78 222.5 214.96 221.48 215.15C218.88 215.62 216.27 216.09 213.67 216.55C212.85 216.69 212.129 216.21 211.969 215.4C211.779 214.44 211.629 213.47 211.439 212.33C211.059 212.53 210.739 212.69 210.439 212.87C207.999 214.3 205.459 215.5 202.709 216.18C200.469 216.74 198.23 216.89 195.96 216.33C191.92 215.33 189.14 212.33 188.52 208.23C188.39 207.36 188.32 206.47 188.32 205.6C188.3 199.73 188.309 193.86 188.309 187.98C188.309 187.61 188.309 187.24 188.309 186.8C186.339 186.39 184.429 186 182.479 185.6C182.479 184.84 182.479 184.14 182.479 183.32C183.479 183.13 184.5 182.93 185.52 182.76C188.49 182.25 191.469 181.74 194.449 181.24C195.629 181.04 196.24 181.55 196.24 182.73C196.24 189.86 196.229 196.99 196.249 204.12C196.249 205.1 196.309 206.09 196.469 207.06C197.089 210.73 199.319 212.37 203.029 211.97C205.619 211.69 207.999 210.67 210.299 209.47C210.649 209.29 210.809 209.05 210.779 208.67C210.769 208.54 210.779 208.4 210.779 208.26C210.779 201.44 210.779 194.61 210.779 187.79C210.779 187.47 210.779 187.17 210.779 186.78Z" fill="black"/>
<path d="M83.5101 256.65C83.5101 260.79 83.5101 264.76 83.5101 268.86C83.9001 268.75 84.2402 268.65 84.5802 268.54C89.1302 267.19 93.7102 266.92 98.3202 268.25C100.9 268.99 103.23 270.21 105.2 272.06C108.43 275.11 109.8 278.92 109.76 283.31C109.68 291.9 103.53 297.96 95.7301 299.36C89.2701 300.52 83.4802 298.93 78.5602 294.5C77.5002 293.54 76.6002 292.44 75.9102 291.05C77.5402 289.6 79.1701 288.15 80.8701 286.64C81.0701 287.07 81.2102 287.37 81.3602 287.67C82.4702 290.05 83.9601 292.12 86.1201 293.66C88.4401 295.31 91.0202 295.99 93.8302 295.41C96.5402 294.86 98.3901 293.12 99.6801 290.75C100.57 289.12 101.05 287.35 101.25 285.52C101.54 282.83 101.43 280.16 100.49 277.59C99.3102 274.36 97.1502 272.19 93.6702 271.58C92.0202 271.29 90.3602 271.4 88.7202 271.82C86.4902 272.38 84.4402 273.32 82.6402 274.78C82.5402 274.86 82.4201 274.93 82.2301 275.06C81.0901 274 79.9302 272.97 78.8202 271.87C78.6202 271.67 78.5802 271.25 78.5802 270.94C78.5602 269.01 78.5702 267.07 78.5702 265.14C78.5702 260.8 78.5702 256.45 78.5702 252.11C78.5702 251.75 78.5702 251.38 78.5702 250.97C87.7102 250.97 96.7202 250.97 105.8 250.97C105.8 252.86 105.8 254.7 105.8 256.66C98.3902 256.65 91.0001 256.65 83.5101 256.65Z" fill="black"/>
<path d="M292.99 195.29C293.01 194.95 293.03 194.65 293.04 194.35C293.04 192.86 293.06 191.36 293.03 189.87C293.02 189.3 292.98 188.71 292.86 188.16C292.45 186.28 291.28 185.18 289.4 184.94C287.21 184.66 285.08 185.04 282.98 185.68C282.58 185.8 282.48 186.08 282.38 186.41C281.81 188.26 281.22 190.1 280.64 191.94C280.55 192.23 280.45 192.52 280.34 192.83C279.11 192.83 277.9 192.83 276.63 192.83C276.63 189.67 276.63 186.56 276.63 183.31C277.48 183.04 278.36 182.72 279.26 182.47C282.71 181.52 286.23 180.98 289.82 181.09C292.04 181.15 294.21 181.51 296.24 182.47C298.69 183.62 300.36 185.44 300.86 188.15C301.01 188.94 301.02 189.77 301.03 190.58C301.04 197.06 301.04 203.55 301.04 210.03C301.04 210.43 301.04 210.83 301.04 211.3C302.79 211.71 304.46 212.1 306.18 212.5C306.18 213.26 306.18 214 306.18 214.86C305.28 215.02 304.36 215.18 303.43 215.34C301.06 215.75 298.68 216.15 296.31 216.55C295.52 216.68 294.83 216.26 294.64 215.49C294.4 214.54 294.21 213.57 293.96 212.47C293.61 212.72 293.32 212.93 293.03 213.14C290.88 214.74 288.53 215.92 285.87 216.39C283.73 216.77 281.6 216.67 279.53 216.01C275.95 214.87 273.74 211.96 273.49 208.14C273.23 204.21 274.77 201.22 278.12 199.15C280.52 197.66 283.18 196.87 285.93 196.35C287.86 195.99 289.82 195.76 291.76 195.48C292.15 195.42 292.55 195.36 292.99 195.29ZM292.99 199.13C292.4 199.22 291.87 199.28 291.34 199.38C289.13 199.79 286.96 200.3 284.98 201.42C281.25 203.53 281.14 207.29 282.02 209.76C282.86 212.14 285 213.26 287.46 212.67C289.36 212.22 290.9 211.12 292.4 209.94C292.87 209.57 293.06 209.17 293.06 208.56C293.03 205.74 293.05 202.93 293.04 200.11C293.04 199.82 293.01 199.52 292.99 199.13Z" fill="black"/>
<path d="M74.2204 208.23C74.9004 208.89 75.6504 209.61 76.5004 210.43C76.0004 211 75.5704 211.56 75.0704 212.04C71.9504 214.99 68.1904 216.44 63.9504 216.66C61.6704 216.78 59.4104 216.53 57.2004 215.91C51.7704 214.39 48.1604 210.94 46.5904 205.52C45.2104 200.77 45.3004 195.97 46.9604 191.3C49.0804 185.35 53.4804 182.15 59.6404 181.26C62.2204 180.89 64.7904 180.97 67.3104 181.66C70.7004 182.59 73.2204 184.6 74.8604 187.72C76.0804 190.04 76.6504 192.54 76.8704 195.13C76.9704 196.23 76.9904 197.35 77.0504 198.56C69.4004 198.56 61.8804 198.56 54.3204 198.56C54.2604 198.83 54.1804 199.01 54.1804 199.2C54.1904 201.74 54.5804 204.2 55.7004 206.51C57.1904 209.59 59.5104 211.69 62.9304 212.37C65.8704 212.96 68.6004 212.26 71.0904 210.67C72.1904 209.97 73.1604 209.07 74.2204 208.23ZM54.4804 194.65C55.7904 194.86 68.1404 194.81 68.9904 194.58C68.9004 193.73 68.8604 192.85 68.7204 192C68.3804 190.04 67.7304 188.19 66.3704 186.68C64.5104 184.6 61.7704 184.17 59.3604 185.58C58.3804 186.16 57.5904 186.95 56.9504 187.88C55.5504 189.9 54.8704 192.19 54.4804 194.65Z" fill="black"/>
</svg>
