<svg width="75" height="13" viewBox="0 0 75 13" fill="none" xmlns="http://www.w3.org/2000/svg">
<path fill-rule="evenodd" clip-rule="evenodd" d="M74.3435 5.67285L74.1775 5.68704C74.1917 5.71967 74.238 5.72251 74.3435 5.67285Z" fill="#FFED00"/>
<path fill-rule="evenodd" clip-rule="evenodd" d="M74.4856 6.13347C74.4894 6.13726 74.496 6.13442 74.4993 6.13915C74.4984 6.11929 74.4941 6.12071 74.4856 6.13347Z" fill="#FFED00"/>
<path fill-rule="evenodd" clip-rule="evenodd" d="M14.8862 11.412C14.986 11.3836 15.0333 11.3254 15.0508 11.2578C14.9808 11.2919 14.9203 11.3391 14.8862 11.412Z" fill="#FFED00"/>
<path fill-rule="evenodd" clip-rule="evenodd" d="M26.1488 2.2085C26.1432 2.25862 26.1399 2.29835 26.1389 2.33902C26.1559 2.30639 26.1616 2.26288 26.1488 2.2085Z" fill="#FFED00"/>
<path fill-rule="evenodd" clip-rule="evenodd" d="M72.3196 5.76769C72.3461 5.7814 72.3725 5.7918 72.3971 5.8093C72.4222 5.69722 72.3451 5.70101 72.3196 5.76769Z" fill="#FFED00"/>
<path fill-rule="evenodd" clip-rule="evenodd" d="M12.1463 10.6694C12.1354 10.7054 12.126 10.7437 12.1189 10.7938C12.134 10.746 12.1406 10.7082 12.1463 10.6694Z" fill="#FFED00"/>
<path fill-rule="evenodd" clip-rule="evenodd" d="M66.0265 2.79199C65.9981 2.81138 65.9693 2.81895 65.9409 2.82793C65.9688 2.83455 65.9991 2.82746 66.0265 2.79199Z" fill="#FFED00"/>
<path fill-rule="evenodd" clip-rule="evenodd" d="M28.2764 11.6352C28.3166 11.5851 28.3374 11.5345 28.3492 11.4839C28.3053 11.5127 28.2726 11.5596 28.2764 11.6352Z" fill="#FFED00"/>
<path fill-rule="evenodd" clip-rule="evenodd" d="M72.0945 4.31415C72.102 4.30612 72.1082 4.2995 72.1158 4.29004C72.1091 4.29571 72.1016 4.3047 72.0945 4.31415Z" fill="#FFED00"/>
<path fill-rule="evenodd" clip-rule="evenodd" d="M73.4768 5.77473C73.4886 5.75156 73.499 5.72555 73.5042 5.69434C73.4929 5.72366 73.4844 5.75108 73.4768 5.77473Z" fill="#FFED00"/>
<path fill-rule="evenodd" clip-rule="evenodd" d="M51.2334 3.01367C51.2424 3.02077 51.2509 3.02975 51.2613 3.03874C51.2509 3.02691 51.2424 3.02029 51.2334 3.01367Z" fill="#FFED00"/>
<path d="M25.2935 2.45508C25.2925 2.45615 25.2909 2.45615 25.2909 2.45615H25.2898C25.2898 2.45615 25.2925 2.45615 25.2935 2.45508Z" fill="#FFED00"/>
<path d="M75 7.3939C74.7461 7.7027 74.7219 7.03214 74.4524 7.41707C74.4784 7.25724 74.5257 6.93709 74.6633 7.01654C74.4477 6.66707 74.2316 6.72571 74.1521 6.32564C74.3261 6.62924 74.4486 6.19512 74.4855 6.13364C74.3318 6.01826 74.0117 6.12135 73.8939 6.28591C73.9001 5.64845 73.3113 6.3072 73.4763 5.77519C73.3969 5.9303 73.203 5.9128 73.1023 5.76715C73.133 5.47963 73.4588 5.34108 73.6059 5.011C74.2287 4.71686 73.5723 5.5047 73.7047 5.71986L74.1772 5.68723C74.1346 5.59029 74.3734 5.22427 74.0741 5.25406C74.2301 4.84217 74.5063 4.55655 74.7229 4.8748C74.7735 4.67997 74.6151 4.71591 74.5649 4.70031C74.6203 4.50736 74.87 3.80133 74.5427 3.6921C74.6392 3.72473 74.3753 4.01177 74.5479 4.2364C74.4094 4.31679 74.032 4.02076 74.1956 3.65616C74.0258 3.76539 73.6811 4.02407 73.5255 4.095C73.5 3.78809 73.6598 3.97299 73.7407 3.83349C73.5671 3.88409 73.3903 3.93327 73.2096 3.98103L73.3401 4.32388C72.968 4.06001 72.653 4.8365 72.3003 5.04788C72.3925 4.52581 72.6667 4.50216 72.8961 4.24538C72.7462 3.59232 72.7396 4.57026 72.409 4.44636C72.3721 4.34564 72.3712 4.21748 72.4076 4.05953L72.0969 4.49838C72.0378 4.44021 72.0619 4.3584 72.0945 4.31442C71.8628 4.55844 71.8415 4.73577 71.8127 4.87338C71.7725 4.87953 71.7309 4.88615 71.6883 4.8923L71.6335 4.89986L71.6472 4.74523C71.5687 4.91263 71.3951 4.84454 71.3351 4.77691C71.336 4.76367 71.3379 4.74807 71.3398 4.73151C71.3847 4.67146 71.3899 4.62843 71.3743 4.58776C71.3838 4.57641 71.3932 4.56837 71.4065 4.56459C71.3914 4.56459 71.3786 4.56648 71.3649 4.56742C71.3171 4.48467 71.196 4.409 71.189 4.22647C71.0854 4.30355 71.1781 4.70693 70.9837 4.69463C70.9643 4.69368 70.9421 4.68801 70.9166 4.67808L70.9369 4.60147L70.5832 4.93723C70.717 4.69652 70.8404 4.45487 70.9596 4.21181C70.8811 3.60177 70.5373 3.94084 70.4144 3.67933C70.5453 4.23356 70.2578 3.94084 70.5605 4.40758L70.3392 4.97269L70.0365 4.80198C70.0266 4.90412 69.9556 4.99161 69.9098 5.07578C69.8204 5.10321 69.7301 5.13915 69.644 5.16799C69.7523 5.05497 69.8053 4.94621 69.5613 4.88237C69.6279 4.40853 69.879 4.68943 70.011 4.58019C69.9325 4.46102 70.081 4.27801 70.0677 4.1054C70.0048 4.15837 69.9226 4.28936 69.8261 4.24727C69.8024 4.02643 69.9642 3.88977 70.071 3.98103C69.9538 3.71858 70.2796 3.61785 70.1008 3.40883C69.6658 3.54266 69.3352 3.68453 68.9356 4.34374C69.209 4.25815 69.5069 4.14371 69.6937 4.35367L69.565 4.75752C69.3664 4.37306 69.191 4.62937 68.9578 4.56648L69.4638 4.83555C69.5721 5.02518 69.5797 5.13348 69.5324 5.20252C69.3357 5.25217 69.1669 5.23373 69.0713 4.96512L69.0723 5.39924C69.0155 5.42903 68.9687 5.46876 68.946 5.53023C68.8727 5.52929 68.7961 5.52929 68.719 5.52834C68.6396 5.46828 68.5866 5.34675 68.5526 5.21954C68.5866 5.20866 68.6221 5.19731 68.6566 5.18313C68.6164 5.17083 68.5767 5.16137 68.5365 5.15333C68.5166 5.05734 68.5043 4.96701 68.4987 4.90507C68.4235 4.82089 68.4745 4.66578 68.5327 4.50216C68.5668 4.48656 68.6036 4.46528 68.6415 4.43832L68.6202 4.51682L68.8311 3.99758L68.6774 3.97631C68.8226 3.68737 69.2042 3.24048 69.2988 3.2367C68.9323 3.24947 68.7606 3.74553 68.5739 4.1787C68.4599 4.24065 68.3937 4.39529 68.3138 4.52486C68.2617 4.49932 68.2159 4.4596 68.1752 4.41184C68.0896 4.313 68.0234 4.17965 67.9619 4.06284C67.8555 3.86139 67.7624 3.70865 67.6039 3.86707C67.5907 3.85335 67.5784 3.84058 67.5656 3.8264C67.5411 3.58664 67.3959 3.32324 67.5959 3.13503C67.7718 3.05936 67.8853 3.20029 67.9624 3.18374C67.9983 3.1757 68.0262 3.13361 68.0489 3.01822C68.0135 3.01586 67.9851 3.00971 67.9624 3.00073C67.821 2.94634 67.8664 2.7936 67.5292 2.80211C67.4725 3.0012 67.3751 3.19083 67.2587 3.36911C67.2266 3.27737 67.2133 3.18184 67.2308 3.08301C67.0634 2.96242 67.0833 3.18515 66.81 3.01728C66.6307 3.31756 66.7324 3.66136 66.381 3.83964L66.6132 4.0288C66.6724 3.97441 66.7263 3.90159 66.7901 3.85714L66.5229 3.86328C66.7088 3.7356 66.7031 3.563 66.7939 3.26366C66.9712 3.27028 67.0771 3.38282 67.1552 3.52044C67.0204 3.70486 66.8691 3.87605 66.7215 4.03116C66.451 4.20991 66.1465 4.19147 65.928 4.07703C66.0202 4.00042 66.0808 3.92996 66.121 3.86517C66.3059 3.71101 66.4487 3.45139 66.4298 3.21495C66.3858 3.30527 66.3399 3.34357 66.2931 3.35161C66.3427 3.27926 66.4241 3.20454 66.5712 3.11989C66.635 2.6418 66.4638 2.5231 66.1943 2.52925C66.0647 2.33915 66.0434 2.21147 65.9063 2.15945C65.8538 2.13911 65.7843 2.13013 65.685 2.13297C65.7039 2.18357 65.7412 2.28429 65.7001 2.30983C65.5984 2.31314 65.4807 2.2668 65.3785 2.27058L65.432 1.72959C65.3539 1.78114 65.266 1.77688 65.1695 1.7452C64.8626 1.64494 64.4654 1.26805 64.0038 1.51963L64.0672 1.41417C63.6312 1.2496 63.477 2.3103 62.9786 2.38738C63.1446 2.14857 63.103 1.91733 63.1039 1.66007C62.9909 1.76222 62.9095 1.74283 62.8362 1.67379C62.7327 1.5759 62.6452 1.37776 62.5047 1.27987C62.7663 1.62508 62.2555 1.83363 62.4508 2.02846C62.439 2.20012 62.3808 2.31267 62.2976 2.38407C62.1373 2.52168 61.8862 2.50513 61.707 2.45974C61.7221 2.35334 61.7004 2.2545 61.6791 2.14905C61.8455 1.83457 62.4381 1.99205 62.1614 1.37776C61.898 1.29169 61.7982 1.68277 61.9742 1.82795C61.655 1.71777 61.1211 1.60238 60.9418 1.15975C60.8033 1.33236 60.6969 1.41133 60.6056 1.46713C60.4306 1.57401 60.3115 1.59671 60.1285 2.03839C60.328 2.01994 60.3715 1.52435 60.6037 1.8114L60.2987 2.30557C60.2003 2.30888 60.1095 2.27531 60.0235 2.22471L59.9322 1.84308C59.9478 1.96462 59.9313 2.05919 59.901 2.13864C59.796 2.05447 59.6986 1.95516 59.6073 1.88044C59.6494 1.89227 59.6962 1.89226 59.7478 1.862C59.6887 1.85491 59.6447 1.86389 59.6054 1.8795C59.5515 1.83457 59.4976 1.79958 59.4447 1.78113C59.4432 1.77924 59.4399 1.77735 59.4385 1.77546L59.7099 1.56644L59.6929 1.64731C59.8045 1.42788 60.1332 1.57637 60.1171 1.19144C59.8537 1.65535 59.6943 1.18103 59.3652 1.50071L59.3822 1.42032C59.3562 1.43687 59.3312 1.45058 59.3066 1.46099C58.8805 1.644 58.5864 0.974378 58.2861 1.23211C58.2189 1.2898 58.1513 1.39336 58.0822 1.56313C58.1466 1.55604 58.2445 1.71871 58.2861 1.88517C58.296 1.92679 58.3031 1.9684 58.305 2.00812L58.2861 2.01569C58.2643 2.02515 58.2468 2.03602 58.2312 2.04927C58.0908 1.89936 57.8425 1.91307 57.8652 1.66575L57.982 1.57401C57.6756 1.47943 57.4925 1.42504 57.3753 1.51489C57.3668 1.54469 57.362 1.57306 57.354 1.60002C57.2812 1.58536 57.2027 1.55935 57.1227 1.52672L57.1 1.51726C57.1294 1.39904 57.1223 1.28743 57.0187 1.19427L56.7695 1.36073C56.5472 1.25055 56.3207 1.138 56.1179 1.10773L56.1221 1.14746C56.072 1.14462 56.0204 1.14746 55.9694 1.15597C55.9486 1.1328 55.9202 1.11719 55.879 1.11341L55.8535 1.17961C55.522 1.2723 55.1995 1.53665 54.8557 1.71304C54.7895 1.5986 54.9961 1.39951 54.8576 1.20421C54.7753 1.27561 54.6793 1.31675 54.5729 1.28885C54.7417 1.17299 54.9309 1.11814 55.0274 1.1049C54.8964 0.826363 54.7152 0.916212 54.5247 0.980526C54.4859 0.993767 54.4462 1.00606 54.4069 1.01363C54.3147 0.957827 54.2135 0.932764 54.1085 0.927562C54.1033 0.922833 54.0991 0.919995 54.0939 0.915266C54.0404 0.899661 53.9889 0.902026 53.9402 0.916686C53.917 0.92378 53.8943 0.934183 53.8725 0.946479C53.7392 0.972961 53.6077 1.02214 53.4928 1.077C53.4777 1.28271 53.4569 1.46571 53.4304 1.64305C53.4058 1.6421 53.3855 1.63643 53.3684 1.62603C53.2436 1.55131 53.3037 1.25291 53.2691 1.18198C53.1991 1.47044 53.0502 1.56313 52.879 1.59718L52.8421 1.52199C52.8398 1.55225 52.8369 1.57874 52.8327 1.60427C52.6671 1.62981 52.4879 1.61231 52.3418 1.67048L52.3404 1.51773C52.4146 1.44018 52.4974 1.44491 52.5962 1.61326L52.5598 1.24014C52.7721 1.18292 52.9551 1.55746 53.0648 1.19144L52.8175 1.27656L52.8161 1.077C52.6402 1.10443 52.4246 1.42174 52.2562 1.20137C52.2335 1.24251 52.2113 1.28743 52.1881 1.33378C52.1493 1.41181 52.1077 1.49314 52.0576 1.56455L51.8476 1.73905C51.8514 1.74047 51.8538 1.74425 51.8571 1.74567C51.7899 1.77546 51.7105 1.78444 51.614 1.76364L51.6239 1.68608C51.5554 1.88754 51.4655 1.93624 51.3653 1.91165C51.4707 1.7712 51.5738 1.63596 51.6325 1.51111C51.475 1.5636 51.3274 1.56313 51.204 1.49834C51.1539 1.47186 51.108 1.43498 51.0664 1.38674C51.0442 1.36073 51.0234 1.33141 51.004 1.29878C50.9936 1.28129 50.9836 1.26284 50.9742 1.24298C50.864 1.42788 50.7524 1.49125 50.6422 1.50449H50.6417L50.6422 1.50355C50.6895 1.41559 50.7392 1.34796 50.7713 1.31865L50.6422 1.16306L50.2923 0.742188C50.1868 0.777655 50.088 0.797989 49.9934 0.808865C49.9527 0.813594 49.913 0.816432 49.8738 0.818324C49.8312 0.820215 49.7891 0.820687 49.7475 0.820687C49.4302 0.819269 49.1327 0.774344 48.7331 0.97154L48.7615 0.739825C48.7294 0.718071 48.6986 0.698681 48.6693 0.68213C48.178 0.401704 48.0115 0.776709 47.8328 1.18529C47.4421 1.19948 47.1315 1.42694 46.799 1.62224C46.7867 1.58488 46.7787 1.53145 46.7801 1.44585C47.034 1.47896 46.974 1.2619 46.8908 0.999442C46.7536 1.19948 46.6751 1.6142 46.3852 1.41228C46.477 1.12003 46.2197 0.885002 46.4912 0.76536C46.2424 0.69348 46.0684 0.692063 45.9294 0.834877C45.8523 0.914323 45.7861 1.03775 45.7241 1.21839C45.1231 1.72297 45.5127 0.601738 44.9098 0.903917L44.9911 0.687331L44.6124 0.777182L44.7495 1.05713L44.5026 1.25339L44.3097 1.40708C44.1934 1.54753 44.2038 1.63406 44.2501 1.70547C44.0605 1.75796 43.8803 1.72013 43.746 1.37397C43.5219 1.29642 43.3904 1.40424 43.2788 1.56171C43.3308 1.44964 43.3776 1.33803 43.4278 1.22738L43.4973 0.887367L43.2901 1.08551C43.2192 1.15171 43.1355 1.21792 43.0589 1.28365C43.1161 1.0997 42.8839 1.1607 42.9776 0.944585C42.9416 0.97485 42.7709 1.05099 42.8229 1.14226L42.9222 1.12854C42.8574 1.27656 42.8239 1.39904 42.8002 1.50733C42.7818 1.47754 42.7577 1.45295 42.7222 1.43592C42.6863 1.44538 42.6522 1.45153 42.6158 1.46051C42.6721 1.33614 42.7038 1.21224 42.7004 1.11152C42.638 1.5532 42.4697 1.16543 42.3278 1.06376C42.3212 1.05903 42.315 1.05524 42.3084 1.05193L42.3278 1.03349C42.4347 0.928034 42.6134 0.691115 42.4474 0.6495C42.4318 0.703883 42.3822 0.766777 42.3278 0.832036C42.1963 0.990456 42.0398 1.16495 42.2819 1.28223C42.1472 1.40802 41.9712 1.64258 41.8034 1.5182C41.9793 1.28649 41.8464 1.13422 41.8823 0.824471C41.7296 1.10253 41.7542 1.42646 41.7353 1.58157C41.4402 1.35033 41.2449 0.941276 41.0217 0.754011C40.8897 0.643827 40.7483 0.610251 40.5715 0.736514C40.5086 0.79799 40.8633 0.58235 40.8335 0.889731C40.5005 1.43025 40.3336 0.35016 40.0324 0.58235L40.1463 1.09213C40.0631 1.17536 39.8655 1.25764 39.7425 1.30777L39.7047 1.32337C39.6659 1.15219 39.3141 0.812649 39.5543 0.644299C39.4914 0.612142 39.437 0.601739 39.3897 0.608832C39.1022 0.649974 39.0611 1.31581 38.7901 1.54422C38.7844 1.54895 38.7787 1.55367 38.7731 1.55793L38.7641 1.55083L38.7698 1.55935C38.7059 1.60616 38.6288 1.62839 38.5352 1.61468C38.5484 1.44444 38.5811 1.27608 38.6265 1.14415C38.5749 1.17725 38.5196 1.19333 38.4586 1.19853C38.4633 1.18576 38.4662 1.17394 38.4676 1.16164L38.2316 1.17205C38.2188 1.16826 38.2056 1.16448 38.1928 1.16022C38.1181 1.13658 38.0396 1.10443 37.9592 1.06801C37.9389 0.99897 37.9001 0.938912 37.8268 0.896352C37.824 0.929455 37.815 0.962557 37.8051 0.994241L37.7232 0.95357C37.4986 0.841495 37.2688 0.727055 37.0631 0.694426L37.1094 1.10253C37.0725 1.15455 37.0087 1.16353 36.9349 1.15739C36.9586 0.975323 37.0106 0.717123 36.8238 0.701991L36.6729 1.09781L36.6498 1.05052L36.6479 1.05382L36.6394 1.0699L36.6176 1.11246C36.5609 1.11436 36.5103 1.12901 36.4776 1.17347L36.2771 1.25008L36.2019 1.25291C36.2015 1.25008 36.201 1.24582 36.1996 1.24298C36.235 1.19475 36.2596 1.13327 36.2648 1.05382L36.2213 1.07936C36.2393 1.03349 36.2677 0.982418 36.3121 0.925198C36.2705 0.991403 36.1807 1.0193 36.0989 1.05146C36.0047 1.08882 35.921 1.13185 35.9329 1.24771L35.9069 1.26332L35.7891 1.26568C35.7702 1.1484 35.9281 0.969176 35.8028 0.791368C35.7087 0.874125 35.5971 0.916685 35.4742 0.861829C35.4628 0.8571 35.4519 0.851426 35.4406 0.844805L35.4642 0.691115C35.2902 0.515199 35.0594 0.490135 34.8348 0.531277C34.7435 0.548301 34.6532 0.57573 34.5681 0.608832C34.5227 0.626329 34.4792 0.645718 34.4371 0.665107C34.4206 0.902499 34.3945 1.11341 34.3638 1.31391L33.8923 1.3281L33.7869 1.1101C33.7822 1.19995 33.7689 1.27419 33.75 1.33283L33.1404 1.35222C33.2535 1.09969 33.374 0.916687 33.5405 1.2009L33.505 0.828729C33.7174 0.771509 33.8994 1.14557 34.0096 0.778602L33.7623 0.864666V0.66416C33.5864 0.692533 33.3693 1.00937 33.2014 0.788058C33.1267 0.925197 33.0558 1.10584 32.9447 1.22785C32.8638 1.31628 32.7612 1.37397 32.6198 1.36073C32.6004 1.35884 32.5796 1.356 32.5588 1.35128L32.5692 1.27419C32.5564 1.31297 32.5427 1.34371 32.528 1.37161L32.1157 1.3839C32.0674 1.34418 32.0197 1.29973 31.9733 1.25859C31.8423 1.14131 31.7246 1.05004 31.6541 1.16827C31.6414 1.26521 31.6409 1.33993 31.6499 1.39809H31.6504C31.6816 1.609 31.831 1.6038 31.9733 1.61231C32.0731 1.61846 32.1691 1.63123 32.2173 1.73101C32.1644 1.82748 32.1081 1.8445 32.0637 1.84261C32.0712 1.78445 32.0674 1.71777 32.0429 1.63737L31.9729 1.68608L31.761 1.83363L31.7813 1.67852L31.6423 1.70121L31.4333 1.73526C31.5085 1.98684 31.5619 2.01333 31.5577 2.26159C31.5463 2.26963 31.5354 2.27673 31.5246 2.28288C31.1462 2.18688 31.3434 1.99488 31.1302 1.70973C31.1406 1.56266 31.1032 1.44585 30.9372 1.56029C30.9547 1.56549 30.976 1.58961 30.9959 1.62461L30.5291 1.6771L30.5698 1.59198C30.5258 1.5986 30.5078 1.63406 30.4932 1.67899L30.208 1.71162L30.0316 1.73195C30.0709 1.58205 30.0969 1.39005 30.208 1.27419C30.2307 1.25008 30.2577 1.22974 30.2884 1.21319L30.5613 1.57259C30.7145 1.49598 30.5012 1.35317 30.487 1.23163C30.6734 1.12523 30.7556 1.38769 30.9008 1.391C30.8549 1.29642 30.7528 1.1886 30.7727 1.03349C31.0228 1.34513 31.2512 1.13327 31.4929 1.7225C31.3832 1.49834 31.5288 1.16874 31.6418 0.999442C31.6702 0.957355 31.6962 0.924724 31.7161 0.906754L31.6418 0.817377L31.238 0.330297C30.8474 0.461762 30.5499 0.381843 30.2076 0.41069C30.0458 0.424404 29.8737 0.462709 29.677 0.559179L29.7044 0.328407C29.6032 0.259364 29.5148 0.215859 29.4363 0.19316C28.8281 0.0153522 28.8319 1.09213 28.3618 1.41275C28.3023 1.45342 28.2351 1.48132 28.158 1.49362C28.1386 1.49645 28.1183 1.49929 28.0975 1.50023C28.0521 0.929453 27.7149 1.58914 27.7244 1.03396C27.9783 1.06707 27.9183 0.850953 27.8355 0.587551C27.6965 0.788058 27.6185 1.20279 27.3291 1.00133C27.4208 0.708139 27.1631 0.473112 27.4345 0.354415C27.0486 0.24234 26.8429 0.300979 26.6675 0.807448C26.0674 1.3125 26.4566 0.191267 25.8532 0.492973L25.935 0.276387L25.5562 0.366238L25.6928 0.645246L25.341 0.925671L25.2549 0.994241C25.0298 1.26568 25.2762 1.33331 25.341 1.48794C25.3528 1.51584 25.3585 1.54658 25.3542 1.58205L25.4309 1.16543C25.6186 1.26048 25.8617 0.893514 25.9113 1.18576C25.6153 1.25575 25.6999 1.58015 25.5874 1.7485L25.8654 1.57259L25.97 1.88092C26.2537 1.8847 26.4745 1.94807 26.6306 1.59387C26.5067 1.44065 26.4514 1.90172 26.3364 1.66858C26.4551 1.14509 26.8046 1.08835 27.1399 0.904864C27.1541 1.02923 27.2638 1.06092 27.2222 1.16827C27.2165 1.21508 27.1569 1.21272 27.1224 1.19238C27.1579 1.42316 26.9725 1.57685 27.3002 1.70926C27.1995 2.07811 26.9843 2.69287 26.9971 2.81772C26.9957 2.81772 26.9938 2.81866 26.9938 2.81866C26.903 2.47723 26.5913 2.62903 26.37 2.6366L26.3866 2.08568C26.2296 2.17836 26.1705 2.3661 26.1761 2.54911C26.1506 2.50419 26.135 2.43657 26.1374 2.33868C26.1114 2.39637 26.0475 2.429 25.9676 2.45406L25.9927 2.41245L25.5363 2.45123C25.5477 2.43184 25.5552 2.40961 25.5552 2.38171L25.3405 2.45879L25.2876 2.47771L25.2885 2.45548L25.2909 2.27011C25.2739 2.26396 25.2583 2.26207 25.2417 2.25828C25.2653 2.20579 25.297 2.14999 25.3405 2.08804C25.3538 2.06913 25.3684 2.04974 25.384 2.0294C25.3798 2.03366 25.3651 2.04264 25.3405 2.05588C25.2734 2.0923 25.1334 2.16087 24.9414 2.25308L24.9504 2.1883C24.966 2.1585 24.9769 2.12304 24.9826 2.07007C25.0374 2.08757 25.0686 2.05778 25.0819 2.18168C25.2266 1.70453 24.9844 1.59292 24.7329 1.55935L24.6879 1.9353C24.5754 1.83268 24.4846 1.69791 24.3858 1.61089C24.3366 1.56644 24.2865 1.53523 24.2288 1.52435C24.1654 1.51489 24.0973 1.52435 24.0188 1.56833C23.7871 2.03744 23.5658 2.50892 23.3591 2.98559L23.1577 3.08065C23.0541 2.86879 22.7538 3.0447 22.8508 2.60539C22.8096 2.43373 22.9089 2.34151 23.0503 2.41907C23.0725 2.46352 23.0409 2.49473 23.0654 2.54013C23.091 2.30841 23.0915 2.03035 22.9127 1.78728C23.0853 1.83031 23.109 1.87666 23.2187 1.70547L23.0456 1.66102C23.2934 1.56691 23.6566 1.0212 23.6433 0.700574C23.5785 1.16117 23.3965 0.71618 23.2518 0.639571C23.3534 0.545939 23.5662 0.282064 23.3903 0.237612C23.3378 0.423932 22.8824 0.705302 23.2243 0.871761C23.0896 0.997077 22.9132 1.23163 22.7472 1.10726C22.9217 0.87507 22.7898 0.722798 22.8247 0.41258C22.6729 0.691114 22.6966 1.01599 22.6786 1.17063C22.21 0.801773 21.9929 -0.0144416 21.5139 0.324623C21.4524 0.386099 21.8071 0.171406 21.7763 0.478787C21.4429 1.0193 21.2774 -0.0607846 20.9753 0.171406L21.0897 0.68024C21.0287 0.74077 20.9072 0.801774 20.7979 0.849536C20.7412 0.874127 20.6877 0.895407 20.6485 0.911485C20.6277 0.818325 20.5137 0.67551 20.4527 0.537425C20.4102 0.440955 20.3936 0.346848 20.4527 0.27355C20.4645 0.25889 20.4792 0.245176 20.4976 0.232408C20.482 0.224369 20.4674 0.218222 20.4527 0.212547C19.9529 0.0285919 20.0555 1.33661 19.4436 1.19853C19.7363 1.3229 19.7684 1.29264 19.994 1.27939C19.7665 1.57117 19.9685 1.50922 19.9566 1.86436C19.7978 1.53949 19.3424 1.84497 19.6431 1.41464C19.4492 1.39856 19.061 1.36641 18.9806 1.58015L19.157 1.75276C18.8775 1.74945 18.6141 2.07149 18.5148 2.43987C18.861 2.38218 18.8222 1.73432 19.2662 1.78397C19.7301 2.10554 19.2341 2.14999 19.454 2.56566C19.2809 2.58222 19.1258 2.63707 19.0094 2.78461V2.78367L19.009 2.78556C18.948 2.86406 18.8959 2.96715 18.8591 3.10713L18.9257 2.70895L17.9766 2.36421C17.8821 2.38171 17.7875 2.39353 17.6934 2.40063L17.6513 2.40346C17.6655 2.39448 17.6797 2.38502 17.6934 2.37509C17.8423 2.26774 17.97 2.10696 18.2103 2.10317C18.0925 2.04879 18.0145 1.89179 17.9478 1.75512C17.9175 1.30588 18.2888 1.49693 18.5465 1.45484C18.3734 1.26379 18.4623 1.09733 18.5744 0.917159C18.5952 0.903446 18.6094 0.87649 18.6188 0.845279L18.6567 0.782383L18.6245 0.78333C18.625 0.733203 18.616 0.672674 18.5905 0.589445C18.3777 0.726584 18.198 0.355363 18.0585 0.352998C18.1705 0.841024 17.9208 0.754956 17.6934 0.715233C17.5823 0.695845 17.4758 0.687332 17.4205 0.762522L17.2205 0.839131L17.1453 0.842915C17.1264 0.762523 17.1444 0.66227 17.2555 0.5152C17.2243 0.564854 17.1666 0.59228 17.1051 0.616397C16.985 0.663687 16.8516 0.69679 16.8772 0.85048L16.8143 0.852844L16.5324 0.862776L16.139 0.876962C16.1153 0.847642 16.0907 0.810759 16.0723 0.757795C16.0477 0.804611 16.0449 0.84244 16.0496 0.879326L14.9851 0.912902L14.5557 0.926615L12.8207 0.981946C12.9819 1.03633 13.1243 1.20137 13.2917 1.27939C13.0576 1.76789 13.565 1.3631 13.5045 1.8218C13.3981 1.99063 13.2335 1.94097 13.1333 1.83173C13.103 2.06345 13.2472 2.2668 13.2392 2.54297C13.6572 2.82907 13.6884 1.71871 14.0928 1.88092C14.0857 2.15992 13.9679 2.40488 14.229 2.36279L14.1647 2.42285C14.4077 2.23417 14.4834 2.48906 14.5557 2.56661C14.6049 2.61958 14.6527 2.58978 14.7506 2.27956L14.7548 2.6801C14.8154 2.57843 14.8962 2.50939 14.9851 2.46068C15.1634 2.36279 15.3734 2.34577 15.511 2.30605L15.5006 2.38455C16.069 1.91496 15.8255 2.27956 16.4724 2.07527L16.2355 2.46967C16.0472 2.51696 15.869 2.5983 15.7044 2.73827L15.5422 2.40299C15.3932 2.65457 15.2003 2.81393 14.9851 2.92696C14.9624 2.93878 14.9397 2.95013 14.9166 2.961C14.8565 2.98985 14.7922 3.01444 14.7321 3.03761C14.6744 3.05936 14.6182 3.08065 14.5562 3.09862L14.5557 3.09909C14.4314 3.13597 14.3056 3.16718 14.1793 3.20029C13.8365 3.2873 13.4993 3.38803 13.2425 3.64859C13.2567 3.52375 13.4501 3.36674 13.3361 3.3327L13.2397 3.62447C13.1673 3.57955 13.1205 3.53037 13.094 3.46038C13.1021 3.44099 13.1096 3.42255 13.1139 3.4041C13.1011 3.39796 13.0883 3.39559 13.0746 3.3937C13.0661 3.35209 13.0614 3.3048 13.0614 3.249C12.7502 3.11942 12.406 3.23386 12.1364 3.53888C12.135 3.53652 12.1345 3.53462 12.1331 3.53084C12.1407 3.32371 12.5199 3.35067 12.3535 3.2192C12.1719 2.82812 12.0584 3.59137 11.8517 3.15489C11.9071 3.4164 11.7245 3.69872 11.4985 3.88362C11.4781 3.8874 11.4583 3.88787 11.4379 3.88173C11.5467 3.71196 11.7865 3.42396 11.7628 3.37715C11.4507 4.00373 10.6983 3.01728 10.582 3.4599C10.3541 3.87179 10.0027 4.2014 9.72135 4.59485C9.71898 4.59579 9.71709 4.59674 9.71567 4.59674C9.64237 4.51635 9.5686 4.46859 9.49247 4.44163C9.42815 4.41373 9.361 4.40758 9.28534 4.40758C9.13921 4.40758 8.98363 4.43548 8.82616 4.38205L8.88338 4.20046C8.70557 4.09878 8.42231 4.28747 8.14992 4.19809L8.09034 3.8543C7.90165 3.95408 7.54273 3.99995 7.24528 3.9886C7.24291 4.18911 7.5153 4.15317 7.38715 4.39482C7.53374 4.40144 7.65764 4.35982 7.60468 4.14276C7.75127 4.14796 7.75553 4.4719 7.87375 4.63221L7.31101 4.854C7.26561 4.82988 7.24953 4.80245 7.2467 4.77218L7.23204 4.90601C7.16772 4.9098 7.10246 4.91169 7.03862 4.91405C7.03957 4.90648 7.04004 4.90034 7.04051 4.89183C7.02585 4.89892 7.01167 4.90743 6.99701 4.91594C6.86223 4.92067 6.72793 4.92256 6.59363 4.92351C6.63714 4.89797 6.68726 4.88331 6.74685 4.88142L6.35813 4.88426C6.53121 4.53148 7.20414 4.61802 7.08638 4.05859C6.71847 4.25768 6.19924 4.53905 5.83227 4.90932L5.71405 4.90365C5.60008 4.8975 5.48611 4.89088 5.3712 4.88331L5.68757 4.55465C5.43977 4.80481 4.94938 4.7126 4.7834 4.65916L4.81839 4.62322C4.52425 4.3532 4.39562 4.53101 4.28828 4.69132C4.28544 4.69558 4.28402 4.69983 4.27976 4.70551C4.18518 4.74239 4.09203 4.78968 4.00123 4.84548C3.95252 4.819 3.89814 4.76982 3.83051 4.68943L3.89767 4.60809C3.58887 4.68281 3.3056 4.58539 3.02234 4.53621C2.7405 4.48797 2.45534 4.49034 2.18154 4.77124C1.89354 4.75043 1.73087 4.66767 1.58427 4.57168C1.43767 4.4771 1.30716 4.36928 1.06031 4.32577C0.734483 4.49554 0.739685 4.92729 0.760019 5.00485L0.92364 4.95472C1.23197 5.20063 0.722661 5.39073 0.586467 5.66784C0.674898 5.75202 0.759546 5.85605 0.843721 5.96908C0.720296 6.04474 0.592615 6.12797 0.474865 6.22775C0.193966 6.46372 -0.0230921 6.78766 0.00197129 7.2265C0.102225 7.08132 -0.0259294 6.82738 0.25024 6.85622C0.347183 7.03592 0.226596 7.0591 0.239364 7.17448C0.349075 7.33243 0.362316 7.25156 0.395419 7.148C0.428521 7.04444 0.484795 6.91817 0.651254 6.99762C0.606329 7.18441 0.567552 7.36979 0.542015 7.55658C0.65882 7.62799 0.774206 7.70365 0.886755 7.78026C0.818185 8.18458 0.795013 8.58654 0.820077 8.98283C1.10429 8.94689 1.11185 8.61681 1.16576 8.30281C1.21494 7.99401 1.31378 7.70932 1.64244 7.86349C1.61643 7.99826 1.72519 8.06683 1.77674 8.14817C1.8472 7.92969 2.02454 7.87862 2.04251 7.61995C2.12621 7.60056 2.20944 7.58306 2.29408 7.56698C2.3461 7.76134 2.39008 8.25741 2.1664 8.30895C2.56221 8.21721 2.87764 7.90794 3.24744 7.64548C3.32357 7.59205 3.4016 7.54003 3.48247 7.49369C3.62906 7.5632 3.76667 7.58354 3.85416 7.3277C3.857 7.32675 3.86125 7.32533 3.86645 7.32344C3.83335 7.80958 4.33084 7.47713 4.15255 8.09095C4.26274 8.27774 4.41217 8.12736 4.59376 7.98691C4.77394 7.84788 4.98248 7.71784 5.15273 7.94246C5.12293 8.06163 5.15036 8.18458 5.09503 8.25835C5.4341 7.89801 5.39863 8.58181 5.67433 8.54304L5.60434 8.00441C5.64359 7.92544 5.67858 7.94483 5.7131 7.98691C5.76086 8.04555 5.80674 8.1477 5.85875 8.08669C5.82092 8.06068 5.76134 7.99874 5.7131 7.91645C5.67764 7.85592 5.64832 7.78404 5.63933 7.7079C5.66439 7.71453 5.68898 7.71878 5.7131 7.72115C5.82612 7.73108 5.9259 7.69277 6.02048 7.62846C6.11364 7.66062 6.22099 7.72824 6.24464 7.86632C6.14533 8.05217 6.0011 8.06683 5.933 8.38178C6.34867 8.49622 5.97981 8.55155 6.21153 8.95871C6.10419 8.32976 6.53736 8.65322 6.74732 8.49433C6.7861 8.74827 6.59789 8.58559 6.55722 8.78326C6.80123 9.32283 6.94783 9.26467 7.11192 9.09537C7.27554 8.92608 7.45477 8.64754 7.73378 8.75536C7.72432 8.83528 7.66095 8.90338 7.62737 8.93601C7.88132 8.74827 8.07284 9.33466 8.23457 8.96155C8.48473 9.06795 8.28848 9.67987 8.66963 9.65622C8.5533 9.00316 9.11935 9.77682 9.13259 9.07599L9.42862 9.48882C9.69676 9.10814 9.3681 8.30564 9.8949 8.24558C10.3697 8.50757 9.82822 9.39755 10.0992 9.76594L10.2231 9.38526L10.4487 9.66001L10.4127 9.69122C10.5555 9.56685 10.8081 9.68365 10.8033 9.88984C10.7759 10.0497 10.6241 10.0468 10.5981 10.2057C10.8388 9.85909 11.4843 11.187 11.7699 10.14C11.9033 10.3315 12.1932 10.3372 12.144 10.6696C12.2892 10.2105 12.7777 10.8389 12.9853 10.549C12.9545 10.7079 13.1295 10.969 13.2832 10.8484C13.0907 10.6663 13.2226 10.4947 13.3664 10.2417C13.4747 10.4734 13.7438 10.4247 13.9273 10.5391C13.8251 11.0219 13.9353 11.6329 13.9528 12.2756C13.9868 12.4463 14.4971 12.5177 14.5023 12.0382C14.2559 11.7251 14.8187 11.6154 14.3741 11.4825C14.341 11.2773 14.4271 11.0286 14.5543 10.9468C14.5694 10.9368 14.586 10.9293 14.6021 10.9245C14.665 10.977 14.7042 10.9931 14.7307 10.9851C14.709 11.2172 14.5434 11.1435 14.673 11.4102C14.8012 11.0867 14.8603 11.3047 14.7997 10.8881C14.8565 10.821 14.8995 10.7524 14.9364 10.6824C14.9388 10.6805 14.9426 10.6786 14.9468 10.6772C14.9392 10.7217 14.9591 10.7898 14.9842 10.8668C15.0244 10.9926 15.0783 11.1435 15.049 11.2584C15.1866 11.1908 15.3786 11.1993 15.5715 11.3085C15.2731 11.0163 15.7758 10.8631 15.5961 10.6063L15.2949 11.0669C14.9383 11.0933 15.2277 10.715 15.0958 10.5519C15.5696 10.4592 15.6235 10.062 15.8751 9.74513C15.9375 9.71202 16.0028 9.66427 16.0624 9.58293L16.0851 10.3069C16.3499 10.2644 16.0997 9.75128 16.4757 9.74135L16.3636 9.70966C16.3783 9.69642 16.3934 9.68507 16.4076 9.67325C16.4558 9.71534 16.5007 9.75128 16.5324 9.77019C16.5438 9.77681 16.5537 9.78154 16.5613 9.78391C16.5513 9.78533 16.5414 9.78863 16.5324 9.79336C16.4412 9.83876 16.4099 10.026 16.418 10.2019L16.2851 10.3254L16.3083 10.3727L16.4227 10.2663C16.4317 10.3533 16.4506 10.4308 16.4762 10.4805C16.4412 10.5382 16.4057 10.5907 16.365 10.6214C16.4378 10.5892 16.4922 10.5793 16.5324 10.5864C16.801 10.6337 16.453 11.4371 16.8143 11.4471C16.845 11.448 16.8809 11.4433 16.923 11.4315C16.9046 11.5762 16.8653 11.6859 16.8143 11.7663C16.7386 11.8854 16.6355 11.9408 16.5324 11.9498C16.4454 11.9573 16.3589 11.9323 16.2875 11.8854C16.0335 11.3719 16.4809 11.5024 16.5163 10.9926C16.2738 11.0825 16.3201 11.1761 16.225 11.4665C15.8349 11.3539 15.4462 12.1181 15.1941 11.405C15.0901 11.4504 15.0286 11.5133 14.9846 11.5894C14.9123 11.7147 14.8863 11.8746 14.7908 12.0458C14.7846 12.3025 14.8745 12.3829 14.9846 12.4383C15.0892 12.4907 15.2126 12.5205 15.2887 12.6577C15.2783 12.6217 15.2707 12.583 15.2745 12.5475L15.5204 12.6596C15.2849 12.4709 15.536 12.1053 15.6566 12.0595C15.7455 12.0458 15.9214 12.0183 15.9016 12.1715L15.7711 12.2926C15.9508 12.4652 16.1418 11.8817 16.3362 12.1791C16.3494 12.303 16.2818 12.3621 16.2738 12.4397C16.357 12.2761 16.4412 12.1857 16.5329 12.1143C16.618 12.0486 16.7102 11.9989 16.8147 11.9233C16.8616 11.8892 16.9112 11.8495 16.9637 11.8013L16.8147 12.3205L16.8048 12.3541L16.8147 12.3285C16.8862 12.1484 16.9874 12.0391 17.1056 11.9833C17.281 11.9006 17.4924 11.936 17.6939 12.0316C17.7946 12.0798 17.8934 12.1427 17.9833 12.2136C17.9379 12.1214 17.8579 12.0585 17.901 11.9512C18.1204 11.8145 18.3058 12.1881 18.2121 12.4794C18.4141 12.0179 19.0695 12.8421 19.3476 12.242L19.8403 11.1298C19.8545 11.1227 19.8673 11.1189 19.8805 11.1113L19.8616 11.0806L20.4527 9.7508L20.5208 9.59758C20.6149 9.68649 20.6613 9.79195 20.5203 9.94847C20.6111 9.95604 20.7133 9.93003 20.7979 9.87565C20.9171 9.79904 21.0032 9.66616 20.9776 9.48882C21.3039 9.46281 20.989 10.0412 20.8126 10.2927C20.8088 10.2814 20.806 10.2719 20.8012 10.2587H20.7979C20.3912 10.2601 20.5643 10.8134 20.5123 11.0541C20.5251 11.0357 20.5501 11.0636 20.5917 11.0754C20.5955 11.2295 20.4901 11.1671 20.4532 11.2376C20.4418 11.2598 20.4366 11.2948 20.4437 11.3534L20.4532 11.3558C20.5208 11.3676 20.5842 11.3095 20.6405 11.2489C20.5672 11.3794 20.6764 11.5109 20.7984 11.5899C20.8684 11.6358 20.9431 11.6637 20.989 11.6641C21.1616 11.4579 21.4652 11.4329 21.7636 11.4173C21.7721 11.431 21.7801 11.4442 21.7886 11.4617L21.799 11.4154C21.9589 11.4078 22.1149 11.4017 22.2478 11.3695C22.2142 11.4007 22.1499 11.4636 22.1972 11.5558C22.4776 11.5322 22.6786 11.5648 22.8891 11.5814C22.995 11.5889 23.1009 11.5927 23.222 11.5833C23.3378 11.5724 23.4575 11.5492 23.6045 11.5015L23.6216 11.3284C23.7204 11.4523 23.8566 11.5464 24.1063 11.4589C24.4865 11.2678 24.7333 11.1246 24.6898 10.6124C24.7508 10.5599 24.7977 10.5462 24.8374 10.5561C24.8303 10.5699 24.8256 10.585 24.8241 10.6006C24.8322 10.585 24.8402 10.5717 24.8478 10.558C24.9433 10.5949 24.9868 10.7836 25.0535 10.9184C25.0998 10.8408 25.1613 10.7458 25.2318 10.655C25.2658 10.6895 25.3018 10.7098 25.3415 10.6942C25.3779 10.68 25.4176 10.6361 25.463 10.5467C25.4564 10.5018 25.4517 10.463 25.4474 10.4261C25.5278 10.3604 25.6101 10.3206 25.6914 10.3268V10.3263C25.7524 10.3301 25.8101 10.3589 25.8636 10.4242C25.6796 10.5826 25.5325 10.7112 25.3604 10.7916C25.4044 11.3019 25.9454 10.9042 26.2234 11.1435C26.4045 10.9222 26.9607 10.3793 27.3267 9.94422C27.3773 10.0213 27.4047 9.79715 27.5508 9.87044L27.3636 10.2549C27.5291 10.3036 27.6393 9.85531 27.5925 9.7631L27.4047 9.77871C27.3782 9.69879 27.3598 9.61366 27.3494 9.5224C27.5239 9.42403 27.7291 9.37722 27.9414 9.39944C27.9798 9.50774 28.0398 9.62312 28.1126 9.73756C27.9504 9.94611 27.6416 9.89267 27.9098 10.2133C27.9958 10.1646 28.0705 10.0057 28.159 9.88179C28.168 9.8695 28.1769 9.85768 28.1859 9.84585C28.2403 9.92152 28.2999 9.99671 28.3628 10.0691C28.4503 10.1703 28.5434 10.2672 28.6385 10.3566C28.6177 10.4942 28.4966 10.6649 28.3628 10.7122C28.3401 10.7202 28.3169 10.725 28.2942 10.725C28.3812 10.5836 28.3321 10.4857 28.3202 10.358C28.2474 10.4058 28.1949 10.4531 28.1595 10.5008C28.0549 10.6398 28.0914 10.7798 28.1595 10.9212C28.2484 11.1052 28.3921 11.2924 28.3496 11.484L28.3628 11.4754C28.5056 11.3894 28.7676 11.4319 28.6967 11.2172C28.8806 11.6173 29.17 11.3445 29.4372 11.2144C29.6041 11.1335 29.763 11.108 29.8817 11.3397C29.8964 11.2622 29.712 11.0068 29.9333 10.812C30.0803 10.776 30.157 10.8295 30.2085 10.9137C30.2728 11.0182 30.2983 11.1704 30.3731 11.2574C30.4714 11.0328 30.9741 10.8711 30.9245 10.9803C31.1444 10.7864 30.6918 10.2161 30.9992 9.87659C31.0233 9.81559 31.0488 9.76878 31.0744 9.73094L31.0772 9.86004C31.0777 9.80377 31.0852 9.75222 31.0952 9.70351C31.2143 9.55833 31.3496 9.61603 31.4858 9.65386C31.474 9.70352 31.4711 9.75695 31.4768 9.81985C31.5312 9.84822 31.5875 9.85626 31.6428 9.84822C31.7009 9.83971 31.7572 9.8137 31.8069 9.77492C31.8353 9.8747 31.7506 9.9149 31.6428 9.94563C31.5227 9.97968 31.3732 10.0024 31.3174 10.0832L31.6428 9.98536L31.9733 9.88558L32.0414 9.86524L32.0438 10.0289C32.11 10.0326 32.1715 10.0237 32.2301 10.0071C32.2367 10.14 32.1133 10.2473 31.9733 10.2833C31.9138 10.2984 31.8509 10.3013 31.7941 10.2871C31.8518 10.3443 31.9123 10.3826 31.9733 10.4039C32.2348 10.4956 32.5082 10.2842 32.6193 9.98205C32.6321 9.94753 32.643 9.91159 32.651 9.87517C32.7687 9.92766 32.8553 9.91868 32.9437 9.93287C33.0113 9.94375 33.0799 9.96833 33.165 10.0431C33.0572 10.1788 33.0142 10.4724 32.9437 10.7283C32.8879 10.9311 32.8151 11.1104 32.6798 11.1681C32.6571 11.1662 32.6373 11.1633 32.6193 11.1596C32.2358 11.0801 32.842 10.5855 32.433 10.4828L32.3975 10.9335C32.2462 10.7264 32.1214 10.9136 31.9733 11.0073C31.9402 11.0281 31.9057 11.0446 31.8698 11.0508C31.7591 10.9397 31.8939 10.891 31.9667 10.8257C31.8518 10.8375 31.7445 10.821 31.6428 10.8101C31.43 10.7879 31.2422 10.7916 31.0602 11.1387C31.2342 11.2882 31.4404 11.308 31.6428 11.2976C31.7563 11.292 31.8688 11.2764 31.9733 11.2688C32.1946 11.2527 32.3819 11.2716 32.4732 11.4911L32.6193 11.3932L32.9442 11.1775C33.1059 11.0697 33.2667 10.9624 33.4209 10.8545C33.4209 10.6455 33.0983 10.3164 33.358 10.0085C33.4677 10.5339 33.7401 10.7708 34.0957 10.8578C33.9656 10.2856 34.6636 10.3377 34.4868 9.87754C34.405 10.0199 34.3439 9.97685 34.3004 9.89078C34.3818 9.87991 34.4716 9.85626 34.5672 9.826C34.6527 9.79857 34.7421 9.76546 34.8339 9.73047C34.8996 9.70541 34.9663 9.6794 35.0334 9.65386C35.0348 9.65386 35.0348 9.65386 35.0358 9.65481C35.0173 9.69028 34.9947 9.73331 34.9686 9.77918C34.9204 9.77398 34.875 9.77255 34.8339 9.78012C34.701 9.80424 34.6144 9.91631 34.6277 10.2473C34.6471 10.2393 34.6684 10.2341 34.6915 10.2289C34.6518 10.2861 34.6102 10.3424 34.5672 10.3972C34.4641 10.5278 34.352 10.646 34.238 10.7278C34.2555 10.9099 34.4234 10.8106 34.5672 10.8489C34.6239 10.864 34.6769 10.8999 34.7152 10.9827C34.5199 10.6777 34.8561 10.4393 34.6934 10.3107C34.7393 10.288 34.7856 10.262 34.8339 10.2332C34.9256 10.1783 35.0211 10.1145 35.1209 10.0468L35.1422 10.7174C35.3919 10.6772 35.1819 10.218 35.4732 10.1584C35.4902 10.1547 35.5092 10.1528 35.5304 10.1523L35.4732 10.1357L35.4193 10.1201C35.4363 10.1045 35.4543 10.0903 35.4732 10.0771C35.539 10.0322 35.6141 10.0029 35.6945 9.98441C35.7759 10.0298 35.8378 10.0142 35.8884 9.95699C35.949 9.95273 36.0104 9.95225 36.071 9.95225C35.8591 10.1329 35.6151 10.2582 35.539 10.5566L35.5375 10.5543L35.4737 10.6134L35.3418 10.7354L35.3649 10.7836L35.4742 10.6824L35.5267 10.6337C35.5148 10.7108 35.5148 10.7997 35.5267 10.8999C35.5092 10.9283 35.4921 10.9548 35.4742 10.978C35.4576 10.9992 35.4406 11.0172 35.4221 11.0314C35.4406 11.0229 35.4581 11.0163 35.4742 11.0106C35.4983 11.0026 35.5196 10.9983 35.5399 10.9959C35.5399 10.9978 35.5399 10.9988 35.5399 10.9988C35.5423 10.9988 35.5451 10.9959 35.5484 10.995C35.9192 10.968 35.424 11.9961 35.9797 11.8419C35.9556 12.032 35.896 12.1607 35.8194 12.2425C35.8336 12.2746 35.8468 12.3063 35.8624 12.3375C35.9116 12.3021 35.9631 12.2638 36.0189 12.2113L35.9674 12.3938C36.0057 12.4094 36.0426 12.4274 36.0823 12.4411L36.0989 12.4297C36.1338 12.4066 36.1703 12.3891 36.2081 12.3763C36.2918 12.2217 36.4616 12.1243 36.6398 12.103L36.6484 12.102C36.8063 12.0855 36.9695 12.1285 37.0848 12.2444C37.134 12.0864 37.265 11.9592 37.4797 11.9677C37.5818 11.972 37.6632 12.0065 37.7237 12.059C37.8873 12.2004 37.9001 12.4733 37.7734 12.643C37.7757 12.643 37.7781 12.6421 37.78 12.6421C37.9351 12.6492 38.0666 12.7461 38.1309 12.879C38.1522 12.8762 38.173 12.8719 38.1933 12.8653C38.2746 12.8383 38.3475 12.7754 38.4047 12.652L38.6033 12.2046C38.5333 12.2855 38.4293 12.339 38.2898 12.3323C38.2553 12.3309 38.2231 12.3257 38.1933 12.3181C37.8845 12.2373 37.8334 11.8405 38.0141 11.6348C37.6376 11.4854 37.7114 10.821 38.1909 10.8422H38.1933L38.2132 10.8446C38.181 10.6124 38.3229 10.3523 38.6246 10.3656C38.6879 10.3684 38.7433 10.3826 38.7901 10.4058C38.8558 10.4379 38.9059 10.4871 38.9414 10.5448C38.9428 10.5448 38.9452 10.5448 38.9466 10.5448C39.097 10.5509 39.2006 10.6233 39.2606 10.7212L39.3892 10.4299L39.4526 10.2866L39.6394 10.6607C39.6735 10.6119 39.7075 10.5798 39.742 10.5609C39.9558 10.4436 40.1709 10.8243 40.319 10.7557L40.1374 10.4999C40.1785 10.0525 40.3435 10.3883 40.4287 10.4516L40.3123 9.79762C40.0811 9.69926 39.908 10.1249 39.7416 9.98063C39.7174 9.95935 39.6933 9.92625 39.6687 9.87754C39.6947 9.86619 39.7189 9.85389 39.7416 9.84065C39.9468 9.72196 40.0277 9.53611 40.1341 9.38289C40.2528 9.35405 40.3776 9.34033 40.4972 9.31905C40.475 9.33371 40.4523 9.35972 40.4367 9.41269C40.6008 9.56212 40.7777 9.19988 41.0207 9.21974C41.0623 9.22305 41.1058 9.23771 41.1522 9.26798C41.1115 9.30345 41.0657 9.34364 41.0207 9.38904C40.8651 9.54699 40.7266 9.76357 40.9034 10.0355L41.0207 9.70115L41.077 9.54037C41.2212 9.61981 41.1607 9.8118 41.2198 9.82741C41.4251 9.92152 41.1768 9.3148 41.5017 9.44295C41.5215 9.48268 41.5527 9.52618 41.5768 9.57111C41.0009 9.96739 41.6624 10.8101 41.1196 11.0532L41.0198 11.0262L40.7247 10.9458L40.623 11.5946C40.3894 11.6102 40.7398 11.0697 40.3852 11.1317C40.3029 11.4343 40.0574 11.1671 39.996 11.3676C39.9988 11.2206 39.9969 11.0612 39.812 11.0532C39.8063 11.1047 39.8163 11.2305 39.7808 11.3099C39.9198 11.3634 40.013 11.4679 40.0603 11.5918C40.187 11.6613 40.3123 11.7346 40.4362 11.8069C40.441 11.7994 40.4433 11.7942 40.4481 11.7876C40.5615 11.6055 40.806 11.4934 41.0198 11.5435C41.0401 11.5483 41.0604 11.5544 41.0803 11.5625C41.1385 11.5852 41.1924 11.6126 41.2444 11.6424C41.3787 11.5487 41.531 11.4821 41.7074 11.4546C41.9519 11.4182 42.1595 11.4631 42.3254 11.5667C42.3462 11.58 42.3671 11.5941 42.3864 11.6088C42.4035 11.5913 42.42 11.5738 42.437 11.5573C42.446 11.5483 42.4517 11.544 42.456 11.5388C42.4588 11.5331 42.4607 11.5298 42.4664 11.5204C42.4848 11.4915 42.5014 11.4603 42.5155 11.4282C42.5657 11.3241 42.6404 11.2565 42.726 11.2177C42.7179 11.0787 42.6177 11.2083 42.5028 11.3095C42.5184 11.1572 42.5359 10.9751 42.3945 11.0026C42.3704 10.9832 42.3477 10.9695 42.3254 10.9609C42.0691 10.8602 41.9292 11.4324 41.7244 11.378L41.7906 11.3151C41.5726 11.1766 41.3059 11.2229 41.1583 11.5019C40.9578 10.9321 41.757 11.3459 41.4033 10.8541C41.6459 11.0361 41.9537 10.6039 42.1306 10.5727C41.8379 10.4568 41.5631 9.94753 41.5948 9.60705C41.6189 9.65859 41.6312 9.71061 41.6085 9.76404C41.9835 9.78154 41.7892 9.60421 42.1415 9.36492C41.8682 9.36398 41.8299 8.79225 42.0417 8.59363C42.1372 8.5908 42.2323 8.59363 42.3254 8.60688C42.4285 8.62106 42.5297 8.64754 42.6267 8.69152C42.6101 8.64991 42.5822 8.57141 42.5851 8.50236C42.5936 8.50047 42.6002 8.49858 42.6063 8.49811L42.7893 8.71328L42.961 8.9431C42.9605 8.94925 42.9586 8.95587 42.9582 8.96202L42.8764 9.03863L42.9407 9.13651C42.9189 9.34601 42.8958 9.55503 42.8745 9.76452C42.8381 9.74797 42.8229 9.65481 42.8674 9.6113C42.7165 9.79336 42.7941 9.82836 42.8622 9.88463C42.8532 9.9655 42.8461 10.0468 42.8366 10.1286C42.787 10.1234 42.735 10.1674 42.6976 10.1532C42.7425 10.2024 42.786 10.2218 42.8267 10.227C42.7936 10.5571 42.7586 10.8881 42.7265 11.2182C42.7998 11.1856 42.8816 11.1752 42.9638 11.1813C43.0461 10.8872 42.9799 10.428 42.9813 10.183C43.1048 10.1116 43.2027 10.0227 43.2873 10.384C43.4273 10.1003 43.6912 9.80945 43.9262 9.92152C43.9096 9.92341 43.8893 9.92814 43.868 9.93145C43.7219 10.4048 43.772 10.6999 43.6358 11.1004C43.7654 10.9789 43.7247 10.6086 43.9248 10.6242C44.1697 10.7349 43.8954 10.8564 43.877 11.0096C44.1707 10.4691 44.2487 11.4367 44.5008 10.9855C44.506 10.9761 44.5112 10.9666 44.5164 10.9562C44.5102 10.9141 44.505 10.8753 44.5008 10.8394C44.4729 10.6176 44.4681 10.5089 44.4421 10.4119C44.4624 10.4171 44.4818 10.4218 44.5008 10.4228C44.5547 10.4256 44.601 10.401 44.6294 10.2956C44.6005 10.3481 44.5518 10.3684 44.5008 10.3589C44.4662 10.3523 44.4303 10.332 44.3996 10.2984C44.392 10.2833 44.3844 10.2686 44.3754 10.2525C44.4265 10.21 44.4643 10.1457 44.5008 10.0861L44.5026 10.0828C44.6336 10.1792 44.7448 10.436 44.7438 10.7415L44.7689 10.3093C44.8204 10.4138 44.9803 10.4166 44.9949 10.5249L45.055 10.3126C44.9599 10.1211 44.8767 9.98725 44.7731 9.94611C44.8204 9.84727 44.854 9.72338 44.8871 9.60184C45.0006 9.6061 45.1013 9.6061 45.1127 9.4822C45.1146 9.48315 45.1169 9.48409 45.1183 9.48409C45.1406 9.68744 45.2692 9.70588 45.4248 9.69595C45.4276 9.69831 45.4295 9.70115 45.4328 9.70399C45.2588 9.98205 45.0228 10.2762 45.0744 10.3783C45.1065 10.2601 45.2408 10.167 45.3851 10.14C45.3548 10.1618 45.3245 10.1892 45.2952 10.2237C45.4267 10.4876 45.5534 10.3102 45.6749 10.2005C45.6948 10.2166 45.7137 10.2355 45.7289 10.2596L45.6697 10.3618C45.6877 10.3485 45.7085 10.332 45.7298 10.3159C45.6939 10.436 45.7222 10.5448 45.8428 10.6611L45.9043 10.4006L45.927 10.4001C46.0315 10.3958 46.1923 10.3717 46.2103 10.4895C46.2112 10.3916 46.163 10.3235 46.0656 10.2445C46.2197 10.0137 46.4656 9.8572 46.7437 9.81606C46.7806 10.0544 46.8629 10.052 46.9948 9.81039C47.0809 9.81937 47.1669 9.83876 47.253 9.87139C47.2426 10.4256 46.6132 10.2057 46.9626 10.6233C47.1471 10.5193 47.2747 9.91774 47.611 10.2147C47.4861 10.5358 47.7708 10.541 47.7751 10.7396L48.1865 10.0847C48.2886 10.2133 48.413 10.2828 48.5974 10.1939C48.5918 10.1627 48.587 10.1357 48.5818 10.1093C48.6102 10.1055 48.6386 10.0998 48.6669 10.0913C48.735 10.071 48.8012 10.0355 48.8604 9.97779C48.8102 10.0274 48.7454 10.0478 48.6669 10.0374C48.6457 10.0345 48.6234 10.0293 48.5998 10.0222C48.622 9.96881 48.6442 9.9253 48.6669 9.89031C48.927 9.48078 49.2004 10.2071 49.5465 9.94138L49.3763 10.1712C49.512 10.2284 49.6326 10.2152 49.7447 10.1636C49.7877 10.1438 49.8298 10.1182 49.8709 10.0889C49.9116 10.0601 49.9513 10.0274 49.9906 9.99245C50.0345 9.95415 50.0776 9.91301 50.1206 9.87186L50.1282 10.2724C50.1376 9.8293 50.4568 9.65575 50.6394 9.51814C50.6852 9.48362 50.7221 9.45146 50.7434 9.41836C50.7065 9.4387 50.672 9.45572 50.6394 9.46991C50.4493 9.55172 50.324 9.53422 50.2199 9.48598L50.2805 9.4978L50.1986 9.43255L50.6299 9.06369L50.6394 9.09206C50.646 9.11193 50.6536 9.13226 50.6625 9.15448L50.7879 8.83245C50.9297 8.83528 50.9226 9.11145 50.8352 9.12706C50.9605 9.05376 50.9813 9.08071 51.0011 9.02255C51.0101 8.99512 51.0196 8.94972 51.0385 8.86697L51.0631 8.86508C51.1033 8.86271 51.1378 8.86271 51.1685 8.86555C51.1936 8.93553 51.2026 9.02302 51.1898 9.13084C51.1927 9.10672 51.1964 9.0845 51.2012 9.06322C51.2163 8.99134 51.2404 8.93412 51.2721 8.8873C51.5549 9.01073 51.0924 9.56165 51.693 9.74135C51.6178 9.87896 51.4225 9.85957 51.4703 10.1565L51.2012 10.0747L51.09 10.0412L51.0952 10.4422C51.1317 10.4441 51.1671 10.4426 51.2012 10.4384C51.5209 10.3977 51.7355 10.0918 51.9015 9.66994C51.9805 9.71108 52.0533 9.68933 52.1233 9.63967C52.1455 9.65386 52.1659 9.67089 52.1853 9.69028C52.3442 9.84869 52.4264 10.1655 52.4113 10.28C52.5626 10.0431 52.3134 9.74466 52.2865 9.4893C52.4283 9.34033 52.5707 9.19279 52.7466 9.37249C52.739 9.58009 52.6965 9.81984 52.5191 9.7683C52.5678 9.87423 52.7551 9.60988 52.957 9.56401C53.0488 9.73473 53.0928 9.93949 53.0365 10.2308C53.1107 10.3093 53.2261 10.3244 53.3651 10.3036C53.5302 10.279 53.7293 10.2043 53.9364 10.1253C54.0835 10.0695 54.2343 10.0118 54.3795 9.96834C54.379 9.98867 54.3781 10.0071 54.379 10.0284L54.5209 9.99103C54.563 9.97969 54.6065 9.9688 54.65 9.95746L54.5308 10.1769C54.9148 10.7037 55.0198 10.2956 55.1314 9.8591C55.3976 9.82505 55.644 9.84302 55.7911 9.99529C55.9987 9.89125 56.0999 9.69217 56.1443 9.46376C56.2942 9.26703 56.4579 9.11335 56.674 9.13983C56.7558 9.52807 56.7676 10.1769 57.0121 10.2185L57.1194 9.99292L57.1771 9.87139C57.4216 9.91253 57.7489 9.61745 57.9035 9.87328L57.8704 9.90308C58.1428 10.1159 58.1574 9.51389 57.9456 9.44106L58.209 9.20651L58.2156 9.33371C58.2378 9.31811 58.2601 9.30108 58.2823 9.28264C58.4974 9.10389 58.7117 8.8036 58.9836 8.59647C59.0006 8.65937 59.0129 8.72841 59.0205 8.79792C58.9387 8.90101 58.8725 9.03201 58.8289 9.0547C58.8857 9.27696 58.8252 9.81417 58.7263 10.1159C58.8602 9.87754 59.0767 9.81276 59.3033 9.77351C59.691 9.70588 60.1058 9.71297 60.1748 9.0443C60.3067 9.06747 60.451 9.06132 60.6028 9.04761L60.6699 9.04146C60.7427 9.15401 60.8042 9.31953 60.8463 9.56638C61.0336 9.41127 61.2511 9.19468 61.4984 9.04335C61.5599 9.05849 61.6204 9.07741 61.6805 9.10578C61.6687 9.07268 61.6488 9.01924 61.6408 8.9658C61.6568 8.95823 61.6729 8.95162 61.6885 8.94452L61.8432 9.12706L62.0229 9.36681L61.9307 9.45336L62.1591 9.79856C62.1732 9.97212 62.0659 10.1305 61.9661 10.1684C61.9065 10.2232 61.8635 10.0814 61.9207 10.0241C61.6502 10.3547 62.1226 10.201 61.9377 10.568C61.8772 10.5008 61.8011 10.5855 61.7514 10.567C61.9917 10.8229 62.1605 10.3216 62.2953 10.6455C62.3113 10.6838 62.3269 10.7339 62.3416 10.7978C62.4527 10.5722 62.6424 10.3414 62.8334 10.3121C62.9289 10.297 63.0249 10.332 63.1119 10.4422C62.9724 10.6725 63.4335 10.4237 63.2358 10.8787C63.3749 10.6493 63.6023 11.0087 63.6827 10.7094C63.6288 10.8096 63.4997 10.7921 63.4231 10.6725C63.5588 10.567 63.6066 10.2918 63.7513 10.3618C63.7664 10.411 63.7451 10.4828 63.7451 10.4828C63.975 10.2535 63.9315 9.51104 64.2871 9.54982C65.2541 9.4472 64.0175 10.5713 64.1287 10.7898C64.1911 10.5661 64.6252 10.4294 64.7831 10.6725L64.724 10.7746C64.8323 10.6952 65.0011 10.5178 65.0726 10.7637C65.1009 10.6668 65.1336 10.5713 65.1676 10.4786C65.2641 10.2157 65.3738 9.97684 65.4504 9.79194L65.8935 9.78533L65.7734 9.98394C65.8202 9.95178 65.8632 9.93287 65.9039 9.92152C65.9597 9.90639 66.0112 9.90497 66.0628 9.90355C66.0618 10.122 65.9971 10.1268 65.9039 10.1547C65.8703 10.1646 65.8334 10.1778 65.7942 10.2043C65.8136 10.3571 65.85 10.4237 65.9039 10.4039C65.946 10.3883 65.998 10.3202 66.0614 10.2L66.0094 10.1774C66.1432 10.0256 66.617 9.64724 66.3035 9.50301C66.3101 9.4978 66.3163 9.4945 66.3229 9.4893L66.5787 9.57205C66.6359 9.67183 66.6828 9.78154 66.775 9.71912C66.7712 9.78958 66.7542 9.84207 66.7338 9.88889C66.679 9.88605 66.6236 9.8695 66.5801 9.83592C66.6227 9.88416 66.6648 9.9201 66.7064 9.94611C66.6619 10.0312 66.617 10.0974 66.6534 10.2147C66.8119 10.2861 66.9168 10.3344 67.0696 10.2332C66.9684 10.1523 67.0819 10.0497 67.0138 9.92057C67.1211 9.84586 67.2427 9.70493 67.3888 9.4874C67.5056 9.5049 67.6172 9.56401 67.7236 9.67561C67.7075 9.73094 67.6773 9.78485 67.6432 9.83498C67.6895 9.78391 67.7373 9.74277 67.786 9.7073C67.8773 9.82316 67.9449 9.94422 67.96 10.062C67.9643 10.0941 67.9643 10.1258 67.96 10.1575C67.9548 10.193 67.9444 10.228 67.9269 10.262C67.9392 10.254 67.9501 10.2454 67.96 10.236C68.0783 10.1244 68.0177 9.93665 68.0409 9.74419C68.0887 9.76357 68.1322 9.77114 68.1733 9.76924C68.4864 9.75553 68.6211 9.19137 68.8481 9.20697L68.703 8.80123C69.0657 9.2519 68.877 8.17891 69.2028 8.52885C69.1976 8.5454 69.1952 8.56573 69.1905 8.58418C69.1191 8.63856 69.0652 8.73597 69.0463 8.88919C69.086 8.83103 69.1229 8.77806 69.1574 8.73314C69.1271 8.8821 69.104 9.03485 69.0898 9.19374C69.0467 9.25427 69.0056 9.34506 68.973 9.4874C69.0075 9.49733 69.0406 9.49922 69.0718 9.49733C69.0699 9.60373 69.069 9.71014 69.0713 9.81512C69.1796 9.42687 69.3707 9.80519 69.5291 9.82552C69.4776 9.416 69.914 9.50206 69.7036 9.07457C70.106 8.79982 70.2167 9.35972 70.5416 8.88352C70.3855 8.73645 70.9024 8.5052 70.786 8.20208C70.8584 8.20397 70.9241 8.2262 70.9818 8.2645C71.206 8.41252 71.3077 8.7984 71.1965 9.13273C71.1308 9.10814 71.0471 9.03768 70.9818 9.03437C70.9279 9.03154 70.8863 9.07457 70.8768 9.22636L70.9818 9.22447L71.5356 9.21407C71.5824 9.28737 71.6358 9.34884 71.686 9.41505C71.7876 9.54935 71.8751 9.70304 71.8657 10.0142C72.121 9.50679 72.4681 10.4341 72.68 9.82221C72.4227 10.2062 72.2865 9.65008 72.2071 9.57725L72.3168 9.49828C72.3017 9.49639 72.2861 9.48835 72.2643 9.47038L72.6105 8.69531C72.3636 8.35813 72.5225 9.21786 72.1376 9.17104C71.8728 8.39691 72.9727 8.10135 72.6658 7.60907C72.4095 7.34945 72.4019 8.07061 72.1475 8.32219L72.2066 8.34347L71.6855 8.59836L71.6533 8.61397C71.6533 8.54445 71.6666 8.4792 71.6855 8.4215C71.737 8.26687 71.8311 8.16472 71.8311 8.16472C71.7791 8.15999 71.7309 8.15243 71.6855 8.14297C71.3658 8.07629 71.2107 7.90605 70.9814 7.75094C70.8523 7.66345 70.6995 7.58117 70.4806 7.5249C70.5179 7.62657 70.5652 8.41914 70.2479 8.51182C70.0081 8.67544 70.036 8.21343 69.862 8.14108C69.9812 8.06068 70.1268 7.64217 70.2384 7.94624L70.2886 7.40573C70.7236 6.95695 70.7128 6.53087 70.9814 6.29916C71.0674 6.22444 71.1828 6.17006 71.3512 6.14121C71.3862 5.953 71.519 5.81964 71.686 5.74729C71.8685 5.66879 72.0912 5.66359 72.2724 5.74067L72.1305 5.36708C72.557 4.71544 72.1532 5.93172 72.6696 5.39593C72.8025 6.13033 73.115 6.99856 72.8015 7.57171C73.1368 7.76985 73.2801 7.39485 73.5879 7.40904C73.752 8.00772 73.4622 8.04555 73.4674 8.63761C73.7076 8.58229 74.0093 8.33638 73.8495 7.99542L74.2812 8.24417C74.2916 8.37185 74.1308 8.36948 74.0698 8.35293C74.2405 8.48581 74.5782 8.19877 74.6718 7.97414C74.6373 8.00583 74.5252 8.10277 74.4793 8.00583C74.6657 7.85025 74.982 7.55327 75 7.3939ZM5.71594 7.60765C5.69088 7.62184 5.66392 7.62988 5.64122 7.63697C5.6417 7.61238 5.64453 7.58732 5.65163 7.56415C5.67102 7.54097 5.68851 7.51638 5.70743 7.49227L5.71594 7.48801C5.74053 7.47477 5.76418 7.45774 5.78877 7.43315C5.80012 7.53483 5.76181 7.58164 5.71594 7.60765ZM14.5567 10.0733C14.4872 10.0719 14.4181 10.0757 14.3505 10.0908C14.3566 9.98631 14.3637 9.87943 14.3836 9.77303C14.4219 9.84964 14.4857 9.90591 14.5567 9.95415L14.5827 9.97117C14.6427 10.0123 14.7033 10.0483 14.7629 10.0889C14.6957 10.0818 14.6262 10.0747 14.5567 10.0733ZM15.0102 10.6928C15.0026 10.6886 14.9946 10.6843 14.9861 10.6796C14.9742 10.6734 14.961 10.6673 14.9473 10.6607C14.961 10.6318 14.9742 10.6025 14.9861 10.5732C14.9988 10.542 15.0107 10.5107 15.022 10.4791C15.0282 10.5415 15.0248 10.6115 15.0102 10.6928ZM16.6185 2.41339C16.5901 2.41528 16.5622 2.41718 16.5343 2.42001C16.5064 2.42285 16.478 2.42616 16.4501 2.42994C16.478 2.38171 16.5045 2.33347 16.5343 2.30415C16.5589 2.28004 16.5863 2.26821 16.6185 2.27862C16.6152 2.30415 16.6185 2.35523 16.6185 2.41339ZM17.1065 2.15236L17.2744 1.99299C17.4517 1.68703 17.2252 1.70027 17.1897 1.53003C17.2498 1.26852 17.5974 1.41086 17.6243 1.65771C17.5827 1.766 17.4007 1.87288 17.5231 2.02751L17.6943 1.57826L17.769 1.38201C17.9899 1.61136 17.8674 1.86389 17.6943 2.07953C17.5922 2.20674 17.4725 2.32118 17.3955 2.41008C17.2985 2.41056 17.202 2.40961 17.106 2.40819C17.0162 2.40724 16.9268 2.40583 16.8384 2.4063L17.1065 2.15236ZM16.9609 10.9212C16.9032 10.9283 16.8549 10.9311 16.8157 10.9297C16.4979 10.9179 16.7178 10.6432 16.8157 10.4176L16.8251 10.3958C16.8786 10.4299 16.9306 10.4847 16.9817 10.5481L16.9609 10.9212ZM17.1065 10.7983C17.0819 10.794 17.0583 10.7893 17.0361 10.7831C17.0465 10.7401 17.0573 10.7023 17.0696 10.6654L17.1065 10.7155C17.1302 10.7477 17.1538 10.7789 17.1775 10.8077C17.1529 10.8049 17.1292 10.802 17.1065 10.7983ZM17.9194 11.1189C17.9038 10.9794 17.8149 10.9084 17.6948 10.8706C17.5605 10.8276 17.3869 10.8257 17.2347 10.8134C17.1765 10.638 17.2649 10.3968 17.3307 10.2885C17.3335 10.2856 17.3378 10.2833 17.3406 10.2814C17.4399 10.2204 17.5118 10.1892 17.56 10.1807C17.5756 10.1821 17.5912 10.1849 17.6026 10.1873C17.6026 10.1844 17.6026 10.1826 17.6031 10.1797C17.7123 10.1944 17.6707 10.3807 17.6948 10.5623C17.7052 10.6422 17.7288 10.7217 17.7842 10.7846C17.9227 10.776 18.0514 10.7902 18.1743 10.8158C18.0934 10.9255 18.0079 11.0267 17.9194 11.1189ZM20.944 10.9241C20.945 10.8006 20.9318 10.6753 20.7993 10.6493C20.787 10.6469 20.7733 10.6455 20.7587 10.6446C20.7506 10.7221 20.7785 10.9666 20.6343 10.968C20.5544 10.5751 20.7137 10.6157 20.7993 10.5665C20.8414 10.5424 20.8655 10.4966 20.8353 10.3675C21.0197 10.4493 21.0065 10.7642 20.944 10.9241ZM20.4537 9.5607L20.4494 9.56259C20.4461 9.55124 20.4423 9.54179 20.4395 9.53138C20.4442 9.53422 20.4489 9.538 20.4541 9.54179L20.4688 9.55266C20.4631 9.55455 20.4584 9.55834 20.4537 9.5607ZM21.4396 2.12966C21.5319 2.31598 21.713 1.65156 21.8511 2.20721L21.9442 1.83646C22.0686 1.71209 22.3618 1.55746 22.41 1.92631C22.2015 2.09797 22.0922 2.2876 22 2.48149C21.6217 2.36279 21.1767 2.37603 20.7989 2.40252C20.7355 2.40677 20.6736 2.41197 20.6144 2.4167C20.5634 2.45501 20.5095 2.48433 20.4537 2.50608C20.1827 2.61343 19.8649 2.55573 19.5793 2.55715L19.8294 2.26349L19.6658 2.21667C19.6951 1.70831 20.1955 2.25214 20.1245 1.63406C20.264 1.80998 20.3629 1.87713 20.4541 1.91638C20.562 1.96273 20.6594 1.96982 20.7993 2.07149C20.8528 2.11074 20.9124 2.16371 20.9814 2.23795C21.0609 2.02326 20.9209 2.02184 20.8121 1.99157C21.0069 2.00765 20.9871 1.40566 21.2557 1.76033C21.3871 1.83693 21.2722 1.32905 21.0481 1.34371C21.242 1.35931 21.4203 1.25244 21.6359 1.31391L21.399 0.926145L21.6212 0.911012L21.4226 0.695372C21.8477 0.618764 22.3381 0.678819 22.594 1.18671C22.2464 1.6038 21.6208 1.46713 21.4396 2.12966ZM25.4389 2.60964C25.4048 2.62856 25.3722 2.65031 25.342 2.67632C25.3089 2.70422 25.2791 2.73732 25.253 2.77516C25.2474 2.75766 25.2417 2.73922 25.2365 2.72172C25.245 2.64464 25.289 2.60302 25.342 2.57276C25.3755 2.55337 25.4134 2.53871 25.4474 2.52216L25.4389 2.60964ZM28.1859 9.57536C28.1769 9.55408 28.168 9.53328 28.159 9.51341C28.1457 9.48409 28.132 9.45666 28.1178 9.43302L28.159 9.44579C28.1727 9.45052 28.1869 9.45525 28.2006 9.46045C28.1996 9.50348 28.1944 9.53989 28.1859 9.57536ZM28.3623 9.79573C28.3467 9.80235 28.3302 9.80803 28.3112 9.8137C28.298 9.79809 28.2867 9.7806 28.2744 9.76026C28.3018 9.74135 28.3311 9.72858 28.3623 9.7248C28.3898 9.72101 28.4195 9.72432 28.4503 9.73662C28.4299 9.75884 28.402 9.77871 28.3623 9.79573ZM29.4963 1.79249C29.5635 1.68277 29.633 1.5986 29.6978 1.56171C29.59 1.52388 29.5058 1.49929 29.4367 1.48463C29.1015 1.41133 29.1398 1.56124 28.6792 1.42883C28.6153 1.01079 29.1667 0.969648 29.0272 0.690168L29.4367 0.839604L29.5512 0.881219C29.4798 0.908174 29.4623 0.976744 29.4367 1.03869C29.4315 1.05193 29.4254 1.0647 29.4188 1.07652L29.4367 1.06092C29.7668 0.779074 29.911 1.13611 30.1551 0.656121C30.3324 0.846697 29.9035 0.983364 30.0926 1.04957C29.9631 1.11719 29.8458 1.46051 29.7753 1.7608L29.4963 1.79249ZM30.531 2.2876C30.4265 2.27342 30.3182 2.26632 30.208 2.26301C30.0628 2.25828 29.9144 2.26017 29.7659 2.26017L29.6888 2.20721C29.7871 1.98779 29.9995 1.89463 30.208 1.88801C30.435 1.88091 30.6577 1.97549 30.7273 2.12209C30.6332 2.16039 30.5745 2.2214 30.531 2.2876ZM31.6655 2.7761L31.6423 2.77043C31.6291 2.76712 31.6168 2.76381 31.6045 2.75955C31.6172 2.75387 31.6295 2.74773 31.6423 2.74158C31.6551 2.73496 31.6678 2.72834 31.6801 2.72125L31.6655 2.7761ZM31.9733 2.0313C31.9875 2.01474 32.0008 1.99725 32.0131 1.97833C32.0178 1.99677 32.0254 2.01616 32.0329 2.03839C32.0116 2.05825 31.9918 2.07338 31.9733 2.0852C31.9421 2.10459 31.9152 2.11311 31.8911 2.11311C31.9199 2.08804 31.9478 2.06109 31.9733 2.0313ZM32.5602 2.23275C32.4533 2.40157 32.2892 2.35239 32.1894 2.2422C32.1677 2.41103 32.2367 2.56425 32.2732 2.74111C32.2651 2.743 32.2575 2.74631 32.249 2.75009C32.2452 2.72267 32.2424 2.69287 32.2419 2.65693C32.2287 2.69382 32.2131 2.73023 32.197 2.76428C32.1303 2.78272 32.0542 2.79455 31.9733 2.79975C31.9539 2.80117 31.9336 2.80164 31.9137 2.80211L31.9733 2.75482L32.0982 2.65504C32.2202 2.11736 32.1176 2.06014 32.3242 1.7452C32.1563 2.14526 32.6179 1.79343 32.5602 2.23275ZM32.6609 2.85602L32.6193 2.88912C32.6028 2.90236 32.5881 2.91371 32.5772 2.92317V2.9175C32.5919 2.90142 32.6056 2.88297 32.6193 2.86311C32.634 2.84183 32.6477 2.81866 32.6609 2.79502C32.6614 2.81488 32.6623 2.83569 32.6609 2.85602ZM33.1437 2.37083C33.07 2.39117 32.9938 2.41245 32.9442 2.48764C32.9324 2.50513 32.922 2.52594 32.9139 2.55053L32.8898 2.50277C32.8898 2.56377 32.8685 2.61815 32.8368 2.66828C32.8047 2.66072 32.773 2.65173 32.7404 2.64227C32.8023 2.5179 32.8647 2.39306 32.9442 2.32638C33.0014 2.27862 33.0671 2.26017 33.148 2.2928C33.1485 2.31881 33.1456 2.3453 33.1437 2.37083ZM34.7469 9.37391C34.6981 9.40654 34.6334 9.4141 34.5672 9.42025C34.5066 9.42592 34.4451 9.43066 34.3927 9.45241C34.4035 9.29588 34.3354 9.1001 34.4527 9.07882C34.4972 9.08828 34.535 9.09821 34.5672 9.10861C34.7885 9.17955 34.7511 9.27365 34.7469 9.37391ZM34.8339 2.60113L34.8263 2.60633C34.8235 2.6035 34.8206 2.60255 34.8173 2.60066L34.8339 2.5912C34.8575 2.57796 34.8788 2.56756 34.8977 2.55999C34.8764 2.57323 34.8547 2.58742 34.8339 2.60113ZM35.0561 1.25008C35.0604 1.26568 35.0642 1.27798 35.0679 1.29169L34.8343 1.29926L34.5899 1.3073C34.5865 1.29453 34.5851 1.2827 34.5847 1.26946C34.6031 1.13327 34.6579 0.757794 34.8339 0.804611C34.857 0.810758 34.8821 0.824 34.9095 0.846226C35.2585 0.869397 34.9559 1.33898 35.0561 1.25008ZM35.4737 9.84491C35.4534 9.8468 35.433 9.84775 35.4127 9.84775L35.4737 9.80566L35.4983 9.78864C35.5111 9.80424 35.5229 9.82174 35.5342 9.83545C35.5144 9.83971 35.4936 9.84302 35.4737 9.84491ZM36.8243 1.79438C36.9997 1.97549 36.9572 2.17316 36.8456 2.35523C36.7902 2.36421 36.7363 2.36989 36.6829 2.37367C36.6696 2.35239 36.6573 2.32827 36.6469 2.30037L36.6394 2.27862L36.6469 2.25828L36.8243 1.79438ZM36.6791 2.0696C36.672 2.08804 36.6602 2.10696 36.6469 2.12587L36.6384 2.1377L36.6223 2.15945C36.6261 2.12445 36.6318 2.09608 36.6384 2.07244C36.6413 2.06298 36.6441 2.05494 36.6469 2.0469C36.6526 2.03177 36.6588 2.01947 36.6654 2.00859C36.6715 2.02846 36.6772 2.04785 36.6791 2.0696ZM36.6384 1.95185L36.6469 1.96698L36.655 1.98306C36.6526 1.99583 36.6498 2.00907 36.6469 2.02231L36.6413 2.05399L36.6389 2.05116C36.5528 1.94428 36.3249 1.96178 36.2776 1.86484C36.3618 1.74614 36.5543 1.80951 36.6384 1.95185ZM35.9887 9.76357C36.0204 9.67325 36.0483 9.56874 36.0757 9.46234L36.0979 9.45288C36.1405 9.43444 36.1826 9.41883 36.2256 9.40465C36.1726 9.47653 36.1438 9.59096 36.1551 9.77445C36.1343 9.78059 36.1154 9.78438 36.0979 9.7858C36.053 9.79006 36.018 9.78059 35.9887 9.76357ZM36.0572 10.5467L36.0156 11.3317C35.3195 11.4196 36.0317 10.8229 35.8908 10.6086C35.9428 10.5396 36 10.497 36.0903 10.5202C36.0927 10.5263 36.0955 10.5311 36.0984 10.5358C36.1012 10.5405 36.1041 10.5453 36.1064 10.5505L36.0984 10.55C36.0842 10.5495 36.071 10.5486 36.0572 10.5467ZM37.7223 10.4597C37.6022 10.6635 37.4807 10.8654 37.3534 11.0513C37.6069 11.2702 37.5015 11.8013 37.073 11.7828C36.7718 11.7696 36.6531 11.4977 36.7061 11.2702C36.6871 11.2655 36.6673 11.2617 36.6474 11.2584L36.6389 11.257C36.4573 11.2267 36.2426 11.2352 36.0984 11.196L36.0903 11.1936L36.0984 11.161C36.1495 10.9628 36.2275 10.838 36.3211 10.7519C36.4147 10.776 36.524 10.7576 36.6389 10.7245L36.6474 10.7221C36.8352 10.6673 37.039 10.576 37.2224 10.5699L37.047 10.3187C37.0588 10.3036 37.0707 10.288 37.0825 10.2724C37.2461 10.1296 37.5057 10.2681 37.6745 10.3135L37.6254 10.4251L37.7218 10.3405L37.8074 10.2653C37.815 10.2715 37.8202 10.2786 37.8249 10.2842L37.7223 10.4597ZM38.1919 9.68649C38.1654 9.72621 38.1394 9.76688 38.1129 9.80803C38.0864 9.73709 38.0864 9.65575 38.1427 9.56212C38.1592 9.56164 38.1758 9.56118 38.1919 9.55976C38.2245 9.55692 38.2562 9.55171 38.2879 9.54462C38.2557 9.59096 38.2236 9.63873 38.1919 9.68649ZM38.1919 1.74614C38.1191 1.80194 38.0519 1.88328 38.0008 1.96273C37.9072 1.99583 37.814 2.0313 37.7223 2.06724C37.501 2.15283 37.2839 2.24126 37.0735 2.30179C37.0484 2.25734 37.0262 2.211 37.004 2.16702C36.9732 1.71682 37.3449 1.90834 37.6022 1.86578C37.5653 1.82511 37.5421 1.78634 37.527 1.74709L37.649 1.64258L37.6291 1.59671L37.5119 1.69649C37.4887 1.57259 37.553 1.45342 37.6306 1.32952C37.6466 1.31864 37.657 1.29926 37.666 1.2775C37.6835 1.28223 37.702 1.28743 37.7214 1.29405C37.7431 1.30162 37.7663 1.31108 37.7904 1.32337C37.8008 1.64116 37.8703 1.66953 37.9611 1.61231C37.9616 1.62602 37.9602 1.64021 37.9621 1.65298L38.1909 1.62839L38.3593 1.61042C38.2992 1.52577 38.3054 1.46051 38.3328 1.40282C38.3801 1.4345 38.4179 1.51915 38.4411 1.6927C38.3617 1.65298 38.2732 1.68372 38.1919 1.74614ZM38.9518 1.96604C38.897 1.97124 38.8445 1.97691 38.7891 1.98353L38.7821 1.98448C38.7835 1.97455 38.7863 1.96509 38.7891 1.95563C38.8123 1.88848 38.8729 1.83552 38.9045 1.80809C38.8662 1.80478 38.8274 1.80336 38.7891 1.80336C38.7182 1.80336 38.6468 1.80904 38.5759 1.81849C38.5607 1.81755 38.5456 1.81566 38.5286 1.81471C38.5272 1.75087 38.5295 1.68797 38.5333 1.62272C38.6511 1.67142 38.7248 1.69318 38.7891 1.70027C38.8142 1.70311 38.8379 1.70405 38.862 1.70358L38.9277 1.80431L38.975 1.70027L38.9693 1.69554C38.9944 1.69365 39.0199 1.69128 39.0507 1.69034C38.931 1.84072 38.9287 1.89794 38.9518 1.96604ZM39.0658 9.77209C39.1377 9.61887 39.1675 9.3479 39.1046 9.15118C39.1939 9.11618 39.2876 9.09064 39.3888 9.0826C39.4138 9.08071 39.4394 9.07977 39.4654 9.08024C39.4398 9.09159 39.4119 9.09679 39.3888 9.10436C39.3429 9.11997 39.3193 9.14597 39.3888 9.25474L39.3978 9.26893L39.3888 9.29446C39.3122 9.51909 39.3107 9.74891 39.0658 9.77209ZM39.454 9.8241C39.4261 9.74135 39.4039 9.67987 39.3883 9.62738C39.3618 9.53469 39.3576 9.46896 39.3883 9.3635C39.3949 9.33986 39.4034 9.3148 39.4138 9.28642C39.5798 9.24103 39.5524 9.10436 39.5231 8.9606C39.5273 9.02397 39.5046 9.05565 39.4739 9.07409L39.3883 9.00978L39.3117 8.95256C39.3358 8.91189 39.3613 8.87973 39.3883 8.85467C39.4919 8.75678 39.6115 8.76435 39.7411 8.77854L39.795 8.78468C39.8049 8.96249 39.7822 9.21029 39.7411 9.42924C39.7222 9.52996 39.6995 9.62501 39.6739 9.70351C39.6943 9.66663 39.717 9.63495 39.7411 9.60657C39.7491 9.59711 39.7572 9.58813 39.7652 9.57914L39.7411 9.634L39.6772 9.77918C39.5964 9.78864 39.5165 9.77918 39.454 9.8241ZM39.7416 9.76404C39.7231 9.77066 39.7042 9.7754 39.6853 9.77823C39.7051 9.74466 39.7236 9.70966 39.7416 9.67231C39.7605 9.63353 39.7775 9.59286 39.7931 9.55077C39.8096 9.53611 39.8262 9.52145 39.8437 9.50963C39.848 9.54273 39.8645 9.57584 39.9014 9.60752C39.8546 9.70068 39.7988 9.74324 39.7416 9.76404ZM42.3264 11.3411L42.4252 11.369C42.3907 11.3884 42.3581 11.4007 42.3264 11.3969C42.2909 11.3927 42.2578 11.3686 42.228 11.3128L42.3264 11.3411ZM41.5915 1.66055C41.4019 1.68939 41.2118 1.71682 41.0207 1.74141L40.9531 1.74992L40.8779 1.43025C40.8959 1.57353 40.8703 1.67899 40.8283 1.766C40.6845 1.7835 40.5393 1.80052 40.3937 1.81566C40.3951 1.7835 40.3993 1.75134 40.4036 1.7206C40.4944 1.70453 40.5885 1.69601 40.6906 1.72533L40.5374 1.47517C40.5412 1.47234 40.5445 1.47044 40.5497 1.46855C40.5417 1.46571 40.5346 1.46288 40.5275 1.46099L40.4528 1.33851L40.676 1.32337L40.476 1.10726C40.6533 1.0751 40.842 1.06707 41.0207 1.1049C41.2699 1.15833 41.4988 1.30162 41.6478 1.59812C41.6303 1.62082 41.6114 1.64021 41.5915 1.66055ZM44.5026 1.60143L44.4809 1.61231L44.4875 1.57732C44.4927 1.58015 44.4974 1.58252 44.5026 1.58441C44.5102 1.58725 44.5173 1.58914 44.5244 1.59009L44.5026 1.60143ZM46.2779 1.57921C46.2727 1.6265 46.2136 1.62319 46.1786 1.6038C46.1947 1.71398 46.162 1.8062 46.1573 1.88848C46.084 1.9022 46.0079 1.90929 45.9284 1.90929C45.8168 1.90882 45.6976 1.89368 45.5695 1.86011L45.7445 1.57354C45.7364 1.5707 45.7279 1.56928 45.7199 1.56644C45.7851 1.52104 45.8556 1.48368 45.9284 1.44822C46.015 1.40613 46.1057 1.36593 46.1951 1.31675C46.2103 1.44018 46.32 1.47281 46.2779 1.57921ZM49.1006 1.42363C48.9582 1.45862 48.8135 1.51395 48.6688 1.59151C48.5988 1.62886 48.5293 1.67142 48.4593 1.71918C48.2399 1.70074 48.2806 1.46146 48.2229 1.23825C48.1818 1.22596 48.142 1.21555 48.1023 1.20846C48.1066 1.17678 48.1037 1.14178 48.0824 1.10206L48.605 1.29311C48.5199 1.32479 48.5118 1.4189 48.4731 1.48747C48.5464 1.42126 48.6107 1.38627 48.6688 1.36783C48.8831 1.29926 49.014 1.45153 49.2108 1.06707C49.3593 1.22738 49.0826 1.34891 49.1006 1.42363ZM51.2035 2.14101L51.2352 2.09277C51.2489 2.10649 51.2622 2.12256 51.2721 2.1429C51.2494 2.18404 51.2267 2.21052 51.204 2.22802C51.1804 2.24552 51.1577 2.25308 51.1359 2.25497C51.1567 2.2162 51.1794 2.17884 51.2035 2.14101ZM51.0659 2.4115L51.0702 2.39968C51.0754 2.41576 51.0801 2.43042 51.0872 2.44981L51.0659 2.46825C51.0588 2.47392 51.0517 2.4796 51.0447 2.48433C51.0508 2.46021 51.0574 2.43609 51.0659 2.4115ZM49.8733 1.4974C49.8898 1.51395 49.9055 1.52861 49.922 1.54232C49.9064 1.55793 49.8903 1.5759 49.8733 1.59671C49.8676 1.60427 49.8615 1.61184 49.8558 1.62035C49.834 1.56928 49.8194 1.51111 49.8274 1.44585C49.8426 1.4643 49.8582 1.48179 49.8733 1.4974ZM49.7087 1.64258C49.722 1.6492 49.7347 1.65771 49.7466 1.66717C49.7636 1.68041 49.7797 1.69554 49.7967 1.71115C49.7839 1.7329 49.7707 1.75796 49.7574 1.78397L49.7466 1.7783C49.6884 1.74519 49.6893 1.69507 49.7087 1.64258ZM49.9929 9.3148C49.9802 9.31952 49.9679 9.3252 49.956 9.33277C49.9456 9.32709 49.9338 9.32284 49.9215 9.31811L49.9508 9.29872L49.9348 9.25143L49.8733 9.29304L49.8596 9.30203C49.8255 9.29541 49.7882 9.29446 49.7466 9.30014C49.7153 9.30439 49.6818 9.31243 49.6458 9.3252C49.6733 9.26703 49.7083 9.21029 49.7466 9.15827C49.7858 9.10531 49.8293 9.05707 49.8728 9.0164C49.9007 8.99039 49.9286 8.96769 49.956 8.94878C49.9438 8.98566 49.9319 9.02728 49.9192 9.07551C49.9447 9.08308 49.9688 9.08686 49.9925 9.08734C50.0572 9.08923 50.1159 9.06795 50.1703 9.03248C50.2232 9.02397 50.2805 9.0216 50.3292 9.04903C50.3954 9.35783 50.1485 9.25758 49.9929 9.3148ZM50.6417 8.72415C50.5973 8.79509 50.5793 8.89439 50.6309 9.05896C50.4114 9.13746 50.4568 8.80454 50.5505 8.62106C50.5803 8.5889 50.6101 8.55959 50.6417 8.53547C50.6498 8.52932 50.6573 8.52365 50.6649 8.51844C50.7146 8.53216 50.7633 8.54635 50.8106 8.5629C50.7567 8.6116 50.6862 8.65369 50.6417 8.72415ZM51.004 3.58806C50.9548 3.66609 50.908 3.74411 50.8754 3.82167C50.8432 3.84295 50.8087 3.85146 50.7723 3.83491C50.7491 3.624 50.8966 3.49064 51.004 3.55921C51.0082 3.56205 51.0125 3.56489 51.0168 3.5682L51.004 3.58806ZM52.1876 9.60468C52.1782 9.61083 52.1663 9.61556 52.1522 9.61792C52.164 9.60894 52.1758 9.59853 52.1876 9.58766C52.1995 9.57725 52.2117 9.56543 52.2236 9.55408C52.2174 9.57536 52.2061 9.59333 52.1876 9.60468ZM52.2292 9.44957C52.216 9.46423 52.2018 9.47652 52.1876 9.48646C52.12 9.53327 52.0434 9.52996 51.9635 9.5049C51.989 9.43255 52.0127 9.35878 52.0358 9.28217C51.6183 9.67751 51.9767 8.86555 51.7459 8.67734C51.7497 8.66693 51.7549 8.65889 51.7578 8.64944C51.8003 8.63903 51.8419 8.62816 51.8821 8.61539C51.8571 8.6012 51.8382 8.58607 51.8216 8.57283C51.8741 8.5506 51.9223 8.62201 51.9578 8.69767C51.9833 8.58843 52.1659 8.51277 52.1664 8.33165L52.1768 8.34206C52.1805 8.36145 52.1843 8.38036 52.1881 8.39927C52.2032 8.46832 52.2212 8.53263 52.2444 8.59222C52.2165 8.60924 52.1985 8.62768 52.1881 8.64849C52.1716 8.68112 52.1749 8.71753 52.1881 8.75773C52.2264 8.87075 52.3475 9.00978 52.3479 9.1578C52.0997 9.01829 52.2099 9.26467 52.2292 9.44957ZM53.1845 3.04423C53.1755 3.06835 53.1608 3.092 53.1344 3.11328C53.0133 3.07639 52.9911 3.02863 52.9821 2.89905C52.949 3.00451 52.8998 3.10524 52.8648 3.18705C52.7461 3.18705 52.626 3.18279 52.5045 3.17286C52.5092 3.16387 52.5168 3.15394 52.521 3.14449C52.5045 3.14969 52.4889 3.15867 52.4718 3.17097C52.3782 3.16246 52.2836 3.15158 52.1881 3.13692C52.1578 3.13219 52.1276 3.12746 52.0973 3.12226L52.138 2.78603C51.9545 2.8877 51.8869 2.97613 51.868 3.07308C51.8155 3.06031 51.7611 3.0466 51.7081 3.03052C51.719 3.16577 51.7209 3.30007 51.7105 3.42302C51.5842 3.36769 51.4334 3.42207 51.3605 3.26602C51.3648 3.28399 51.3667 3.29723 51.37 3.31284C51.3274 3.26933 51.2991 3.19981 51.2967 3.06788C51.2731 3.13739 51.2409 3.20454 51.204 3.2698C51.1619 3.34499 51.1137 3.41829 51.0664 3.49017L51.0168 3.56631C51.0115 3.55496 51.0073 3.54361 51.004 3.53273C50.9851 3.47267 50.9893 3.4216 51.004 3.37526C51.0191 3.32655 51.0451 3.28304 51.0664 3.24048C51.0886 3.1965 51.1057 3.15347 51.1004 3.10713L51.1525 3.06646C51.1572 3.04423 51.161 3.02437 51.1657 3.00404C51.1785 2.99836 51.1912 2.99647 51.204 2.99931C51.2135 3.0012 51.2234 3.00593 51.2338 3.01302L51.204 2.98512C51.1941 2.97566 51.1846 2.96573 51.1761 2.9558C51.1884 2.89338 51.1974 2.83852 51.204 2.78934C51.2518 2.45217 51.2026 2.38644 51.4608 2.03839C51.5861 2.29375 51.6788 2.6697 51.7081 3.0291C51.7852 2.76617 51.9649 2.61437 52.1881 2.55763C52.2765 2.53493 52.3716 2.52783 52.4695 2.53398L52.3267 2.73401C52.6071 2.81535 52.7031 2.52452 52.8147 2.35617C52.8033 2.43373 52.826 2.48007 52.8714 2.5737C52.9504 2.54533 53.0161 2.48054 53.0644 2.39589C53.1268 2.45595 53.1869 2.54817 53.2446 2.68105C53.2446 2.68294 53.2441 2.68389 53.2441 2.68389C53.1462 2.76617 53.1949 2.8721 53.1968 2.96999C53.193 2.99505 53.1887 3.01917 53.1845 3.04423ZM53.2904 8.95823L53.368 9.07551L53.4701 9.23062L53.368 9.26798L53.2166 9.32331C53.2847 9.19799 53.2871 9.0774 53.2904 8.95823ZM53.9388 9.7021C53.926 9.70162 53.9123 9.69926 53.8971 9.69453L53.8858 9.57111C53.8882 9.9655 53.5132 9.73945 53.3675 9.91868L53.3599 9.92814C53.2015 9.69169 53.2682 9.53564 53.3675 9.42262C53.4138 9.36965 53.4668 9.32662 53.5075 9.28879L53.5869 9.4089C53.8759 9.49544 53.8413 9.20319 53.9137 8.93837C53.9236 8.9502 53.9321 8.96391 53.9383 8.98377L53.9388 8.98472C54.0021 9.20414 53.9794 9.27224 53.9383 9.29967C53.8801 9.33797 53.7846 9.29399 53.8423 9.47795C53.8806 9.46707 53.9118 9.44862 53.9383 9.42545C54.0537 9.32331 54.0749 9.12564 54.1558 9.05187C54.2726 9.01025 54.3384 9.15023 54.3388 9.35121C54.0239 9.13888 54.1506 9.70872 53.9388 9.7021ZM53.891 8.28294C53.8986 8.21201 53.9156 8.16425 53.9392 8.13162C53.9534 8.11176 53.9695 8.09757 53.9875 8.08717C53.9808 8.1581 53.9619 8.20917 53.9392 8.25599C53.9298 8.27538 53.9198 8.29382 53.9094 8.31273L53.891 8.28294ZM54.4783 7.95145C54.3989 8.125 54.3175 8.10135 54.2362 8.05312C54.3138 8.03751 54.3771 7.98408 54.388 7.80296C54.2712 7.79066 54.1776 7.89564 54.0816 7.97131C54.0513 7.96563 54.0206 7.97225 53.9889 8.0011C53.9894 8.01103 53.9894 8.02002 53.9894 8.02853C53.9728 8.03562 53.9558 8.04082 53.9383 8.04319C53.8995 8.04839 53.8593 8.03988 53.8149 8.01008C53.8101 7.98218 53.8087 7.9557 53.8068 7.93158L53.847 7.79586C53.8395 7.79444 53.8309 7.79492 53.8215 7.79492C53.8437 7.73108 53.8863 7.70081 53.9378 7.68048C54.0409 7.64028 54.178 7.64264 54.2518 7.50882C54.362 7.56273 54.4405 7.60292 54.5006 7.64075C54.502 7.74479 54.5015 7.8616 54.4783 7.95145ZM54.5233 1.8445C54.4287 1.87004 54.3317 1.88281 54.2324 1.8795C54.2329 1.87524 54.2338 1.87098 54.2338 1.86531C54.3147 1.89085 54.4187 1.82417 54.5233 1.76553C54.6263 1.70736 54.7299 1.65676 54.8098 1.71115C54.8131 1.71824 54.8131 1.72581 54.8141 1.73243C54.719 1.77924 54.6221 1.81849 54.5233 1.8445ZM57.24 2.16323C57.1979 2.19633 57.1577 2.23842 57.1218 2.28288C57.1138 2.29233 57.1062 2.30226 57.0991 2.31172C56.9582 2.24173 56.9189 2.14621 56.926 2.03981C56.9771 2.06582 57.0471 2.00481 57.1218 1.93719C57.1875 1.87761 57.2566 1.81329 57.3185 1.80052C57.2996 1.93672 57.2887 2.0592 57.24 2.16323ZM58.287 2.13202L58.2846 2.12635C58.2785 2.11405 58.2723 2.10223 58.2653 2.0923C58.2709 2.08048 58.2771 2.06865 58.2846 2.05588C58.2903 2.04595 58.2969 2.03555 58.3036 2.02467C58.3036 2.0644 58.2988 2.10176 58.287 2.13202ZM59.3553 9.23961C59.465 9.09585 59.3704 8.9483 59.3051 8.81117C59.2834 8.7653 59.265 8.72084 59.2588 8.67781C59.2115 8.65322 59.1628 8.66646 59.1184 8.69862C59.0895 8.64849 59.0578 8.60026 59.0436 8.55438C59.1198 8.50142 59.2006 8.45744 59.2872 8.42576L59.3061 8.45129C59.3468 8.5052 59.3879 8.55155 59.429 8.59033C59.4659 8.8944 59.761 9.15023 59.3553 9.23961ZM60.6047 7.27899C60.582 7.2719 60.5607 7.26386 60.5422 7.25393C60.5522 7.22697 60.5593 7.19907 60.5649 7.17212C60.5782 7.18157 60.5919 7.1934 60.6042 7.20664C60.6283 7.2317 60.6501 7.26244 60.6666 7.29507C60.6453 7.29034 60.6245 7.28514 60.6047 7.27899ZM62.3808 6.16107L62.2967 6.16202L62.1704 6.16296C62.1709 6.14357 62.1718 6.12608 62.1732 6.10953C62.1784 6.10527 62.1837 6.10196 62.1879 6.0977C62.1837 6.09629 62.1789 6.09581 62.1737 6.09392C62.1832 5.98468 62.2063 5.92604 62.2376 5.8972C62.2536 5.88821 62.2692 5.88017 62.2853 5.87781C62.2891 5.87686 62.2934 5.87686 62.2971 5.87639C62.3146 5.87544 62.3336 5.8797 62.3534 5.88538C62.3799 5.90004 62.404 5.92983 62.4239 5.98043L62.3808 6.16107ZM62.8485 6.57201C62.8443 6.56445 62.84 6.55688 62.8353 6.54932C62.8154 6.51763 62.7899 6.48406 62.7615 6.44954C62.7856 6.45332 62.8102 6.45616 62.8353 6.45852L62.9091 6.46609C62.8906 6.49824 62.8698 6.53513 62.8485 6.57201ZM65.2702 8.561C65.23 8.54209 65.1969 8.50284 65.169 8.45224C65.1506 8.41866 65.135 8.38036 65.1222 8.33969L65.169 8.30706C65.2376 8.2593 65.3118 8.20539 65.3908 8.14628C65.3695 8.22478 65.3412 8.31605 65.2995 8.43664C65.4036 8.38556 65.5199 8.35908 65.6381 8.35388C65.5436 8.50757 65.335 8.42339 65.2702 8.561ZM65.1369 3.09389C65.1468 3.10098 65.1577 3.10902 65.169 3.11753C65.1794 3.12557 65.1903 3.13408 65.2017 3.14401C65.1969 3.14638 65.1936 3.14922 65.1889 3.15205C65.1823 3.14543 65.1756 3.13881 65.169 3.13219C65.1577 3.11989 65.1468 3.10713 65.1369 3.09389ZM65.9072 3.43626H65.9058H65.9034L65.9058 3.42822L65.9077 3.42255C65.9077 3.42775 65.9077 3.432 65.9072 3.43626ZM65.9058 3.21778C65.8481 3.07923 65.658 3.05416 65.5478 2.91561C65.4083 3.0518 65.2854 3.03714 65.1695 2.9837C65.1279 2.96478 65.0877 2.94067 65.0475 2.91655C65.03 2.85176 65.0201 2.77847 65.0257 2.69287C65.0754 2.66828 65.1232 2.65504 65.1695 2.65031C65.4428 2.62099 65.6689 2.87825 65.9063 2.83616C65.9176 2.83379 65.9294 2.83143 65.9413 2.82765C65.929 2.82386 65.9171 2.81582 65.9063 2.80495C65.8524 2.75151 65.8221 2.62336 65.8746 2.5127L65.9063 2.52216L66.1489 2.59498C66.1985 2.75435 66.0997 2.98465 66.0581 3.22109C65.9914 3.16387 65.9398 3.13503 65.9186 3.25892C65.9153 3.24426 65.911 3.23055 65.9058 3.21778ZM67.9619 4.68754L67.925 4.72442C67.926 4.69085 67.9005 4.65727 67.8659 4.62039C67.899 4.61235 67.9307 4.60667 67.9619 4.60194C67.995 4.59721 68.0267 4.5939 68.0575 4.59059L67.9619 4.68754ZM68.1752 4.68517C68.1516 4.70078 68.126 4.7126 68.0972 4.71922C68.0608 4.6776 68.0636 4.62937 68.0797 4.58917C68.1118 4.58681 68.1435 4.58539 68.1752 4.5835C68.2111 4.58113 68.2466 4.57877 68.2821 4.57404C68.2504 4.61897 68.2154 4.65822 68.1752 4.68517ZM71.1067 4.97033C71.0991 5.03038 71.0915 5.09328 71.0811 5.15428C71.0532 5.14388 71.0206 5.14293 70.9837 5.15428C70.9397 5.16752 70.8896 5.19779 70.8305 5.24886C70.9142 5.18833 70.9572 5.12496 70.9837 5.06443C71.0376 4.94195 71.0225 4.83366 71.1369 4.79677C71.1246 4.85021 71.1157 4.90838 71.1067 4.97033ZM71.6883 5.07578C71.6997 5.06869 71.7115 5.06538 71.7238 5.06443C71.7134 5.07483 71.7016 5.08477 71.6883 5.0947C71.6779 5.10274 71.6656 5.1103 71.6529 5.11787C71.6633 5.09801 71.6751 5.08429 71.6883 5.07578ZM71.6883 5.65177C71.6179 5.7123 71.5583 5.7681 71.5275 5.82153C71.441 5.77519 71.3833 5.67967 71.3351 5.57326C71.3403 5.52125 71.345 5.45173 71.3507 5.35148C71.388 5.27203 71.4278 5.24933 71.4604 5.26021C71.4656 5.26399 71.4703 5.26541 71.4755 5.26825C71.5441 5.31885 71.5734 5.53165 71.476 5.68109C71.5498 5.6163 71.6207 5.55057 71.6888 5.48483C71.7399 5.43565 71.7891 5.386 71.8363 5.33587L71.6888 5.2796L71.6628 5.26967C71.6718 5.26352 71.6803 5.2569 71.6888 5.24886C71.7375 5.20535 71.7796 5.13962 71.8255 5.08193C71.8879 5.09706 71.9456 5.09423 71.9706 4.96371C72.0023 4.9533 72.0378 4.95141 72.0775 4.96087C72.1901 5.26068 71.895 5.4749 71.6883 5.65177Z" fill="#FFED00"/>
<path fill-rule="evenodd" clip-rule="evenodd" d="M72.3196 5.76774C72.304 5.75923 72.2893 5.74835 72.2747 5.74268L72.3219 5.86657C72.3059 5.82401 72.3087 5.7928 72.3196 5.76774Z" fill="#FFED00"/>
<path fill-rule="evenodd" clip-rule="evenodd" d="M72.4482 9.40723L72.3191 9.50039C72.3621 9.50559 72.3872 9.45073 72.4482 9.40723Z" fill="#FFED00"/>
<path fill-rule="evenodd" clip-rule="evenodd" d="M1.75168 8.35312C1.82498 8.26375 1.81457 8.20274 1.7791 8.146C1.76066 8.20322 1.74979 8.26658 1.75168 8.35312Z" fill="#FFED00"/>
<path fill-rule="evenodd" clip-rule="evenodd" d="M16.3671 10.6201C16.3467 10.6305 16.3292 10.6353 16.3027 10.6485C16.3264 10.6447 16.3477 10.6343 16.3671 10.6201Z" fill="#FFED00"/>
<path fill-rule="evenodd" clip-rule="evenodd" d="M24.372 0.815138L24.4425 0.476074L24.2349 0.674217C24.1635 0.739949 24.0802 0.805681 24.0032 0.872359C24.0613 0.687458 23.8287 0.748461 23.9223 0.532349C23.8868 0.562614 23.7156 0.63875 23.7681 0.730964L23.8665 0.717249C23.7492 0.986798 23.7331 1.17075 23.6953 1.34052C23.658 1.50934 23.5965 1.66209 23.4102 1.87347C23.6688 2.1766 23.7738 1.89002 23.8991 1.64365C23.9441 1.60487 23.9819 1.58832 24.0207 1.56799L24.207 1.19109C24.2642 1.06624 24.3167 0.940927 24.372 0.815138Z" fill="#FFED00"/>
<path fill-rule="evenodd" clip-rule="evenodd" d="M7.27259 4.55908L7.25415 4.7298C7.27685 4.64373 7.36906 4.56334 7.27259 4.55908Z" fill="#FFED00"/>
<path fill-rule="evenodd" clip-rule="evenodd" d="M15.2905 12.6558C15.3038 12.6974 15.3222 12.7385 15.335 12.7631C15.3227 12.7205 15.308 12.6856 15.2905 12.6558Z" fill="#FFED00"/>
<path fill-rule="evenodd" clip-rule="evenodd" d="M20.5032 11.0906C20.507 11.0792 20.5107 11.0665 20.5131 11.0537C20.5093 11.0589 20.5055 11.0707 20.5032 11.0906Z" fill="#FFED00"/>
<path fill-rule="evenodd" clip-rule="evenodd" d="M33.2209 0.749408L33.3902 0.596191C33.3221 0.605649 33.2706 0.666652 33.2209 0.749408Z" fill="#FFED00"/>
<path fill-rule="evenodd" clip-rule="evenodd" d="M33.1897 0.77836L33.201 0.788763L33.2209 0.749512L33.1897 0.77836Z" fill="#FFED00"/>
<path fill-rule="evenodd" clip-rule="evenodd" d="M29.3464 1.14286C29.3814 1.1282 29.4018 1.10409 29.4193 1.07666C29.3942 1.09699 29.3724 1.11354 29.3464 1.14286Z" fill="#FFED00"/>
<path fill-rule="evenodd" clip-rule="evenodd" d="M25.5883 1.74854L25.437 1.84359C25.5122 1.83224 25.5567 1.79535 25.5883 1.74854Z" fill="#FFED00"/>
<path fill-rule="evenodd" clip-rule="evenodd" d="M27.1239 1.19254C27.1206 1.17409 27.1196 1.1547 27.1135 1.13721C27.0889 1.16085 27.1017 1.18072 27.1239 1.19254Z" fill="#FFED00"/>
<path fill-rule="evenodd" clip-rule="evenodd" d="M40.6924 1.44912C40.6328 1.44345 40.5874 1.45101 40.5496 1.46851C40.5926 1.47939 40.6399 1.48033 40.6924 1.44912Z" fill="#FFED00"/>
<path fill-rule="evenodd" clip-rule="evenodd" d="M27.1524 10.1528C27.1415 10.1968 27.1264 10.2417 27.1003 10.299C27.1301 10.2384 27.1438 10.1926 27.1524 10.1528Z" fill="#FFED00"/>
<path fill-rule="evenodd" clip-rule="evenodd" d="M4.47754 2.33714C4.99914 2.24634 5.47487 2.19669 6.23907 2.04395C5.67065 2.12812 5.0819 2.22317 4.47754 2.33714Z" fill="#FFED00"/>
<path fill-rule="evenodd" clip-rule="evenodd" d="M42.3733 9.41708L42.474 9.33196L42.5029 9.17969L42.3733 9.41708Z" fill="#FFED00"/>
<path fill-rule="evenodd" clip-rule="evenodd" d="M42.481 10.2759L42.5774 10.0679L42.3083 10.1705L42.481 10.2759Z" fill="#FFED00"/>
<path fill-rule="evenodd" clip-rule="evenodd" d="M39.5232 8.96018C39.5213 8.93654 39.518 8.90911 39.5076 8.87695C39.5118 8.90391 39.518 8.93228 39.5232 8.96018Z" fill="#FFED00"/>
<path fill-rule="evenodd" clip-rule="evenodd" d="M32.5769 0.998388C32.8635 1.08256 32.8053 0.605888 32.9741 0.491448C32.653 0.549613 32.584 0.422878 32.2019 0.530225C32.5046 0.657433 32.584 0.720327 32.5769 0.998388Z" fill="#FFED00"/>
<path fill-rule="evenodd" clip-rule="evenodd" d="M32.9741 0.490516C33.0101 0.484842 33.0446 0.477749 33.0857 0.467345C33.0389 0.45836 33.0049 0.470655 32.9741 0.490516Z" fill="#FFED00"/>
<path fill-rule="evenodd" clip-rule="evenodd" d="M31.754 0.398791C31.8093 0.415342 31.8982 0.401627 31.945 0.495733C31.9517 0.21578 31.6977 0.383185 31.754 0.398791Z" fill="#FFED00"/>
<path fill-rule="evenodd" clip-rule="evenodd" d="M27.6604 0.617255L27.8004 0.415802L27.615 0.364258C27.6689 0.436138 27.589 0.802156 27.6604 0.617255Z" fill="#FFED00"/>
<path fill-rule="evenodd" clip-rule="evenodd" d="M27.5786 0.354996L27.6146 0.364454C27.606 0.352159 27.5942 0.347903 27.5786 0.354996Z" fill="#FFED00"/>
<path fill-rule="evenodd" clip-rule="evenodd" d="M26.6599 1.36326L26.8982 1.27246L26.6367 1.31502L26.6599 1.36326Z" fill="#FFED00"/>
<path fill-rule="evenodd" clip-rule="evenodd" d="M25.506 0.549228L25.4611 0.456543L25.2695 0.639552L25.3149 0.733184L25.506 0.549228Z" fill="#FFED00"/>
<path fill-rule="evenodd" clip-rule="evenodd" d="M18.3578 2.11366C18.3025 2.10326 18.2571 2.10184 18.2117 2.10278C18.2542 2.12217 18.302 2.13163 18.3578 2.11366Z" fill="#FFED00"/>
<path fill-rule="evenodd" clip-rule="evenodd" d="M12.593 0.987865L12.8214 0.981717C12.7495 0.957599 12.6762 0.950979 12.593 0.987865Z" fill="#FFED00"/>
<path fill-rule="evenodd" clip-rule="evenodd" d="M18.9078 1.23943L19.3065 1.19734C19.1608 0.994472 19.3949 0.904148 19.4115 0.749512L18.9249 0.770792C18.9338 0.926374 18.8922 1.09898 18.9078 1.23943Z" fill="#FFED00"/>
<path fill-rule="evenodd" clip-rule="evenodd" d="M18.7722 0.483398C18.7599 0.590745 18.7126 0.68958 18.6587 0.781794L18.9254 0.770442C18.9193 0.656002 18.8843 0.550549 18.7722 0.483398Z" fill="#FFED00"/>
<path fill-rule="evenodd" clip-rule="evenodd" d="M10.9465 2.59082C10.9096 2.59933 10.8755 2.60643 10.8391 2.61683C10.8878 2.61777 10.92 2.60784 10.9465 2.59082Z" fill="#FFED00"/>
<path fill-rule="evenodd" clip-rule="evenodd" d="M9.65416 2.37426C9.99795 2.36906 10.5082 2.62348 10.5843 2.1922C10.581 2.26692 10.5862 2.35204 10.6392 2.39744L10.8435 1.93731L10.6349 1.79591C10.8397 1.33815 11.5396 1.43037 11.672 1.70938C11.2795 1.86969 11.4937 2.41588 10.9324 2.12505C10.9608 2.26502 11.0691 2.51093 10.9466 2.59038C11.5902 2.41966 12.177 2.66462 12.8339 2.18038C12.2953 1.73869 13.1696 1.80112 12.9876 1.22702L12.7062 1.4228L12.7265 1.26769L12.379 1.32397C12.4575 1.58595 12.5119 1.60298 12.5038 1.88104C12.0338 1.77889 12.3478 1.55379 11.9959 1.20716L11.4762 1.26533L11.5159 1.18115C11.472 1.1873 11.4535 1.22324 11.4398 1.26911L9.69199 1.46536C9.38083 1.68951 9.87736 1.96237 9.65416 2.37426Z" fill="#FFED00"/>
<path fill-rule="evenodd" clip-rule="evenodd" d="M6.36532 2.42627C6.3516 2.45417 6.34829 2.47451 6.35964 2.47782L6.36532 2.42627Z" fill="#FFED00"/>
<path fill-rule="evenodd" clip-rule="evenodd" d="M6.67452 2.28517L6.60028 2.54384L6.93934 2.00049L6.39788 2.04683L6.36572 2.42657C6.41065 2.32868 6.5998 2.13621 6.67452 2.28517Z" fill="#FFED00"/>
<path fill-rule="evenodd" clip-rule="evenodd" d="M7.30683 2.55438L7.33283 1.6748C7.06092 1.83512 7.07842 2.28436 7.22691 2.4896C6.97816 2.69531 7.0926 2.0063 6.92236 2.47872C6.9304 2.80171 7.23778 2.6135 7.30683 2.55438Z" fill="#FFED00"/>
<path fill-rule="evenodd" clip-rule="evenodd" d="M9.18599 1.92773L9.12451 2.11405L9.27868 2.16229L9.18599 1.92773Z" fill="#FFED00"/>
<path fill-rule="evenodd" clip-rule="evenodd" d="M9.12448 2.11408L8.96606 2.06348C8.97647 2.20156 8.98782 2.33728 9.01572 2.43044L9.12448 2.11408Z" fill="#FFED00"/>
<path fill-rule="evenodd" clip-rule="evenodd" d="M8.28125 1.85596L8.53283 1.92973C8.46048 1.89473 8.38103 1.8692 8.28125 1.85596Z" fill="#FFED00"/>
<path fill-rule="evenodd" clip-rule="evenodd" d="M8.71879 1.98691L8.53247 1.92969C8.60246 1.96515 8.66299 2.00393 8.72399 2.04602L8.71879 1.98691Z" fill="#FFED00"/>
<path fill-rule="evenodd" clip-rule="evenodd" d="M8.67334 1.5032L8.71874 1.98697L8.96606 2.06264C8.93911 1.74863 8.91168 1.41855 8.67334 1.5032Z" fill="#FFED00"/>
<path fill-rule="evenodd" clip-rule="evenodd" d="M14.9021 12.7542C15.0137 12.7892 15.0463 12.759 15.1111 12.697C15.087 12.4497 14.9905 12.7429 14.9021 12.7542Z" fill="#FFED00"/>
<path fill-rule="evenodd" clip-rule="evenodd" d="M7.80367 1.74077C7.80982 1.54169 7.67031 1.65991 7.59985 1.71808C7.65613 1.73557 7.73747 1.80083 7.80367 1.74077Z" fill="#FFED00"/>
<path fill-rule="evenodd" clip-rule="evenodd" d="M1.71753 2.72656C1.79698 2.80979 1.83575 2.85046 1.91331 2.85377L1.71753 2.72656Z" fill="#FFED00"/>
<path fill-rule="evenodd" clip-rule="evenodd" d="M1.65659 8.67203C1.6547 8.6446 1.64572 8.61339 1.62964 8.57178C1.64383 8.60772 1.65234 8.64035 1.65659 8.67203Z" fill="#FFED00"/>
<path fill-rule="evenodd" clip-rule="evenodd" d="M1.4449 8.94289L1.41416 8.87101C1.40139 8.93248 1.3891 8.99538 1.37964 9.0578C1.46902 8.98356 1.69742 8.91783 1.65628 8.67334C1.6752 8.84453 1.38058 8.68563 1.4449 8.94289Z" fill="#FFED00"/>
<path fill-rule="evenodd" clip-rule="evenodd" d="M35.4212 11.0317C35.4004 11.0421 35.3825 11.0469 35.3564 11.0611C35.3806 11.0573 35.4018 11.0464 35.4212 11.0317Z" fill="#FFED00"/>
<path fill-rule="evenodd" clip-rule="evenodd" d="M38.5918 11.1889C38.5918 11.1889 38.5875 11.1889 38.5866 11.1889C38.5781 11.1889 38.571 11.187 38.5634 11.186C38.5805 11.3109 38.5474 11.4447 38.4646 11.5398C38.5649 11.579 38.632 11.6561 38.6694 11.7459C38.701 11.5946 38.7885 11.4579 38.9403 11.4017C38.9469 11.4003 38.9536 11.3974 38.9611 11.3951L38.9744 11.3657C38.9526 11.3667 38.9323 11.3705 38.9082 11.3686C38.7564 11.3615 38.6533 11.2882 38.5918 11.1889Z" fill="#FFED00"/>
<path fill-rule="evenodd" clip-rule="evenodd" d="M39.8572 10.6699C39.5342 10.668 39.5721 11.009 39.5782 11.2724L39.5934 11.2733C39.6208 11.2752 39.6468 11.279 39.6723 11.2823C39.6137 10.8009 40.0412 11.209 39.8572 10.6699Z" fill="#FFED00"/>
<path fill-rule="evenodd" clip-rule="evenodd" d="M52.2759 1.16152L52.4447 1.0083C52.3766 1.01776 52.3251 1.07876 52.2759 1.16152Z" fill="#FFED00"/>
<path fill-rule="evenodd" clip-rule="evenodd" d="M66.617 4.03547L66.6127 4.03027C66.6014 4.03973 66.5929 4.05344 66.5806 4.06196L66.617 4.03547Z" fill="#FFED00"/>
<path fill-rule="evenodd" clip-rule="evenodd" d="M52.2444 1.18952L52.2557 1.20135L52.2761 1.16162L52.2444 1.18952Z" fill="#FFED00"/>
<path fill-rule="evenodd" clip-rule="evenodd" d="M48.4009 1.55354C48.4354 1.54077 48.4562 1.51571 48.4732 1.48828C48.4486 1.50909 48.4274 1.52516 48.4009 1.55354Z" fill="#FFED00"/>
<path fill-rule="evenodd" clip-rule="evenodd" d="M67.4225 10.1773C67.4589 10.0922 67.5 10.0317 67.5407 9.97021C67.4688 10.0563 67.4064 10.1267 67.4225 10.1773Z" fill="#FFED00"/>
<path fill-rule="evenodd" clip-rule="evenodd" d="M67.645 9.83545C67.61 9.87328 67.5732 9.91726 67.5405 9.97022C67.5746 9.92719 67.6134 9.88321 67.645 9.83545Z" fill="#FFED00"/>
<path fill-rule="evenodd" clip-rule="evenodd" d="M58.7864 8.95996C58.7911 9.04792 58.8072 9.06778 58.8308 9.05312C58.8218 9.00961 58.8072 8.97273 58.7864 8.95996Z" fill="#FFED00"/>
<path fill-rule="evenodd" clip-rule="evenodd" d="M44.9967 10.5264L44.9551 10.6853C44.9924 10.6124 45.0028 10.5651 44.9967 10.5264Z" fill="#FFED00"/>
<path fill-rule="evenodd" clip-rule="evenodd" d="M46.1789 1.60364C46.1752 1.58425 46.1742 1.56581 46.1681 1.54736C46.1425 1.57243 46.1572 1.59087 46.1789 1.60364Z" fill="#FFED00"/>
<path fill-rule="evenodd" clip-rule="evenodd" d="M52.0084 8.83631C52.0084 8.83631 51.9876 8.7649 51.9573 8.69775C51.9474 8.73559 51.9592 8.78098 52.0084 8.83631Z" fill="#FFED00"/>
<path fill-rule="evenodd" clip-rule="evenodd" d="M46.2066 10.564C46.1966 10.6079 46.181 10.6538 46.1545 10.7101C46.1839 10.6491 46.198 10.6046 46.2066 10.564Z" fill="#FFED00"/>
<path fill-rule="evenodd" clip-rule="evenodd" d="M62.5024 7.02294C62.4002 7.06313 62.2901 7.02294 62.1633 6.87256C62.2016 6.96619 62.2546 7.11279 62.2551 7.23669C62.3392 7.24378 62.4106 7.07732 62.5024 7.02294Z" fill="#FFED00"/>
<path fill-rule="evenodd" clip-rule="evenodd" d="M68.7588 9.82107L68.7749 9.86836L69.0052 9.71135L68.99 9.66406L68.7588 9.82107Z" fill="#FFED00"/>
<path fill-rule="evenodd" clip-rule="evenodd" d="M61.4275 9.82776L61.5277 9.74453L61.5575 9.59131L61.4275 9.82776Z" fill="#FFED00"/>
<path fill-rule="evenodd" clip-rule="evenodd" d="M61.5363 10.6876L61.6333 10.4795L61.3628 10.5812L61.5363 10.6876Z" fill="#FFED00"/>
<path fill-rule="evenodd" clip-rule="evenodd" d="M58.4644 9.69882C58.6361 9.65579 58.6068 9.51676 58.5774 9.37158C58.593 9.60141 58.2597 9.40894 58.4644 9.69882Z" fill="#FFED00"/>
<path fill-rule="evenodd" clip-rule="evenodd" d="M58.5774 9.37179C58.5759 9.34767 58.5717 9.32119 58.5613 9.28809C58.566 9.31551 58.5717 9.34342 58.5774 9.37179Z" fill="#FFED00"/>
<path fill-rule="evenodd" clip-rule="evenodd" d="M51.6311 1.40978C51.9182 1.49254 51.8605 1.01633 52.0293 0.901893C51.7082 0.961005 51.6373 0.833324 51.2571 0.940671C51.5597 1.06882 51.6392 1.13172 51.6311 1.40978Z" fill="#FFED00"/>
<path fill-rule="evenodd" clip-rule="evenodd" d="M52.0293 0.902119C52.0643 0.895971 52.0988 0.889823 52.1395 0.878474C52.0941 0.870435 52.0591 0.88273 52.0293 0.902119Z" fill="#FFED00"/>
<path fill-rule="evenodd" clip-rule="evenodd" d="M56.2445 10.3245L56.3547 9.95801L56.1802 10.3836L56.2445 10.3245Z" fill="#FFED00"/>
<path fill-rule="evenodd" clip-rule="evenodd" d="M50.8081 0.809573C50.8634 0.82707 50.9523 0.81241 50.9991 0.906515C51.0057 0.627036 50.7523 0.79444 50.8081 0.809573Z" fill="#FFED00"/>
<path fill-rule="evenodd" clip-rule="evenodd" d="M51.2571 9.41016C51.0429 9.74496 50.4797 9.73598 50.5317 10.232C50.718 10.328 50.9318 10.1914 51.015 9.97668L50.9374 9.91426L51.2571 9.41016Z" fill="#FFED00"/>
<path fill-rule="evenodd" clip-rule="evenodd" d="M46.7153 1.02937L46.8543 0.82744L46.6689 0.776367C46.7233 0.848247 46.6444 1.21427 46.7153 1.02937Z" fill="#FFED00"/>
<path fill-rule="evenodd" clip-rule="evenodd" d="M46.6326 0.766391L46.6695 0.776793C46.6605 0.764498 46.6486 0.759298 46.6326 0.766391Z" fill="#FFED00"/>
<path fill-rule="evenodd" clip-rule="evenodd" d="M45.7153 1.77442L45.9527 1.68457L45.6907 1.72666L45.7153 1.77442Z" fill="#FFED00"/>
<path fill-rule="evenodd" clip-rule="evenodd" d="M44.5602 0.960394L44.5152 0.868652L44.3237 1.05214L44.3701 1.14388L44.5602 0.960394Z" fill="#FFED00"/>
<path fill-rule="evenodd" clip-rule="evenodd" d="M46.3293 10.2008C46.4258 10.5886 46.4178 10.188 46.606 10.2821L46.4173 10.6666C46.5828 10.7148 46.693 10.267 46.6462 10.1738L46.3293 10.2008Z" fill="#FFED00"/>
<path fill-rule="evenodd" clip-rule="evenodd" d="M26.6553 2.12921C26.712 2.14671 26.7919 2.21196 26.8596 2.15191C26.8648 1.95282 26.7257 2.07104 26.6553 2.12921Z" fill="#FFED00"/>
<path fill-rule="evenodd" clip-rule="evenodd" d="M44.2197 4.28766C43.4337 4.24037 42.9467 4.81872 42.6615 5.53658C42.2406 5.76546 41.7871 5.94421 41.4197 6.0927C41.2598 6.15796 40.9964 6.2601 40.6971 6.35799C40.8234 5.37532 40.7477 4.4144 39.8185 4.30091C39.3938 4.24889 37.5807 5.36775 36.0907 5.95556C36.7376 4.81352 35.9549 3.68662 34.6573 3.85166C34.4738 3.87483 34.2795 3.92401 34.078 4.00251C33.4529 4.24605 33.0774 4.75346 32.9502 5.29966C32.1202 5.92246 30.7276 6.74056 30.9796 4.97525C31.0302 4.62342 30.7053 4.39454 30.3965 4.60592C29.9747 4.89722 27.6618 6.95242 27.964 5.14644C28.0264 4.77522 27.6873 4.59268 27.3818 4.77569C26.7638 5.14786 26.2195 5.65291 25.6553 6.09743C25.1053 6.53012 23.4786 7.98191 23.5661 6.48709C23.5855 6.15181 23.1996 6.0752 22.9716 6.2218C22.6047 6.45824 22.2973 6.74293 21.9677 7.03092C20.9864 7.89158 21.3794 5.67844 21.3832 5.6548C21.4532 5.21832 21.0002 5.08543 20.7174 5.3635C20.2587 5.8118 19.8581 6.3178 19.4273 6.79258C18.1013 8.25004 18.2706 6.44122 18.3945 5.50678C18.4475 5.09915 18.0044 4.89297 17.7287 5.21454C17.0326 6.02744 16.4523 6.92924 15.7449 7.73364C14.2066 9.47767 14.2378 6.71739 14.4506 5.62642C14.6511 4.59977 15.0152 3.60244 15.2635 2.58619C15.7789 0.474253 14.6762 -1.06359 12.8924 0.917828C11.6534 2.29537 10.8925 4.29523 9.89236 5.85105C9.24828 6.85405 8.44626 8.17721 7.36475 8.77306C6.57975 9.20434 6.38964 8.07743 6.33763 7.61731C6.29507 7.24892 6.28372 6.93397 6.38019 6.59113C6.62042 5.73614 7.0725 6.33955 6.89091 6.85027C6.59724 7.67452 8.00978 7.63858 8.02396 6.46345C8.02396 6.46345 8.00079 5.96265 7.96343 5.90969C7.84947 5.13651 7.09898 4.63571 6.23075 5.23629C5.47743 5.75742 5.40035 7.90293 5.7328 8.65152C6.97272 11.4388 9.57836 7.64284 10.3662 6.48C11.3177 5.07692 12.1282 3.58258 12.9889 2.12229C13.6235 1.04551 14.8781 0.46385 14.5002 2.49587C14.2269 3.96657 13.6604 5.34411 13.4816 6.84082C13.3521 7.93982 13.719 9.59494 15.1055 9.18353C16.0404 8.90736 16.7607 7.893 17.3991 6.9458C17.3546 7.67216 17.4657 8.36921 18.1183 8.45007C18.9625 8.55411 19.7394 7.7152 20.3854 6.91742C20.3783 7.28486 20.4644 7.63244 20.7831 7.93178C21.3822 8.49026 22.2141 7.82964 22.8213 7.30756C23.1939 8.98775 25.6567 7.03943 27.0357 5.96502C27.0016 6.39157 27.073 6.80015 27.5223 6.91931C28.6544 7.2196 29.3869 6.44453 30.1743 5.74654C30.2996 7.30851 31.7022 6.9893 32.962 6.19059C33.1152 6.74576 33.5418 7.21251 34.2577 7.32316C34.3873 7.3435 34.5202 7.34918 34.6559 7.34303C35.6102 7.30094 36.687 6.6753 37.4687 6.30692C37.6228 6.22227 37.7756 6.13337 37.9264 6.0421C38.195 5.88226 40.1372 4.3359 39.8747 6.36934C39.8653 6.43554 39.8535 6.50033 39.8426 6.56654C39.3673 6.63794 38.9261 6.6072 38.7289 6.30928C38.449 5.88699 37.7779 6.40623 38.0404 6.80346C38.4012 7.34823 39.0467 7.43241 39.7031 7.35485C39.6321 7.71898 39.5669 8.08453 39.5442 8.46048C39.513 9.00288 40.3108 8.82508 40.3387 8.34793C40.3528 8.09871 40.4555 7.67027 40.5552 7.18413C40.7761 7.12313 40.9884 7.05929 41.1667 7.00207C41.5436 6.88101 41.9697 6.72306 42.3915 6.52918C42.3376 6.8498 42.3139 7.15671 42.3139 7.41207C42.3149 7.9559 43.1074 7.77525 43.1065 7.29858C43.1056 7.06497 43.1457 6.5306 43.2677 6.04683C43.7723 5.71722 44.2102 5.32094 44.4613 4.83575C44.5706 4.62909 44.493 4.30469 44.2197 4.28766ZM35.3681 5.52759C35.3056 5.73708 35.1718 5.88273 35.003 6.01089C34.9051 6.0856 34.7831 6.13478 34.6578 6.15228C34.5698 6.16458 34.48 6.16079 34.3958 6.13904C34.1438 6.07284 33.9087 5.81511 33.9253 5.54178C33.9314 5.40842 33.9735 5.29398 34.0416 5.1942C34.1177 5.06368 34.2284 4.95492 34.3509 4.8679C34.4355 4.80832 34.5448 4.7615 34.6573 4.74164C34.7585 4.72367 34.8621 4.72793 34.9519 4.76434C35.1051 4.82629 35.2404 4.9133 35.3156 5.06888C35.3865 5.2117 35.4149 5.37106 35.3681 5.52759Z" fill="#12110C"/>
<path fill-rule="evenodd" clip-rule="evenodd" d="M66.4227 4.15443C65.589 4.32231 64.7638 4.85905 64.6914 5.59298C64.1741 5.98642 62.0328 7.21925 63.0122 5.26006C63.1952 4.89215 62.8093 4.55309 62.4764 4.79804C61.9931 5.15461 61.4682 5.91265 60.7546 6.35812C60.4505 6.55011 60.1985 6.65036 59.866 6.78845C59.57 6.9114 59.2116 7.18947 59.343 6.77285C59.4792 6.34062 59.1293 6.12072 58.8034 6.30657C58.027 7.0457 56.4721 7.1748 57.4042 5.44449C57.451 5.37072 57.5039 5.29694 57.5456 5.22506C57.8118 4.77582 57.2339 4.55166 56.9242 4.83777C56.7303 5.01652 56.4442 5.38018 56.2281 5.78497C55.9108 6.14721 55.5556 6.4683 55.1499 6.76954C55.2724 6.64942 53.3604 7.83307 53.6324 7.14265C53.7785 6.7719 53.455 6.42953 53.0923 6.67496C53.0583 6.69766 53.0238 6.71704 52.9906 6.73832C52.9897 6.7388 52.9892 6.74069 52.9883 6.74116C51.8661 7.71154 50.9 7.68648 50.3637 7.34883C50.316 7.31856 50.2715 7.28594 50.2304 7.25141C50.2753 7.22162 50.3197 7.19183 50.3637 7.16156C50.6796 6.94403 50.9695 6.70711 51.2173 6.4631C52.0865 5.60574 51.8888 4.09438 50.4238 4.38C50.4034 4.38379 50.3836 4.38852 50.3637 4.39277C49.2661 4.64861 48.6939 5.97602 49.0652 6.98612C47.9789 7.45665 46.8402 7.77822 46.9315 6.74825C46.9494 6.55011 46.9641 6.4352 47.0412 6.26969C47.8442 6.06871 48.8822 5.46908 48.2532 4.63962C47.7709 4.00216 46.9267 4.99713 46.5366 5.56791C46.3957 5.57122 46.285 5.54758 46.2793 5.46482C46.2496 5.03023 46.3777 4.63915 46.1564 4.23577C45.8916 3.75531 45.2664 4.18754 45.0238 4.41311C44.6479 4.76116 45.0995 5.39673 45.4806 5.04206C45.491 5.03733 45.4986 5.03307 45.5071 5.02882C45.5043 5.06665 45.5024 5.10259 45.501 5.13805C45.4896 5.33762 45.465 5.53859 45.5109 5.73485C45.5861 6.05263 45.8717 6.22713 46.1772 6.30137C45.8935 7.30249 46.3777 8.19956 47.6039 8.17639C48.2225 8.16599 48.8812 7.9669 49.4979 7.66756C49.731 7.91961 50.0218 8.10404 50.3642 8.20335C50.9955 8.3873 51.8103 8.26388 52.7608 7.76592C52.7627 7.77254 52.7613 7.77916 52.7632 7.78578C52.8128 8.09222 53.0403 8.28374 53.6049 8.24591C54.4746 8.18821 55.2993 7.71721 56.003 7.09441C56.0484 7.19987 56.1179 7.29586 56.2191 7.3772C56.9426 7.95886 57.6747 7.75599 58.3953 7.38808C58.7084 8.25726 61.2303 7.27837 61.9728 6.26827C61.8773 7.33417 63.3702 7.26229 64.4767 6.62861C64.6654 7.23486 65.5573 7.39375 66.4222 7.15305C67.3548 6.89391 68.2552 6.17038 68.2102 5.04206C68.179 4.20787 67.2966 3.97852 66.4227 4.15443ZM49.8336 5.82044C49.9254 5.58778 50.149 5.36362 50.3642 5.23169C50.3826 5.22081 50.4006 5.20993 50.4186 5.20048C50.7066 5.04442 51.1279 5.09266 50.9444 5.56413C50.8678 5.76227 50.6546 5.99399 50.3642 6.22382C50.194 6.35859 49.9968 6.49289 49.7854 6.61868C49.7092 6.36001 49.7291 6.07911 49.8336 5.82044ZM66.9523 5.84456C66.9046 5.86915 66.8582 5.8961 66.8138 5.92637C66.8067 5.93157 66.7996 5.93488 66.7925 5.94055C66.7925 5.9415 66.792 5.9415 66.792 5.9415C66.749 5.97933 66.7074 6.01811 66.67 6.0602C66.6658 6.0654 66.661 6.07154 66.6568 6.07675C66.6544 6.07958 66.6544 6.07958 66.6521 6.08289C66.5911 6.17132 66.5121 6.24273 66.4227 6.29002C66.2643 6.3742 66.0747 6.38271 65.8992 6.28009C65.6547 6.13775 65.5304 5.77457 65.702 5.52724C65.8817 5.26573 66.112 5.04158 66.3972 4.89357L66.4222 4.88127C66.6842 4.76069 66.9968 4.83162 67.1495 5.09124C67.2957 5.33998 67.2191 5.70742 66.9523 5.84456Z" fill="#12110C"/>
</svg>
